solid OpenSCAD_Model
  facet normal 0 0 -1
    outer loop
      vertex -5.5 0 0
      vertex -5.16831 1.88111 0
      vertex -5.16831 -1.88111 0
    endloop
  endfacet
  facet normal 0 0 -1
    outer loop
      vertex -5.16831 -1.88111 0
      vertex -5.16831 1.88111 0
      vertex -4.21324 3.53533 0
    endloop
  endfacet
  facet normal 0 0 -1
    outer loop
      vertex -5.16831 -1.88111 0
      vertex -4.21324 3.53533 0
      vertex -2.75 4.76314 0
    endloop
  endfacet
  facet normal 0 0 -1
    outer loop
      vertex -5.16831 -1.88111 0
      vertex -2.75 4.76314 0
      vertex -0.955065 5.41644 0
    endloop
  endfacet
  facet normal 0 0 -1
    outer loop
      vertex -2.42705 1.76336 0
      vertex -0.955065 5.41644 0
      vertex 0.955065 5.41644 0
    endloop
  endfacet
  facet normal 0 0 -1
    outer loop
      vertex 0.927051 2.85317 0
      vertex 2.75 4.76314 0
      vertex 4.21324 3.53533 0
    endloop
  endfacet
  facet normal 0 0 -1
    outer loop
      vertex 2.42705 1.76336 0
      vertex 4.21324 3.53533 0
      vertex 5.16831 1.88111 0
    endloop
  endfacet
  facet normal 0 0 -1
    outer loop
      vertex 3 0 0
      vertex 5.16831 1.88111 0
      vertex 5.5 0 0
    endloop
  endfacet
  facet normal 0 0 -1
    outer loop
      vertex 2.42705 -1.76336 0
      vertex 5.5 0 0
      vertex 5.16831 -1.88111 0
    endloop
  endfacet
  facet normal 0 0 -1
    outer loop
      vertex 0.927051 -2.85317 0
      vertex 5.16831 -1.88111 0
      vertex 4.21324 -3.53533 0
    endloop
  endfacet
  facet normal 0 0 -1
    outer loop
      vertex -0.927051 -2.85317 0
      vertex 4.21324 -3.53533 0
      vertex 2.75 -4.76314 0
    endloop
  endfacet
  facet normal 0 0 -1
    outer loop
      vertex -5.16831 -1.88111 0
      vertex 2.75 -4.76314 0
      vertex 0.955065 -5.41644 0
    endloop
  endfacet
  facet normal 0 0 -1
    outer loop
      vertex -5.16831 -1.88111 0
      vertex 0.955065 -5.41644 0
      vertex -0.955065 -5.41644 0
    endloop
  endfacet
  facet normal 0 0 -1
    outer loop
      vertex -5.16831 -1.88111 0
      vertex -0.955065 -5.41644 0
      vertex -2.75 -4.76314 0
    endloop
  endfacet
  facet normal 0 0 -1
    outer loop
      vertex -5.16831 -1.88111 0
      vertex -2.75 -4.76314 0
      vertex -4.21324 -3.53533 0
    endloop
  endfacet
  facet normal 0 0 -1
    outer loop
      vertex -0.927051 -2.85317 0
      vertex -5.16831 -1.88111 0
      vertex -2.42705 -1.76336 0
    endloop
  endfacet
  facet normal 0 0 -1
    outer loop
      vertex 2.42705 -1.76336 0
      vertex 5.16831 -1.88111 0
      vertex 0.927051 -2.85317 0
    endloop
  endfacet
  facet normal 0 0 -1
    outer loop
      vertex -5.16831 -1.88111 0
      vertex -0.927051 -2.85317 0
      vertex 2.75 -4.76314 0
    endloop
  endfacet
  facet normal 0 0 -1
    outer loop
      vertex 3 0 0
      vertex 5.5 0 0
      vertex 2.42705 -1.76336 0
    endloop
  endfacet
  facet normal 0 0 -1
    outer loop
      vertex 0.927051 -2.85317 0
      vertex 4.21324 -3.53533 0
      vertex -0.927051 -2.85317 0
    endloop
  endfacet
  facet normal 0 0 -1
    outer loop
      vertex -2.42705 -1.76336 0
      vertex -5.16831 -1.88111 0
      vertex -3 0 0
    endloop
  endfacet
  facet normal 0 0 -1
    outer loop
      vertex -5.16831 -1.88111 0
      vertex -0.955065 5.41644 0
      vertex -2.42705 1.76336 0
    endloop
  endfacet
  facet normal 0 0 -1
    outer loop
      vertex -0.927051 2.85317 0
      vertex 0.955065 5.41644 0
      vertex 2.75 4.76314 0
    endloop
  endfacet
  facet normal 0 0 -1
    outer loop
      vertex -3 0 0
      vertex -5.16831 -1.88111 0
      vertex -2.42705 1.76336 0
    endloop
  endfacet
  facet normal 0 0 -1
    outer loop
      vertex -2.42705 1.76336 0
      vertex 0.955065 5.41644 0
      vertex -0.927051 2.85317 0
    endloop
  endfacet
  facet normal 0 0 -1
    outer loop
      vertex -0.927051 2.85317 0
      vertex 2.75 4.76314 0
      vertex 0.927051 2.85317 0
    endloop
  endfacet
  facet normal 0 0 -1
    outer loop
      vertex 0.927051 2.85317 0
      vertex 4.21324 3.53533 0
      vertex 2.42705 1.76336 0
    endloop
  endfacet
  facet normal 0 0 -1
    outer loop
      vertex 2.42705 1.76336 0
      vertex 5.16831 1.88111 0
      vertex 3 0 0
    endloop
  endfacet
  facet normal -0.984808 0.173648 0
    outer loop
      vertex -5.5 0 0
      vertex -5.5 0 3
      vertex -5.16831 1.88111 0
    endloop
  endfacet
  facet normal -0.984808 0.173648 0
    outer loop
      vertex -5.16831 1.88111 0
      vertex -5.5 0 3
      vertex -5.16831 1.88111 3
    endloop
  endfacet
  facet normal -0.984808 -0.173648 0
    outer loop
      vertex -5.5 0 0
      vertex -5.16831 -1.88111 0
      vertex -5.5 0 3
    endloop
  endfacet
  facet normal -0.984808 -0.173648 0
    outer loop
      vertex -5.5 0 3
      vertex -5.16831 -1.88111 0
      vertex -5.16831 -1.88111 3
    endloop
  endfacet
  facet normal -0.866025 -0.5 0
    outer loop
      vertex -5.16831 -1.88111 0
      vertex -4.21324 -3.53533 0
      vertex -5.16831 -1.88111 3
    endloop
  endfacet
  facet normal -0.866025 -0.5 0
    outer loop
      vertex -5.16831 -1.88111 3
      vertex -4.21324 -3.53533 0
      vertex -4.21324 -3.53533 3
    endloop
  endfacet
  facet normal -0.642788 -0.766044 0
    outer loop
      vertex -4.21324 -3.53533 3
      vertex -4.21324 -3.53533 0
      vertex -2.75 -4.76314 0
    endloop
  endfacet
  facet normal -0.642788 -0.766044 0
    outer loop
      vertex -2.75 -4.76314 3
      vertex -4.21324 -3.53533 3
      vertex -2.75 -4.76314 0
    endloop
  endfacet
  facet normal -0.34202 -0.939693 0
    outer loop
      vertex -2.75 -4.76314 3
      vertex -2.75 -4.76314 0
      vertex -0.955065 -5.41644 0
    endloop
  endfacet
  facet normal -0.34202 -0.939693 0
    outer loop
      vertex -0.955065 -5.41644 3
      vertex -2.75 -4.76314 3
      vertex -0.955065 -5.41644 0
    endloop
  endfacet
  facet normal 0 -1 0
    outer loop
      vertex -0.955065 -5.41644 3
      vertex -0.955065 -5.41644 0
      vertex 0.955065 -5.41644 0
    endloop
  endfacet
  facet normal 0 -1 0
    outer loop
      vertex 0.955065 -5.41644 3
      vertex -0.955065 -5.41644 3
      vertex 0.955065 -5.41644 0
    endloop
  endfacet
  facet normal 0.34202 -0.939693 0
    outer loop
      vertex 0.955065 -5.41644 3
      vertex 0.955065 -5.41644 0
      vertex 2.75 -4.76314 0
    endloop
  endfacet
  facet normal 0.34202 -0.939693 0
    outer loop
      vertex 2.75 -4.76314 3
      vertex 0.955065 -5.41644 3
      vertex 2.75 -4.76314 0
    endloop
  endfacet
  facet normal 0.642788 -0.766044 0
    outer loop
      vertex 2.75 -4.76314 3
      vertex 2.75 -4.76314 0
      vertex 4.21324 -3.53533 0
    endloop
  endfacet
  facet normal 0.642788 -0.766044 0
    outer loop
      vertex 4.21324 -3.53533 3
      vertex 2.75 -4.76314 3
      vertex 4.21324 -3.53533 0
    endloop
  endfacet
  facet normal 0.866025 -0.5 0
    outer loop
      vertex 4.21324 -3.53533 3
      vertex 4.21324 -3.53533 0
      vertex 5.16831 -1.88111 0
    endloop
  endfacet
  facet normal 0.866025 -0.5 0
    outer loop
      vertex 5.16831 -1.88111 3
      vertex 4.21324 -3.53533 3
      vertex 5.16831 -1.88111 0
    endloop
  endfacet
  facet normal 0.984808 -0.173648 0
    outer loop
      vertex 5.16831 -1.88111 3
      vertex 5.16831 -1.88111 0
      vertex 5.5 0 0
    endloop
  endfacet
  facet normal 0.984808 -0.173648 0
    outer loop
      vertex 5.5 0 3
      vertex 5.16831 -1.88111 3
      vertex 5.5 0 0
    endloop
  endfacet
  facet normal 0.984808 0.173648 0
    outer loop
      vertex 5.5 0 0
      vertex 5.16831 1.88111 0
      vertex 5.16831 1.88111 3
    endloop
  endfacet
  facet normal 0.984808 0.173648 0
    outer loop
      vertex 5.5 0 3
      vertex 5.5 0 0
      vertex 5.16831 1.88111 3
    endloop
  endfacet
  facet normal 0.866025 0.5 0
    outer loop
      vertex 5.16831 1.88111 0
      vertex 4.21324 3.53533 0
      vertex 4.21324 3.53533 3
    endloop
  endfacet
  facet normal 0.866025 0.5 0
    outer loop
      vertex 5.16831 1.88111 3
      vertex 5.16831 1.88111 0
      vertex 4.21324 3.53533 3
    endloop
  endfacet
  facet normal 0.642788 0.766044 0
    outer loop
      vertex 2.75 4.76314 0
      vertex 2.75 4.76314 3
      vertex 4.21324 3.53533 0
    endloop
  endfacet
  facet normal 0.642788 0.766044 0
    outer loop
      vertex 4.21324 3.53533 0
      vertex 2.75 4.76314 3
      vertex 4.21324 3.53533 3
    endloop
  endfacet
  facet normal 0.34202 0.939693 0
    outer loop
      vertex 0.955065 5.41644 0
      vertex 0.955065 5.41644 3
      vertex 2.75 4.76314 0
    endloop
  endfacet
  facet normal 0.34202 0.939693 0
    outer loop
      vertex 2.75 4.76314 0
      vertex 0.955065 5.41644 3
      vertex 2.75 4.76314 3
    endloop
  endfacet
  facet normal 0 1 0
    outer loop
      vertex -0.955065 5.41644 0
      vertex -0.955065 5.41644 3
      vertex 0.955065 5.41644 0
    endloop
  endfacet
  facet normal 0 1 0
    outer loop
      vertex 0.955065 5.41644 0
      vertex -0.955065 5.41644 3
      vertex 0.955065 5.41644 3
    endloop
  endfacet
  facet normal -0.34202 0.939693 0
    outer loop
      vertex -2.75 4.76314 0
      vertex -2.75 4.76314 3
      vertex -0.955065 5.41644 0
    endloop
  endfacet
  facet normal -0.34202 0.939693 0
    outer loop
      vertex -0.955065 5.41644 0
      vertex -2.75 4.76314 3
      vertex -0.955065 5.41644 3
    endloop
  endfacet
  facet normal -0.642788 0.766044 0
    outer loop
      vertex -4.21324 3.53533 0
      vertex -4.21324 3.53533 3
      vertex -2.75 4.76314 0
    endloop
  endfacet
  facet normal -0.642788 0.766044 0
    outer loop
      vertex -2.75 4.76314 0
      vertex -4.21324 3.53533 3
      vertex -2.75 4.76314 3
    endloop
  endfacet
  facet normal -0.866025 0.5 0
    outer loop
      vertex -5.16831 1.88111 0
      vertex -5.16831 1.88111 3
      vertex -4.21324 3.53533 0
    endloop
  endfacet
  facet normal -0.866025 0.5 0
    outer loop
      vertex -4.21324 3.53533 0
      vertex -5.16831 1.88111 3
      vertex -4.21324 3.53533 3
    endloop
  endfacet
  facet normal 0.951057 -0.309017 0
    outer loop
      vertex -2.42705 1.76336 0
      vertex -2.42705 1.76336 8.5
      vertex -3 0 8.5
    endloop
  endfacet
  facet normal 0.951057 -0.309017 0
    outer loop
      vertex -3 0 0
      vertex -2.42705 1.76336 0
      vertex -3 0 8.5
    endloop
  endfacet
  facet normal 0.951057 0.309017 0
    outer loop
      vertex -3 0 8.5
      vertex -2.42705 -1.76336 8.5
      vertex -2.42705 -1.76336 0
    endloop
  endfacet
  facet normal 0.951057 0.309017 0
    outer loop
      vertex -3 0 0
      vertex -3 0 8.5
      vertex -2.42705 -1.76336 0
    endloop
  endfacet
  facet normal 0.587785 -0.809017 0
    outer loop
      vertex -0.927051 2.85317 0
      vertex -0.927051 2.85317 8.5
      vertex -2.42705 1.76336 8.5
    endloop
  endfacet
  facet normal 0.587785 -0.809017 0
    outer loop
      vertex -2.42705 1.76336 0
      vertex -0.927051 2.85317 0
      vertex -2.42705 1.76336 8.5
    endloop
  endfacet
  facet normal 0 -1 0
    outer loop
      vertex 0.927051 2.85317 0
      vertex 0.927051 2.85317 8.5
      vertex -0.927051 2.85317 8.5
    endloop
  endfacet
  facet normal 0 -1 0
    outer loop
      vertex -0.927051 2.85317 0
      vertex 0.927051 2.85317 0
      vertex -0.927051 2.85317 8.5
    endloop
  endfacet
  facet normal -0.587785 -0.809017 0
    outer loop
      vertex 2.42705 1.76336 0
      vertex 2.42705 1.76336 8.5
      vertex 0.927051 2.85317 8.5
    endloop
  endfacet
  facet normal -0.587785 -0.809017 0
    outer loop
      vertex 0.927051 2.85317 0
      vertex 2.42705 1.76336 0
      vertex 0.927051 2.85317 8.5
    endloop
  endfacet
  facet normal -0.951057 -0.309017 0
    outer loop
      vertex 3 0 8.5
      vertex 2.42705 1.76336 8.5
      vertex 3 0 0
    endloop
  endfacet
  facet normal -0.951057 -0.309017 0
    outer loop
      vertex 3 0 0
      vertex 2.42705 1.76336 8.5
      vertex 2.42705 1.76336 0
    endloop
  endfacet
  facet normal -0.951057 0.309017 0
    outer loop
      vertex 3 0 8.5
      vertex 3 0 0
      vertex 2.42705 -1.76336 8.5
    endloop
  endfacet
  facet normal -0.951057 0.309017 0
    outer loop
      vertex 2.42705 -1.76336 8.5
      vertex 3 0 0
      vertex 2.42705 -1.76336 0
    endloop
  endfacet
  facet normal -0.587785 0.809017 0
    outer loop
      vertex 2.42705 -1.76336 8.5
      vertex 2.42705 -1.76336 0
      vertex 0.927051 -2.85317 8.5
    endloop
  endfacet
  facet normal -0.587785 0.809017 0
    outer loop
      vertex 0.927051 -2.85317 8.5
      vertex 2.42705 -1.76336 0
      vertex 0.927051 -2.85317 0
    endloop
  endfacet
  facet normal 0 1 0
    outer loop
      vertex 0.927051 -2.85317 8.5
      vertex 0.927051 -2.85317 0
      vertex -0.927051 -2.85317 8.5
    endloop
  endfacet
  facet normal 0 1 0
    outer loop
      vertex -0.927051 -2.85317 8.5
      vertex 0.927051 -2.85317 0
      vertex -0.927051 -2.85317 0
    endloop
  endfacet
  facet normal 0.587785 0.809017 0
    outer loop
      vertex -0.927051 -2.85317 8.5
      vertex -0.927051 -2.85317 0
      vertex -2.42705 -1.76336 8.5
    endloop
  endfacet
  facet normal 0.587785 0.809017 0
    outer loop
      vertex -2.42705 -1.76336 8.5
      vertex -0.927051 -2.85317 0
      vertex -2.42705 -1.76336 0
    endloop
  endfacet
  facet normal 0 0 1
    outer loop
      vertex -5.16831 1.88111 3
      vertex -5.5 0 3
      vertex -5.16831 -1.88111 3
    endloop
  endfacet
  facet normal 0 0 1
    outer loop
      vertex -2.75 -4.76314 3
      vertex -5.16831 1.88111 3
      vertex -4.21324 -3.53533 3
    endloop
  endfacet
  facet normal 0 0 1
    outer loop
      vertex -4.21324 -3.53533 3
      vertex -5.16831 1.88111 3
      vertex -5.16831 -1.88111 3
    endloop
  endfacet
  facet normal 0 0 1
    outer loop
      vertex -3.88377 -0.957263 3
      vertex -5.16831 1.88111 3
      vertex -2.75 -4.76314 3
    endloop
  endfacet
  facet normal 0 0 1
    outer loop
      vertex 2.27226 3.29194 3
      vertex 5.16831 1.88111 3
      vertex 4.21324 3.53533 3
    endloop
  endfacet
  facet normal 0 0 1
    outer loop
      vertex -2.99404 2.65249 3
      vertex -1.41842 3.74006 3
      vertex -5.16831 1.88111 3
    endloop
  endfacet
  facet normal 0 0 1
    outer loop
      vertex 0.482147 3.97083 3
      vertex 4.21324 3.53533 3
      vertex 2.75 4.76314 3
    endloop
  endfacet
  facet normal 0 0 1
    outer loop
      vertex -0.955065 5.41644 3
      vertex -5.16831 1.88111 3
      vertex 0.955065 5.41644 3
    endloop
  endfacet
  facet normal 0 0 1
    outer loop
      vertex -2.75 4.76314 3
      vertex -5.16831 1.88111 3
      vertex -0.955065 5.41644 3
    endloop
  endfacet
  facet normal 0 0 1
    outer loop
      vertex -4.21324 3.53533 3
      vertex -5.16831 1.88111 3
      vertex -2.75 4.76314 3
    endloop
  endfacet
  facet normal 0 0 1
    outer loop
      vertex -2.99404 -2.65249 3
      vertex -3.88377 -0.957263 3
      vertex -2.75 -4.76314 3
    endloop
  endfacet
  facet normal 0 0 1
    outer loop
      vertex 0.482147 -3.97083 3
      vertex -1.41842 -3.74006 3
      vertex 0.955065 -5.41644 3
    endloop
  endfacet
  facet normal 0 0 1
    outer loop
      vertex 2.27226 3.29194 3
      vertex 3.54182 1.85889 3
      vertex 5.16831 1.88111 3
    endloop
  endfacet
  facet normal 0 0 1
    outer loop
      vertex 0.482147 3.97083 3
      vertex 2.27226 3.29194 3
      vertex 4.21324 3.53533 3
    endloop
  endfacet
  facet normal 0 0 1
    outer loop
      vertex 0.955065 5.41644 3
      vertex -1.41842 3.74006 3
      vertex 2.75 4.76314 3
    endloop
  endfacet
  facet normal 0 0 1
    outer loop
      vertex 0.955065 5.41644 3
      vertex -5.16831 1.88111 3
      vertex -1.41842 3.74006 3
    endloop
  endfacet
  facet normal 0 0 1
    outer loop
      vertex -1.41842 3.74006 3
      vertex 0.482147 3.97083 3
      vertex 2.75 4.76314 3
    endloop
  endfacet
  facet normal 0 0 1
    outer loop
      vertex 3.54182 -1.85889 3
      vertex 2.27226 -3.29194 3
      vertex 4.21324 -3.53533 3
    endloop
  endfacet
  facet normal 0 0 1
    outer loop
      vertex 5.16831 1.88111 3
      vertex 3.54182 1.85889 3
      vertex 5.5 0 3
    endloop
  endfacet
  facet normal 0 0 1
    outer loop
      vertex 5.5 0 3
      vertex 4 0 3
      vertex 5.16831 -1.88111 3
    endloop
  endfacet
  facet normal 0 0 1
    outer loop
      vertex 5.16831 -1.88111 3
      vertex 3.54182 -1.85889 3
      vertex 4.21324 -3.53533 3
    endloop
  endfacet
  facet normal 0 0 1
    outer loop
      vertex 4.21324 -3.53533 3
      vertex 2.27226 -3.29194 3
      vertex 2.75 -4.76314 3
    endloop
  endfacet
  facet normal 0 0 1
    outer loop
      vertex 2.75 -4.76314 3
      vertex 0.482147 -3.97083 3
      vertex 0.955065 -5.41644 3
    endloop
  endfacet
  facet normal 0 0 1
    outer loop
      vertex 3.54182 1.85889 3
      vertex 4 0 3
      vertex 5.5 0 3
    endloop
  endfacet
  facet normal 0 0 1
    outer loop
      vertex 0.955065 -5.41644 3
      vertex -1.41842 -3.74006 3
      vertex -0.955065 -5.41644 3
    endloop
  endfacet
  facet normal 0 0 1
    outer loop
      vertex 4 0 3
      vertex 3.54182 -1.85889 3
      vertex 5.16831 -1.88111 3
    endloop
  endfacet
  facet normal 0 0 1
    outer loop
      vertex -0.955065 -5.41644 3
      vertex -2.99404 -2.65249 3
      vertex -2.75 -4.76314 3
    endloop
  endfacet
  facet normal 0 0 1
    outer loop
      vertex -3.88377 -0.957263 3
      vertex -3.88377 0.957263 3
      vertex -5.16831 1.88111 3
    endloop
  endfacet
  facet normal 0 0 1
    outer loop
      vertex -1.41842 -3.74006 3
      vertex -2.99404 -2.65249 3
      vertex -0.955065 -5.41644 3
    endloop
  endfacet
  facet normal 0 0 1
    outer loop
      vertex 2.27226 -3.29194 3
      vertex 0.482147 -3.97083 3
      vertex 2.75 -4.76314 3
    endloop
  endfacet
  facet normal 0 0 1
    outer loop
      vertex -3.88377 0.957263 3
      vertex -2.99404 2.65249 3
      vertex -5.16831 1.88111 3
    endloop
  endfacet
  facet normal 0 0 -1
    outer loop
      vertex -0.927051 2.85317 8.5
      vertex 0.927051 2.85317 8.5
      vertex -2.42705 1.76336 8.5
    endloop
  endfacet
  facet normal 0 0 -1
    outer loop
      vertex -2.42705 1.76336 8.5
      vertex 0.927051 2.85317 8.5
      vertex 2.42705 1.76336 8.5
    endloop
  endfacet
  facet normal 0 0 -1
    outer loop
      vertex 0.463525 1.42658 8.5
      vertex 2.42705 1.76336 8.5
      vertex 3 0 8.5
    endloop
  endfacet
  facet normal 0 0 -1
    outer loop
      vertex 1.5 0 8.5
      vertex 3 0 8.5
      vertex 2.42705 -1.76336 8.5
    endloop
  endfacet
  facet normal 0 0 -1
    outer loop
      vertex 0.463525 -1.42658 8.5
      vertex 2.42705 -1.76336 8.5
      vertex 0.927051 -2.85317 8.5
    endloop
  endfacet
  facet normal 0 0 -1
    outer loop
      vertex -1.21352 -0.881678 8.5
      vertex 0.927051 -2.85317 8.5
      vertex -0.927051 -2.85317 8.5
    endloop
  endfacet
  facet normal 0 0 -1
    outer loop
      vertex -2.42705 1.76336 8.5
      vertex -0.927051 -2.85317 8.5
      vertex -2.42705 -1.76336 8.5
    endloop
  endfacet
  facet normal 0 0 -1
    outer loop
      vertex -2.42705 1.76336 8.5
      vertex -2.42705 -1.76336 8.5
      vertex -3 0 8.5
    endloop
  endfacet
  facet normal 0 0 -1
    outer loop
      vertex 0.463525 -1.42658 8.5
      vertex 0.927051 -2.85317 8.5
      vertex -1.21352 -0.881678 8.5
    endloop
  endfacet
  facet normal 0 0 -1
    outer loop
      vertex -2.42705 1.76336 8.5
      vertex -1.21352 -0.881678 8.5
      vertex -0.927051 -2.85317 8.5
    endloop
  endfacet
  facet normal 0 0 -1
    outer loop
      vertex 0.463525 1.42658 8.5
      vertex 3 0 8.5
      vertex 1.5 0 8.5
    endloop
  endfacet
  facet normal 0 0 -1
    outer loop
      vertex -2.42705 1.76336 8.5
      vertex 2.42705 1.76336 8.5
      vertex 0.463525 1.42658 8.5
    endloop
  endfacet
  facet normal 0 0 -1
    outer loop
      vertex -1.21352 0.881678 8.5
      vertex -2.42705 1.76336 8.5
      vertex 0.463525 1.42658 8.5
    endloop
  endfacet
  facet normal 0 0 -1
    outer loop
      vertex -1.21352 -0.881678 8.5
      vertex -2.42705 1.76336 8.5
      vertex -1.21352 0.881678 8.5
    endloop
  endfacet
  facet normal 0 0 -1
    outer loop
      vertex 1.5 0 8.5
      vertex 2.42705 -1.76336 8.5
      vertex 0.463525 -1.42658 8.5
    endloop
  endfacet
  facet normal -1 0 0
    outer loop
      vertex -3.88377 -0.957263 3
      vertex -3.88377 -0.957263 14
      vertex -3.88377 0.957263 3
    endloop
  endfacet
  facet normal -1 0 0
    outer loop
      vertex -3.88377 0.957263 3
      vertex -3.88377 -0.957263 14
      vertex -3.88377 0.957263 14
    endloop
  endfacet
  facet normal -0.885456 -0.464723 0
    outer loop
      vertex -3.88377 -0.957263 3
      vertex -2.99404 -2.65249 3
      vertex -3.88377 -0.957263 14
    endloop
  endfacet
  facet normal -0.885456 -0.464723 0
    outer loop
      vertex -3.88377 -0.957263 14
      vertex -2.99404 -2.65249 3
      vertex -2.99404 -2.65249 14
    endloop
  endfacet
  facet normal -0.568065 -0.822984 0
    outer loop
      vertex -2.99404 -2.65249 14
      vertex -2.99404 -2.65249 3
      vertex -1.41842 -3.74006 3
    endloop
  endfacet
  facet normal -0.568065 -0.822984 0
    outer loop
      vertex -1.41842 -3.74006 14
      vertex -2.99404 -2.65249 14
      vertex -1.41842 -3.74006 3
    endloop
  endfacet
  facet normal -0.120536 -0.992709 0
    outer loop
      vertex -1.41842 -3.74006 14
      vertex -1.41842 -3.74006 3
      vertex 0.482147 -3.97083 3
    endloop
  endfacet
  facet normal -0.120536 -0.992709 0
    outer loop
      vertex 0.482147 -3.97083 14
      vertex -1.41842 -3.74006 14
      vertex 0.482147 -3.97083 3
    endloop
  endfacet
  facet normal 0.354605 -0.935016 0
    outer loop
      vertex 0.482147 -3.97083 14
      vertex 0.482147 -3.97083 3
      vertex 2.27226 -3.29194 3
    endloop
  endfacet
  facet normal 0.354605 -0.935016 0
    outer loop
      vertex 2.27226 -3.29194 14
      vertex 0.482147 -3.97083 14
      vertex 2.27226 -3.29194 3
    endloop
  endfacet
  facet normal 0.748511 -0.663123 0
    outer loop
      vertex 2.27226 -3.29194 14
      vertex 2.27226 -3.29194 3
      vertex 3.54182 -1.85889 3
    endloop
  endfacet
  facet normal 0.748511 -0.663123 0
    outer loop
      vertex 3.54182 -1.85889 14
      vertex 2.27226 -3.29194 14
      vertex 3.54182 -1.85889 3
    endloop
  endfacet
  facet normal 0.970942 -0.239316 0
    outer loop
      vertex 3.54182 -1.85889 14
      vertex 3.54182 -1.85889 3
      vertex 4 0 3
    endloop
  endfacet
  facet normal 0.970942 -0.239316 0
    outer loop
      vertex 4 0 14
      vertex 3.54182 -1.85889 14
      vertex 4 0 3
    endloop
  endfacet
  facet normal 0.970942 0.239316 0
    outer loop
      vertex 4 0 3
      vertex 3.54182 1.85889 3
      vertex 3.54182 1.85889 14
    endloop
  endfacet
  facet normal 0.970942 0.239316 0
    outer loop
      vertex 4 0 14
      vertex 4 0 3
      vertex 3.54182 1.85889 14
    endloop
  endfacet
  facet normal 0.748511 0.663123 0
    outer loop
      vertex 3.54182 1.85889 3
      vertex 2.27226 3.29194 3
      vertex 2.27226 3.29194 14
    endloop
  endfacet
  facet normal 0.748511 0.663123 0
    outer loop
      vertex 3.54182 1.85889 14
      vertex 3.54182 1.85889 3
      vertex 2.27226 3.29194 14
    endloop
  endfacet
  facet normal 0.354605 0.935016 0
    outer loop
      vertex 0.482147 3.97083 3
      vertex 0.482147 3.97083 14
      vertex 2.27226 3.29194 3
    endloop
  endfacet
  facet normal 0.354605 0.935016 0
    outer loop
      vertex 2.27226 3.29194 3
      vertex 0.482147 3.97083 14
      vertex 2.27226 3.29194 14
    endloop
  endfacet
  facet normal -0.120536 0.992709 0
    outer loop
      vertex -1.41842 3.74006 3
      vertex -1.41842 3.74006 14
      vertex 0.482147 3.97083 3
    endloop
  endfacet
  facet normal -0.120536 0.992709 0
    outer loop
      vertex 0.482147 3.97083 3
      vertex -1.41842 3.74006 14
      vertex 0.482147 3.97083 14
    endloop
  endfacet
  facet normal -0.568065 0.822984 0
    outer loop
      vertex -2.99404 2.65249 3
      vertex -2.99404 2.65249 14
      vertex -1.41842 3.74006 3
    endloop
  endfacet
  facet normal -0.568065 0.822984 0
    outer loop
      vertex -1.41842 3.74006 3
      vertex -2.99404 2.65249 14
      vertex -1.41842 3.74006 14
    endloop
  endfacet
  facet normal -0.885456 0.464723 0
    outer loop
      vertex -3.88377 0.957263 3
      vertex -3.88377 0.957263 14
      vertex -2.99404 2.65249 3
    endloop
  endfacet
  facet normal -0.885456 0.464723 0
    outer loop
      vertex -2.99404 2.65249 3
      vertex -3.88377 0.957263 14
      vertex -2.99404 2.65249 14
    endloop
  endfacet
  facet normal 1 0 0
    outer loop
      vertex -1.21352 0.881678 8.5
      vertex -1.21352 0.881678 14
      vertex -1.21352 -0.881678 14
    endloop
  endfacet
  facet normal 1 0 0
    outer loop
      vertex -1.21352 -0.881678 8.5
      vertex -1.21352 0.881678 8.5
      vertex -1.21352 -0.881678 14
    endloop
  endfacet
  facet normal 0.309017 0.951056 0
    outer loop
      vertex 0.463525 -1.42658 14
      vertex 0.463525 -1.42658 8.5
      vertex -1.21352 -0.881678 14
    endloop
  endfacet
  facet normal 0.309017 0.951056 0
    outer loop
      vertex -1.21352 -0.881678 14
      vertex 0.463525 -1.42658 8.5
      vertex -1.21352 -0.881678 8.5
    endloop
  endfacet
  facet normal 0.309017 -0.951056 0
    outer loop
      vertex 0.463525 1.42658 8.5
      vertex 0.463525 1.42658 14
      vertex -1.21352 0.881678 14
    endloop
  endfacet
  facet normal 0.309017 -0.951056 0
    outer loop
      vertex -1.21352 0.881678 8.5
      vertex 0.463525 1.42658 8.5
      vertex -1.21352 0.881678 14
    endloop
  endfacet
  facet normal -0.809017 -0.587785 0
    outer loop
      vertex 1.5 0 14
      vertex 0.463525 1.42658 14
      vertex 1.5 0 8.5
    endloop
  endfacet
  facet normal -0.809017 -0.587785 0
    outer loop
      vertex 1.5 0 8.5
      vertex 0.463525 1.42658 14
      vertex 0.463525 1.42658 8.5
    endloop
  endfacet
  facet normal -0.809017 0.587785 0
    outer loop
      vertex 1.5 0 14
      vertex 1.5 0 8.5
      vertex 0.463525 -1.42658 14
    endloop
  endfacet
  facet normal -0.809017 0.587785 0
    outer loop
      vertex 0.463525 -1.42658 14
      vertex 1.5 0 8.5
      vertex 0.463525 -1.42658 8.5
    endloop
  endfacet
  facet normal 0 0 1
    outer loop
      vertex -3.88377 0.957263 14
      vertex -3.88377 -0.957263 14
      vertex -2.99404 -2.65249 14
    endloop
  endfacet
  facet normal 0 0 1
    outer loop
      vertex 0.482147 -3.97083 14
      vertex -3.88377 0.957263 14
      vertex -1.41842 -3.74006 14
    endloop
  endfacet
  facet normal 0 0 1
    outer loop
      vertex -1.41842 -3.74006 14
      vertex -3.88377 0.957263 14
      vertex -2.99404 -2.65249 14
    endloop
  endfacet
  facet normal 0 0 1
    outer loop
      vertex 2.27226 -3.29194 14
      vertex -3.88377 0.957263 14
      vertex 0.482147 -3.97083 14
    endloop
  endfacet
  facet normal 0 0 1
    outer loop
      vertex -1.21352 -0.881678 14
      vertex -3.88377 0.957263 14
      vertex 2.27226 -3.29194 14
    endloop
  endfacet
  facet normal 0 0 1
    outer loop
      vertex 0.463525 1.42658 14
      vertex 1.5 0 14
      vertex 4 0 14
    endloop
  endfacet
  facet normal 0 0 1
    outer loop
      vertex 2.27226 3.29194 14
      vertex -3.88377 0.957263 14
      vertex 3.54182 1.85889 14
    endloop
  endfacet
  facet normal 0 0 1
    outer loop
      vertex 0.482147 3.97083 14
      vertex -3.88377 0.957263 14
      vertex 2.27226 3.29194 14
    endloop
  endfacet
  facet normal 0 0 1
    outer loop
      vertex -1.41842 3.74006 14
      vertex -3.88377 0.957263 14
      vertex 0.482147 3.97083 14
    endloop
  endfacet
  facet normal 0 0 1
    outer loop
      vertex -2.99404 2.65249 14
      vertex -3.88377 0.957263 14
      vertex -1.41842 3.74006 14
    endloop
  endfacet
  facet normal 0 0 1
    outer loop
      vertex 0.463525 -1.42658 14
      vertex -1.21352 -0.881678 14
      vertex 2.27226 -3.29194 14
    endloop
  endfacet
  facet normal 0 0 1
    outer loop
      vertex 0.463525 1.42658 14
      vertex -3.88377 0.957263 14
      vertex -1.21352 0.881678 14
    endloop
  endfacet
  facet normal 0 0 1
    outer loop
      vertex 1.5 0 14
      vertex 0.463525 -1.42658 14
      vertex 3.54182 -1.85889 14
    endloop
  endfacet
  facet normal 0 0 1
    outer loop
      vertex 3.54182 1.85889 14
      vertex -3.88377 0.957263 14
      vertex 0.463525 1.42658 14
    endloop
  endfacet
  facet normal 0 0 1
    outer loop
      vertex 4 0 14
      vertex 1.5 0 14
      vertex 3.54182 -1.85889 14
    endloop
  endfacet
  facet normal 0 0 1
    outer loop
      vertex 0.463525 1.42658 14
      vertex 4 0 14
      vertex 3.54182 1.85889 14
    endloop
  endfacet
  facet normal 0 0 1
    outer loop
      vertex 3.54182 -1.85889 14
      vertex 0.463525 -1.42658 14
      vertex 2.27226 -3.29194 14
    endloop
  endfacet
  facet normal 0 0 1
    outer loop
      vertex -1.21352 -0.881678 14
      vertex -1.21352 0.881678 14
      vertex -3.88377 0.957263 14
    endloop
  endfacet
endsolid OpenSCAD_Model
