solid OpenSCAD_Model
  facet normal -0.866025 -1.11022e-016 0.5
    outer loop
      vertex -24.5 0.48 5
      vertex -21.6132 0.48 10
      vertex -24.5 4.48 5
    endloop
  endfacet
  facet normal -0.866025 0 0.5
    outer loop
      vertex -24.5 4.48 5
      vertex -21.6132 0.48 10
      vertex -21.6132 4.48 10
    endloop
  endfacet
  facet normal 0 -1 0
    outer loop
      vertex -21.9271 0.48 3.23664
      vertex -24.5 0.48 5
      vertex -21.6132 0.48 0
    endloop
  endfacet
  facet normal 0 -1 0
    outer loop
      vertex -21.5074 0.48 2.77057
      vertex -21.9271 0.48 3.23664
      vertex -21.6132 0.48 0
    endloop
  endfacet
  facet normal 0 -1 0
    outer loop
      vertex -22.4344 0.48 5.62373
      vertex -22.2406 0.48 6.22021
      vertex -21.6132 0.48 10
    endloop
  endfacet
  facet normal 0 -1 0
    outer loop
      vertex -16.5 0.48 5
      vertex -16.5656 0.48 4.37627
      vertex -16.5 0.48 0
    endloop
  endfacet
  facet normal 0 -1 0
    outer loop
      vertex -16.5656 0.48 4.37627
      vertex -16.7594 0.48 3.77979
      vertex -16.5 0.48 0
    endloop
  endfacet
  facet normal 0 -1 0
    outer loop
      vertex -16.7594 0.48 3.77979
      vertex -17.0729 0.48 3.23664
      vertex -16.5 0.48 0
    endloop
  endfacet
  facet normal 0 -1 0
    outer loop
      vertex -17.0729 0.48 3.23664
      vertex -17.4926 0.48 2.77057
      vertex -16.5 0.48 0
    endloop
  endfacet
  facet normal -0 -1 -0
    outer loop
      vertex -19.8136 0.48 7.98357
      vertex -19.1864 0.48 7.98357
      vertex -21.6132 0.48 10
    endloop
  endfacet
  facet normal 0 -1 0
    outer loop
      vertex -16.5 0.48 0
      vertex -18 0.48 2.40192
      vertex -21.6132 0.48 0
    endloop
  endfacet
  facet normal 0 -1 0
    outer loop
      vertex -18 0.48 2.40192
      vertex -18.5729 0.48 2.14683
      vertex -21.6132 0.48 0
    endloop
  endfacet
  facet normal 0 -1 0
    outer loop
      vertex -18.5729 0.48 2.14683
      vertex -19.1864 0.48 2.01643
      vertex -21.6132 0.48 0
    endloop
  endfacet
  facet normal 0 -1 0
    outer loop
      vertex -19.1864 0.48 2.01643
      vertex -19.8136 0.48 2.01643
      vertex -21.6132 0.48 0
    endloop
  endfacet
  facet normal 0 -1 0
    outer loop
      vertex -19.8136 0.48 2.01643
      vertex -20.4271 0.48 2.14683
      vertex -21.6132 0.48 0
    endloop
  endfacet
  facet normal 0 -1 0
    outer loop
      vertex -20.4271 0.48 2.14683
      vertex -21 0.48 2.40192
      vertex -21.6132 0.48 0
    endloop
  endfacet
  facet normal 0 -1 0
    outer loop
      vertex -21 0.48 2.40192
      vertex -21.5074 0.48 2.77057
      vertex -21.6132 0.48 0
    endloop
  endfacet
  facet normal 0 -1 0
    outer loop
      vertex -22.2406 0.48 3.77979
      vertex -24.5 0.48 5
      vertex -21.9271 0.48 3.23664
    endloop
  endfacet
  facet normal 0 -1 0
    outer loop
      vertex -22.4344 0.48 4.37627
      vertex -24.5 0.48 5
      vertex -22.2406 0.48 3.77979
    endloop
  endfacet
  facet normal 0 -1 0
    outer loop
      vertex -22.5 0.48 5
      vertex -24.5 0.48 5
      vertex -22.4344 0.48 4.37627
    endloop
  endfacet
  facet normal 0 -1 0
    outer loop
      vertex -22.4344 0.48 5.62373
      vertex -24.5 0.48 5
      vertex -22.5 0.48 5
    endloop
  endfacet
  facet normal 0 -1 0
    outer loop
      vertex -21.6132 0.48 10
      vertex -24.5 0.48 5
      vertex -22.4344 0.48 5.62373
    endloop
  endfacet
  facet normal 0 -1 0
    outer loop
      vertex -21.9271 0.48 6.76336
      vertex -21.5074 0.48 7.22943
      vertex -21.6132 0.48 10
    endloop
  endfacet
  facet normal 0 -1 -0
    outer loop
      vertex -21 0.48 7.59808
      vertex -20.4271 0.48 7.85317
      vertex -21.6132 0.48 10
    endloop
  endfacet
  facet normal 0 -1 -0
    outer loop
      vertex -20.4271 0.48 7.85317
      vertex -19.8136 0.48 7.98357
      vertex -21.6132 0.48 10
    endloop
  endfacet
  facet normal 0 -1 0
    outer loop
      vertex -22.2406 0.48 6.22021
      vertex -21.9271 0.48 6.76336
      vertex -21.6132 0.48 10
    endloop
  endfacet
  facet normal 0 -1 0
    outer loop
      vertex -18.5729 0.48 7.85317
      vertex -21.6132 0.48 10
      vertex -19.1864 0.48 7.98357
    endloop
  endfacet
  facet normal 0 -1 0
    outer loop
      vertex -18 0.48 7.59808
      vertex -21.6132 0.48 10
      vertex -18.5729 0.48 7.85317
    endloop
  endfacet
  facet normal 0 -1 0
    outer loop
      vertex -16.5 0.48 10
      vertex -21.6132 0.48 10
      vertex -18 0.48 7.59808
    endloop
  endfacet
  facet normal 0 -1 0
    outer loop
      vertex -16.5 0.48 10
      vertex -18 0.48 7.59808
      vertex -17.4926 0.48 7.22943
    endloop
  endfacet
  facet normal 0 -1 0
    outer loop
      vertex -16.5 0.48 10
      vertex -17.4926 0.48 7.22943
      vertex -17.0729 0.48 6.76336
    endloop
  endfacet
  facet normal 0 -1 0
    outer loop
      vertex -16.5 0.48 10
      vertex -17.0729 0.48 6.76336
      vertex -16.7594 0.48 6.22021
    endloop
  endfacet
  facet normal 0 -1 0
    outer loop
      vertex -16.5 0.48 10
      vertex -16.7594 0.48 6.22021
      vertex -16.5656 0.48 5.62373
    endloop
  endfacet
  facet normal 0 -1 0
    outer loop
      vertex -16.5 0.48 10
      vertex -16.5656 0.48 5.62373
      vertex -16.5 0.48 5
    endloop
  endfacet
  facet normal 0 -1 0
    outer loop
      vertex -17.4926 0.48 2.77057
      vertex -18 0.48 2.40192
      vertex -16.5 0.48 0
    endloop
  endfacet
  facet normal 0 -1 -0
    outer loop
      vertex -21.5074 0.48 7.22943
      vertex -21 0.48 7.59808
      vertex -21.6132 0.48 10
    endloop
  endfacet
  facet normal -0.866025 1.11022e-016 -0.5
    outer loop
      vertex -24.5 0.48 5
      vertex -24.5 4.48 5
      vertex -21.6132 0.48 0
    endloop
  endfacet
  facet normal -0.866025 7.69185e-016 -0.5
    outer loop
      vertex -21.6132 0.48 0
      vertex -24.5 4.48 5
      vertex -21.6132 4.48 0
    endloop
  endfacet
  facet normal 0 1 0
    outer loop
      vertex -24.5 4.48 5
      vertex -21.6132 4.48 10
      vertex -21.6132 4.48 0
    endloop
  endfacet
  facet normal 0 1 0
    outer loop
      vertex -18.634 4.48 6.5
      vertex -21.6132 4.48 10
      vertex -12.5 4.48 10
    endloop
  endfacet
  facet normal 0 1 0
    outer loop
      vertex -21.6132 4.48 0
      vertex -12.5 4.48 10
      vertex -12.5 4.48 0
    endloop
  endfacet
  facet normal 0 1 0
    outer loop
      vertex -21.6132 4.48 0
      vertex -21.6132 4.48 10
      vertex -21.2321 4.48 5
    endloop
  endfacet
  facet normal 0 1 0
    outer loop
      vertex -21.6132 4.48 0
      vertex -21.2321 4.48 5
      vertex -20.366 4.48 3.5
    endloop
  endfacet
  facet normal 0 1 0
    outer loop
      vertex -21.6132 4.48 0
      vertex -20.366 4.48 3.5
      vertex -18.634 4.48 3.5
    endloop
  endfacet
  facet normal 0 1 0
    outer loop
      vertex -21.6132 4.48 0
      vertex -18.634 4.48 3.5
      vertex -12.5 4.48 10
    endloop
  endfacet
  facet normal 0 1 0
    outer loop
      vertex -18.634 4.48 3.5
      vertex -17.7679 4.48 5
      vertex -12.5 4.48 10
    endloop
  endfacet
  facet normal 0 1 0
    outer loop
      vertex -20.366 4.48 6.5
      vertex -21.6132 4.48 10
      vertex -18.634 4.48 6.5
    endloop
  endfacet
  facet normal 0 1 0
    outer loop
      vertex -21.2321 4.48 5
      vertex -21.6132 4.48 10
      vertex -20.366 4.48 6.5
    endloop
  endfacet
  facet normal 0 1 0
    outer loop
      vertex -18.634 4.48 6.5
      vertex -12.5 4.48 10
      vertex -17.7679 4.48 5
    endloop
  endfacet
  facet normal 0 0 1
    outer loop
      vertex -16.5 0 10
      vertex -15.925 -3.631 10
      vertex -16.5 0.48 10
    endloop
  endfacet
  facet normal 0 -0 1
    outer loop
      vertex -21.6132 4.48 10
      vertex -21.6132 0.48 10
      vertex -16.5 0.48 10
    endloop
  endfacet
  facet normal 0 -0 1
    outer loop
      vertex 1.52 -4.555 10
      vertex -0.195 -6.27 10
      vertex 4.756 -6.906 10
    endloop
  endfacet
  facet normal 0 0 1
    outer loop
      vertex -15.925 -3.631 10
      vertex -14.256 -6.906 10
      vertex -16.5 0.48 10
    endloop
  endfacet
  facet normal 0 0 1
    outer loop
      vertex -14.256 -6.906 10
      vertex -11.656 -9.506 10
      vertex -16.5 0.48 10
    endloop
  endfacet
  facet normal 0 0 1
    outer loop
      vertex -11.656 -9.506 10
      vertex -8.381 -11.175 10
      vertex -16.5 0.48 10
    endloop
  endfacet
  facet normal 0 0 1
    outer loop
      vertex -8.381 -11.175 10
      vertex -4.75 -11.75 10
      vertex -16.5 0.48 10
    endloop
  endfacet
  facet normal 0 -0 1
    outer loop
      vertex -0.195 -6.27 10
      vertex -2.355 -7.371 10
      vertex 2.156 -9.506 10
    endloop
  endfacet
  facet normal 0 -0 1
    outer loop
      vertex 2.621 -2.395 10
      vertex 1.52 -4.555 10
      vertex 6.425 -3.631 10
    endloop
  endfacet
  facet normal 0 0 1
    outer loop
      vertex 21.6132 0.48 10
      vertex 21.6132 4.48 10
      vertex 3 4.48 10
    endloop
  endfacet
  facet normal 0 0 1
    outer loop
      vertex 6.425 -3.631 10
      vertex 7 0 10
      vertex 3 0 10
    endloop
  endfacet
  facet normal 0 0 1
    outer loop
      vertex 6.425 -3.631 10
      vertex 3 0 10
      vertex 2.621 -2.395 10
    endloop
  endfacet
  facet normal -0 -0 1
    outer loop
      vertex -4.75 -7.75 10
      vertex -7.145 -7.371 10
      vertex -1.119 -11.175 10
    endloop
  endfacet
  facet normal 0 0 1
    outer loop
      vertex 4.756 -6.906 10
      vertex 6.425 -3.631 10
      vertex 1.52 -4.555 10
    endloop
  endfacet
  facet normal 0 0 1
    outer loop
      vertex -12.121 -2.395 10
      vertex -12.5 0 10
      vertex -21.6132 4.48 10
    endloop
  endfacet
  facet normal 0 0 1
    outer loop
      vertex 2.156 -9.506 10
      vertex 4.756 -6.906 10
      vertex -0.195 -6.27 10
    endloop
  endfacet
  facet normal 0 0 1
    outer loop
      vertex -1.119 -11.175 10
      vertex 2.156 -9.506 10
      vertex -2.355 -7.371 10
    endloop
  endfacet
  facet normal 0 0 1
    outer loop
      vertex -16.5 0.48 10
      vertex -12.121 -2.395 10
      vertex -21.6132 4.48 10
    endloop
  endfacet
  facet normal 0 0 1
    outer loop
      vertex -1.119 -11.175 10
      vertex -2.355 -7.371 10
      vertex -4.75 -7.75 10
    endloop
  endfacet
  facet normal 0 0 1
    outer loop
      vertex -12.5 0 10
      vertex -12.5 4.48 10
      vertex -21.6132 4.48 10
    endloop
  endfacet
  facet normal 0 0 1
    outer loop
      vertex -4.75 -11.75 10
      vertex -1.119 -11.175 10
      vertex -7.145 -7.371 10
    endloop
  endfacet
  facet normal 0 0 1
    outer loop
      vertex -4.75 -11.75 10
      vertex -9.305 -6.27 10
      vertex -16.5 0.48 10
    endloop
  endfacet
  facet normal 0 0 1
    outer loop
      vertex -4.75 -11.75 10
      vertex -7.145 -7.371 10
      vertex -9.305 -6.27 10
    endloop
  endfacet
  facet normal 0 0 1
    outer loop
      vertex -9.305 -6.27 10
      vertex -11.02 -4.555 10
      vertex -16.5 0.48 10
    endloop
  endfacet
  facet normal 0 0 1
    outer loop
      vertex -11.02 -4.555 10
      vertex -12.121 -2.395 10
      vertex -16.5 0.48 10
    endloop
  endfacet
  facet normal 0 0 1
    outer loop
      vertex 3 4.48 10
      vertex 7 0.48 10
      vertex 21.6132 0.48 10
    endloop
  endfacet
  facet normal 0 0 1
    outer loop
      vertex 3 4.48 10
      vertex 7 0 10
      vertex 7 0.48 10
    endloop
  endfacet
  facet normal 0 -0 1
    outer loop
      vertex 3 4.48 10
      vertex 3 0 10
      vertex 7 0 10
    endloop
  endfacet
  facet normal -1 0 -0
    outer loop
      vertex -16.5 0 5
      vertex -16.5 0 10
      vertex -16.5 0.48 5
    endloop
  endfacet
  facet normal -1 0 0
    outer loop
      vertex -16.5 0.48 5
      vertex -16.5 0 10
      vertex -16.5 0.48 10
    endloop
  endfacet
  facet normal -0.994522 -0 -0.104528
    outer loop
      vertex -16.5656 0.48 5.62373
      vertex -16.5656 0.480078 5.62373
      vertex -16.5 0.48 5
    endloop
  endfacet
  facet normal -1.85037e-015 1.36911e-029 -7.40029e-015
    outer loop
      vertex -16.5 0.480078 5
      vertex -16.5 -1.26262e-030 5
      vertex -16.5 0.48 5
    endloop
  endfacet
  facet normal -0.994522 4.43614e-011 -0.104528
    outer loop
      vertex -16.5 0.480078 5
      vertex -16.5 0.48 5
      vertex -16.5656 0.480078 5.62373
    endloop
  endfacet
  facet normal 0 2.7391e-029 -7.40149e-015
    outer loop
      vertex -16.5 0.48 5
      vertex -16.5 -1.26262e-030 5
      vertex -16.5 0 5
    endloop
  endfacet
  facet normal -0.951056 0 -0.309018
    outer loop
      vertex -16.5656 0.480078 5.62373
      vertex -16.5656 0.48 5.62373
      vertex -16.7594 0.480078 6.22021
    endloop
  endfacet
  facet normal -0.951056 0 -0.309018
    outer loop
      vertex -16.7594 0.480078 6.22021
      vertex -16.5656 0.48 5.62373
      vertex -16.7594 0.48 6.22021
    endloop
  endfacet
  facet normal -0.866026 0 -0.499999
    outer loop
      vertex -16.7594 0.480078 6.22021
      vertex -16.7594 0.48 6.22021
      vertex -17.0729 0.480078 6.76336
    endloop
  endfacet
  facet normal -0.866026 0 -0.499999
    outer loop
      vertex -17.0729 0.480078 6.76336
      vertex -16.7594 0.48 6.22021
      vertex -17.0729 0.48 6.76336
    endloop
  endfacet
  facet normal -0.743144 0 -0.669131
    outer loop
      vertex -17.0729 0.480078 6.76336
      vertex -17.0729 0.48 6.76336
      vertex -17.4926 0.480078 7.22943
    endloop
  endfacet
  facet normal -0.743144 0 -0.669131
    outer loop
      vertex -17.4926 0.480078 7.22943
      vertex -17.0729 0.48 6.76336
      vertex -17.4926 0.48 7.22943
    endloop
  endfacet
  facet normal -0.587785 0 -0.809017
    outer loop
      vertex -17.4926 0.480078 7.22943
      vertex -17.4926 0.48 7.22943
      vertex -18 0.480078 7.59808
    endloop
  endfacet
  facet normal -0.587785 0 -0.809017
    outer loop
      vertex -18 0.480078 7.59808
      vertex -17.4926 0.48 7.22943
      vertex -18 0.48 7.59808
    endloop
  endfacet
  facet normal -0.406738 0 -0.913545
    outer loop
      vertex -18 0.480078 7.59808
      vertex -18 0.48 7.59808
      vertex -18.5729 0.480078 7.85317
    endloop
  endfacet
  facet normal -0.406738 0 -0.913545
    outer loop
      vertex -18.5729 0.480078 7.85317
      vertex -18 0.48 7.59808
      vertex -18.5729 0.48 7.85317
    endloop
  endfacet
  facet normal -0.207911 0 -0.978148
    outer loop
      vertex -18.5729 0.480078 7.85317
      vertex -18.5729 0.48 7.85317
      vertex -19.1864 0.480078 7.98357
    endloop
  endfacet
  facet normal -0.207911 0 -0.978148
    outer loop
      vertex -19.1864 0.480078 7.98357
      vertex -18.5729 0.48 7.85317
      vertex -19.1864 0.48 7.98357
    endloop
  endfacet
  facet normal 0 0 -1
    outer loop
      vertex -19.1864 0.480078 7.98357
      vertex -19.1864 0.48 7.98357
      vertex -19.8136 0.480078 7.98357
    endloop
  endfacet
  facet normal 0 0 -1
    outer loop
      vertex -19.8136 0.480078 7.98357
      vertex -19.1864 0.48 7.98357
      vertex -19.8136 0.48 7.98357
    endloop
  endfacet
  facet normal 0.207911 0 -0.978148
    outer loop
      vertex -19.8136 0.480078 7.98357
      vertex -19.8136 0.48 7.98357
      vertex -20.4271 0.480078 7.85317
    endloop
  endfacet
  facet normal 0.207911 0 -0.978148
    outer loop
      vertex -20.4271 0.480078 7.85317
      vertex -19.8136 0.48 7.98357
      vertex -20.4271 0.48 7.85317
    endloop
  endfacet
  facet normal 0.406738 0 -0.913545
    outer loop
      vertex -20.4271 0.480078 7.85317
      vertex -20.4271 0.48 7.85317
      vertex -21 0.480078 7.59808
    endloop
  endfacet
  facet normal 0.406738 0 -0.913545
    outer loop
      vertex -21 0.480078 7.59808
      vertex -20.4271 0.48 7.85317
      vertex -21 0.48 7.59808
    endloop
  endfacet
  facet normal 0.587785 0 -0.809017
    outer loop
      vertex -21 0.480078 7.59808
      vertex -21 0.48 7.59808
      vertex -21.5074 0.480078 7.22943
    endloop
  endfacet
  facet normal 0.587785 0 -0.809017
    outer loop
      vertex -21.5074 0.480078 7.22943
      vertex -21 0.48 7.59808
      vertex -21.5074 0.48 7.22943
    endloop
  endfacet
  facet normal 0.743144 0 -0.669131
    outer loop
      vertex -21.9271 0.480078 6.76336
      vertex -21.5074 0.480078 7.22943
      vertex -21.5074 0.48 7.22943
    endloop
  endfacet
  facet normal 0.743144 0 -0.669131
    outer loop
      vertex -21.9271 0.48 6.76336
      vertex -21.9271 0.480078 6.76336
      vertex -21.5074 0.48 7.22943
    endloop
  endfacet
  facet normal 0.866026 0 -0.499999
    outer loop
      vertex -22.2406 0.480078 6.22021
      vertex -21.9271 0.480078 6.76336
      vertex -21.9271 0.48 6.76336
    endloop
  endfacet
  facet normal 0.866026 0 -0.499999
    outer loop
      vertex -22.2406 0.48 6.22021
      vertex -22.2406 0.480078 6.22021
      vertex -21.9271 0.48 6.76336
    endloop
  endfacet
  facet normal 0.951056 0 -0.309018
    outer loop
      vertex -22.4344 0.480078 5.62373
      vertex -22.2406 0.480078 6.22021
      vertex -22.2406 0.48 6.22021
    endloop
  endfacet
  facet normal 0.951056 0 -0.309018
    outer loop
      vertex -22.4344 0.48 5.62373
      vertex -22.4344 0.480078 5.62373
      vertex -22.2406 0.48 6.22021
    endloop
  endfacet
  facet normal 0.994522 0 -0.104528
    outer loop
      vertex -22.5 0.480078 5
      vertex -22.4344 0.480078 5.62373
      vertex -22.4344 0.48 5.62373
    endloop
  endfacet
  facet normal 0.994522 0 -0.104528
    outer loop
      vertex -22.5 0.48 5
      vertex -22.5 0.480078 5
      vertex -22.4344 0.48 5.62373
    endloop
  endfacet
  facet normal 0.994522 0 0.104528
    outer loop
      vertex -22.4344 0.48 4.37627
      vertex -22.4344 0.480078 4.37627
      vertex -22.5 0.480078 5
    endloop
  endfacet
  facet normal 0.994522 0 0.104528
    outer loop
      vertex -22.5 0.48 5
      vertex -22.4344 0.48 4.37627
      vertex -22.5 0.480078 5
    endloop
  endfacet
  facet normal 0.951056 0 0.309018
    outer loop
      vertex -22.2406 0.48 3.77979
      vertex -22.2406 0.480078 3.77979
      vertex -22.4344 0.480078 4.37627
    endloop
  endfacet
  facet normal 0.951056 0 0.309018
    outer loop
      vertex -22.4344 0.48 4.37627
      vertex -22.2406 0.48 3.77979
      vertex -22.4344 0.480078 4.37627
    endloop
  endfacet
  facet normal 0.866026 0 0.499999
    outer loop
      vertex -21.9271 0.48 3.23664
      vertex -21.9271 0.480078 3.23664
      vertex -22.2406 0.480078 3.77979
    endloop
  endfacet
  facet normal 0.866026 0 0.499999
    outer loop
      vertex -22.2406 0.48 3.77979
      vertex -21.9271 0.48 3.23664
      vertex -22.2406 0.480078 3.77979
    endloop
  endfacet
  facet normal 0.743144 0 0.669131
    outer loop
      vertex -21.5074 0.48 2.77057
      vertex -21.5074 0.480078 2.77057
      vertex -21.9271 0.480078 3.23664
    endloop
  endfacet
  facet normal 0.743144 0 0.669131
    outer loop
      vertex -21.9271 0.48 3.23664
      vertex -21.5074 0.48 2.77057
      vertex -21.9271 0.480078 3.23664
    endloop
  endfacet
  facet normal 0.587785 0 0.809017
    outer loop
      vertex -21 0.48 2.40192
      vertex -21 0.480078 2.40192
      vertex -21.5074 0.480078 2.77057
    endloop
  endfacet
  facet normal 0.587785 0 0.809017
    outer loop
      vertex -21.5074 0.48 2.77057
      vertex -21 0.48 2.40192
      vertex -21.5074 0.480078 2.77057
    endloop
  endfacet
  facet normal 0.406738 0 0.913545
    outer loop
      vertex -20.4271 0.48 2.14683
      vertex -20.4271 0.480078 2.14683
      vertex -21 0.480078 2.40192
    endloop
  endfacet
  facet normal 0.406738 0 0.913545
    outer loop
      vertex -21 0.48 2.40192
      vertex -20.4271 0.48 2.14683
      vertex -21 0.480078 2.40192
    endloop
  endfacet
  facet normal 0.207911 0 0.978148
    outer loop
      vertex -19.8136 0.48 2.01643
      vertex -19.8136 0.480078 2.01643
      vertex -20.4271 0.480078 2.14683
    endloop
  endfacet
  facet normal 0.207911 0 0.978148
    outer loop
      vertex -20.4271 0.48 2.14683
      vertex -19.8136 0.48 2.01643
      vertex -20.4271 0.480078 2.14683
    endloop
  endfacet
  facet normal 0 0 1
    outer loop
      vertex -19.1864 0.48 2.01643
      vertex -19.1864 0.480078 2.01643
      vertex -19.8136 0.480078 2.01643
    endloop
  endfacet
  facet normal 0 0 1
    outer loop
      vertex -19.8136 0.48 2.01643
      vertex -19.1864 0.48 2.01643
      vertex -19.8136 0.480078 2.01643
    endloop
  endfacet
  facet normal -0.207911 0 0.978148
    outer loop
      vertex -18.5729 0.48 2.14683
      vertex -18.5729 0.480078 2.14683
      vertex -19.1864 0.480078 2.01643
    endloop
  endfacet
  facet normal -0.207911 0 0.978148
    outer loop
      vertex -19.1864 0.48 2.01643
      vertex -18.5729 0.48 2.14683
      vertex -19.1864 0.480078 2.01643
    endloop
  endfacet
  facet normal -0.406738 0 0.913545
    outer loop
      vertex -18 0.48 2.40192
      vertex -18 0.480078 2.40192
      vertex -18.5729 0.480078 2.14683
    endloop
  endfacet
  facet normal -0.406738 0 0.913545
    outer loop
      vertex -18.5729 0.48 2.14683
      vertex -18 0.48 2.40192
      vertex -18.5729 0.480078 2.14683
    endloop
  endfacet
  facet normal -0.587785 0 0.809017
    outer loop
      vertex -17.4926 0.48 2.77057
      vertex -17.4926 0.480078 2.77057
      vertex -18 0.480078 2.40192
    endloop
  endfacet
  facet normal -0.587785 0 0.809017
    outer loop
      vertex -18 0.48 2.40192
      vertex -17.4926 0.48 2.77057
      vertex -18 0.480078 2.40192
    endloop
  endfacet
  facet normal -0.743144 0 0.669131
    outer loop
      vertex -17.0729 0.480078 3.23664
      vertex -17.4926 0.480078 2.77057
      vertex -17.0729 0.48 3.23664
    endloop
  endfacet
  facet normal -0.743144 0 0.669131
    outer loop
      vertex -17.0729 0.48 3.23664
      vertex -17.4926 0.480078 2.77057
      vertex -17.4926 0.48 2.77057
    endloop
  endfacet
  facet normal -0.866026 0 0.499999
    outer loop
      vertex -16.7594 0.480078 3.77979
      vertex -17.0729 0.480078 3.23664
      vertex -16.7594 0.48 3.77979
    endloop
  endfacet
  facet normal -0.866026 0 0.499999
    outer loop
      vertex -16.7594 0.48 3.77979
      vertex -17.0729 0.480078 3.23664
      vertex -17.0729 0.48 3.23664
    endloop
  endfacet
  facet normal -0.951056 0 0.309018
    outer loop
      vertex -16.5656 0.480078 4.37627
      vertex -16.7594 0.480078 3.77979
      vertex -16.5656 0.48 4.37627
    endloop
  endfacet
  facet normal -0.951056 0 0.309018
    outer loop
      vertex -16.5656 0.48 4.37627
      vertex -16.7594 0.480078 3.77979
      vertex -16.7594 0.48 3.77979
    endloop
  endfacet
  facet normal 4.86732e-045 1.36955e-029 7.40149e-015
    outer loop
      vertex -16.5 0 5
      vertex -16.5 -1.26262e-030 5
      vertex -16.5 0.48 5
    endloop
  endfacet
  facet normal -3.70104e-015 -1.36955e-029 7.40268e-015
    outer loop
      vertex -16.5 0.48 5
      vertex -16.5 -1.26262e-030 5
      vertex -16.5 0.480078 5
    endloop
  endfacet
  facet normal -0.994522 4.31643e-011 0.104528
    outer loop
      vertex -16.5 0.48 5
      vertex -16.5 0.480078 5
      vertex -16.5656 0.480078 4.37627
    endloop
  endfacet
  facet normal -0.994522 0 0.104528
    outer loop
      vertex -16.5 0.48 5
      vertex -16.5656 0.480078 4.37627
      vertex -16.5656 0.48 4.37627
    endloop
  endfacet
  facet normal -1 -0 -0
    outer loop
      vertex -16.5 0 0
      vertex -16.5 0 5
      vertex -16.5 0.48 0
    endloop
  endfacet
  facet normal -1 0 0
    outer loop
      vertex -16.5 0.48 0
      vertex -16.5 0 5
      vertex -16.5 0.48 5
    endloop
  endfacet
  facet normal -0 0 -1
    outer loop
      vertex -21.6132 0.48 0
      vertex -21.6132 4.48 0
      vertex -16.5 0.48 0
    endloop
  endfacet
  facet normal 0 -0 -1
    outer loop
      vertex -16.5 0.48 0
      vertex -21.6132 4.48 0
      vertex -12.5 4.48 0
    endloop
  endfacet
  facet normal -0 0 -1
    outer loop
      vertex -16.5 0.48 0
      vertex -12.5 4.48 0
      vertex -12.5 0 0
    endloop
  endfacet
  facet normal -0 0 -1
    outer loop
      vertex 7 0.48 0
      vertex 21.6132 4.48 0
      vertex 21.6132 0.48 0
    endloop
  endfacet
  facet normal 0 0 -1
    outer loop
      vertex -1.119 -11.175 0
      vertex -9.305 -6.27 0
      vertex -7.145 -7.371 0
    endloop
  endfacet
  facet normal 0 0 -1
    outer loop
      vertex 2.156 -9.506 0
      vertex -7.145 -7.371 0
      vertex -4.75 -7.75 0
    endloop
  endfacet
  facet normal 0 0 -1
    outer loop
      vertex 4.756 -6.906 0
      vertex -4.75 -7.75 0
      vertex -2.355 -7.371 0
    endloop
  endfacet
  facet normal 0 0 -1
    outer loop
      vertex 7 0.48 0
      vertex 2.621 -2.395 0
      vertex 3 0 0
    endloop
  endfacet
  facet normal 0 0 -1
    outer loop
      vertex 3 4.48 0
      vertex 21.6132 4.48 0
      vertex 3 0 0
    endloop
  endfacet
  facet normal 0 0 -1
    outer loop
      vertex -15.925 -3.631 0
      vertex -8.381 -11.175 0
      vertex -11.656 -9.506 0
    endloop
  endfacet
  facet normal 0 0 -1
    outer loop
      vertex 7 0 0
      vertex 2.621 -2.395 0
      vertex 7 0.48 0
    endloop
  endfacet
  facet normal 0 0 -1
    outer loop
      vertex 21.6132 4.48 0
      vertex 7 0.48 0
      vertex 3 0 0
    endloop
  endfacet
  facet normal 0 -0 -1
    outer loop
      vertex 6.425 -3.631 0
      vertex 2.621 -2.395 0
      vertex 7 0 0
    endloop
  endfacet
  facet normal 0 0 -1
    outer loop
      vertex 6.425 -3.631 0
      vertex 1.52 -4.555 0
      vertex 2.621 -2.395 0
    endloop
  endfacet
  facet normal 0 0 -1
    outer loop
      vertex -15.925 -3.631 0
      vertex -4.75 -11.75 0
      vertex -8.381 -11.175 0
    endloop
  endfacet
  facet normal 0 0 -1
    outer loop
      vertex 4.756 -6.906 0
      vertex 2.156 -9.506 0
      vertex -4.75 -7.75 0
    endloop
  endfacet
  facet normal 0 0 -1
    outer loop
      vertex 2.156 -9.506 0
      vertex -1.119 -11.175 0
      vertex -7.145 -7.371 0
    endloop
  endfacet
  facet normal 0 0 -1
    outer loop
      vertex -16.5 0 0
      vertex -12.121 -2.395 0
      vertex -11.02 -4.555 0
    endloop
  endfacet
  facet normal 0 0 -1
    outer loop
      vertex -16.5 0 0
      vertex -11.02 -4.555 0
      vertex -9.305 -6.27 0
    endloop
  endfacet
  facet normal 0 0 -1
    outer loop
      vertex -9.305 -6.27 0
      vertex -1.119 -11.175 0
      vertex -15.925 -3.631 0
    endloop
  endfacet
  facet normal 0 0 -1
    outer loop
      vertex -16.5 0 0
      vertex -9.305 -6.27 0
      vertex -15.925 -3.631 0
    endloop
  endfacet
  facet normal 0 0 -1
    outer loop
      vertex -1.119 -11.175 0
      vertex -4.75 -11.75 0
      vertex -15.925 -3.631 0
    endloop
  endfacet
  facet normal 0 0 -1
    outer loop
      vertex -12.5 0 0
      vertex -12.121 -2.395 0
      vertex -16.5 0 0
    endloop
  endfacet
  facet normal 0 0 -1
    outer loop
      vertex 6.425 -3.631 0
      vertex -2.355 -7.371 0
      vertex -0.195 -6.27 0
    endloop
  endfacet
  facet normal 0 0 -1
    outer loop
      vertex -16.5 0.48 0
      vertex -12.5 0 0
      vertex -16.5 0 0
    endloop
  endfacet
  facet normal 0 0 -1
    outer loop
      vertex 6.425 -3.631 0
      vertex -0.195 -6.27 0
      vertex 1.52 -4.555 0
    endloop
  endfacet
  facet normal 0 -0 -1
    outer loop
      vertex 4.756 -6.906 0
      vertex -2.355 -7.371 0
      vertex 6.425 -3.631 0
    endloop
  endfacet
  facet normal 0 0 -1
    outer loop
      vertex -15.925 -3.631 0
      vertex -11.656 -9.506 0
      vertex -14.256 -6.906 0
    endloop
  endfacet
  facet normal 1 0 -0
    outer loop
      vertex -12.5 0 10
      vertex -12.5 0 0
      vertex -12.5 4.48 0
    endloop
  endfacet
  facet normal 1 0 0
    outer loop
      vertex -12.5 4.48 10
      vertex -12.5 0 10
      vertex -12.5 4.48 0
    endloop
  endfacet
  facet normal 0.866025 9.61463e-017 -0.5
    outer loop
      vertex -21.2321 4.48 5
      vertex -20.366 4.48 6.5
      vertex -20.366 0.480078 6.5
    endloop
  endfacet
  facet normal 0.866025 1.11025e-016 -0.5
    outer loop
      vertex -21.2321 0.480078 5
      vertex -21.2321 4.48 5
      vertex -20.366 0.480078 6.5
    endloop
  endfacet
  facet normal 0.866025 -1.11025e-016 0.5
    outer loop
      vertex -20.366 0.480078 3.5
      vertex -20.366 4.48 3.5
      vertex -21.2321 4.48 5
    endloop
  endfacet
  facet normal 0.866025 -1.11025e-016 0.5
    outer loop
      vertex -21.2321 0.480078 5
      vertex -20.366 0.480078 3.5
      vertex -21.2321 4.48 5
    endloop
  endfacet
  facet normal 0 2.22049e-016 -1
    outer loop
      vertex -18.634 4.48 6.5
      vertex -18.634 0.480078 6.5
      vertex -20.366 4.48 6.5
    endloop
  endfacet
  facet normal 1.1386e-031 2.22049e-016 -1
    outer loop
      vertex -20.366 4.48 6.5
      vertex -18.634 0.480078 6.5
      vertex -20.366 0.480078 6.5
    endloop
  endfacet
  facet normal -0.866025 1.11025e-016 -0.5
    outer loop
      vertex -17.7679 4.48 5
      vertex -17.7679 0.480078 5
      vertex -18.634 4.48 6.5
    endloop
  endfacet
  facet normal -0.866025 8.80224e-016 -0.5
    outer loop
      vertex -18.634 4.48 6.5
      vertex -17.7679 0.480078 5
      vertex -18.634 0.480078 6.5
    endloop
  endfacet
  facet normal -0.866025 -1.11025e-016 0.5
    outer loop
      vertex -17.7679 4.48 5
      vertex -18.634 4.48 3.5
      vertex -17.7679 0.480078 5
    endloop
  endfacet
  facet normal -0.866025 6.73024e-016 0.5
    outer loop
      vertex -17.7679 0.480078 5
      vertex -18.634 4.48 3.5
      vertex -18.634 0.480078 3.5
    endloop
  endfacet
  facet normal 0 -2.22049e-016 1
    outer loop
      vertex -18.634 0.480078 3.5
      vertex -18.634 4.48 3.5
      vertex -20.366 4.48 3.5
    endloop
  endfacet
  facet normal -6.40488e-032 -2.22049e-016 1
    outer loop
      vertex -20.366 0.480078 3.5
      vertex -18.634 0.480078 3.5
      vertex -20.366 4.48 3.5
    endloop
  endfacet
  facet normal 0.987709 0.156301 0
    outer loop
      vertex -12.121 -2.395 0
      vertex -12.5 0 0
      vertex -12.5 0 10
    endloop
  endfacet
  facet normal 0.987709 0.156301 -0
    outer loop
      vertex -12.121 -2.395 10
      vertex -12.121 -2.395 0
      vertex -12.5 0 10
    endloop
  endfacet
  facet normal 0.890936 0.45413 0
    outer loop
      vertex -11.02 -4.555 0
      vertex -12.121 -2.395 0
      vertex -12.121 -2.395 10
    endloop
  endfacet
  facet normal 0.890936 0.45413 -0
    outer loop
      vertex -11.02 -4.555 10
      vertex -11.02 -4.555 0
      vertex -12.121 -2.395 10
    endloop
  endfacet
  facet normal 0.707107 0.707107 0
    outer loop
      vertex -11.02 -4.555 0
      vertex -11.02 -4.555 10
      vertex -9.305 -6.27 0
    endloop
  endfacet
  facet normal 0.707107 0.707107 0
    outer loop
      vertex -9.305 -6.27 0
      vertex -11.02 -4.555 10
      vertex -9.305 -6.27 10
    endloop
  endfacet
  facet normal 0.45413 0.890936 0
    outer loop
      vertex -9.305 -6.27 0
      vertex -9.305 -6.27 10
      vertex -7.145 -7.371 0
    endloop
  endfacet
  facet normal 0.45413 0.890936 0
    outer loop
      vertex -7.145 -7.371 0
      vertex -9.305 -6.27 10
      vertex -7.145 -7.371 10
    endloop
  endfacet
  facet normal 0.156301 0.987709 0
    outer loop
      vertex -7.145 -7.371 0
      vertex -7.145 -7.371 10
      vertex -4.75 -7.75 0
    endloop
  endfacet
  facet normal 0.156301 0.987709 0
    outer loop
      vertex -4.75 -7.75 0
      vertex -7.145 -7.371 10
      vertex -4.75 -7.75 10
    endloop
  endfacet
  facet normal -0.156301 0.987709 0
    outer loop
      vertex -4.75 -7.75 0
      vertex -4.75 -7.75 10
      vertex -2.355 -7.371 0
    endloop
  endfacet
  facet normal -0.156301 0.987709 0
    outer loop
      vertex -2.355 -7.371 0
      vertex -4.75 -7.75 10
      vertex -2.355 -7.371 10
    endloop
  endfacet
  facet normal -0.45413 0.890936 0
    outer loop
      vertex -2.355 -7.371 0
      vertex -2.355 -7.371 10
      vertex -0.195 -6.27 0
    endloop
  endfacet
  facet normal -0.45413 0.890936 0
    outer loop
      vertex -0.195 -6.27 0
      vertex -2.355 -7.371 10
      vertex -0.195 -6.27 10
    endloop
  endfacet
  facet normal -0.707107 0.707107 0
    outer loop
      vertex -0.195 -6.27 0
      vertex -0.195 -6.27 10
      vertex 1.52 -4.555 0
    endloop
  endfacet
  facet normal -0.707107 0.707107 0
    outer loop
      vertex 1.52 -4.555 0
      vertex -0.195 -6.27 10
      vertex 1.52 -4.555 10
    endloop
  endfacet
  facet normal -0.890936 0.45413 0
    outer loop
      vertex 1.52 -4.555 0
      vertex 1.52 -4.555 10
      vertex 2.621 -2.395 0
    endloop
  endfacet
  facet normal -0.890936 0.45413 0
    outer loop
      vertex 2.621 -2.395 0
      vertex 1.52 -4.555 10
      vertex 2.621 -2.395 10
    endloop
  endfacet
  facet normal -0.987709 0.156301 0
    outer loop
      vertex 2.621 -2.395 0
      vertex 2.621 -2.395 10
      vertex 3 0 0
    endloop
  endfacet
  facet normal -0.987709 0.156301 0
    outer loop
      vertex 3 0 0
      vertex 2.621 -2.395 10
      vertex 3 0 10
    endloop
  endfacet
  facet normal -1 -0 -0
    outer loop
      vertex 3 0 0
      vertex 3 0 10
      vertex 3 4.48 0
    endloop
  endfacet
  facet normal -1 0 0
    outer loop
      vertex 3 4.48 0
      vertex 3 0 10
      vertex 3 4.48 10
    endloop
  endfacet
  facet normal 0 1 0
    outer loop
      vertex 3 4.48 0
      vertex 3 4.48 10
      vertex 21.6132 4.48 0
    endloop
  endfacet
  facet normal 0 1 0
    outer loop
      vertex 18.634 4.48 6.5
      vertex 3 4.48 10
      vertex 21.6132 4.48 10
    endloop
  endfacet
  facet normal 0 1 0
    outer loop
      vertex 21.6132 4.48 0
      vertex 21.6132 4.48 10
      vertex 24.5 4.48 5
    endloop
  endfacet
  facet normal 0 1 0
    outer loop
      vertex 18.634 4.48 3.5
      vertex 3 4.48 10
      vertex 17.7679 4.48 5
    endloop
  endfacet
  facet normal 0 1 0
    outer loop
      vertex 21.6132 4.48 0
      vertex 3 4.48 10
      vertex 18.634 4.48 3.5
    endloop
  endfacet
  facet normal 0 1 0
    outer loop
      vertex 20.366 4.48 6.5
      vertex 21.6132 4.48 10
      vertex 21.2321 4.48 5
    endloop
  endfacet
  facet normal 0 1 0
    outer loop
      vertex 21.6132 4.48 0
      vertex 20.366 4.48 3.5
      vertex 21.2321 4.48 5
    endloop
  endfacet
  facet normal 0 1 0
    outer loop
      vertex 21.6132 4.48 0
      vertex 21.2321 4.48 5
      vertex 21.6132 4.48 10
    endloop
  endfacet
  facet normal 0 1 0
    outer loop
      vertex 18.634 4.48 6.5
      vertex 21.6132 4.48 10
      vertex 20.366 4.48 6.5
    endloop
  endfacet
  facet normal 0 1 0
    outer loop
      vertex 17.7679 4.48 5
      vertex 3 4.48 10
      vertex 18.634 4.48 6.5
    endloop
  endfacet
  facet normal 0 1 -0
    outer loop
      vertex 20.366 4.48 3.5
      vertex 21.6132 4.48 0
      vertex 18.634 4.48 3.5
    endloop
  endfacet
  facet normal 0.866025 -0 0.5
    outer loop
      vertex 21.6132 4.48 10
      vertex 21.6132 0.48 10
      vertex 24.5 0.48 5
    endloop
  endfacet
  facet normal 0.866025 -3.33067e-016 0.5
    outer loop
      vertex 24.5 4.48 5
      vertex 21.6132 4.48 10
      vertex 24.5 0.48 5
    endloop
  endfacet
  facet normal 0 -1 0
    outer loop
      vertex 18 0.48 2.40192
      vertex 7 0.48 0
      vertex 21.6132 0.48 0
    endloop
  endfacet
  facet normal 0 -1 0
    outer loop
      vertex 21.5074 0.48 7.22943
      vertex 21.9271 0.48 6.76336
      vertex 24.5 0.48 5
    endloop
  endfacet
  facet normal 0 -1 0
    outer loop
      vertex 18 0.48 7.59808
      vertex 18.5729 0.48 7.85317
      vertex 21.6132 0.48 10
    endloop
  endfacet
  facet normal 0 -1 0
    outer loop
      vertex 16.5 0.48 5
      vertex 7 0.48 10
      vertex 16.5656 0.48 4.37627
    endloop
  endfacet
  facet normal 0 -1 0
    outer loop
      vertex 19.8136 0.48 2.01643
      vertex 19.1864 0.48 2.01643
      vertex 21.6132 0.48 0
    endloop
  endfacet
  facet normal 0 -1 0
    outer loop
      vertex 16.5656 0.48 5.62373
      vertex 7 0.48 10
      vertex 16.5 0.48 5
    endloop
  endfacet
  facet normal 0 -1 0
    outer loop
      vertex 16.7594 0.48 6.22021
      vertex 7 0.48 10
      vertex 16.5656 0.48 5.62373
    endloop
  endfacet
  facet normal 0 -1 0
    outer loop
      vertex 17.0729 0.48 6.76336
      vertex 7 0.48 10
      vertex 16.7594 0.48 6.22021
    endloop
  endfacet
  facet normal 0 -1 0
    outer loop
      vertex 22.5 0.48 5
      vertex 22.4344 0.48 4.37627
      vertex 24.5 0.48 5
    endloop
  endfacet
  facet normal 0 -1 0
    outer loop
      vertex 22.4344 0.48 5.62373
      vertex 22.5 0.48 5
      vertex 24.5 0.48 5
    endloop
  endfacet
  facet normal 0 -1 0
    outer loop
      vertex 18 0.48 7.59808
      vertex 7 0.48 10
      vertex 17.4926 0.48 7.22943
    endloop
  endfacet
  facet normal 0 -1 0
    outer loop
      vertex 21.6132 0.48 10
      vertex 7 0.48 10
      vertex 18 0.48 7.59808
    endloop
  endfacet
  facet normal 0 -1 0
    outer loop
      vertex 21.6132 0.48 10
      vertex 18.5729 0.48 7.85317
      vertex 19.1864 0.48 7.98357
    endloop
  endfacet
  facet normal 0 -1 0
    outer loop
      vertex 22.2406 0.48 6.22021
      vertex 22.4344 0.48 5.62373
      vertex 24.5 0.48 5
    endloop
  endfacet
  facet normal 0 -1 0
    outer loop
      vertex 21.6132 0.48 10
      vertex 19.1864 0.48 7.98357
      vertex 19.8136 0.48 7.98357
    endloop
  endfacet
  facet normal 0 -1 0
    outer loop
      vertex 21.6132 0.48 10
      vertex 19.8136 0.48 7.98357
      vertex 20.4271 0.48 7.85317
    endloop
  endfacet
  facet normal 0 -1 0
    outer loop
      vertex 21.9271 0.48 6.76336
      vertex 22.2406 0.48 6.22021
      vertex 24.5 0.48 5
    endloop
  endfacet
  facet normal 0 -1 0
    outer loop
      vertex 21.6132 0.48 10
      vertex 20.4271 0.48 7.85317
      vertex 21 0.48 7.59808
    endloop
  endfacet
  facet normal 0 -1 0
    outer loop
      vertex 21.6132 0.48 10
      vertex 21.5074 0.48 7.22943
      vertex 24.5 0.48 5
    endloop
  endfacet
  facet normal 0 -1 0
    outer loop
      vertex 21.6132 0.48 10
      vertex 21 0.48 7.59808
      vertex 21.5074 0.48 7.22943
    endloop
  endfacet
  facet normal 0 -1 0
    outer loop
      vertex 18.5729 0.48 2.14683
      vertex 18 0.48 2.40192
      vertex 21.6132 0.48 0
    endloop
  endfacet
  facet normal 0 -1 0
    outer loop
      vertex 24.5 0.48 5
      vertex 22.4344 0.48 4.37627
      vertex 21.6132 0.48 0
    endloop
  endfacet
  facet normal 0 -1 0
    outer loop
      vertex 22.4344 0.48 4.37627
      vertex 22.2406 0.48 3.77979
      vertex 21.6132 0.48 0
    endloop
  endfacet
  facet normal 0 -1 0
    outer loop
      vertex 22.2406 0.48 3.77979
      vertex 21.9271 0.48 3.23664
      vertex 21.6132 0.48 0
    endloop
  endfacet
  facet normal 0 -1 0
    outer loop
      vertex 21.9271 0.48 3.23664
      vertex 21.5074 0.48 2.77057
      vertex 21.6132 0.48 0
    endloop
  endfacet
  facet normal 0 -1 0
    outer loop
      vertex 21.5074 0.48 2.77057
      vertex 21 0.48 2.40192
      vertex 21.6132 0.48 0
    endloop
  endfacet
  facet normal 0 -1 0
    outer loop
      vertex 21 0.48 2.40192
      vertex 20.4271 0.48 2.14683
      vertex 21.6132 0.48 0
    endloop
  endfacet
  facet normal 0 -1 0
    outer loop
      vertex 20.4271 0.48 2.14683
      vertex 19.8136 0.48 2.01643
      vertex 21.6132 0.48 0
    endloop
  endfacet
  facet normal 0 -1 0
    outer loop
      vertex 17.0729 0.48 3.23664
      vertex 16.7594 0.48 3.77979
      vertex 7 0.48 10
    endloop
  endfacet
  facet normal 0 -1 0
    outer loop
      vertex 19.1864 0.48 2.01643
      vertex 18.5729 0.48 2.14683
      vertex 21.6132 0.48 0
    endloop
  endfacet
  facet normal 0 -1 0
    outer loop
      vertex 7 0.48 10
      vertex 7 0.48 0
      vertex 18 0.48 2.40192
    endloop
  endfacet
  facet normal 0 -1 0
    outer loop
      vertex 17.4926 0.48 2.77057
      vertex 17.0729 0.48 3.23664
      vertex 7 0.48 10
    endloop
  endfacet
  facet normal 0 -1 0
    outer loop
      vertex 7 0.48 10
      vertex 18 0.48 2.40192
      vertex 17.4926 0.48 2.77057
    endloop
  endfacet
  facet normal 0 -1 0
    outer loop
      vertex 16.5656 0.48 4.37627
      vertex 7 0.48 10
      vertex 16.7594 0.48 3.77979
    endloop
  endfacet
  facet normal 0 -1 -0
    outer loop
      vertex 17.0729 0.48 6.76336
      vertex 17.4926 0.48 7.22943
      vertex 7 0.48 10
    endloop
  endfacet
  facet normal 1 0 -0
    outer loop
      vertex 7 0 10
      vertex 7 0 0
      vertex 7 0.48 0
    endloop
  endfacet
  facet normal 1 0 0
    outer loop
      vertex 7 0.48 10
      vertex 7 0 10
      vertex 7 0.48 0
    endloop
  endfacet
  facet normal 0.987692 -0.15641 0
    outer loop
      vertex 6.425 -3.631 10
      vertex 6.425 -3.631 0
      vertex 7 0 0
    endloop
  endfacet
  facet normal 0.987692 -0.15641 0
    outer loop
      vertex 7 0 10
      vertex 6.425 -3.631 10
      vertex 7 0 0
    endloop
  endfacet
  facet normal 0.890973 -0.454056 0
    outer loop
      vertex 4.756 -6.906 10
      vertex 4.756 -6.906 0
      vertex 6.425 -3.631 0
    endloop
  endfacet
  facet normal 0.890973 -0.454056 0
    outer loop
      vertex 6.425 -3.631 10
      vertex 4.756 -6.906 10
      vertex 6.425 -3.631 0
    endloop
  endfacet
  facet normal 0.707107 -0.707107 0
    outer loop
      vertex 2.156 -9.506 10
      vertex 2.156 -9.506 0
      vertex 4.756 -6.906 0
    endloop
  endfacet
  facet normal 0.707107 -0.707107 0
    outer loop
      vertex 4.756 -6.906 10
      vertex 2.156 -9.506 10
      vertex 4.756 -6.906 0
    endloop
  endfacet
  facet normal 0.454056 -0.890973 0
    outer loop
      vertex -1.119 -11.175 10
      vertex -1.119 -11.175 0
      vertex 2.156 -9.506 0
    endloop
  endfacet
  facet normal 0.454056 -0.890973 0
    outer loop
      vertex 2.156 -9.506 10
      vertex -1.119 -11.175 10
      vertex 2.156 -9.506 0
    endloop
  endfacet
  facet normal 0.15641 -0.987692 0
    outer loop
      vertex -4.75 -11.75 10
      vertex -4.75 -11.75 0
      vertex -1.119 -11.175 0
    endloop
  endfacet
  facet normal 0.15641 -0.987692 0
    outer loop
      vertex -1.119 -11.175 10
      vertex -4.75 -11.75 10
      vertex -1.119 -11.175 0
    endloop
  endfacet
  facet normal -0.15641 -0.987692 0
    outer loop
      vertex -8.381 -11.175 10
      vertex -8.381 -11.175 0
      vertex -4.75 -11.75 0
    endloop
  endfacet
  facet normal -0.15641 -0.987692 0
    outer loop
      vertex -4.75 -11.75 10
      vertex -8.381 -11.175 10
      vertex -4.75 -11.75 0
    endloop
  endfacet
  facet normal -0.454056 -0.890973 0
    outer loop
      vertex -11.656 -9.506 10
      vertex -11.656 -9.506 0
      vertex -8.381 -11.175 0
    endloop
  endfacet
  facet normal -0.454056 -0.890973 0
    outer loop
      vertex -8.381 -11.175 10
      vertex -11.656 -9.506 10
      vertex -8.381 -11.175 0
    endloop
  endfacet
  facet normal -0.707107 -0.707107 0
    outer loop
      vertex -14.256 -6.906 10
      vertex -14.256 -6.906 0
      vertex -11.656 -9.506 0
    endloop
  endfacet
  facet normal -0.707107 -0.707107 0
    outer loop
      vertex -11.656 -9.506 10
      vertex -14.256 -6.906 10
      vertex -11.656 -9.506 0
    endloop
  endfacet
  facet normal -0.890973 -0.454056 -0
    outer loop
      vertex -15.925 -3.631 0
      vertex -14.256 -6.906 0
      vertex -15.925 -3.631 10
    endloop
  endfacet
  facet normal -0.890973 -0.454056 0
    outer loop
      vertex -15.925 -3.631 10
      vertex -14.256 -6.906 0
      vertex -14.256 -6.906 10
    endloop
  endfacet
  facet normal -0.987692 -0.15641 -0
    outer loop
      vertex -16.5 0 0
      vertex -15.925 -3.631 0
      vertex -16.5 0 5
    endloop
  endfacet
  facet normal -0.987692 -0.15641 0
    outer loop
      vertex -16.5 0 5
      vertex -15.925 -3.631 0
      vertex -15.925 -3.631 10
    endloop
  endfacet
  facet normal -0.987692 -0.15641 -0
    outer loop
      vertex -16.5 0 5
      vertex -15.925 -3.631 10
      vertex -16.5 0 10
    endloop
  endfacet
  facet normal -2.52524e-031 -7.10543e-016 -5.15996e-016
    outer loop
      vertex -16.5 -1.26262e-030 5
      vertex -15.925 -3.631 10
      vertex -16.5 0 5
    endloop
  endfacet
  facet normal 2.52524e-031 7.10543e-016 5.15996e-016
    outer loop
      vertex -16.5 0 5
      vertex -15.925 -3.631 10
      vertex -16.5 -1.26262e-030 5
    endloop
  endfacet
  facet normal -2.96282e-016 -1 -3.75464e-016
    outer loop
      vertex -22.4344 0.480078 4.37627
      vertex -22.2406 0.480078 3.77979
      vertex -21.9271 0.480078 3.23664
    endloop
  endfacet
  facet normal -4.48056e-016 -1 -4.66113e-016
    outer loop
      vertex -21 0.480078 2.40192
      vertex -22.4344 0.480078 4.37627
      vertex -21.5074 0.480078 2.77057
    endloop
  endfacet
  facet normal -2.73407e-016 -1 -3.65279e-016
    outer loop
      vertex -21.5074 0.480078 2.77057
      vertex -22.4344 0.480078 4.37627
      vertex -21.9271 0.480078 3.23664
    endloop
  endfacet
  facet normal -2.35732e-016 -1 -3.11851e-016
    outer loop
      vertex -20.4271 0.480078 2.14683
      vertex -22.4344 0.480078 4.37627
      vertex -21 0.480078 2.40192
    endloop
  endfacet
  facet normal -2.4999e-016 -1 -3.24689e-016
    outer loop
      vertex -19.8136 0.480078 2.01643
      vertex -22.4344 0.480078 4.37627
      vertex -20.4271 0.480078 2.14683
    endloop
  endfacet
  facet normal -3.54042e-016 -1 -4.4025e-016
    outer loop
      vertex -19.1864 0.480078 2.01643
      vertex -22.4344 0.480078 4.37627
      vertex -19.8136 0.480078 2.01643
    endloop
  endfacet
  facet normal -2.87763e-016 -1 -3.49026e-016
    outer loop
      vertex -18.5729 0.480078 2.14683
      vertex -22.4344 0.480078 4.37627
      vertex -19.1864 0.480078 2.01643
    endloop
  endfacet
  facet normal -2.56364e-016 -1 -2.9464e-016
    outer loop
      vertex -18 0.480078 2.40192
      vertex -22.4344 0.480078 4.37627
      vertex -18.5729 0.480078 2.14683
    endloop
  endfacet
  facet normal -3.1091e-016 -1 -4.17152e-016
    outer loop
      vertex -20.366 0.480078 3.5
      vertex -22.4344 0.480078 4.37627
      vertex -18 0.480078 2.40192
    endloop
  endfacet
  facet normal -2.88445e-016 -1 -3.75236e-016
    outer loop
      vertex -18.634 0.480078 3.5
      vertex -20.366 0.480078 3.5
      vertex -17.4926 0.480078 2.77057
    endloop
  endfacet
  facet normal -2.81405e-016 -1 -3.47507e-016
    outer loop
      vertex -20.366 0.480078 3.5
      vertex -21.2321 0.480078 5
      vertex -22.4344 0.480078 4.37627
    endloop
  endfacet
  facet normal -3.06462e-016 -1 -3.23782e-016
    outer loop
      vertex -17.7679 0.480078 5
      vertex -16.5656 0.480078 4.37627
      vertex -16.5 0.480078 5
    endloop
  endfacet
  facet normal -3.25093e-016 -1 -3.59697e-016
    outer loop
      vertex -17.7679 0.480078 5
      vertex -16.7594 0.480078 3.77979
      vertex -16.5656 0.480078 4.37627
    endloop
  endfacet
  facet normal -2.99184e-016 -1 -3.38281e-016
    outer loop
      vertex -17.7679 0.480078 5
      vertex -17.0729 0.480078 3.23664
      vertex -16.7594 0.480078 3.77979
    endloop
  endfacet
  facet normal -2.9262e-016 -1 -3.7335e-016
    outer loop
      vertex -18.634 0.480078 6.5
      vertex -16.7594 0.480078 6.22021
      vertex -17.0729 0.480078 6.76336
    endloop
  endfacet
  facet normal -3.54042e-016 -1 -2.81373e-016
    outer loop
      vertex -19.8136 0.480078 7.98357
      vertex -22.4344 0.480078 4.37627
      vertex -19.1864 0.480078 7.98357
    endloop
  endfacet
  facet normal -2.92665e-016 -1 -3.25966e-016
    outer loop
      vertex -20.4271 0.480078 7.85317
      vertex -22.4344 0.480078 4.37627
      vertex -19.8136 0.480078 7.98357
    endloop
  endfacet
  facet normal -2.25032e-016 -1 -3.65014e-016
    outer loop
      vertex -21 0.480078 7.59808
      vertex -22.4344 0.480078 4.37627
      vertex -20.4271 0.480078 7.85317
    endloop
  endfacet
  facet normal -3.08982e-016 -1 -3.27637e-016
    outer loop
      vertex -21.5074 0.480078 7.22943
      vertex -22.4344 0.480078 4.37627
      vertex -21 0.480078 7.59808
    endloop
  endfacet
  facet normal -2.91028e-016 -1 -3.3347e-016
    outer loop
      vertex -21.9271 0.480078 6.76336
      vertex -22.4344 0.480078 4.37627
      vertex -21.5074 0.480078 7.22943
    endloop
  endfacet
  facet normal -3.17124e-016 -1 -3.27924e-016
    outer loop
      vertex -22.2406 0.480078 6.22021
      vertex -22.4344 0.480078 4.37627
      vertex -21.9271 0.480078 6.76336
    endloop
  endfacet
  facet normal -4.73451e-016 -1 -3.11493e-016
    outer loop
      vertex -22.4344 0.480078 5.62373
      vertex -22.4344 0.480078 4.37627
      vertex -22.2406 0.480078 6.22021
    endloop
  endfacet
  facet normal -4.23381e-016 -1 -3.11493e-016
    outer loop
      vertex -22.5 0.480078 5
      vertex -22.4344 0.480078 4.37627
      vertex -22.4344 0.480078 5.62373
    endloop
  endfacet
  facet normal -2.63667e-016 -1 -3.89032e-016
    outer loop
      vertex -19.1864 0.480078 7.98357
      vertex -20.366 0.480078 6.5
      vertex -18.5729 0.480078 7.85317
    endloop
  endfacet
  facet normal -1.40151e-017 -1 -5.87534e-016
    outer loop
      vertex -19.1864 0.480078 7.98357
      vertex -22.4344 0.480078 4.37627
      vertex -20.366 0.480078 6.5
    endloop
  endfacet
  facet normal -2.91268e-016 -1 -3.81362e-016
    outer loop
      vertex -17.4926 0.480078 7.22943
      vertex -18.634 0.480078 6.5
      vertex -17.0729 0.480078 6.76336
    endloop
  endfacet
  facet normal -2.92765e-016 -1 -3.74321e-016
    outer loop
      vertex -18.634 0.480078 6.5
      vertex -16.5656 0.480078 5.62373
      vertex -16.7594 0.480078 6.22021
    endloop
  endfacet
  facet normal -3.06462e-016 -1 -2.99204e-016
    outer loop
      vertex -16.5656 0.480078 5.62373
      vertex -17.7679 0.480078 5
      vertex -16.5 0.480078 5
    endloop
  endfacet
  facet normal -2.72446e-016 -1 -3.50202e-016
    outer loop
      vertex -17.0729 0.480078 3.23664
      vertex -18.634 0.480078 3.5
      vertex -17.4926 0.480078 2.77057
    endloop
  endfacet
  facet normal -2.84808e-016 -1 -3.6091e-016
    outer loop
      vertex -17.4926 0.480078 2.77057
      vertex -20.366 0.480078 3.5
      vertex -18 0.480078 2.40192
    endloop
  endfacet
  facet normal -2.68387e-016 -1 -3.26143e-016
    outer loop
      vertex -17.7679 0.480078 5
      vertex -18.634 0.480078 3.5
      vertex -17.0729 0.480078 3.23664
    endloop
  endfacet
  facet normal -2.81405e-016 -1 -3.47507e-016
    outer loop
      vertex -18.634 0.480078 6.5
      vertex -17.7679 0.480078 5
      vertex -16.5656 0.480078 5.62373
    endloop
  endfacet
  facet normal -2.6771e-016 -1 -3.83674e-016
    outer loop
      vertex -20.366 0.480078 6.5
      vertex -18 0.480078 7.59808
      vertex -18.5729 0.480078 7.85317
    endloop
  endfacet
  facet normal -3.1466e-016 -1 -2.8251e-016
    outer loop
      vertex -20.366 0.480078 6.5
      vertex -17.4926 0.480078 7.22943
      vertex -18 0.480078 7.59808
    endloop
  endfacet
  facet normal -2.88445e-016 -1 -3.85781e-016
    outer loop
      vertex -20.366 0.480078 6.5
      vertex -18.634 0.480078 6.5
      vertex -17.4926 0.480078 7.22943
    endloop
  endfacet
  facet normal -3.02792e-016 -1 -3.0628e-016
    outer loop
      vertex -21.2321 0.480078 5
      vertex -20.366 0.480078 6.5
      vertex -22.4344 0.480078 4.37627
    endloop
  endfacet
  facet normal 0.866025 0 -0.5
    outer loop
      vertex 24.5 0.48 5
      vertex 21.6132 0.48 0
      vertex 21.6132 4.48 0
    endloop
  endfacet
  facet normal 0.866025 -1.11022e-016 -0.5
    outer loop
      vertex 24.5 4.48 5
      vertex 24.5 0.48 5
      vertex 21.6132 4.48 0
    endloop
  endfacet
  facet normal 0.866025 9.61463e-017 -0.5
    outer loop
      vertex 17.7679 4.48 5
      vertex 18.634 4.48 6.5
      vertex 18.634 0.480078 6.5
    endloop
  endfacet
  facet normal 0.866025 1.11025e-016 -0.5
    outer loop
      vertex 17.7679 0.480078 5
      vertex 17.7679 4.48 5
      vertex 18.634 0.480078 6.5
    endloop
  endfacet
  facet normal 0.866025 -1.11025e-016 0.5
    outer loop
      vertex 18.634 0.480078 3.5
      vertex 18.634 4.48 3.5
      vertex 17.7679 4.48 5
    endloop
  endfacet
  facet normal 0.866025 -1.11025e-016 0.5
    outer loop
      vertex 17.7679 0.480078 5
      vertex 18.634 0.480078 3.5
      vertex 17.7679 4.48 5
    endloop
  endfacet
  facet normal 0 2.22049e-016 -1
    outer loop
      vertex 20.366 4.48 6.5
      vertex 20.366 0.480078 6.5
      vertex 18.634 4.48 6.5
    endloop
  endfacet
  facet normal 1.1386e-031 2.22049e-016 -1
    outer loop
      vertex 18.634 4.48 6.5
      vertex 20.366 0.480078 6.5
      vertex 18.634 0.480078 6.5
    endloop
  endfacet
  facet normal -0.866025 1.11025e-016 -0.5
    outer loop
      vertex 21.2321 4.48 5
      vertex 21.2321 0.480078 5
      vertex 20.366 4.48 6.5
    endloop
  endfacet
  facet normal -0.866025 8.80224e-016 -0.5
    outer loop
      vertex 20.366 4.48 6.5
      vertex 21.2321 0.480078 5
      vertex 20.366 0.480078 6.5
    endloop
  endfacet
  facet normal -0.866025 -1.11025e-016 0.5
    outer loop
      vertex 21.2321 4.48 5
      vertex 20.366 4.48 3.5
      vertex 21.2321 0.480078 5
    endloop
  endfacet
  facet normal -0.866025 6.73024e-016 0.5
    outer loop
      vertex 21.2321 0.480078 5
      vertex 20.366 4.48 3.5
      vertex 20.366 0.480078 3.5
    endloop
  endfacet
  facet normal 0 -2.22049e-016 1
    outer loop
      vertex 20.366 0.480078 3.5
      vertex 20.366 4.48 3.5
      vertex 18.634 4.48 3.5
    endloop
  endfacet
  facet normal -6.40488e-032 -2.22049e-016 1
    outer loop
      vertex 18.634 0.480078 3.5
      vertex 20.366 0.480078 3.5
      vertex 18.634 4.48 3.5
    endloop
  endfacet
  facet normal 0.994522 0 0.104528
    outer loop
      vertex 16.5656 0.48 4.37627
      vertex 16.5656 0.480078 4.37627
      vertex 16.5 0.480078 5
    endloop
  endfacet
  facet normal 0.994522 0 0.104528
    outer loop
      vertex 16.5 0.48 5
      vertex 16.5656 0.48 4.37627
      vertex 16.5 0.480078 5
    endloop
  endfacet
  facet normal 0.951056 0 0.309018
    outer loop
      vertex 16.7594 0.48 3.77979
      vertex 16.7594 0.480078 3.77979
      vertex 16.5656 0.480078 4.37627
    endloop
  endfacet
  facet normal 0.951056 0 0.309018
    outer loop
      vertex 16.5656 0.48 4.37627
      vertex 16.7594 0.48 3.77979
      vertex 16.5656 0.480078 4.37627
    endloop
  endfacet
  facet normal 0.866026 0 0.499999
    outer loop
      vertex 17.0729 0.48 3.23664
      vertex 17.0729 0.480078 3.23664
      vertex 16.7594 0.480078 3.77979
    endloop
  endfacet
  facet normal 0.866026 0 0.499999
    outer loop
      vertex 16.7594 0.48 3.77979
      vertex 17.0729 0.48 3.23664
      vertex 16.7594 0.480078 3.77979
    endloop
  endfacet
  facet normal 0.743144 0 0.669131
    outer loop
      vertex 17.4926 0.48 2.77057
      vertex 17.4926 0.480078 2.77057
      vertex 17.0729 0.480078 3.23664
    endloop
  endfacet
  facet normal 0.743144 0 0.669131
    outer loop
      vertex 17.0729 0.48 3.23664
      vertex 17.4926 0.48 2.77057
      vertex 17.0729 0.480078 3.23664
    endloop
  endfacet
  facet normal 0.587785 0 0.809017
    outer loop
      vertex 18 0.48 2.40192
      vertex 18 0.480078 2.40192
      vertex 17.4926 0.480078 2.77057
    endloop
  endfacet
  facet normal 0.587785 0 0.809017
    outer loop
      vertex 17.4926 0.48 2.77057
      vertex 18 0.48 2.40192
      vertex 17.4926 0.480078 2.77057
    endloop
  endfacet
  facet normal 0.406738 0 0.913545
    outer loop
      vertex 18.5729 0.48 2.14683
      vertex 18.5729 0.480078 2.14683
      vertex 18 0.480078 2.40192
    endloop
  endfacet
  facet normal 0.406738 0 0.913545
    outer loop
      vertex 18 0.48 2.40192
      vertex 18.5729 0.48 2.14683
      vertex 18 0.480078 2.40192
    endloop
  endfacet
  facet normal 0.207911 0 0.978148
    outer loop
      vertex 19.1864 0.48 2.01643
      vertex 19.1864 0.480078 2.01643
      vertex 18.5729 0.480078 2.14683
    endloop
  endfacet
  facet normal 0.207911 0 0.978148
    outer loop
      vertex 18.5729 0.48 2.14683
      vertex 19.1864 0.48 2.01643
      vertex 18.5729 0.480078 2.14683
    endloop
  endfacet
  facet normal 0 0 1
    outer loop
      vertex 19.8136 0.48 2.01643
      vertex 19.8136 0.480078 2.01643
      vertex 19.1864 0.480078 2.01643
    endloop
  endfacet
  facet normal 0 0 1
    outer loop
      vertex 19.1864 0.48 2.01643
      vertex 19.8136 0.48 2.01643
      vertex 19.1864 0.480078 2.01643
    endloop
  endfacet
  facet normal -0.207911 0 0.978148
    outer loop
      vertex 20.4271 0.48 2.14683
      vertex 20.4271 0.480078 2.14683
      vertex 19.8136 0.480078 2.01643
    endloop
  endfacet
  facet normal -0.207911 0 0.978148
    outer loop
      vertex 19.8136 0.48 2.01643
      vertex 20.4271 0.48 2.14683
      vertex 19.8136 0.480078 2.01643
    endloop
  endfacet
  facet normal -0.406738 0 0.913545
    outer loop
      vertex 21 0.48 2.40192
      vertex 21 0.480078 2.40192
      vertex 20.4271 0.480078 2.14683
    endloop
  endfacet
  facet normal -0.406738 0 0.913545
    outer loop
      vertex 20.4271 0.48 2.14683
      vertex 21 0.48 2.40192
      vertex 20.4271 0.480078 2.14683
    endloop
  endfacet
  facet normal -0.587785 0 0.809017
    outer loop
      vertex 21.5074 0.48 2.77057
      vertex 21.5074 0.480078 2.77057
      vertex 21 0.480078 2.40192
    endloop
  endfacet
  facet normal -0.587785 0 0.809017
    outer loop
      vertex 21 0.48 2.40192
      vertex 21.5074 0.48 2.77057
      vertex 21 0.480078 2.40192
    endloop
  endfacet
  facet normal -0.743144 0 0.669131
    outer loop
      vertex 21.9271 0.480078 3.23664
      vertex 21.5074 0.480078 2.77057
      vertex 21.9271 0.48 3.23664
    endloop
  endfacet
  facet normal -0.743144 0 0.669131
    outer loop
      vertex 21.9271 0.48 3.23664
      vertex 21.5074 0.480078 2.77057
      vertex 21.5074 0.48 2.77057
    endloop
  endfacet
  facet normal -0.866026 0 0.499999
    outer loop
      vertex 22.2406 0.480078 3.77979
      vertex 21.9271 0.480078 3.23664
      vertex 22.2406 0.48 3.77979
    endloop
  endfacet
  facet normal -0.866026 0 0.499999
    outer loop
      vertex 22.2406 0.48 3.77979
      vertex 21.9271 0.480078 3.23664
      vertex 21.9271 0.48 3.23664
    endloop
  endfacet
  facet normal -0.951056 0 0.309018
    outer loop
      vertex 22.4344 0.480078 4.37627
      vertex 22.2406 0.480078 3.77979
      vertex 22.4344 0.48 4.37627
    endloop
  endfacet
  facet normal -0.951056 0 0.309018
    outer loop
      vertex 22.4344 0.48 4.37627
      vertex 22.2406 0.480078 3.77979
      vertex 22.2406 0.48 3.77979
    endloop
  endfacet
  facet normal -0.994522 0 0.104528
    outer loop
      vertex 22.5 0.480078 5
      vertex 22.4344 0.480078 4.37627
      vertex 22.5 0.48 5
    endloop
  endfacet
  facet normal -0.994522 0 0.104528
    outer loop
      vertex 22.5 0.48 5
      vertex 22.4344 0.480078 4.37627
      vertex 22.4344 0.48 4.37627
    endloop
  endfacet
  facet normal -0.994522 0 -0.104528
    outer loop
      vertex 22.5 0.480078 5
      vertex 22.5 0.48 5
      vertex 22.4344 0.480078 5.62373
    endloop
  endfacet
  facet normal -0.994522 0 -0.104528
    outer loop
      vertex 22.4344 0.480078 5.62373
      vertex 22.5 0.48 5
      vertex 22.4344 0.48 5.62373
    endloop
  endfacet
  facet normal -0.951056 0 -0.309018
    outer loop
      vertex 22.4344 0.480078 5.62373
      vertex 22.4344 0.48 5.62373
      vertex 22.2406 0.480078 6.22021
    endloop
  endfacet
  facet normal -0.951056 0 -0.309018
    outer loop
      vertex 22.2406 0.480078 6.22021
      vertex 22.4344 0.48 5.62373
      vertex 22.2406 0.48 6.22021
    endloop
  endfacet
  facet normal -0.866026 0 -0.499999
    outer loop
      vertex 22.2406 0.480078 6.22021
      vertex 22.2406 0.48 6.22021
      vertex 21.9271 0.480078 6.76336
    endloop
  endfacet
  facet normal -0.866026 0 -0.499999
    outer loop
      vertex 21.9271 0.480078 6.76336
      vertex 22.2406 0.48 6.22021
      vertex 21.9271 0.48 6.76336
    endloop
  endfacet
  facet normal -0.743144 0 -0.669131
    outer loop
      vertex 21.9271 0.480078 6.76336
      vertex 21.9271 0.48 6.76336
      vertex 21.5074 0.480078 7.22943
    endloop
  endfacet
  facet normal -0.743144 0 -0.669131
    outer loop
      vertex 21.5074 0.480078 7.22943
      vertex 21.9271 0.48 6.76336
      vertex 21.5074 0.48 7.22943
    endloop
  endfacet
  facet normal -0.587785 0 -0.809017
    outer loop
      vertex 21.5074 0.480078 7.22943
      vertex 21.5074 0.48 7.22943
      vertex 21 0.480078 7.59808
    endloop
  endfacet
  facet normal -0.587785 0 -0.809017
    outer loop
      vertex 21 0.480078 7.59808
      vertex 21.5074 0.48 7.22943
      vertex 21 0.48 7.59808
    endloop
  endfacet
  facet normal -0.406738 0 -0.913545
    outer loop
      vertex 21 0.480078 7.59808
      vertex 21 0.48 7.59808
      vertex 20.4271 0.480078 7.85317
    endloop
  endfacet
  facet normal -0.406738 0 -0.913545
    outer loop
      vertex 20.4271 0.480078 7.85317
      vertex 21 0.48 7.59808
      vertex 20.4271 0.48 7.85317
    endloop
  endfacet
  facet normal -0.207911 0 -0.978148
    outer loop
      vertex 20.4271 0.480078 7.85317
      vertex 20.4271 0.48 7.85317
      vertex 19.8136 0.480078 7.98357
    endloop
  endfacet
  facet normal -0.207911 0 -0.978148
    outer loop
      vertex 19.8136 0.480078 7.98357
      vertex 20.4271 0.48 7.85317
      vertex 19.8136 0.48 7.98357
    endloop
  endfacet
  facet normal 0 0 -1
    outer loop
      vertex 19.8136 0.480078 7.98357
      vertex 19.8136 0.48 7.98357
      vertex 19.1864 0.480078 7.98357
    endloop
  endfacet
  facet normal 0 0 -1
    outer loop
      vertex 19.1864 0.480078 7.98357
      vertex 19.8136 0.48 7.98357
      vertex 19.1864 0.48 7.98357
    endloop
  endfacet
  facet normal 0.207911 0 -0.978148
    outer loop
      vertex 19.1864 0.480078 7.98357
      vertex 19.1864 0.48 7.98357
      vertex 18.5729 0.480078 7.85317
    endloop
  endfacet
  facet normal 0.207911 0 -0.978148
    outer loop
      vertex 18.5729 0.480078 7.85317
      vertex 19.1864 0.48 7.98357
      vertex 18.5729 0.48 7.85317
    endloop
  endfacet
  facet normal 0.406738 0 -0.913545
    outer loop
      vertex 18.5729 0.480078 7.85317
      vertex 18.5729 0.48 7.85317
      vertex 18 0.480078 7.59808
    endloop
  endfacet
  facet normal 0.406738 0 -0.913545
    outer loop
      vertex 18 0.480078 7.59808
      vertex 18.5729 0.48 7.85317
      vertex 18 0.48 7.59808
    endloop
  endfacet
  facet normal 0.587785 0 -0.809017
    outer loop
      vertex 18 0.480078 7.59808
      vertex 18 0.48 7.59808
      vertex 17.4926 0.480078 7.22943
    endloop
  endfacet
  facet normal 0.587785 0 -0.809017
    outer loop
      vertex 17.4926 0.480078 7.22943
      vertex 18 0.48 7.59808
      vertex 17.4926 0.48 7.22943
    endloop
  endfacet
  facet normal 0.743144 0 -0.669131
    outer loop
      vertex 17.0729 0.480078 6.76336
      vertex 17.4926 0.480078 7.22943
      vertex 17.4926 0.48 7.22943
    endloop
  endfacet
  facet normal 0.743144 0 -0.669131
    outer loop
      vertex 17.0729 0.48 6.76336
      vertex 17.0729 0.480078 6.76336
      vertex 17.4926 0.48 7.22943
    endloop
  endfacet
  facet normal 0.866026 0 -0.499999
    outer loop
      vertex 16.7594 0.480078 6.22021
      vertex 17.0729 0.480078 6.76336
      vertex 17.0729 0.48 6.76336
    endloop
  endfacet
  facet normal 0.866026 0 -0.499999
    outer loop
      vertex 16.7594 0.48 6.22021
      vertex 16.7594 0.480078 6.22021
      vertex 17.0729 0.48 6.76336
    endloop
  endfacet
  facet normal 0.951056 0 -0.309018
    outer loop
      vertex 16.5656 0.480078 5.62373
      vertex 16.7594 0.480078 6.22021
      vertex 16.7594 0.48 6.22021
    endloop
  endfacet
  facet normal 0.951056 0 -0.309018
    outer loop
      vertex 16.5656 0.48 5.62373
      vertex 16.5656 0.480078 5.62373
      vertex 16.7594 0.48 6.22021
    endloop
  endfacet
  facet normal 0.994522 0 -0.104528
    outer loop
      vertex 16.5 0.480078 5
      vertex 16.5656 0.480078 5.62373
      vertex 16.5656 0.48 5.62373
    endloop
  endfacet
  facet normal 0.994522 0 -0.104528
    outer loop
      vertex 16.5 0.48 5
      vertex 16.5 0.480078 5
      vertex 16.5656 0.48 5.62373
    endloop
  endfacet
  facet normal -2.96282e-016 -1 -3.75464e-016
    outer loop
      vertex 16.5656 0.480078 4.37627
      vertex 16.7594 0.480078 3.77979
      vertex 17.0729 0.480078 3.23664
    endloop
  endfacet
  facet normal -4.48056e-016 -1 -4.66113e-016
    outer loop
      vertex 18 0.480078 2.40192
      vertex 16.5656 0.480078 4.37627
      vertex 17.4926 0.480078 2.77057
    endloop
  endfacet
  facet normal -2.73407e-016 -1 -3.65279e-016
    outer loop
      vertex 17.4926 0.480078 2.77057
      vertex 16.5656 0.480078 4.37627
      vertex 17.0729 0.480078 3.23664
    endloop
  endfacet
  facet normal -2.35732e-016 -1 -3.11851e-016
    outer loop
      vertex 18.5729 0.480078 2.14683
      vertex 16.5656 0.480078 4.37627
      vertex 18 0.480078 2.40192
    endloop
  endfacet
  facet normal -2.4999e-016 -1 -3.24689e-016
    outer loop
      vertex 19.1864 0.480078 2.01643
      vertex 16.5656 0.480078 4.37627
      vertex 18.5729 0.480078 2.14683
    endloop
  endfacet
  facet normal -3.54042e-016 -1 -4.4025e-016
    outer loop
      vertex 19.8136 0.480078 2.01643
      vertex 16.5656 0.480078 4.37627
      vertex 19.1864 0.480078 2.01643
    endloop
  endfacet
  facet normal -2.87763e-016 -1 -3.49026e-016
    outer loop
      vertex 20.4271 0.480078 2.14683
      vertex 16.5656 0.480078 4.37627
      vertex 19.8136 0.480078 2.01643
    endloop
  endfacet
  facet normal -2.56364e-016 -1 -2.9464e-016
    outer loop
      vertex 21 0.480078 2.40192
      vertex 16.5656 0.480078 4.37627
      vertex 20.4271 0.480078 2.14683
    endloop
  endfacet
  facet normal -3.1091e-016 -1 -4.17152e-016
    outer loop
      vertex 18.634 0.480078 3.5
      vertex 16.5656 0.480078 4.37627
      vertex 21 0.480078 2.40192
    endloop
  endfacet
  facet normal -2.88445e-016 -1 -3.75236e-016
    outer loop
      vertex 20.366 0.480078 3.5
      vertex 18.634 0.480078 3.5
      vertex 21.5074 0.480078 2.77057
    endloop
  endfacet
  facet normal -2.81405e-016 -1 -3.47507e-016
    outer loop
      vertex 18.634 0.480078 3.5
      vertex 17.7679 0.480078 5
      vertex 16.5656 0.480078 4.37627
    endloop
  endfacet
  facet normal -3.06462e-016 -1 -3.23782e-016
    outer loop
      vertex 21.2321 0.480078 5
      vertex 22.4344 0.480078 4.37627
      vertex 22.5 0.480078 5
    endloop
  endfacet
  facet normal -3.25093e-016 -1 -3.59697e-016
    outer loop
      vertex 21.2321 0.480078 5
      vertex 22.2406 0.480078 3.77979
      vertex 22.4344 0.480078 4.37627
    endloop
  endfacet
  facet normal -2.99184e-016 -1 -3.38281e-016
    outer loop
      vertex 21.2321 0.480078 5
      vertex 21.9271 0.480078 3.23664
      vertex 22.2406 0.480078 3.77979
    endloop
  endfacet
  facet normal -2.9262e-016 -1 -3.7335e-016
    outer loop
      vertex 20.366 0.480078 6.5
      vertex 22.2406 0.480078 6.22021
      vertex 21.9271 0.480078 6.76336
    endloop
  endfacet
  facet normal -3.54042e-016 -1 -2.81373e-016
    outer loop
      vertex 19.1864 0.480078 7.98357
      vertex 16.5656 0.480078 4.37627
      vertex 19.8136 0.480078 7.98357
    endloop
  endfacet
  facet normal -2.92665e-016 -1 -3.25966e-016
    outer loop
      vertex 18.5729 0.480078 7.85317
      vertex 16.5656 0.480078 4.37627
      vertex 19.1864 0.480078 7.98357
    endloop
  endfacet
  facet normal -2.25032e-016 -1 -3.65014e-016
    outer loop
      vertex 18 0.480078 7.59808
      vertex 16.5656 0.480078 4.37627
      vertex 18.5729 0.480078 7.85317
    endloop
  endfacet
  facet normal -3.08982e-016 -1 -3.27637e-016
    outer loop
      vertex 17.4926 0.480078 7.22943
      vertex 16.5656 0.480078 4.37627
      vertex 18 0.480078 7.59808
    endloop
  endfacet
  facet normal -2.91028e-016 -1 -3.3347e-016
    outer loop
      vertex 17.0729 0.480078 6.76336
      vertex 16.5656 0.480078 4.37627
      vertex 17.4926 0.480078 7.22943
    endloop
  endfacet
  facet normal -3.17124e-016 -1 -3.27924e-016
    outer loop
      vertex 16.7594 0.480078 6.22021
      vertex 16.5656 0.480078 4.37627
      vertex 17.0729 0.480078 6.76336
    endloop
  endfacet
  facet normal -4.73451e-016 -1 -3.11493e-016
    outer loop
      vertex 16.5656 0.480078 5.62373
      vertex 16.5656 0.480078 4.37627
      vertex 16.7594 0.480078 6.22021
    endloop
  endfacet
  facet normal -4.23381e-016 -1 -3.11493e-016
    outer loop
      vertex 16.5 0.480078 5
      vertex 16.5656 0.480078 4.37627
      vertex 16.5656 0.480078 5.62373
    endloop
  endfacet
  facet normal -2.63667e-016 -1 -3.89032e-016
    outer loop
      vertex 19.8136 0.480078 7.98357
      vertex 18.634 0.480078 6.5
      vertex 20.4271 0.480078 7.85317
    endloop
  endfacet
  facet normal -1.40151e-017 -1 -5.87534e-016
    outer loop
      vertex 19.8136 0.480078 7.98357
      vertex 16.5656 0.480078 4.37627
      vertex 18.634 0.480078 6.5
    endloop
  endfacet
  facet normal -2.91268e-016 -1 -3.81362e-016
    outer loop
      vertex 21.5074 0.480078 7.22943
      vertex 20.366 0.480078 6.5
      vertex 21.9271 0.480078 6.76336
    endloop
  endfacet
  facet normal -2.92765e-016 -1 -3.74321e-016
    outer loop
      vertex 20.366 0.480078 6.5
      vertex 22.4344 0.480078 5.62373
      vertex 22.2406 0.480078 6.22021
    endloop
  endfacet
  facet normal -3.06462e-016 -1 -2.99204e-016
    outer loop
      vertex 22.4344 0.480078 5.62373
      vertex 21.2321 0.480078 5
      vertex 22.5 0.480078 5
    endloop
  endfacet
  facet normal -2.72446e-016 -1 -3.50202e-016
    outer loop
      vertex 21.9271 0.480078 3.23664
      vertex 20.366 0.480078 3.5
      vertex 21.5074 0.480078 2.77057
    endloop
  endfacet
  facet normal -2.84808e-016 -1 -3.6091e-016
    outer loop
      vertex 21.5074 0.480078 2.77057
      vertex 18.634 0.480078 3.5
      vertex 21 0.480078 2.40192
    endloop
  endfacet
  facet normal -2.68387e-016 -1 -3.26143e-016
    outer loop
      vertex 21.2321 0.480078 5
      vertex 20.366 0.480078 3.5
      vertex 21.9271 0.480078 3.23664
    endloop
  endfacet
  facet normal -2.81405e-016 -1 -3.47507e-016
    outer loop
      vertex 20.366 0.480078 6.5
      vertex 21.2321 0.480078 5
      vertex 22.4344 0.480078 5.62373
    endloop
  endfacet
  facet normal -2.6771e-016 -1 -3.83674e-016
    outer loop
      vertex 18.634 0.480078 6.5
      vertex 21 0.480078 7.59808
      vertex 20.4271 0.480078 7.85317
    endloop
  endfacet
  facet normal -3.1466e-016 -1 -2.8251e-016
    outer loop
      vertex 18.634 0.480078 6.5
      vertex 21.5074 0.480078 7.22943
      vertex 21 0.480078 7.59808
    endloop
  endfacet
  facet normal -2.88445e-016 -1 -3.85781e-016
    outer loop
      vertex 18.634 0.480078 6.5
      vertex 20.366 0.480078 6.5
      vertex 21.5074 0.480078 7.22943
    endloop
  endfacet
  facet normal -3.02792e-016 -1 -3.0628e-016
    outer loop
      vertex 17.7679 0.480078 5
      vertex 18.634 0.480078 6.5
      vertex 16.5656 0.480078 4.37627
    endloop
  endfacet
endsolid OpenSCAD_Model
