solid OpenSCAD_Model
  facet normal -0.866025 0 -0.5
    outer loop
      vertex -24.5 -0.48 5
      vertex -21.6132 -0.48 5.87811e-017
      vertex -24.5 -4.48 5
    endloop
  endfacet
  facet normal -0.866025 -1.20185e-016 -0.5
    outer loop
      vertex -24.5 -4.48 5
      vertex -21.6132 -0.48 5.87811e-017
      vertex -21.6132 -4.48 5.48624e-016
    endloop
  endfacet
  facet normal -2.46083e-016 1 -1.73023e-016
    outer loop
      vertex -22.2406 -0.48 3.77979
      vertex -21.6132 -0.48 5.87811e-017
      vertex -22.4344 -0.48 4.37626
    endloop
  endfacet
  facet normal 0 1 -1.38667e-016
    outer loop
      vertex -18 -0.48 7.59808
      vertex -21.6132 -0.48 10
      vertex -16.5 -0.48 10
    endloop
  endfacet
  facet normal -3.15179e-016 1 -1.22125e-016
    outer loop
      vertex -16.5656 -0.48 5.62373
      vertex -16.5 -0.48 10
      vertex -16.5 -0.48 5
    endloop
  endfacet
  facet normal -9.93838e-017 1 -1.25357e-016
    outer loop
      vertex -16.7594 -0.48 6.22021
      vertex -16.5 -0.48 10
      vertex -16.5656 -0.48 5.62373
    endloop
  endfacet
  facet normal -4.64013e-017 1 -1.28993e-016
    outer loop
      vertex -17.0729 -0.48 6.76336
      vertex -16.5 -0.48 10
      vertex -16.7594 -0.48 6.22021
    endloop
  endfacet
  facet normal -1.6803e-017 1 -1.34232e-016
    outer loop
      vertex -17.4926 -0.48 7.22943
      vertex -16.5 -0.48 10
      vertex -17.0729 -0.48 6.76336
    endloop
  endfacet
  facet normal 1.06434e-016 1 2.14435e-017
    outer loop
      vertex -18.5729 -0.48 7.85317
      vertex -21.6132 -0.48 10
      vertex -18 -0.48 7.59808
    endloop
  endfacet
  facet normal 2.25327e-017 1 -1.39391e-016
    outer loop
      vertex -21.9271 -0.48 6.76336
      vertex -21.6132 -0.48 10
      vertex -21.5074 -0.48 7.22943
    endloop
  endfacet
  facet normal -3.93152e-017 1 -1.84964e-016
    outer loop
      vertex -19.1864 -0.48 7.98357
      vertex -21.6132 -0.48 10
      vertex -18.5729 -0.48 7.85317
    endloop
  endfacet
  facet normal 0 1 -1.37647e-016
    outer loop
      vertex -19.8136 -0.48 7.98357
      vertex -21.6132 -0.48 10
      vertex -19.1864 -0.48 7.98357
    endloop
  endfacet
  facet normal 2.45924e-017 1 -1.15698e-016
    outer loop
      vertex -20.4271 -0.48 7.85317
      vertex -21.6132 -0.48 10
      vertex -19.8136 -0.48 7.98357
    endloop
  endfacet
  facet normal -3.15605e-017 1 -1.46725e-016
    outer loop
      vertex -21 -0.48 7.59808
      vertex -21.6132 -0.48 10
      vertex -20.4271 -0.48 7.85317
    endloop
  endfacet
  facet normal -7.30289e-018 1 -1.40531e-016
    outer loop
      vertex -21.5074 -0.48 7.22943
      vertex -21.6132 -0.48 10
      vertex -21 -0.48 7.59808
    endloop
  endfacet
  facet normal 3.13952e-017 1 -1.40251e-016
    outer loop
      vertex -24.5 -0.48 5
      vertex -21.6132 -0.48 10
      vertex -21.9271 -0.48 6.76336
    endloop
  endfacet
  facet normal 8.80251e-018 1 -1.07285e-016
    outer loop
      vertex -24.5 -0.48 5
      vertex -21.9271 -0.48 6.76336
      vertex -22.2406 -0.48 6.22021
    endloop
  endfacet
  facet normal 1.36184e-018 1 -9.35078e-017
    outer loop
      vertex -24.5 -0.48 5
      vertex -22.2406 -0.48 6.22021
      vertex -22.4344 -0.48 5.62373
    endloop
  endfacet
  facet normal 0 1 -8.8998e-017
    outer loop
      vertex -24.5 -0.48 5
      vertex -22.4344 -0.48 5.62373
      vertex -22.5 -0.48 5
    endloop
  endfacet
  facet normal 0 1 -1.77996e-016
    outer loop
      vertex -24.5 -0.48 5
      vertex -22.5 -0.48 5
      vertex -22.4344 -0.48 4.37626
    endloop
  endfacet
  facet normal 1.63735e-017 1 -1.23774e-016
    outer loop
      vertex -24.5 -0.48 5
      vertex -22.4344 -0.48 4.37626
      vertex -21.6132 -0.48 5.87811e-017
    endloop
  endfacet
  facet normal -7.28642e-017 1 -1.44271e-016
    outer loop
      vertex -21.9271 -0.48 3.23664
      vertex -21.6132 -0.48 5.87811e-017
      vertex -22.2406 -0.48 3.77979
    endloop
  endfacet
  facet normal -2.25327e-017 1 -1.39391e-016
    outer loop
      vertex -21.5074 -0.48 2.77057
      vertex -21.6132 -0.48 5.87811e-017
      vertex -21.9271 -0.48 3.23664
    endloop
  endfacet
  facet normal 7.30289e-018 1 -1.40531e-016
    outer loop
      vertex -21 -0.48 2.40192
      vertex -21.6132 -0.48 5.87811e-017
      vertex -21.5074 -0.48 2.77057
    endloop
  endfacet
  facet normal 3.15605e-017 1 -1.46725e-016
    outer loop
      vertex -20.4271 -0.48 2.14683
      vertex -21.6132 -0.48 5.87811e-017
      vertex -21 -0.48 2.40192
    endloop
  endfacet
  facet normal 0 1 -1.37647e-016
    outer loop
      vertex -19.1864 -0.48 2.01643
      vertex -21.6132 -0.48 5.87811e-017
      vertex -19.8136 -0.48 2.01643
    endloop
  endfacet
  facet normal 3.93152e-017 1 -1.84964e-016
    outer loop
      vertex -21.6132 -0.48 5.87811e-017
      vertex -19.1864 -0.48 2.01643
      vertex -18.5729 -0.48 2.14683
    endloop
  endfacet
  facet normal -1.06434e-016 1 2.14435e-017
    outer loop
      vertex -18.5729 -0.48 2.14683
      vertex -18 -0.48 2.40192
      vertex -21.6132 -0.48 5.87811e-017
    endloop
  endfacet
  facet normal 0 1 -1.38667e-016
    outer loop
      vertex -18 -0.48 2.40192
      vertex -16.5 -0.48 5.87811e-017
      vertex -21.6132 -0.48 5.87811e-017
    endloop
  endfacet
  facet normal -5.95543e-018 1 -1.42386e-016
    outer loop
      vertex -17.4926 -0.48 2.77057
      vertex -16.5 -0.48 5.87811e-017
      vertex -18 -0.48 2.40192
    endloop
  endfacet
  facet normal 1.6803e-017 1 -1.34232e-016
    outer loop
      vertex -17.0729 -0.48 3.23664
      vertex -16.5 -0.48 5.87811e-017
      vertex -17.4926 -0.48 2.77057
    endloop
  endfacet
  facet normal 4.64013e-017 1 -1.28993e-016
    outer loop
      vertex -16.7594 -0.48 3.77979
      vertex -16.5 -0.48 5.87811e-017
      vertex -17.0729 -0.48 3.23664
    endloop
  endfacet
  facet normal -4.25952e-016 1 -1.33227e-016
    outer loop
      vertex -16.5656 -0.48 4.37626
      vertex -16.5 -0.48 5
      vertex -16.5 -0.48 5.87811e-017
    endloop
  endfacet
  facet normal 9.93838e-017 1 -1.25357e-016
    outer loop
      vertex -16.5656 -0.48 4.37626
      vertex -16.5 -0.48 5.87811e-017
      vertex -16.7594 -0.48 3.77979
    endloop
  endfacet
  facet normal 5.95543e-018 1 -1.42386e-016
    outer loop
      vertex -18 -0.48 7.59808
      vertex -16.5 -0.48 10
      vertex -17.4926 -0.48 7.22943
    endloop
  endfacet
  facet normal -2.45924e-017 1 -1.15698e-016
    outer loop
      vertex -19.8136 -0.48 2.01643
      vertex -21.6132 -0.48 5.87811e-017
      vertex -20.4271 -0.48 2.14683
    endloop
  endfacet
  facet normal -0.866025 0 0.5
    outer loop
      vertex -24.5 -0.48 5
      vertex -24.5 -4.48 5
      vertex -21.6132 -0.48 10
    endloop
  endfacet
  facet normal -0.866025 -7.69185e-016 0.5
    outer loop
      vertex -21.6132 -0.48 10
      vertex -24.5 -4.48 5
      vertex -21.6132 -4.48 10
    endloop
  endfacet
  facet normal -8.53967e-032 -1 1.77636e-016
    outer loop
      vertex -21.6132 -4.48 10
      vertex -24.5 -4.48 5
      vertex -21.6132 -4.48 5.48624e-016
    endloop
  endfacet
  facet normal 0 -1 1.77636e-016
    outer loop
      vertex -12.5 -4.48 10
      vertex -21.6132 -4.48 10
      vertex -12.5 -4.48 5.48624e-016
    endloop
  endfacet
  facet normal 6.46696e-031 -1 1.77636e-016
    outer loop
      vertex -21.2321 -4.48 5
      vertex -21.6132 -4.48 10
      vertex -21.6132 -4.48 5.48624e-016
    endloop
  endfacet
  facet normal 2.71785e-016 -1 1.56915e-016
    outer loop
      vertex -20.366 -4.48 3.5
      vertex -21.2321 -4.48 5
      vertex -21.6132 -4.48 5.48624e-016
    endloop
  endfacet
  facet normal -2.71785e-016 -1 1.56915e-016
    outer loop
      vertex -20.366 -4.48 6.5
      vertex -21.6132 -4.48 10
      vertex -21.2321 -4.48 5
    endloop
  endfacet
  facet normal 0 -1 2.53765e-016
    outer loop
      vertex -18.634 -4.48 6.5
      vertex -21.6132 -4.48 10
      vertex -20.366 -4.48 6.5
    endloop
  endfacet
  facet normal 1.26663e-015 -1 1.33195e-015
    outer loop
      vertex -12.5 -4.48 5.48624e-016
      vertex -21.6132 -4.48 10
      vertex -18.634 -4.48 6.5
    endloop
  endfacet
  facet normal -3.72997e-016 -1 -2.1535e-016
    outer loop
      vertex -12.5 -4.48 5.48624e-016
      vertex -18.634 -4.48 6.5
      vertex -17.7679 -4.48 5
    endloop
  endfacet
  facet normal 0 -1 2.53765e-016
    outer loop
      vertex -12.5 -4.48 5.48624e-016
      vertex -18.634 -4.48 3.5
      vertex -21.6132 -4.48 5.48624e-016
    endloop
  endfacet
  facet normal 0 -1 2.53765e-016
    outer loop
      vertex -18.634 -4.48 3.5
      vertex -20.366 -4.48 3.5
      vertex -21.6132 -4.48 5.48624e-016
    endloop
  endfacet
  facet normal -1.08916e-016 -1 6.28828e-017
    outer loop
      vertex -17.7679 -4.48 5
      vertex -18.634 -4.48 3.5
      vertex -12.5 -4.48 5.48624e-016
    endloop
  endfacet
  facet normal -0 -1.22461e-016 -1
    outer loop
      vertex -21.6132 -0.48 5.87811e-017
      vertex -16.5 -0.48 5.87811e-017
      vertex -21.6132 -4.48 5.48624e-016
    endloop
  endfacet
  facet normal 0 -1.22461e-016 -1
    outer loop
      vertex -14.256 6.906 -8.45713e-016
      vertex -16.5 -0.48 5.87811e-017
      vertex -15.925 3.631 -4.44655e-016
    endloop
  endfacet
  facet normal 0 -1.22461e-016 -1
    outer loop
      vertex -16.5 -0.48 5.87811e-017
      vertex -16.5 0 0
      vertex -15.925 3.631 -4.44655e-016
    endloop
  endfacet
  facet normal 0 -1.22461e-016 -1
    outer loop
      vertex -11.656 9.506 -1.16411e-015
      vertex -16.5 -0.48 5.87811e-017
      vertex -14.256 6.906 -8.45713e-016
    endloop
  endfacet
  facet normal 1.70022e-032 -1.22461e-016 -1
    outer loop
      vertex -8.381 11.175 -1.3685e-015
      vertex -16.5 -0.48 5.87811e-017
      vertex -11.656 9.506 -1.16411e-015
    endloop
  endfacet
  facet normal -9.1812e-033 -1.22461e-016 -1
    outer loop
      vertex -4.75 11.75 -1.43891e-015
      vertex -16.5 -0.48 5.87811e-017
      vertex -8.381 11.175 -1.3685e-015
    endloop
  endfacet
  facet normal 7.34928e-032 -1.22461e-016 -1
    outer loop
      vertex -9.305 6.27 -7.67828e-016
      vertex -16.5 -0.48 5.87811e-017
      vertex -4.75 11.75 -1.43891e-015
    endloop
  endfacet
  facet normal 0 -1.22461e-016 -1
    outer loop
      vertex -12.121 2.395 -2.93293e-016
      vertex -16.5 -0.48 5.87811e-017
      vertex -11.02 4.555 -5.57808e-016
    endloop
  endfacet
  facet normal -1.72731e-032 -1.22461e-016 -1
    outer loop
      vertex -2.355 7.371 -9.02657e-016
      vertex -1.119 11.175 -1.3685e-015
      vertex 2.156 9.506 -1.16411e-015
    endloop
  endfacet
  facet normal 0 -1.22461e-016 -1
    outer loop
      vertex 6 16 -1.95937e-015
      vertex 3 19 -2.32675e-015
      vertex 21 19 -2.32675e-015
    endloop
  endfacet
  facet normal 0 -1.22461e-016 -1
    outer loop
      vertex 18 12 -1.46953e-015
      vertex 21 19 -2.32675e-015
      vertex 21 -0.48 5.87811e-017
    endloop
  endfacet
  facet normal -3.93837e-032 -1.22461e-016 -1
    outer loop
      vertex -2.355 7.371 -9.02657e-016
      vertex 2.156 9.506 -1.16411e-015
      vertex 3 8.662 -1.06075e-015
    endloop
  endfacet
  facet normal -4.07004e-032 -1.22461e-016 -1
    outer loop
      vertex -2.355 7.371 -9.02657e-016
      vertex 3 8.662 -1.06075e-015
      vertex -0.195 6.27 -7.67828e-016
    endloop
  endfacet
  facet normal -0 -1.22461e-016 -1
    outer loop
      vertex 3 -4.48 5.48624e-016
      vertex 21.6132 -0.48 5.87811e-017
      vertex 21.6132 -4.48 5.48624e-016
    endloop
  endfacet
  facet normal 0 -1.22461e-016 -1
    outer loop
      vertex 3 8.662 -1.06075e-015
      vertex 21 -0.48 5.87811e-017
      vertex 3 0 0
    endloop
  endfacet
  facet normal 2.81708e-031 -1.22461e-016 -1
    outer loop
      vertex 3 8.662 -1.06075e-015
      vertex 3 0 0
      vertex 2.621 2.395 -2.93293e-016
    endloop
  endfacet
  facet normal -6.27193e-032 -1.22461e-016 -1
    outer loop
      vertex 3 8.662 -1.06075e-015
      vertex 2.621 2.395 -2.93293e-016
      vertex 1.52 4.555 -5.57808e-016
    endloop
  endfacet
  facet normal 0 -1.22461e-016 -1
    outer loop
      vertex 3 8.662 -1.06075e-015
      vertex 1.52 4.555 -5.57808e-016
      vertex -0.195 6.27 -7.67828e-016
    endloop
  endfacet
  facet normal 5.30154e-032 -1.22461e-016 -1
    outer loop
      vertex -4.75 7.75 -9.4907e-016
      vertex -1.119 11.175 -1.3685e-015
      vertex -2.355 7.371 -9.02657e-016
    endloop
  endfacet
  facet normal -7.78574e-032 -1.22461e-016 -1
    outer loop
      vertex -7.145 7.371 -9.02657e-016
      vertex -1.119 11.175 -1.3685e-015
      vertex -4.75 7.75 -9.4907e-016
    endloop
  endfacet
  facet normal -9.86182e-032 -1.22461e-016 -1
    outer loop
      vertex -12.121 2.395 -2.93293e-016
      vertex -21.6132 -4.48 5.48624e-016
      vertex -16.5 -0.48 5.87811e-017
    endloop
  endfacet
  facet normal 0 -1.22461e-016 -1
    outer loop
      vertex -1.119 11.175 -1.3685e-015
      vertex -7.145 7.371 -9.02657e-016
      vertex -4.75 11.75 -1.43891e-015
    endloop
  endfacet
  facet normal 0 -1.22461e-016 -1
    outer loop
      vertex -11.02 4.555 -5.57808e-016
      vertex -16.5 -0.48 5.87811e-017
      vertex -9.305 6.27 -7.67828e-016
    endloop
  endfacet
  facet normal 1.03943e-031 -1.22461e-016 -1
    outer loop
      vertex -7.145 7.371 -9.02657e-016
      vertex -9.305 6.27 -7.67828e-016
      vertex -4.75 11.75 -1.43891e-015
    endloop
  endfacet
  facet normal 0 -1.22461e-016 -1
    outer loop
      vertex -12.5 0 0
      vertex -21.6132 -4.48 5.48624e-016
      vertex -12.121 2.395 -2.93293e-016
    endloop
  endfacet
  facet normal 0 -1.22461e-016 -1
    outer loop
      vertex -12.5 -4.48 5.48624e-016
      vertex -21.6132 -4.48 5.48624e-016
      vertex -12.5 0 0
    endloop
  endfacet
  facet normal 4.24752e-032 -1.22461e-016 -1
    outer loop
      vertex 3 8.662 -1.06075e-015
      vertex 3 19 -2.32675e-015
      vertex 6 16 -1.95937e-015
    endloop
  endfacet
  facet normal 0 -1.22461e-016 -1
    outer loop
      vertex 8 16 -1.95937e-015
      vertex 6 16 -1.95937e-015
      vertex 21 19 -2.32675e-015
    endloop
  endfacet
  facet normal 5.53088e-032 -1.22461e-016 -1
    outer loop
      vertex 3 8.662 -1.06075e-015
      vertex 6 16 -1.95937e-015
      vertex 6 12 -1.46953e-015
    endloop
  endfacet
  facet normal 0 -1.22461e-016 -1
    outer loop
      vertex 3 8.662 -1.06075e-015
      vertex 6 12 -1.46953e-015
      vertex 8 12 -1.46953e-015
    endloop
  endfacet
  facet normal 0 -1.22461e-016 -1
    outer loop
      vertex 3 8.662 -1.06075e-015
      vertex 8 12 -1.46953e-015
      vertex 21 19 -2.32675e-015
    endloop
  endfacet
  facet normal 0 -1.22461e-016 -1
    outer loop
      vertex 18 12 -1.46953e-015
      vertex 21 -0.48 5.87811e-017
      vertex 16 12 -1.46953e-015
    endloop
  endfacet
  facet normal 8.64417e-031 -1.22461e-016 -1
    outer loop
      vertex 3 8.662 -1.06075e-015
      vertex 21 19 -2.32675e-015
      vertex 16 16 -1.95937e-015
    endloop
  endfacet
  facet normal 0 -1.22461e-016 -1
    outer loop
      vertex 3 8.662 -1.06075e-015
      vertex 16 16 -1.95937e-015
      vertex 16 12 -1.46953e-015
    endloop
  endfacet
  facet normal 2.78992e-033 -1.22461e-016 -1
    outer loop
      vertex 3 8.662 -1.06075e-015
      vertex 16 12 -1.46953e-015
      vertex 21 -0.48 5.87811e-017
    endloop
  endfacet
  facet normal 0 -1.22461e-016 -1
    outer loop
      vertex 18 16 -1.95937e-015
      vertex 21 19 -2.32675e-015
      vertex 18 12 -1.46953e-015
    endloop
  endfacet
  facet normal -0 -1.22461e-016 -1
    outer loop
      vertex 16 16 -1.95937e-015
      vertex 21 19 -2.32675e-015
      vertex 18 16 -1.95937e-015
    endloop
  endfacet
  facet normal -0 -1.22461e-016 -1
    outer loop
      vertex 21 -0.48 5.87811e-017
      vertex 21.6132 -0.48 5.87811e-017
      vertex 3 -4.48 5.48624e-016
    endloop
  endfacet
  facet normal 3.86906e-034 -1.22461e-016 -1
    outer loop
      vertex 3 0 0
      vertex 21 -0.48 5.87811e-017
      vertex 3 -4.48 5.48624e-016
    endloop
  endfacet
  facet normal 5.00742e-033 -1.22461e-016 -1
    outer loop
      vertex 8 16 -1.95937e-015
      vertex 21 19 -2.32675e-015
      vertex 8 12 -1.46953e-015
    endloop
  endfacet
  facet normal -1 0 0
    outer loop
      vertex -16.5 6.12303e-016 5
      vertex -16.5 0 0
      vertex -16.5 -0.48 5
    endloop
  endfacet
  facet normal -1 0 0
    outer loop
      vertex -16.5 -0.48 5
      vertex -16.5 0 0
      vertex -16.5 -0.48 5.87811e-017
    endloop
  endfacet
  facet normal -0.994522 0 0.104528
    outer loop
      vertex -16.5656 -0.48 4.37626
      vertex -16.5656 -0.480078 4.37626
      vertex -16.5 -0.48 5
    endloop
  endfacet
  facet normal -1.85037e-015 -1.36911e-029 7.40029e-015
    outer loop
      vertex -16.5 -0.480078 5
      vertex -16.5 6.12303e-016 5
      vertex -16.5 -0.48 5
    endloop
  endfacet
  facet normal -0.994522 -4.43614e-011 0.104528
    outer loop
      vertex -16.5 -0.480078 5
      vertex -16.5 -0.48 5
      vertex -16.5656 -0.480078 4.37626
    endloop
  endfacet
  facet normal -0.951056 0 0.309018
    outer loop
      vertex -16.5656 -0.480078 4.37626
      vertex -16.5656 -0.48 4.37626
      vertex -16.7594 -0.480078 3.77979
    endloop
  endfacet
  facet normal -0.951056 0 0.309018
    outer loop
      vertex -16.7594 -0.480078 3.77979
      vertex -16.5656 -0.48 4.37626
      vertex -16.7594 -0.48 3.77979
    endloop
  endfacet
  facet normal -0.866026 0 0.499999
    outer loop
      vertex -16.7594 -0.480078 3.77979
      vertex -16.7594 -0.48 3.77979
      vertex -17.0729 -0.480078 3.23664
    endloop
  endfacet
  facet normal -0.866026 0 0.499999
    outer loop
      vertex -17.0729 -0.480078 3.23664
      vertex -16.7594 -0.48 3.77979
      vertex -17.0729 -0.48 3.23664
    endloop
  endfacet
  facet normal -0.743144 0 0.669131
    outer loop
      vertex -17.0729 -0.480078 3.23664
      vertex -17.0729 -0.48 3.23664
      vertex -17.4926 -0.480078 2.77057
    endloop
  endfacet
  facet normal -0.743144 0 0.669131
    outer loop
      vertex -17.4926 -0.480078 2.77057
      vertex -17.0729 -0.48 3.23664
      vertex -17.4926 -0.48 2.77057
    endloop
  endfacet
  facet normal -0.587785 0 0.809017
    outer loop
      vertex -18 -0.480078 2.40192
      vertex -17.4926 -0.480078 2.77057
      vertex -17.4926 -0.48 2.77057
    endloop
  endfacet
  facet normal -0.587785 0 0.809017
    outer loop
      vertex -18 -0.48 2.40192
      vertex -18 -0.480078 2.40192
      vertex -17.4926 -0.48 2.77057
    endloop
  endfacet
  facet normal -0.406738 0 0.913545
    outer loop
      vertex -18.5729 -0.480078 2.14683
      vertex -18 -0.480078 2.40192
      vertex -18 -0.48 2.40192
    endloop
  endfacet
  facet normal -0.406738 0 0.913545
    outer loop
      vertex -18.5729 -0.48 2.14683
      vertex -18.5729 -0.480078 2.14683
      vertex -18 -0.48 2.40192
    endloop
  endfacet
  facet normal -0.207911 0 0.978148
    outer loop
      vertex -19.1864 -0.480078 2.01643
      vertex -18.5729 -0.480078 2.14683
      vertex -18.5729 -0.48 2.14683
    endloop
  endfacet
  facet normal -0.207911 0 0.978148
    outer loop
      vertex -19.1864 -0.48 2.01643
      vertex -19.1864 -0.480078 2.01643
      vertex -18.5729 -0.48 2.14683
    endloop
  endfacet
  facet normal 0 0 1
    outer loop
      vertex -19.8136 -0.480078 2.01643
      vertex -19.1864 -0.480078 2.01643
      vertex -19.1864 -0.48 2.01643
    endloop
  endfacet
  facet normal 0 -0 1
    outer loop
      vertex -19.8136 -0.48 2.01643
      vertex -19.8136 -0.480078 2.01643
      vertex -19.1864 -0.48 2.01643
    endloop
  endfacet
  facet normal 0.207911 0 0.978148
    outer loop
      vertex -20.4271 -0.480078 2.14683
      vertex -19.8136 -0.480078 2.01643
      vertex -19.8136 -0.48 2.01643
    endloop
  endfacet
  facet normal 0.207911 -0 0.978148
    outer loop
      vertex -20.4271 -0.48 2.14683
      vertex -20.4271 -0.480078 2.14683
      vertex -19.8136 -0.48 2.01643
    endloop
  endfacet
  facet normal 0.406738 0 0.913545
    outer loop
      vertex -21 -0.480078 2.40192
      vertex -20.4271 -0.480078 2.14683
      vertex -20.4271 -0.48 2.14683
    endloop
  endfacet
  facet normal 0.406738 -0 0.913545
    outer loop
      vertex -21 -0.48 2.40192
      vertex -21 -0.480078 2.40192
      vertex -20.4271 -0.48 2.14683
    endloop
  endfacet
  facet normal 0.587785 0 0.809017
    outer loop
      vertex -21.5074 -0.480078 2.77057
      vertex -21 -0.480078 2.40192
      vertex -21 -0.48 2.40192
    endloop
  endfacet
  facet normal 0.587785 -0 0.809017
    outer loop
      vertex -21.5074 -0.48 2.77057
      vertex -21.5074 -0.480078 2.77057
      vertex -21 -0.48 2.40192
    endloop
  endfacet
  facet normal 0.743144 0 0.669131
    outer loop
      vertex -21.9271 -0.480078 3.23664
      vertex -21.5074 -0.480078 2.77057
      vertex -21.5074 -0.48 2.77057
    endloop
  endfacet
  facet normal 0.743144 -0 0.669131
    outer loop
      vertex -21.9271 -0.48 3.23664
      vertex -21.9271 -0.480078 3.23664
      vertex -21.5074 -0.48 2.77057
    endloop
  endfacet
  facet normal 0.866026 0 0.499999
    outer loop
      vertex -22.2406 -0.480078 3.77979
      vertex -21.9271 -0.480078 3.23664
      vertex -21.9271 -0.48 3.23664
    endloop
  endfacet
  facet normal 0.866026 -0 0.499999
    outer loop
      vertex -22.2406 -0.48 3.77979
      vertex -22.2406 -0.480078 3.77979
      vertex -21.9271 -0.48 3.23664
    endloop
  endfacet
  facet normal 0.951056 0 0.309018
    outer loop
      vertex -22.4344 -0.480078 4.37626
      vertex -22.2406 -0.480078 3.77979
      vertex -22.2406 -0.48 3.77979
    endloop
  endfacet
  facet normal 0.951056 -0 0.309018
    outer loop
      vertex -22.4344 -0.48 4.37626
      vertex -22.4344 -0.480078 4.37626
      vertex -22.2406 -0.48 3.77979
    endloop
  endfacet
  facet normal 0.994522 0 0.104528
    outer loop
      vertex -22.5 -0.480078 5
      vertex -22.4344 -0.480078 4.37626
      vertex -22.4344 -0.48 4.37626
    endloop
  endfacet
  facet normal 0.994522 -0 0.104528
    outer loop
      vertex -22.5 -0.48 5
      vertex -22.5 -0.480078 5
      vertex -22.4344 -0.48 4.37626
    endloop
  endfacet
  facet normal 0.994522 0 -0.104528
    outer loop
      vertex -22.4344 -0.48 5.62373
      vertex -22.4344 -0.480078 5.62373
      vertex -22.5 -0.480078 5
    endloop
  endfacet
  facet normal 0.994522 0 -0.104528
    outer loop
      vertex -22.5 -0.48 5
      vertex -22.4344 -0.48 5.62373
      vertex -22.5 -0.480078 5
    endloop
  endfacet
  facet normal 0.951056 0 -0.309018
    outer loop
      vertex -22.2406 -0.48 6.22021
      vertex -22.2406 -0.480078 6.22021
      vertex -22.4344 -0.480078 5.62373
    endloop
  endfacet
  facet normal 0.951056 0 -0.309018
    outer loop
      vertex -22.4344 -0.48 5.62373
      vertex -22.2406 -0.48 6.22021
      vertex -22.4344 -0.480078 5.62373
    endloop
  endfacet
  facet normal 0.866026 0 -0.499999
    outer loop
      vertex -21.9271 -0.48 6.76336
      vertex -21.9271 -0.480078 6.76336
      vertex -22.2406 -0.480078 6.22021
    endloop
  endfacet
  facet normal 0.866026 0 -0.499999
    outer loop
      vertex -22.2406 -0.48 6.22021
      vertex -21.9271 -0.48 6.76336
      vertex -22.2406 -0.480078 6.22021
    endloop
  endfacet
  facet normal 0.743144 0 -0.669131
    outer loop
      vertex -21.5074 -0.48 7.22943
      vertex -21.5074 -0.480078 7.22943
      vertex -21.9271 -0.480078 6.76336
    endloop
  endfacet
  facet normal 0.743144 0 -0.669131
    outer loop
      vertex -21.9271 -0.48 6.76336
      vertex -21.5074 -0.48 7.22943
      vertex -21.9271 -0.480078 6.76336
    endloop
  endfacet
  facet normal 0.587785 0 -0.809017
    outer loop
      vertex -21 -0.480078 7.59808
      vertex -21.5074 -0.480078 7.22943
      vertex -21 -0.48 7.59808
    endloop
  endfacet
  facet normal 0.587785 0 -0.809017
    outer loop
      vertex -21 -0.48 7.59808
      vertex -21.5074 -0.480078 7.22943
      vertex -21.5074 -0.48 7.22943
    endloop
  endfacet
  facet normal 0.406738 0 -0.913545
    outer loop
      vertex -20.4271 -0.480078 7.85317
      vertex -21 -0.480078 7.59808
      vertex -20.4271 -0.48 7.85317
    endloop
  endfacet
  facet normal 0.406738 0 -0.913545
    outer loop
      vertex -20.4271 -0.48 7.85317
      vertex -21 -0.480078 7.59808
      vertex -21 -0.48 7.59808
    endloop
  endfacet
  facet normal 0.207911 0 -0.978148
    outer loop
      vertex -19.8136 -0.480078 7.98357
      vertex -20.4271 -0.480078 7.85317
      vertex -19.8136 -0.48 7.98357
    endloop
  endfacet
  facet normal 0.207911 0 -0.978148
    outer loop
      vertex -19.8136 -0.48 7.98357
      vertex -20.4271 -0.480078 7.85317
      vertex -20.4271 -0.48 7.85317
    endloop
  endfacet
  facet normal 0 0 -1
    outer loop
      vertex -19.1864 -0.480078 7.98357
      vertex -19.8136 -0.480078 7.98357
      vertex -19.1864 -0.48 7.98357
    endloop
  endfacet
  facet normal 0 0 -1
    outer loop
      vertex -19.1864 -0.48 7.98357
      vertex -19.8136 -0.480078 7.98357
      vertex -19.8136 -0.48 7.98357
    endloop
  endfacet
  facet normal -0.207911 -0 -0.978148
    outer loop
      vertex -18.5729 -0.480078 7.85317
      vertex -19.1864 -0.480078 7.98357
      vertex -18.5729 -0.48 7.85317
    endloop
  endfacet
  facet normal -0.207911 0 -0.978148
    outer loop
      vertex -18.5729 -0.48 7.85317
      vertex -19.1864 -0.480078 7.98357
      vertex -19.1864 -0.48 7.98357
    endloop
  endfacet
  facet normal -0.406738 -0 -0.913545
    outer loop
      vertex -18 -0.480078 7.59808
      vertex -18.5729 -0.480078 7.85317
      vertex -18 -0.48 7.59808
    endloop
  endfacet
  facet normal -0.406738 0 -0.913545
    outer loop
      vertex -18 -0.48 7.59808
      vertex -18.5729 -0.480078 7.85317
      vertex -18.5729 -0.48 7.85317
    endloop
  endfacet
  facet normal -0.587785 -0 -0.809017
    outer loop
      vertex -17.4926 -0.480078 7.22943
      vertex -18 -0.480078 7.59808
      vertex -17.4926 -0.48 7.22943
    endloop
  endfacet
  facet normal -0.587785 0 -0.809017
    outer loop
      vertex -17.4926 -0.48 7.22943
      vertex -18 -0.480078 7.59808
      vertex -18 -0.48 7.59808
    endloop
  endfacet
  facet normal -0.743144 -0 -0.669131
    outer loop
      vertex -17.0729 -0.480078 6.76336
      vertex -17.4926 -0.480078 7.22943
      vertex -17.0729 -0.48 6.76336
    endloop
  endfacet
  facet normal -0.743144 0 -0.669131
    outer loop
      vertex -17.0729 -0.48 6.76336
      vertex -17.4926 -0.480078 7.22943
      vertex -17.4926 -0.48 7.22943
    endloop
  endfacet
  facet normal -0.866026 -0 -0.499999
    outer loop
      vertex -16.7594 -0.480078 6.22021
      vertex -17.0729 -0.480078 6.76336
      vertex -16.7594 -0.48 6.22021
    endloop
  endfacet
  facet normal -0.866026 0 -0.499999
    outer loop
      vertex -16.7594 -0.48 6.22021
      vertex -17.0729 -0.480078 6.76336
      vertex -17.0729 -0.48 6.76336
    endloop
  endfacet
  facet normal -0.951056 -0 -0.309018
    outer loop
      vertex -16.5656 -0.480078 5.62373
      vertex -16.7594 -0.480078 6.22021
      vertex -16.5656 -0.48 5.62373
    endloop
  endfacet
  facet normal -0.951056 0 -0.309018
    outer loop
      vertex -16.5656 -0.48 5.62373
      vertex -16.7594 -0.480078 6.22021
      vertex -16.7594 -0.48 6.22021
    endloop
  endfacet
  facet normal -3.70104e-015 1.36955e-029 -7.40268e-015
    outer loop
      vertex -16.5 -0.48 5
      vertex -16.5 6.12303e-016 5
      vertex -16.5 -0.480078 5
    endloop
  endfacet
  facet normal -0.994522 -4.31643e-011 -0.104528
    outer loop
      vertex -16.5 -0.48 5
      vertex -16.5 -0.480078 5
      vertex -16.5656 -0.480078 5.62373
    endloop
  endfacet
  facet normal -0.994522 0 -0.104528
    outer loop
      vertex -16.5 -0.48 5
      vertex -16.5656 -0.480078 5.62373
      vertex -16.5656 -0.48 5.62373
    endloop
  endfacet
  facet normal -1 0 0
    outer loop
      vertex -16.5 1.22461e-015 10
      vertex -16.5 6.12303e-016 5
      vertex -16.5 -0.48 10
    endloop
  endfacet
  facet normal -1 0 0
    outer loop
      vertex -16.5 -0.48 10
      vertex -16.5 6.12303e-016 5
      vertex -16.5 -0.48 5
    endloop
  endfacet
  facet normal 0 0 1
    outer loop
      vertex -16.5 -0.48 10
      vertex -21.6132 -0.48 10
      vertex -21.6132 -4.48 10
    endloop
  endfacet
  facet normal 0 0 1
    outer loop
      vertex -12.5 1.22461e-015 10
      vertex -16.5 -0.48 10
      vertex -12.5 -4.48 10
    endloop
  endfacet
  facet normal -0 0 1
    outer loop
      vertex -12.5 -4.48 10
      vertex -16.5 -0.48 10
      vertex -21.6132 -4.48 10
    endloop
  endfacet
  facet normal -5.62456e-016 -2.86696e-016 1
    outer loop
      vertex 7 1.22461e-015 10
      vertex 1.52 4.555 10
      vertex 2.621 2.395 10
    endloop
  endfacet
  facet normal -1.92039e-015 -1.92039e-015 1
    outer loop
      vertex 7 1.22461e-015 10
      vertex -0.195 6.27 10
      vertex 1.52 4.555 10
    endloop
  endfacet
  facet normal 0 0 1
    outer loop
      vertex -1.119 11.175 10
      vertex -9.305 6.27 10
      vertex -7.145 7.371 10
    endloop
  endfacet
  facet normal 0 0 1
    outer loop
      vertex 2.156 9.506 10
      vertex -7.145 7.371 10
      vertex -4.75 7.75 10
    endloop
  endfacet
  facet normal 0 0 1
    outer loop
      vertex 4.756 6.906 10
      vertex -4.75 7.75 10
      vertex -2.355 7.371 10
    endloop
  endfacet
  facet normal 1.51179e-016 4.65279e-016 1
    outer loop
      vertex -15.925 3.631 10
      vertex -16.5 1.22461e-015 10
      vertex -12.121 2.395 10
    endloop
  endfacet
  facet normal 0 -0 1
    outer loop
      vertex -14.256 6.906 10
      vertex -15.925 3.631 10
      vertex -4.75 11.75 10
    endloop
  endfacet
  facet normal 0 0 1
    outer loop
      vertex -14.256 6.906 10
      vertex -4.75 11.75 10
      vertex -8.381 11.175 10
    endloop
  endfacet
  facet normal 9.07261e-017 7.56051e-016 1
    outer loop
      vertex 7 -0.48 10
      vertex 2.621 2.395 10
      vertex 3 1.22461e-015 10
    endloop
  endfacet
  facet normal -0 0 1
    outer loop
      vertex 21.6132 -4.48 10
      vertex 3 1.22461e-015 10
      vertex 3 -4.48 10
    endloop
  endfacet
  facet normal 0 0 1
    outer loop
      vertex 21.6132 -4.48 10
      vertex 7 -0.48 10
      vertex 3 1.22461e-015 10
    endloop
  endfacet
  facet normal -4.05654e-016 0 1
    outer loop
      vertex 7 1.22461e-015 10
      vertex 2.621 2.395 10
      vertex 7 -0.48 10
    endloop
  endfacet
  facet normal 0 0 1
    outer loop
      vertex 6.425 3.631 10
      vertex 4.756 6.906 10
      vertex -2.355 7.371 10
    endloop
  endfacet
  facet normal 0 0 1
    outer loop
      vertex -14.256 6.906 10
      vertex -8.381 11.175 10
      vertex -11.656 9.506 10
    endloop
  endfacet
  facet normal 0 -0 1
    outer loop
      vertex 2.156 9.506 10
      vertex -4.75 7.75 10
      vertex 4.756 6.906 10
    endloop
  endfacet
  facet normal 0 -0 1
    outer loop
      vertex -1.119 11.175 10
      vertex -7.145 7.371 10
      vertex 2.156 9.506 10
    endloop
  endfacet
  facet normal 0 0 1
    outer loop
      vertex -15.925 3.631 10
      vertex -9.305 6.27 10
      vertex -1.119 11.175 10
    endloop
  endfacet
  facet normal 0 0 1
    outer loop
      vertex -15.925 3.631 10
      vertex -11.02 4.555 10
      vertex -9.305 6.27 10
    endloop
  endfacet
  facet normal 0 0 1
    outer loop
      vertex -15.925 3.631 10
      vertex -12.121 2.395 10
      vertex -11.02 4.555 10
    endloop
  endfacet
  facet normal 0 -0 1
    outer loop
      vertex -4.75 11.75 10
      vertex -15.925 3.631 10
      vertex -1.119 11.175 10
    endloop
  endfacet
  facet normal 0 7.41694e-016 1
    outer loop
      vertex -12.121 2.395 10
      vertex -16.5 1.22461e-015 10
      vertex -12.5 1.22461e-015 10
    endloop
  endfacet
  facet normal 0 -0 1
    outer loop
      vertex -16.5 1.22461e-015 10
      vertex -16.5 -0.48 10
      vertex -12.5 1.22461e-015 10
    endloop
  endfacet
  facet normal 0 0 1
    outer loop
      vertex -0.195 6.27 10
      vertex 6.425 3.631 10
      vertex -2.355 7.371 10
    endloop
  endfacet
  facet normal 2.08164e-016 5.22184e-016 1
    outer loop
      vertex 7 1.22461e-015 10
      vertex 6.425 3.631 10
      vertex -0.195 6.27 10
    endloop
  endfacet
  facet normal 0 0 1
    outer loop
      vertex 21.6132 -0.48 10
      vertex 7 -0.48 10
      vertex 21.6132 -4.48 10
    endloop
  endfacet
  facet normal 1 0 0
    outer loop
      vertex -12.5 0 0
      vertex -12.5 1.22461e-015 10
      vertex -12.5 -4.48 10
    endloop
  endfacet
  facet normal 1 0 0
    outer loop
      vertex -12.5 -4.48 5.48624e-016
      vertex -12.5 0 0
      vertex -12.5 -4.48 10
    endloop
  endfacet
  facet normal 0.866025 -6.40975e-017 0.5
    outer loop
      vertex -21.2321 -4.48 5
      vertex -20.366 -4.48 3.5
      vertex -20.366 -0.480078 3.5
    endloop
  endfacet
  facet normal 0.866025 -0 0.5
    outer loop
      vertex -21.2321 -0.480078 5
      vertex -21.2321 -4.48 5
      vertex -20.366 -0.480078 3.5
    endloop
  endfacet
  facet normal 0.866025 0 -0.5
    outer loop
      vertex -20.366 -0.480078 6.5
      vertex -20.366 -4.48 6.5
      vertex -21.2321 -4.48 5
    endloop
  endfacet
  facet normal 0.866025 0 -0.5
    outer loop
      vertex -21.2321 -0.480078 5
      vertex -20.366 -0.480078 6.5
      vertex -21.2321 -4.48 5
    endloop
  endfacet
  facet normal 0 -1.11024e-016 1
    outer loop
      vertex -20.366 -4.48 3.5
      vertex -18.634 -4.48 3.5
      vertex -18.634 -0.480078 3.5
    endloop
  endfacet
  facet normal 3.20244e-032 -1.11024e-016 1
    outer loop
      vertex -20.366 -0.480078 3.5
      vertex -20.366 -4.48 3.5
      vertex -18.634 -0.480078 3.5
    endloop
  endfacet
  facet normal -0.866025 0 0.5
    outer loop
      vertex -17.7679 -4.48 5
      vertex -17.7679 -0.480078 5
      vertex -18.634 -4.48 3.5
    endloop
  endfacet
  facet normal -0.866025 -8.24712e-016 0.5
    outer loop
      vertex -18.634 -4.48 3.5
      vertex -17.7679 -0.480078 5
      vertex -18.634 -0.480078 3.5
    endloop
  endfacet
  facet normal -0.866025 -0 -0.5
    outer loop
      vertex -17.7679 -4.48 5
      vertex -18.634 -4.48 6.5
      vertex -17.7679 -0.480078 5
    endloop
  endfacet
  facet normal -0.866025 -7.6917e-016 -0.5
    outer loop
      vertex -17.7679 -0.480078 5
      vertex -18.634 -4.48 6.5
      vertex -18.634 -0.480078 6.5
    endloop
  endfacet
  facet normal 0 0 -1
    outer loop
      vertex -18.634 -4.48 6.5
      vertex -20.366 -4.48 6.5
      vertex -18.634 -0.480078 6.5
    endloop
  endfacet
  facet normal 0 0 -1
    outer loop
      vertex -18.634 -0.480078 6.5
      vertex -20.366 -4.48 6.5
      vertex -20.366 -0.480078 6.5
    endloop
  endfacet
  facet normal 0.987709 -0.156301 2.14622e-017
    outer loop
      vertex -12.121 2.395 10
      vertex -12.5 1.22461e-015 10
      vertex -12.5 0 0
    endloop
  endfacet
  facet normal 0.987709 -0.156301 1.38824e-017
    outer loop
      vertex -12.121 2.395 -2.93293e-016
      vertex -12.121 2.395 10
      vertex -12.5 0 0
    endloop
  endfacet
  facet normal 0.890936 -0.45413 4.29313e-017
    outer loop
      vertex -11.02 4.555 10
      vertex -12.121 2.395 10
      vertex -12.121 2.395 -2.93293e-016
    endloop
  endfacet
  facet normal 0.890936 -0.45413 4.03348e-017
    outer loop
      vertex -11.02 4.555 -5.57808e-016
      vertex -11.02 4.555 10
      vertex -12.121 2.395 -2.93293e-016
    endloop
  endfacet
  facet normal 0.707107 -0.707107 5.72191e-017
    outer loop
      vertex -9.305 6.27 10
      vertex -11.02 4.555 10
      vertex -11.02 4.555 -5.57808e-016
    endloop
  endfacet
  facet normal 0.707107 -0.707107 6.28037e-017
    outer loop
      vertex -9.305 6.27 -7.67828e-016
      vertex -9.305 6.27 10
      vertex -11.02 4.555 -5.57808e-016
    endloop
  endfacet
  facet normal 0.45413 -0.890936 7.15522e-017
    outer loop
      vertex -7.145 7.371 10
      vertex -9.305 6.27 10
      vertex -9.305 6.27 -7.67828e-016
    endloop
  endfacet
  facet normal 0.45413 -0.890936 7.9131e-017
    outer loop
      vertex -7.145 7.371 -9.02657e-016
      vertex -7.145 7.371 10
      vertex -9.305 6.27 -7.67828e-016
    endloop
  endfacet
  facet normal 0.156301 -0.987709 8.5849e-017
    outer loop
      vertex -4.75 7.75 10
      vertex -7.145 7.371 10
      vertex -7.145 7.371 -9.02657e-016
    endloop
  endfacet
  facet normal 0.156301 -0.987709 8.77262e-017
    outer loop
      vertex -4.75 7.75 -9.4907e-016
      vertex -4.75 7.75 10
      vertex -7.145 7.371 -9.02657e-016
    endloop
  endfacet
  facet normal -0.156301 -0.987709 8.5849e-017
    outer loop
      vertex -2.355 7.371 10
      vertex -4.75 7.75 10
      vertex -4.75 7.75 -9.4907e-016
    endloop
  endfacet
  facet normal -0.156301 -0.987709 8.77262e-017
    outer loop
      vertex -2.355 7.371 -9.02657e-016
      vertex -2.355 7.371 10
      vertex -4.75 7.75 -9.4907e-016
    endloop
  endfacet
  facet normal -0.45413 -0.890936 8.58626e-017
    outer loop
      vertex -0.195 6.27 10
      vertex -2.355 7.371 10
      vertex -2.355 7.371 -9.02657e-016
    endloop
  endfacet
  facet normal -0.45413 -0.890936 7.9131e-017
    outer loop
      vertex -0.195 6.27 -7.67828e-016
      vertex -0.195 6.27 10
      vertex -2.355 7.371 -9.02657e-016
    endloop
  endfacet
  facet normal -0.707107 -0.707107 5.72191e-017
    outer loop
      vertex 1.52 4.555 10
      vertex -0.195 6.27 10
      vertex -0.195 6.27 -7.67828e-016
    endloop
  endfacet
  facet normal -0.707107 -0.707107 6.28037e-017
    outer loop
      vertex 1.52 4.555 -5.57808e-016
      vertex 1.52 4.555 10
      vertex -0.195 6.27 -7.67828e-016
    endloop
  endfacet
  facet normal -0.890936 -0.45413 4.03348e-017
    outer loop
      vertex 1.52 4.555 10
      vertex 1.52 4.555 -5.57808e-016
      vertex 2.621 2.395 10
    endloop
  endfacet
  facet normal -0.890936 -0.45413 4.03348e-017
    outer loop
      vertex 2.621 2.395 10
      vertex 1.52 4.555 -5.57808e-016
      vertex 2.621 2.395 -2.93293e-016
    endloop
  endfacet
  facet normal -0.987709 -0.156301 1.38824e-017
    outer loop
      vertex 2.621 2.395 10
      vertex 2.621 2.395 -2.93293e-016
      vertex 3 1.22461e-015 10
    endloop
  endfacet
  facet normal -0.987709 -0.156301 1.91408e-017
    outer loop
      vertex 3 1.22461e-015 10
      vertex 2.621 2.395 -2.93293e-016
      vertex 3 0 0
    endloop
  endfacet
  facet normal -1 0 0
    outer loop
      vertex 3 1.22461e-015 10
      vertex 3 0 0
      vertex 3 -4.48 10
    endloop
  endfacet
  facet normal -1 0 0
    outer loop
      vertex 3 -4.48 10
      vertex 3 0 0
      vertex 3 -4.48 5.48624e-016
    endloop
  endfacet
  facet normal 0 -1 1.77636e-016
    outer loop
      vertex 21.6132 -4.48 10
      vertex 3 -4.48 10
      vertex 3 -4.48 5.48624e-016
    endloop
  endfacet
  facet normal 1.92143e-031 -1 1.77636e-016
    outer loop
      vertex 24.5 -4.48 5
      vertex 21.6132 -4.48 10
      vertex 21.6132 -4.48 5.48624e-016
    endloop
  endfacet
  facet normal -7.53681e-017 -1 3.1792e-016
    outer loop
      vertex 18.634 -4.48 6.5
      vertex 21.6132 -4.48 10
      vertex 3 -4.48 5.48624e-016
    endloop
  endfacet
  facet normal 5.03083e-017 -1 2.90455e-017
    outer loop
      vertex 18.634 -4.48 3.5
      vertex 17.7679 -4.48 5
      vertex 3 -4.48 5.48624e-016
    endloop
  endfacet
  facet normal 7.4755e-017 -1 -4.31598e-017
    outer loop
      vertex 17.7679 -4.48 5
      vertex 18.634 -4.48 6.5
      vertex 3 -4.48 5.48624e-016
    endloop
  endfacet
  facet normal -2.71785e-016 -1 1.56915e-016
    outer loop
      vertex 21.2321 -4.48 5
      vertex 20.366 -4.48 3.5
      vertex 21.6132 -4.48 5.48624e-016
    endloop
  endfacet
  facet normal 2.71785e-016 -1 1.56915e-016
    outer loop
      vertex 21.2321 -4.48 5
      vertex 21.6132 -4.48 10
      vertex 20.366 -4.48 6.5
    endloop
  endfacet
  facet normal 0 -1 2.53765e-016
    outer loop
      vertex 20.366 -4.48 3.5
      vertex 18.634 -4.48 3.5
      vertex 21.6132 -4.48 5.48624e-016
    endloop
  endfacet
  facet normal -6.46696e-031 -1 1.77636e-016
    outer loop
      vertex 21.6132 -4.48 5.48624e-016
      vertex 21.6132 -4.48 10
      vertex 21.2321 -4.48 5
    endloop
  endfacet
  facet normal 0 -1 2.53765e-016
    outer loop
      vertex 21.6132 -4.48 5.48624e-016
      vertex 18.634 -4.48 3.5
      vertex 3 -4.48 5.48624e-016
    endloop
  endfacet
  facet normal 0 -1 2.53765e-016
    outer loop
      vertex 18.634 -4.48 6.5
      vertex 20.366 -4.48 6.5
      vertex 21.6132 -4.48 10
    endloop
  endfacet
  facet normal 0.866025 -6.12303e-017 -0.5
    outer loop
      vertex 21.6132 -4.48 5.48624e-016
      vertex 21.6132 -0.48 5.87811e-017
      vertex 24.5 -0.48 5
    endloop
  endfacet
  facet normal 0.866025 2.22045e-016 -0.5
    outer loop
      vertex 24.5 -4.48 5
      vertex 21.6132 -4.48 5.48624e-016
      vertex 24.5 -0.48 5
    endloop
  endfacet
  facet normal 0 1 -1.249e-016
    outer loop
      vertex 7 -0.48 10
      vertex 21.6132 -0.48 10
      vertex 7 -0.48 2
    endloop
  endfacet
  facet normal -1.21154e-017 1 -1.29119e-016
    outer loop
      vertex 22.4344 -0.48 5.62373
      vertex 21.6132 -0.48 10
      vertex 24.5 -0.48 5
    endloop
  endfacet
  facet normal 6.27972e-018 1 -1.36852e-016
    outer loop
      vertex 21 -0.48 2
      vertex 24.5 -0.48 5
      vertex 21.6132 -0.48 5.87811e-017
    endloop
  endfacet
  facet normal 2.86361e-017 1 -1.62935e-016
    outer loop
      vertex 21.5074 -0.48 2.77057
      vertex 24.5 -0.48 5
      vertex 21 -0.48 2
    endloop
  endfacet
  facet normal -3.72161e-018 1 -1.04352e-016
    outer loop
      vertex 17.0729 -0.48 3.23664
      vertex 7 -0.48 2
      vertex 16.7594 -0.48 3.77979
    endloop
  endfacet
  facet normal 5.36707e-017 1 -2.24454e-016
    outer loop
      vertex 17.4926 -0.48 7.22943
      vertex 7 -0.48 2
      vertex 18 -0.48 7.59808
    endloop
  endfacet
  facet normal -1.32377e-017 1 -8.76066e-017
    outer loop
      vertex 7 -0.48 2
      vertex 16.5656 -0.48 5.62373
      vertex 16.5 -0.48 5
    endloop
  endfacet
  facet normal 1.48146e-017 1 -1.76439e-016
    outer loop
      vertex 7 -0.48 2
      vertex 16.5 -0.48 5
      vertex 16.5656 -0.48 4.37626
    endloop
  endfacet
  facet normal -5.45654e-018 1 -9.48383e-017
    outer loop
      vertex 7 -0.48 2
      vertex 16.5656 -0.48 4.37626
      vertex 16.7594 -0.48 3.77979
    endloop
  endfacet
  facet normal 0 1 -0
    outer loop
      vertex 20.4271 -0.48 2.14683
      vertex 21 -0.48 2
      vertex 19.8136 -0.48 2.01643
    endloop
  endfacet
  facet normal -1.72046e-018 1 -1.20652e-016
    outer loop
      vertex 7 -0.48 2
      vertex 17.0729 -0.48 3.23664
      vertex 17.4926 -0.48 2.77057
    endloop
  endfacet
  facet normal 4.33793e-019 1 -1.49986e-016
    outer loop
      vertex 7 -0.48 2
      vertex 17.4926 -0.48 2.77057
      vertex 18 -0.48 2.40192
    endloop
  endfacet
  facet normal 2.68441e-018 1 -2.11581e-016
    outer loop
      vertex 7 -0.48 2
      vertex 18 -0.48 2.40192
      vertex 18.5729 -0.48 2.14683
    endloop
  endfacet
  facet normal 0 1 0
    outer loop
      vertex 7 -0.48 2
      vertex 18.5729 -0.48 2.14683
      vertex 19.1864 -0.48 2.01643
    endloop
  endfacet
  facet normal 0 1 0
    outer loop
      vertex 7 -0.48 2
      vertex 19.1864 -0.48 2.01643
      vertex 21 -0.48 2
    endloop
  endfacet
  facet normal 0 1 0
    outer loop
      vertex 19.1864 -0.48 2.01643
      vertex 19.8136 -0.48 2.01643
      vertex 21 -0.48 2
    endloop
  endfacet
  facet normal -3.53944e-017 1 -1.38114e-016
    outer loop
      vertex 21 -0.48 2.40192
      vertex 21 -0.48 2
      vertex 20.4271 -0.48 2.14683
    endloop
  endfacet
  facet normal -1.22046e-017 1 -1.08114e-016
    outer loop
      vertex 21.9271 -0.48 3.23664
      vertex 24.5 -0.48 5
      vertex 21.5074 -0.48 2.77057
    endloop
  endfacet
  facet normal 0 1 -1.77996e-016
    outer loop
      vertex 22.5 -0.48 5
      vertex 24.5 -0.48 5
      vertex 22.4344 -0.48 4.37626
    endloop
  endfacet
  facet normal -9.05946e-018 1 -1.38114e-016
    outer loop
      vertex 21 -0.48 2.40192
      vertex 21.5074 -0.48 2.77057
      vertex 21 -0.48 2
    endloop
  endfacet
  facet normal -2.68988e-017 1 -8.6673e-017
    outer loop
      vertex 22.2406 -0.48 3.77979
      vertex 24.5 -0.48 5
      vertex 21.9271 -0.48 3.23664
    endloop
  endfacet
  facet normal -2.84365e-017 1 -8.38257e-017
    outer loop
      vertex 22.4344 -0.48 4.37626
      vertex 24.5 -0.48 5
      vertex 22.2406 -0.48 3.77979
    endloop
  endfacet
  facet normal 3.6887e-032 1 -8.8998e-017
    outer loop
      vertex 22.4344 -0.48 5.62373
      vertex 24.5 -0.48 5
      vertex 22.5 -0.48 5
    endloop
  endfacet
  facet normal -2.46083e-016 1 -1.73023e-016
    outer loop
      vertex 22.2406 -0.48 6.22021
      vertex 21.6132 -0.48 10
      vertex 22.4344 -0.48 5.62373
    endloop
  endfacet
  facet normal 0 1 -1.37647e-016
    outer loop
      vertex 19.1864 -0.48 7.98357
      vertex 21.6132 -0.48 10
      vertex 19.8136 -0.48 7.98357
    endloop
  endfacet
  facet normal -7.28642e-017 1 -1.44271e-016
    outer loop
      vertex 21.9271 -0.48 6.76336
      vertex 21.6132 -0.48 10
      vertex 22.2406 -0.48 6.22021
    endloop
  endfacet
  facet normal -2.25327e-017 1 -1.39391e-016
    outer loop
      vertex 21.5074 -0.48 7.22943
      vertex 21.6132 -0.48 10
      vertex 21.9271 -0.48 6.76336
    endloop
  endfacet
  facet normal 7.30289e-018 1 -1.40531e-016
    outer loop
      vertex 21 -0.48 7.59808
      vertex 21.6132 -0.48 10
      vertex 21.5074 -0.48 7.22943
    endloop
  endfacet
  facet normal 3.15605e-017 1 -1.46725e-016
    outer loop
      vertex 20.4271 -0.48 7.85317
      vertex 21.6132 -0.48 10
      vertex 21 -0.48 7.59808
    endloop
  endfacet
  facet normal -2.45924e-017 1 -1.15698e-016
    outer loop
      vertex 19.8136 -0.48 7.98357
      vertex 21.6132 -0.48 10
      vertex 20.4271 -0.48 7.85317
    endloop
  endfacet
  facet normal 3.93152e-017 1 -1.84964e-016
    outer loop
      vertex 18.5729 -0.48 7.85317
      vertex 21.6132 -0.48 10
      vertex 19.1864 -0.48 7.98357
    endloop
  endfacet
  facet normal -1.06434e-016 1 2.14435e-017
    outer loop
      vertex 18 -0.48 7.59808
      vertex 21.6132 -0.48 10
      vertex 18.5729 -0.48 7.85317
    endloop
  endfacet
  facet normal 4.27082e-017 1 -2.02913e-016
    outer loop
      vertex 7 -0.48 2
      vertex 21.6132 -0.48 10
      vertex 18 -0.48 7.59808
    endloop
  endfacet
  facet normal 2.11222e-018 1 -1.21005e-016
    outer loop
      vertex 17.0729 -0.48 6.76336
      vertex 7 -0.48 2
      vertex 17.4926 -0.48 7.22943
    endloop
  endfacet
  facet normal -9.32457e-018 1 -9.68195e-017
    outer loop
      vertex 7 -0.48 2
      vertex 17.0729 -0.48 6.76336
      vertex 16.7594 -0.48 6.22021
    endloop
  endfacet
  facet normal -1.27376e-017 1 -8.89266e-017
    outer loop
      vertex 7 -0.48 2
      vertex 16.7594 -0.48 6.22021
      vertex 16.5656 -0.48 5.62373
    endloop
  endfacet
  facet normal 0 1 -1.38778e-016
    outer loop
      vertex 21 -0.48 2
      vertex 21.6132 -0.48 5.87811e-017
      vertex 21 -0.48 5.87811e-017
    endloop
  endfacet
  facet normal 1 0 0
    outer loop
      vertex 21 19 -2.32675e-015
      vertex 21 19 2
      vertex 21 -0.48 2
    endloop
  endfacet
  facet normal 1 0 0
    outer loop
      vertex 21 -0.48 5.87811e-017
      vertex 21 19 -2.32675e-015
      vertex 21 -0.48 2
    endloop
  endfacet
  facet normal 0 1 -0
    outer loop
      vertex 3 19 2
      vertex 21 19 2
      vertex 3 19 -2.32675e-015
    endloop
  endfacet
  facet normal 0 1 0
    outer loop
      vertex 3 19 -2.32675e-015
      vertex 21 19 2
      vertex 21 19 -2.32675e-015
    endloop
  endfacet
  facet normal -1 0 0
    outer loop
      vertex 3 19 2
      vertex 3 19 -2.32675e-015
      vertex 3 8.662 2
    endloop
  endfacet
  facet normal -1 0 0
    outer loop
      vertex 3 8.662 2
      vertex 3 19 -2.32675e-015
      vertex 3 8.662 -1.06075e-015
    endloop
  endfacet
  facet normal 0.707107 0.707107 0
    outer loop
      vertex 2.156 9.506 -1.16411e-015
      vertex 2.156 9.506 10
      vertex 4.756 6.906 10
    endloop
  endfacet
  facet normal 0.707107 0.707107 -6.78435e-016
    outer loop
      vertex 3 8.662 2
      vertex 2.156 9.506 -1.16411e-015
      vertex 4.756 6.906 10
    endloop
  endfacet
  facet normal 0.707107 0.707107 -7.85046e-017
    outer loop
      vertex 4.756 6.906 2
      vertex 3 8.662 2
      vertex 4.756 6.906 10
    endloop
  endfacet
  facet normal 0.707107 0.707107 -0
    outer loop
      vertex 3 8.662 2
      vertex 3 8.662 -1.06075e-015
      vertex 2.156 9.506 -1.16411e-015
    endloop
  endfacet
  facet normal 0.454056 0.890973 -0
    outer loop
      vertex -1.119 11.175 10
      vertex 2.156 9.506 10
      vertex -1.119 11.175 -1.3685e-015
    endloop
  endfacet
  facet normal 0.454056 0.890973 0
    outer loop
      vertex -1.119 11.175 -1.3685e-015
      vertex 2.156 9.506 10
      vertex 2.156 9.506 -1.16411e-015
    endloop
  endfacet
  facet normal 0.15641 0.987692 -0
    outer loop
      vertex -4.75 11.75 10
      vertex -1.119 11.175 10
      vertex -4.75 11.75 -1.43891e-015
    endloop
  endfacet
  facet normal 0.15641 0.987692 0
    outer loop
      vertex -4.75 11.75 -1.43891e-015
      vertex -1.119 11.175 10
      vertex -1.119 11.175 -1.3685e-015
    endloop
  endfacet
  facet normal -0.15641 0.987692 0
    outer loop
      vertex -8.381 11.175 10
      vertex -4.75 11.75 10
      vertex -8.381 11.175 -1.3685e-015
    endloop
  endfacet
  facet normal -0.15641 0.987692 0
    outer loop
      vertex -8.381 11.175 -1.3685e-015
      vertex -4.75 11.75 10
      vertex -4.75 11.75 -1.43891e-015
    endloop
  endfacet
  facet normal -0.454056 0.890973 0
    outer loop
      vertex -11.656 9.506 10
      vertex -8.381 11.175 10
      vertex -11.656 9.506 -1.16411e-015
    endloop
  endfacet
  facet normal -0.454056 0.890973 0
    outer loop
      vertex -11.656 9.506 -1.16411e-015
      vertex -8.381 11.175 10
      vertex -8.381 11.175 -1.3685e-015
    endloop
  endfacet
  facet normal -0.707107 0.707107 -6.28037e-017
    outer loop
      vertex -14.256 6.906 10
      vertex -11.656 9.506 10
      vertex -14.256 6.906 -8.45713e-016
    endloop
  endfacet
  facet normal -0.707107 0.707107 0
    outer loop
      vertex -14.256 6.906 -8.45713e-016
      vertex -11.656 9.506 10
      vertex -11.656 9.506 -1.16411e-015
    endloop
  endfacet
  facet normal -0.890973 0.454056 -4.03283e-017
    outer loop
      vertex -15.925 3.631 10
      vertex -14.256 6.906 10
      vertex -15.925 3.631 -4.44655e-016
    endloop
  endfacet
  facet normal -0.890973 0.454056 -3.77549e-017
    outer loop
      vertex -15.925 3.631 -4.44655e-016
      vertex -14.256 6.906 10
      vertex -14.256 6.906 -8.45713e-016
    endloop
  endfacet
  facet normal -0.987692 0.15641 -1.9154e-017
    outer loop
      vertex -16.5 1.22461e-015 10
      vertex -15.925 3.631 10
      vertex -16.5 6.12303e-016 5
    endloop
  endfacet
  facet normal -0.987692 0.15641 -1.88749e-017
    outer loop
      vertex -16.5 6.12303e-016 5
      vertex -15.925 3.631 10
      vertex -15.925 3.631 -4.44655e-016
    endloop
  endfacet
  facet normal -0.987692 0.15641 -1.9154e-017
    outer loop
      vertex -16.5 6.12303e-016 5
      vertex -15.925 3.631 -4.44655e-016
      vertex -16.5 0 0
    endloop
  endfacet
  facet normal 1 0 -0
    outer loop
      vertex 6 12 2
      vertex 6 12 -1.46953e-015
      vertex 6 16 -1.95937e-015
    endloop
  endfacet
  facet normal 1 -0 0
    outer loop
      vertex 6 16 2
      vertex 6 12 2
      vertex 6 16 -1.95937e-015
    endloop
  endfacet
  facet normal -0 -1 0
    outer loop
      vertex 6 16 -1.95937e-015
      vertex 8 16 -1.95937e-015
      vertex 8 16 2
    endloop
  endfacet
  facet normal 0 -1 0
    outer loop
      vertex 6 16 2
      vertex 6 16 -1.95937e-015
      vertex 8 16 2
    endloop
  endfacet
  facet normal -1 -0 -0
    outer loop
      vertex 8 12 -1.46953e-015
      vertex 8 12 2
      vertex 8 16 -1.95937e-015
    endloop
  endfacet
  facet normal -1 0 0
    outer loop
      vertex 8 16 -1.95937e-015
      vertex 8 12 2
      vertex 8 16 2
    endloop
  endfacet
  facet normal 0 1 -0
    outer loop
      vertex 6 12 3
      vertex 8 12 3
      vertex 6 12 2
    endloop
  endfacet
  facet normal 0 1 0
    outer loop
      vertex 6 12 2
      vertex 8 12 3
      vertex 8 12 2
    endloop
  endfacet
  facet normal 0 1 0
    outer loop
      vertex 6 12 2
      vertex 8 12 2
      vertex 8 12 -1.46953e-015
    endloop
  endfacet
  facet normal 0 1 -0
    outer loop
      vertex 6 12 2
      vertex 8 12 -1.46953e-015
      vertex 6 12 -1.46953e-015
    endloop
  endfacet
  facet normal 1 0 -0
    outer loop
      vertex 16 12 2
      vertex 16 12 -1.46953e-015
      vertex 16 16 -1.95937e-015
    endloop
  endfacet
  facet normal 1 -0 0
    outer loop
      vertex 16 16 2
      vertex 16 12 2
      vertex 16 16 -1.95937e-015
    endloop
  endfacet
  facet normal -0 -1 0
    outer loop
      vertex 16 16 -1.95937e-015
      vertex 18 16 -1.95937e-015
      vertex 18 16 2
    endloop
  endfacet
  facet normal 0 -1 0
    outer loop
      vertex 16 16 2
      vertex 16 16 -1.95937e-015
      vertex 18 16 2
    endloop
  endfacet
  facet normal -1 -0 -0
    outer loop
      vertex 18 12 -1.46953e-015
      vertex 18 12 2
      vertex 18 16 -1.95937e-015
    endloop
  endfacet
  facet normal -1 0 0
    outer loop
      vertex 18 16 -1.95937e-015
      vertex 18 12 2
      vertex 18 16 2
    endloop
  endfacet
  facet normal 0 1 -0
    outer loop
      vertex 16 12 3
      vertex 18 12 3
      vertex 16 12 2
    endloop
  endfacet
  facet normal 0 1 0
    outer loop
      vertex 16 12 2
      vertex 18 12 3
      vertex 18 12 2
    endloop
  endfacet
  facet normal 0 1 0
    outer loop
      vertex 16 12 2
      vertex 18 12 2
      vertex 18 12 -1.46953e-015
    endloop
  endfacet
  facet normal 0 1 -0
    outer loop
      vertex 16 12 2
      vertex 18 12 -1.46953e-015
      vertex 16 12 -1.46953e-015
    endloop
  endfacet
  facet normal 3.61989e-017 1 8.13036e-017
    outer loop
      vertex -22.2406 -0.480078 6.22021
      vertex -21.9271 -0.480078 6.76336
      vertex -22.4344 -0.480078 5.62373
    endloop
  endfacet
  facet normal -2.14028e-016 1 1.92712e-016
    outer loop
      vertex -22.4344 -0.480078 5.62373
      vertex -21.9271 -0.480078 6.76336
      vertex -21.5074 -0.480078 7.22943
    endloop
  endfacet
  facet normal -2.7499e-016 1 2.27908e-016
    outer loop
      vertex -22.4344 -0.480078 5.62373
      vertex -21.5074 -0.480078 7.22943
      vertex -21 -0.480078 7.59808
    endloop
  endfacet
  facet normal -3.0493e-016 1 2.49661e-016
    outer loop
      vertex -22.4344 -0.480078 5.62373
      vertex -21 -0.480078 7.59808
      vertex -20.4271 -0.480078 7.85317
    endloop
  endfacet
  facet normal -3.29169e-016 1 2.71486e-016
    outer loop
      vertex -22.4344 -0.480078 5.62373
      vertex -20.4271 -0.480078 7.85317
      vertex -19.8136 -0.480078 7.98357
    endloop
  endfacet
  facet normal -2.65532e-016 1 2.00809e-016
    outer loop
      vertex -22.4344 -0.480078 5.62373
      vertex -19.8136 -0.480078 7.98357
      vertex -19.1864 -0.480078 7.98357
    endloop
  endfacet
  facet normal -3.07105e-016 1 2.5803e-016
    outer loop
      vertex -22.4344 -0.480078 5.62373
      vertex -19.1864 -0.480078 7.98357
      vertex -18.5729 -0.480078 7.85317
    endloop
  endfacet
  facet normal -2.8766e-016 1 2.2435e-016
    outer loop
      vertex -22.4344 -0.480078 5.62373
      vertex -18.5729 -0.480078 7.85317
      vertex -18 -0.480078 7.59808
    endloop
  endfacet
  facet normal -2.85113e-016 1 2.09908e-016
    outer loop
      vertex -20.366 -0.480078 6.5
      vertex -18 -0.480078 7.59808
      vertex -17.4926 -0.480078 7.22943
    endloop
  endfacet
  facet normal -2.85873e-016 1 2.19009e-016
    outer loop
      vertex -18.634 -0.480078 6.5
      vertex -17.4926 -0.480078 7.22943
      vertex -17.0729 -0.480078 6.76336
    endloop
  endfacet
  facet normal -3.06462e-016 1 2.10206e-016
    outer loop
      vertex -17.7679 -0.480078 5
      vertex -16.5 -0.480078 5
      vertex -16.5656 -0.480078 4.37626
    endloop
  endfacet
  facet normal -2.9854e-016 1 1.82194e-016
    outer loop
      vertex -18.634 -0.480078 6.5
      vertex -16.7594 -0.480078 6.22021
      vertex -16.5656 -0.480078 5.62373
    endloop
  endfacet
  facet normal -2.74854e-016 1 2.38106e-016
    outer loop
      vertex -18.634 -0.480078 6.5
      vertex -16.5656 -0.480078 5.62373
      vertex -16.5 -0.480078 5
    endloop
  endfacet
  facet normal -2.77841e-016 1 2.50169e-016
    outer loop
      vertex -18.634 -0.480078 3.5
      vertex -17.0729 -0.480078 3.23664
      vertex -17.4926 -0.480078 2.77057
    endloop
  endfacet
  facet normal -2.88445e-016 1 2.3313e-016
    outer loop
      vertex -18.634 -0.480078 3.5
      vertex -18.5729 -0.480078 2.14683
      vertex -20.366 -0.480078 3.5
    endloop
  endfacet
  facet normal -2.9739e-016 1 2.32726e-016
    outer loop
      vertex -18.634 -0.480078 3.5
      vertex -18 -0.480078 2.40192
      vertex -18.5729 -0.480078 2.14683
    endloop
  endfacet
  facet normal -3.13858e-016 1 1.99454e-016
    outer loop
      vertex -20.366 -0.480078 3.5
      vertex -18.5729 -0.480078 2.14683
      vertex -19.1864 -0.480078 2.01643
    endloop
  endfacet
  facet normal -2.65532e-016 1 2.3796e-016
    outer loop
      vertex -22.4344 -0.480078 5.62373
      vertex -19.1864 -0.480078 2.01643
      vertex -19.8136 -0.480078 2.01643
    endloop
  endfacet
  facet normal -3.19743e-016 1 1.98573e-016
    outer loop
      vertex -22.4344 -0.480078 5.62373
      vertex -19.8136 -0.480078 2.01643
      vertex -20.4271 -0.480078 2.14683
    endloop
  endfacet
  facet normal -2.92007e-016 1 2.14586e-016
    outer loop
      vertex -22.4344 -0.480078 5.62373
      vertex -20.4271 -0.480078 2.14683
      vertex -21 -0.480078 2.40192
    endloop
  endfacet
  facet normal -2.76792e-016 1 2.2136e-016
    outer loop
      vertex -22.4344 -0.480078 5.62373
      vertex -21 -0.480078 2.40192
      vertex -21.5074 -0.480078 2.77057
    endloop
  endfacet
  facet normal -2.86915e-016 1 2.18071e-016
    outer loop
      vertex -22.4344 -0.480078 5.62373
      vertex -21.5074 -0.480078 2.77057
      vertex -21.9271 -0.480078 3.23664
    endloop
  endfacet
  facet normal -3.55696e-016 1 2.03451e-016
    outer loop
      vertex -22.4344 -0.480078 5.62373
      vertex -21.9271 -0.480078 3.23664
      vertex -22.2406 -0.480078 3.77979
    endloop
  endfacet
  facet normal -1.74508e-016 1 2.22495e-016
    outer loop
      vertex -22.4344 -0.480078 5.62373
      vertex -22.2406 -0.480078 3.77979
      vertex -22.4344 -0.480078 4.37626
    endloop
  endfacet
  facet normal -4.23381e-016 1 2.22495e-016
    outer loop
      vertex -22.4344 -0.480078 5.62373
      vertex -22.4344 -0.480078 4.37626
      vertex -22.5 -0.480078 5
    endloop
  endfacet
  facet normal -2.84076e-016 1 2.40414e-016
    outer loop
      vertex -18.634 -0.480078 3.5
      vertex -17.4926 -0.480078 2.77057
      vertex -18 -0.480078 2.40192
    endloop
  endfacet
  facet normal -2.66291e-016 1 2.37276e-016
    outer loop
      vertex -22.4344 -0.480078 5.62373
      vertex -20.366 -0.480078 3.5
      vertex -19.1864 -0.480078 2.01643
    endloop
  endfacet
  facet normal -2.89679e-016 1 2.41566e-016
    outer loop
      vertex -18.634 -0.480078 6.5
      vertex -17.0729 -0.480078 6.76336
      vertex -16.7594 -0.480078 6.22021
    endloop
  endfacet
  facet normal -2.88445e-016 1 2.23033e-016
    outer loop
      vertex -20.366 -0.480078 6.5
      vertex -17.4926 -0.480078 7.22943
      vertex -18.634 -0.480078 6.5
    endloop
  endfacet
  facet normal -1.89624e-016 1 4.15769e-018
    outer loop
      vertex -22.4344 -0.480078 5.62373
      vertex -18 -0.480078 7.59808
      vertex -20.366 -0.480078 6.5
    endloop
  endfacet
  facet normal -2.90197e-016 1 2.4156e-016
    outer loop
      vertex -21.2321 -0.480078 5
      vertex -22.4344 -0.480078 5.62373
      vertex -20.366 -0.480078 6.5
    endloop
  endfacet
  facet normal -3.06462e-016 1 1.93138e-016
    outer loop
      vertex -18.634 -0.480078 6.5
      vertex -16.5 -0.480078 5
      vertex -17.7679 -0.480078 5
    endloop
  endfacet
  facet normal -3.19101e-016 1 1.85841e-016
    outer loop
      vertex -20.366 -0.480078 3.5
      vertex -22.4344 -0.480078 5.62373
      vertex -21.2321 -0.480078 5
    endloop
  endfacet
  facet normal -3.14259e-016 1 1.95175e-016
    outer loop
      vertex -17.7679 -0.480078 5
      vertex -16.5656 -0.480078 4.37626
      vertex -16.7594 -0.480078 3.77979
    endloop
  endfacet
  facet normal -2.51246e-016 1 2.4726e-016
    outer loop
      vertex -17.7679 -0.480078 5
      vertex -16.7594 -0.480078 3.77979
      vertex -17.0729 -0.480078 3.23664
    endloop
  endfacet
  facet normal -2.80261e-016 1 2.35824e-016
    outer loop
      vertex -17.7679 -0.480078 5
      vertex -17.0729 -0.480078 3.23664
      vertex -18.634 -0.480078 3.5
    endloop
  endfacet
  facet normal 0.890973 0.454056 -5.04104e-017
    outer loop
      vertex 4.756 6.906 2
      vertex 4.756 6.906 10
      vertex 6.425 3.631 10
    endloop
  endfacet
  facet normal 0.890973 0.454056 -5.04104e-017
    outer loop
      vertex 6.425 3.631 2
      vertex 4.756 6.906 2
      vertex 6.425 3.631 10
    endloop
  endfacet
  facet normal 0.987692 0.15641 -1.73649e-017
    outer loop
      vertex 6.425 3.631 2
      vertex 6.425 3.631 10
      vertex 7 1.22461e-015 10
    endloop
  endfacet
  facet normal 0.987692 0.15641 -1.9154e-017
    outer loop
      vertex 7 2.44921e-016 2
      vertex 6.425 3.631 2
      vertex 7 1.22461e-015 10
    endloop
  endfacet
  facet normal 1 0 0
    outer loop
      vertex 7 2.44921e-016 2
      vertex 7 1.22461e-015 10
      vertex 7 -0.48 10
    endloop
  endfacet
  facet normal 1 0 0
    outer loop
      vertex 7 -0.48 2
      vertex 7 2.44921e-016 2
      vertex 7 -0.48 10
    endloop
  endfacet
  facet normal 0.866025 0 0.5
    outer loop
      vertex 24.5 -0.48 5
      vertex 21.6132 -0.48 10
      vertex 21.6132 -4.48 10
    endloop
  endfacet
  facet normal 0.866025 1.11022e-016 0.5
    outer loop
      vertex 24.5 -4.48 5
      vertex 24.5 -0.48 5
      vertex 21.6132 -4.48 10
    endloop
  endfacet
  facet normal 0.866025 -6.40975e-017 0.5
    outer loop
      vertex 17.7679 -4.48 5
      vertex 18.634 -4.48 3.5
      vertex 18.634 -0.480078 3.5
    endloop
  endfacet
  facet normal 0.866025 -0 0.5
    outer loop
      vertex 17.7679 -0.480078 5
      vertex 17.7679 -4.48 5
      vertex 18.634 -0.480078 3.5
    endloop
  endfacet
  facet normal 0.866025 0 -0.5
    outer loop
      vertex 18.634 -0.480078 6.5
      vertex 18.634 -4.48 6.5
      vertex 17.7679 -4.48 5
    endloop
  endfacet
  facet normal 0.866025 0 -0.5
    outer loop
      vertex 17.7679 -0.480078 5
      vertex 18.634 -0.480078 6.5
      vertex 17.7679 -4.48 5
    endloop
  endfacet
  facet normal 0 -1.11024e-016 1
    outer loop
      vertex 18.634 -4.48 3.5
      vertex 20.366 -4.48 3.5
      vertex 20.366 -0.480078 3.5
    endloop
  endfacet
  facet normal 3.20244e-032 -1.11024e-016 1
    outer loop
      vertex 18.634 -0.480078 3.5
      vertex 18.634 -4.48 3.5
      vertex 20.366 -0.480078 3.5
    endloop
  endfacet
  facet normal -0.866025 0 0.5
    outer loop
      vertex 21.2321 -4.48 5
      vertex 21.2321 -0.480078 5
      vertex 20.366 -4.48 3.5
    endloop
  endfacet
  facet normal -0.866025 -8.24712e-016 0.5
    outer loop
      vertex 20.366 -4.48 3.5
      vertex 21.2321 -0.480078 5
      vertex 20.366 -0.480078 3.5
    endloop
  endfacet
  facet normal -0.866025 -0 -0.5
    outer loop
      vertex 21.2321 -4.48 5
      vertex 20.366 -4.48 6.5
      vertex 21.2321 -0.480078 5
    endloop
  endfacet
  facet normal -0.866025 -7.6917e-016 -0.5
    outer loop
      vertex 21.2321 -0.480078 5
      vertex 20.366 -4.48 6.5
      vertex 20.366 -0.480078 6.5
    endloop
  endfacet
  facet normal 0 0 -1
    outer loop
      vertex 20.366 -4.48 6.5
      vertex 18.634 -4.48 6.5
      vertex 20.366 -0.480078 6.5
    endloop
  endfacet
  facet normal 0 0 -1
    outer loop
      vertex 20.366 -0.480078 6.5
      vertex 18.634 -4.48 6.5
      vertex 18.634 -0.480078 6.5
    endloop
  endfacet
  facet normal 4.63935e-018 1.28871e-016 1
    outer loop
      vertex 6 12 2
      vertex 3 19 2
      vertex 3 8.662 2
    endloop
  endfacet
  facet normal 0 1.4803e-016 1
    outer loop
      vertex 16 16 2
      vertex 18 16 2
      vertex 21 19 2
    endloop
  endfacet
  facet normal -3.70074e-017 1.11022e-016 1
    outer loop
      vertex 6 16 2
      vertex 3 19 2
      vertex 6 12 2
    endloop
  endfacet
  facet normal -0 1.4803e-016 1
    outer loop
      vertex 21 19 2
      vertex 3 19 2
      vertex 6 16 2
    endloop
  endfacet
  facet normal 0 1.4803e-016 1
    outer loop
      vertex 21 19 2
      vertex 6 16 2
      vertex 8 16 2
    endloop
  endfacet
  facet normal 8.54018e-018 1.11022e-016 1
    outer loop
      vertex 8 16 2
      vertex 8 12 2
      vertex 21 19 2
    endloop
  endfacet
  facet normal -0 2.02966e-016 1
    outer loop
      vertex 8 8 2
      vertex 6 8 2
      vertex 4.756 6.906 2
    endloop
  endfacet
  facet normal 3.8898e-017 8.7623e-017 1
    outer loop
      vertex 6.425 3.631 2
      vertex 8 8 2
      vertex 4.756 6.906 2
    endloop
  endfacet
  facet normal 3.70074e-017 1.11022e-016 1
    outer loop
      vertex 18 16 2
      vertex 18 12 2
      vertex 21 19 2
    endloop
  endfacet
  facet normal 3.58038e-017 1.62253e-016 1
    outer loop
      vertex 4.756 6.906 2
      vertex 6 8 2
      vertex 3 8.662 2
    endloop
  endfacet
  facet normal -0 1.30923e-016 1
    outer loop
      vertex 18 8 2
      vertex 16 8 2
      vertex 21 -0.48 2
    endloop
  endfacet
  facet normal 1.87504e-017 1.11022e-016 1
    outer loop
      vertex 16 8 2
      vertex 16 12 2
      vertex 7 -0.48 2
    endloop
  endfacet
  facet normal 0 1.11022e-016 1
    outer loop
      vertex 8 12 2
      vertex 8 8 2
      vertex 16 16 2
    endloop
  endfacet
  facet normal 3.49557e-018 1.25385e-016 1
    outer loop
      vertex 21 -0.48 2
      vertex 21 19 2
      vertex 18 12 2
    endloop
  endfacet
  facet normal -5.62513e-017 1.11022e-016 1
    outer loop
      vertex 21 -0.48 2
      vertex 18 12 2
      vertex 18 8 2
    endloop
  endfacet
  facet normal -0 1.30923e-016 1
    outer loop
      vertex 21 -0.48 2
      vertex 16 8 2
      vertex 7 -0.48 2
    endloop
  endfacet
  facet normal -1.11022e-016 3.33067e-016 1
    outer loop
      vertex 8 12 2
      vertex 16 16 2
      vertex 21 19 2
    endloop
  endfacet
  facet normal 1.72701e-016 0 1
    outer loop
      vertex 16 12 2
      vertex 7 2.44921e-016 2
      vertex 7 -0.48 2
    endloop
  endfacet
  facet normal 2.44989e-017 1.11022e-016 1
    outer loop
      vertex 6 8 2
      vertex 6 12 2
      vertex 3 8.662 2
    endloop
  endfacet
  facet normal -5.93723e-017 1.74055e-016 1
    outer loop
      vertex 16 12 2
      vertex 6.425 3.631 2
      vertex 7 2.44921e-016 2
    endloop
  endfacet
  facet normal 5.71928e-018 9.95837e-017 1
    outer loop
      vertex 16 12 2
      vertex 8 8 2
      vertex 6.425 3.631 2
    endloop
  endfacet
  facet normal 0 1.11022e-016 1
    outer loop
      vertex 16 12 2
      vertex 16 16 2
      vertex 8 8 2
    endloop
  endfacet
  facet normal 0.994522 0 -0.104528
    outer loop
      vertex 16.5656 -0.48 5.62373
      vertex 16.5656 -0.480078 5.62373
      vertex 16.5 -0.480078 5
    endloop
  endfacet
  facet normal 0.994522 0 -0.104528
    outer loop
      vertex 16.5 -0.48 5
      vertex 16.5656 -0.48 5.62373
      vertex 16.5 -0.480078 5
    endloop
  endfacet
  facet normal 0.951056 0 -0.309018
    outer loop
      vertex 16.7594 -0.48 6.22021
      vertex 16.7594 -0.480078 6.22021
      vertex 16.5656 -0.480078 5.62373
    endloop
  endfacet
  facet normal 0.951056 0 -0.309018
    outer loop
      vertex 16.5656 -0.48 5.62373
      vertex 16.7594 -0.48 6.22021
      vertex 16.5656 -0.480078 5.62373
    endloop
  endfacet
  facet normal 0.866026 0 -0.499999
    outer loop
      vertex 17.0729 -0.48 6.76336
      vertex 17.0729 -0.480078 6.76336
      vertex 16.7594 -0.480078 6.22021
    endloop
  endfacet
  facet normal 0.866026 0 -0.499999
    outer loop
      vertex 16.7594 -0.48 6.22021
      vertex 17.0729 -0.48 6.76336
      vertex 16.7594 -0.480078 6.22021
    endloop
  endfacet
  facet normal 0.743144 0 -0.669131
    outer loop
      vertex 17.4926 -0.48 7.22943
      vertex 17.4926 -0.480078 7.22943
      vertex 17.0729 -0.480078 6.76336
    endloop
  endfacet
  facet normal 0.743144 0 -0.669131
    outer loop
      vertex 17.0729 -0.48 6.76336
      vertex 17.4926 -0.48 7.22943
      vertex 17.0729 -0.480078 6.76336
    endloop
  endfacet
  facet normal 0.587785 0 -0.809017
    outer loop
      vertex 18 -0.480078 7.59808
      vertex 17.4926 -0.480078 7.22943
      vertex 18 -0.48 7.59808
    endloop
  endfacet
  facet normal 0.587785 0 -0.809017
    outer loop
      vertex 18 -0.48 7.59808
      vertex 17.4926 -0.480078 7.22943
      vertex 17.4926 -0.48 7.22943
    endloop
  endfacet
  facet normal 0.406738 0 -0.913545
    outer loop
      vertex 18.5729 -0.480078 7.85317
      vertex 18 -0.480078 7.59808
      vertex 18.5729 -0.48 7.85317
    endloop
  endfacet
  facet normal 0.406738 0 -0.913545
    outer loop
      vertex 18.5729 -0.48 7.85317
      vertex 18 -0.480078 7.59808
      vertex 18 -0.48 7.59808
    endloop
  endfacet
  facet normal 0.207911 0 -0.978148
    outer loop
      vertex 19.1864 -0.480078 7.98357
      vertex 18.5729 -0.480078 7.85317
      vertex 19.1864 -0.48 7.98357
    endloop
  endfacet
  facet normal 0.207911 0 -0.978148
    outer loop
      vertex 19.1864 -0.48 7.98357
      vertex 18.5729 -0.480078 7.85317
      vertex 18.5729 -0.48 7.85317
    endloop
  endfacet
  facet normal 0 0 -1
    outer loop
      vertex 19.8136 -0.480078 7.98357
      vertex 19.1864 -0.480078 7.98357
      vertex 19.8136 -0.48 7.98357
    endloop
  endfacet
  facet normal 0 0 -1
    outer loop
      vertex 19.8136 -0.48 7.98357
      vertex 19.1864 -0.480078 7.98357
      vertex 19.1864 -0.48 7.98357
    endloop
  endfacet
  facet normal -0.207911 -0 -0.978148
    outer loop
      vertex 20.4271 -0.480078 7.85317
      vertex 19.8136 -0.480078 7.98357
      vertex 20.4271 -0.48 7.85317
    endloop
  endfacet
  facet normal -0.207911 0 -0.978148
    outer loop
      vertex 20.4271 -0.48 7.85317
      vertex 19.8136 -0.480078 7.98357
      vertex 19.8136 -0.48 7.98357
    endloop
  endfacet
  facet normal -0.406738 -0 -0.913545
    outer loop
      vertex 21 -0.480078 7.59808
      vertex 20.4271 -0.480078 7.85317
      vertex 21 -0.48 7.59808
    endloop
  endfacet
  facet normal -0.406738 0 -0.913545
    outer loop
      vertex 21 -0.48 7.59808
      vertex 20.4271 -0.480078 7.85317
      vertex 20.4271 -0.48 7.85317
    endloop
  endfacet
  facet normal -0.587785 -0 -0.809017
    outer loop
      vertex 21.5074 -0.480078 7.22943
      vertex 21 -0.480078 7.59808
      vertex 21.5074 -0.48 7.22943
    endloop
  endfacet
  facet normal -0.587785 0 -0.809017
    outer loop
      vertex 21.5074 -0.48 7.22943
      vertex 21 -0.480078 7.59808
      vertex 21 -0.48 7.59808
    endloop
  endfacet
  facet normal -0.743144 -0 -0.669131
    outer loop
      vertex 21.9271 -0.480078 6.76336
      vertex 21.5074 -0.480078 7.22943
      vertex 21.9271 -0.48 6.76336
    endloop
  endfacet
  facet normal -0.743144 0 -0.669131
    outer loop
      vertex 21.9271 -0.48 6.76336
      vertex 21.5074 -0.480078 7.22943
      vertex 21.5074 -0.48 7.22943
    endloop
  endfacet
  facet normal -0.866026 -0 -0.499999
    outer loop
      vertex 22.2406 -0.480078 6.22021
      vertex 21.9271 -0.480078 6.76336
      vertex 22.2406 -0.48 6.22021
    endloop
  endfacet
  facet normal -0.866026 0 -0.499999
    outer loop
      vertex 22.2406 -0.48 6.22021
      vertex 21.9271 -0.480078 6.76336
      vertex 21.9271 -0.48 6.76336
    endloop
  endfacet
  facet normal -0.951056 -0 -0.309018
    outer loop
      vertex 22.4344 -0.480078 5.62373
      vertex 22.2406 -0.480078 6.22021
      vertex 22.4344 -0.48 5.62373
    endloop
  endfacet
  facet normal -0.951056 0 -0.309018
    outer loop
      vertex 22.4344 -0.48 5.62373
      vertex 22.2406 -0.480078 6.22021
      vertex 22.2406 -0.48 6.22021
    endloop
  endfacet
  facet normal -0.994522 -0 -0.104528
    outer loop
      vertex 22.5 -0.480078 5
      vertex 22.4344 -0.480078 5.62373
      vertex 22.5 -0.48 5
    endloop
  endfacet
  facet normal -0.994522 0 -0.104528
    outer loop
      vertex 22.5 -0.48 5
      vertex 22.4344 -0.480078 5.62373
      vertex 22.4344 -0.48 5.62373
    endloop
  endfacet
  facet normal -0.994522 0 0.104528
    outer loop
      vertex 22.5 -0.480078 5
      vertex 22.5 -0.48 5
      vertex 22.4344 -0.480078 4.37626
    endloop
  endfacet
  facet normal -0.994522 0 0.104528
    outer loop
      vertex 22.4344 -0.480078 4.37626
      vertex 22.5 -0.48 5
      vertex 22.4344 -0.48 4.37626
    endloop
  endfacet
  facet normal -0.951056 0 0.309018
    outer loop
      vertex 22.4344 -0.480078 4.37626
      vertex 22.4344 -0.48 4.37626
      vertex 22.2406 -0.480078 3.77979
    endloop
  endfacet
  facet normal -0.951056 0 0.309018
    outer loop
      vertex 22.2406 -0.480078 3.77979
      vertex 22.4344 -0.48 4.37626
      vertex 22.2406 -0.48 3.77979
    endloop
  endfacet
  facet normal -0.866026 0 0.499999
    outer loop
      vertex 22.2406 -0.480078 3.77979
      vertex 22.2406 -0.48 3.77979
      vertex 21.9271 -0.480078 3.23664
    endloop
  endfacet
  facet normal -0.866026 0 0.499999
    outer loop
      vertex 21.9271 -0.480078 3.23664
      vertex 22.2406 -0.48 3.77979
      vertex 21.9271 -0.48 3.23664
    endloop
  endfacet
  facet normal -0.743144 0 0.669131
    outer loop
      vertex 21.9271 -0.480078 3.23664
      vertex 21.9271 -0.48 3.23664
      vertex 21.5074 -0.480078 2.77057
    endloop
  endfacet
  facet normal -0.743144 0 0.669131
    outer loop
      vertex 21.5074 -0.480078 2.77057
      vertex 21.9271 -0.48 3.23664
      vertex 21.5074 -0.48 2.77057
    endloop
  endfacet
  facet normal -0.587785 0 0.809017
    outer loop
      vertex 21 -0.480078 2.40192
      vertex 21.5074 -0.480078 2.77057
      vertex 21.5074 -0.48 2.77057
    endloop
  endfacet
  facet normal -0.587785 0 0.809017
    outer loop
      vertex 21 -0.48 2.40192
      vertex 21 -0.480078 2.40192
      vertex 21.5074 -0.48 2.77057
    endloop
  endfacet
  facet normal -0.406738 0 0.913545
    outer loop
      vertex 20.4271 -0.480078 2.14683
      vertex 21 -0.480078 2.40192
      vertex 21 -0.48 2.40192
    endloop
  endfacet
  facet normal -0.406738 0 0.913545
    outer loop
      vertex 20.4271 -0.48 2.14683
      vertex 20.4271 -0.480078 2.14683
      vertex 21 -0.48 2.40192
    endloop
  endfacet
  facet normal -0.207911 0 0.978148
    outer loop
      vertex 19.8136 -0.480078 2.01643
      vertex 20.4271 -0.480078 2.14683
      vertex 20.4271 -0.48 2.14683
    endloop
  endfacet
  facet normal -0.207911 0 0.978148
    outer loop
      vertex 19.8136 -0.48 2.01643
      vertex 19.8136 -0.480078 2.01643
      vertex 20.4271 -0.48 2.14683
    endloop
  endfacet
  facet normal 0 0 1
    outer loop
      vertex 19.1864 -0.480078 2.01643
      vertex 19.8136 -0.480078 2.01643
      vertex 19.8136 -0.48 2.01643
    endloop
  endfacet
  facet normal 0 -0 1
    outer loop
      vertex 19.1864 -0.48 2.01643
      vertex 19.1864 -0.480078 2.01643
      vertex 19.8136 -0.48 2.01643
    endloop
  endfacet
  facet normal 0.207911 0 0.978148
    outer loop
      vertex 18.5729 -0.480078 2.14683
      vertex 19.1864 -0.480078 2.01643
      vertex 19.1864 -0.48 2.01643
    endloop
  endfacet
  facet normal 0.207911 -0 0.978148
    outer loop
      vertex 18.5729 -0.48 2.14683
      vertex 18.5729 -0.480078 2.14683
      vertex 19.1864 -0.48 2.01643
    endloop
  endfacet
  facet normal 0.406738 0 0.913545
    outer loop
      vertex 18 -0.480078 2.40192
      vertex 18.5729 -0.480078 2.14683
      vertex 18.5729 -0.48 2.14683
    endloop
  endfacet
  facet normal 0.406738 -0 0.913545
    outer loop
      vertex 18 -0.48 2.40192
      vertex 18 -0.480078 2.40192
      vertex 18.5729 -0.48 2.14683
    endloop
  endfacet
  facet normal 0.587785 0 0.809017
    outer loop
      vertex 17.4926 -0.480078 2.77057
      vertex 18 -0.480078 2.40192
      vertex 18 -0.48 2.40192
    endloop
  endfacet
  facet normal 0.587785 -0 0.809017
    outer loop
      vertex 17.4926 -0.48 2.77057
      vertex 17.4926 -0.480078 2.77057
      vertex 18 -0.48 2.40192
    endloop
  endfacet
  facet normal 0.743144 0 0.669131
    outer loop
      vertex 17.0729 -0.480078 3.23664
      vertex 17.4926 -0.480078 2.77057
      vertex 17.4926 -0.48 2.77057
    endloop
  endfacet
  facet normal 0.743144 -0 0.669131
    outer loop
      vertex 17.0729 -0.48 3.23664
      vertex 17.0729 -0.480078 3.23664
      vertex 17.4926 -0.48 2.77057
    endloop
  endfacet
  facet normal 0.866026 0 0.499999
    outer loop
      vertex 16.7594 -0.480078 3.77979
      vertex 17.0729 -0.480078 3.23664
      vertex 17.0729 -0.48 3.23664
    endloop
  endfacet
  facet normal 0.866026 -0 0.499999
    outer loop
      vertex 16.7594 -0.48 3.77979
      vertex 16.7594 -0.480078 3.77979
      vertex 17.0729 -0.48 3.23664
    endloop
  endfacet
  facet normal 0.951056 0 0.309018
    outer loop
      vertex 16.5656 -0.480078 4.37626
      vertex 16.7594 -0.480078 3.77979
      vertex 16.7594 -0.48 3.77979
    endloop
  endfacet
  facet normal 0.951056 -0 0.309018
    outer loop
      vertex 16.5656 -0.48 4.37626
      vertex 16.5656 -0.480078 4.37626
      vertex 16.7594 -0.48 3.77979
    endloop
  endfacet
  facet normal 0.994522 0 0.104528
    outer loop
      vertex 16.5 -0.480078 5
      vertex 16.5656 -0.480078 4.37626
      vertex 16.5656 -0.48 4.37626
    endloop
  endfacet
  facet normal 0.994522 -0 0.104528
    outer loop
      vertex 16.5 -0.48 5
      vertex 16.5 -0.480078 5
      vertex 16.5656 -0.48 4.37626
    endloop
  endfacet
  facet normal -1 0 0
    outer loop
      vertex 6 12 4
      vertex 6 12 3
      vertex 6 8 4
    endloop
  endfacet
  facet normal -1 0 0
    outer loop
      vertex 6 8 4
      vertex 6 12 3
      vertex 6 12 2
    endloop
  endfacet
  facet normal -1 0 0
    outer loop
      vertex 6 8 4
      vertex 6 12 2
      vertex 6 8 2
    endloop
  endfacet
  facet normal 1 0 0
    outer loop
      vertex 8 12 3
      vertex 8 12 4
      vertex 8 8 4
    endloop
  endfacet
  facet normal 1 0 0
    outer loop
      vertex 8 12 2
      vertex 8 12 3
      vertex 8 8 2
    endloop
  endfacet
  facet normal 1 0 0
    outer loop
      vertex 8 8 2
      vertex 8 12 3
      vertex 8 8 4
    endloop
  endfacet
  facet normal 0 1 -0
    outer loop
      vertex 6 12 4
      vertex 8 12 4
      vertex 6 12 3
    endloop
  endfacet
  facet normal 0 1 0
    outer loop
      vertex 6 12 3
      vertex 8 12 4
      vertex 8 12 3
    endloop
  endfacet
  facet normal -1 0 0
    outer loop
      vertex 16 12 4
      vertex 16 12 3
      vertex 16 8 4
    endloop
  endfacet
  facet normal -1 0 0
    outer loop
      vertex 16 8 4
      vertex 16 12 3
      vertex 16 12 2
    endloop
  endfacet
  facet normal -1 0 0
    outer loop
      vertex 16 8 4
      vertex 16 12 2
      vertex 16 8 2
    endloop
  endfacet
  facet normal 1 0 0
    outer loop
      vertex 18 12 3
      vertex 18 12 4
      vertex 18 8 4
    endloop
  endfacet
  facet normal 1 0 0
    outer loop
      vertex 18 12 2
      vertex 18 12 3
      vertex 18 8 2
    endloop
  endfacet
  facet normal 1 0 0
    outer loop
      vertex 18 8 2
      vertex 18 12 3
      vertex 18 8 4
    endloop
  endfacet
  facet normal 0 1 -0
    outer loop
      vertex 16 12 4
      vertex 18 12 4
      vertex 16 12 3
    endloop
  endfacet
  facet normal 0 1 0
    outer loop
      vertex 16 12 3
      vertex 18 12 4
      vertex 18 12 3
    endloop
  endfacet
  facet normal 3.61989e-017 1 8.13036e-017
    outer loop
      vertex 16.7594 -0.480078 6.22021
      vertex 17.0729 -0.480078 6.76336
      vertex 16.5656 -0.480078 5.62373
    endloop
  endfacet
  facet normal -2.14028e-016 1 1.92712e-016
    outer loop
      vertex 16.5656 -0.480078 5.62373
      vertex 17.0729 -0.480078 6.76336
      vertex 17.4926 -0.480078 7.22943
    endloop
  endfacet
  facet normal -2.7499e-016 1 2.27908e-016
    outer loop
      vertex 16.5656 -0.480078 5.62373
      vertex 17.4926 -0.480078 7.22943
      vertex 18 -0.480078 7.59808
    endloop
  endfacet
  facet normal -3.0493e-016 1 2.49661e-016
    outer loop
      vertex 16.5656 -0.480078 5.62373
      vertex 18 -0.480078 7.59808
      vertex 18.5729 -0.480078 7.85317
    endloop
  endfacet
  facet normal -3.29169e-016 1 2.71486e-016
    outer loop
      vertex 16.5656 -0.480078 5.62373
      vertex 18.5729 -0.480078 7.85317
      vertex 19.1864 -0.480078 7.98357
    endloop
  endfacet
  facet normal -2.65532e-016 1 2.00809e-016
    outer loop
      vertex 16.5656 -0.480078 5.62373
      vertex 19.1864 -0.480078 7.98357
      vertex 19.8136 -0.480078 7.98357
    endloop
  endfacet
  facet normal -3.07105e-016 1 2.5803e-016
    outer loop
      vertex 16.5656 -0.480078 5.62373
      vertex 19.8136 -0.480078 7.98357
      vertex 20.4271 -0.480078 7.85317
    endloop
  endfacet
  facet normal -2.8766e-016 1 2.2435e-016
    outer loop
      vertex 16.5656 -0.480078 5.62373
      vertex 20.4271 -0.480078 7.85317
      vertex 21 -0.480078 7.59808
    endloop
  endfacet
  facet normal -2.85113e-016 1 2.09908e-016
    outer loop
      vertex 18.634 -0.480078 6.5
      vertex 21 -0.480078 7.59808
      vertex 21.5074 -0.480078 7.22943
    endloop
  endfacet
  facet normal -2.85873e-016 1 2.19009e-016
    outer loop
      vertex 20.366 -0.480078 6.5
      vertex 21.5074 -0.480078 7.22943
      vertex 21.9271 -0.480078 6.76336
    endloop
  endfacet
  facet normal -3.06462e-016 1 2.10206e-016
    outer loop
      vertex 21.2321 -0.480078 5
      vertex 22.5 -0.480078 5
      vertex 22.4344 -0.480078 4.37626
    endloop
  endfacet
  facet normal -2.9854e-016 1 1.82194e-016
    outer loop
      vertex 20.366 -0.480078 6.5
      vertex 22.2406 -0.480078 6.22021
      vertex 22.4344 -0.480078 5.62373
    endloop
  endfacet
  facet normal -2.74854e-016 1 2.38106e-016
    outer loop
      vertex 20.366 -0.480078 6.5
      vertex 22.4344 -0.480078 5.62373
      vertex 22.5 -0.480078 5
    endloop
  endfacet
  facet normal -2.77841e-016 1 2.50169e-016
    outer loop
      vertex 20.366 -0.480078 3.5
      vertex 21.9271 -0.480078 3.23664
      vertex 21.5074 -0.480078 2.77057
    endloop
  endfacet
  facet normal -2.88445e-016 1 2.3313e-016
    outer loop
      vertex 20.366 -0.480078 3.5
      vertex 20.4271 -0.480078 2.14683
      vertex 18.634 -0.480078 3.5
    endloop
  endfacet
  facet normal -2.9739e-016 1 2.32726e-016
    outer loop
      vertex 20.366 -0.480078 3.5
      vertex 21 -0.480078 2.40192
      vertex 20.4271 -0.480078 2.14683
    endloop
  endfacet
  facet normal -3.13858e-016 1 1.99454e-016
    outer loop
      vertex 18.634 -0.480078 3.5
      vertex 20.4271 -0.480078 2.14683
      vertex 19.8136 -0.480078 2.01643
    endloop
  endfacet
  facet normal -2.65532e-016 1 2.3796e-016
    outer loop
      vertex 16.5656 -0.480078 5.62373
      vertex 19.8136 -0.480078 2.01643
      vertex 19.1864 -0.480078 2.01643
    endloop
  endfacet
  facet normal -3.19743e-016 1 1.98573e-016
    outer loop
      vertex 16.5656 -0.480078 5.62373
      vertex 19.1864 -0.480078 2.01643
      vertex 18.5729 -0.480078 2.14683
    endloop
  endfacet
  facet normal -2.92007e-016 1 2.14586e-016
    outer loop
      vertex 16.5656 -0.480078 5.62373
      vertex 18.5729 -0.480078 2.14683
      vertex 18 -0.480078 2.40192
    endloop
  endfacet
  facet normal -2.76792e-016 1 2.2136e-016
    outer loop
      vertex 16.5656 -0.480078 5.62373
      vertex 18 -0.480078 2.40192
      vertex 17.4926 -0.480078 2.77057
    endloop
  endfacet
  facet normal -2.86915e-016 1 2.18071e-016
    outer loop
      vertex 16.5656 -0.480078 5.62373
      vertex 17.4926 -0.480078 2.77057
      vertex 17.0729 -0.480078 3.23664
    endloop
  endfacet
  facet normal -3.55696e-016 1 2.03451e-016
    outer loop
      vertex 16.5656 -0.480078 5.62373
      vertex 17.0729 -0.480078 3.23664
      vertex 16.7594 -0.480078 3.77979
    endloop
  endfacet
  facet normal -1.74508e-016 1 2.22495e-016
    outer loop
      vertex 16.5656 -0.480078 5.62373
      vertex 16.7594 -0.480078 3.77979
      vertex 16.5656 -0.480078 4.37626
    endloop
  endfacet
  facet normal -4.23381e-016 1 2.22495e-016
    outer loop
      vertex 16.5656 -0.480078 5.62373
      vertex 16.5656 -0.480078 4.37626
      vertex 16.5 -0.480078 5
    endloop
  endfacet
  facet normal -2.84076e-016 1 2.40414e-016
    outer loop
      vertex 20.366 -0.480078 3.5
      vertex 21.5074 -0.480078 2.77057
      vertex 21 -0.480078 2.40192
    endloop
  endfacet
  facet normal -2.66291e-016 1 2.37276e-016
    outer loop
      vertex 16.5656 -0.480078 5.62373
      vertex 18.634 -0.480078 3.5
      vertex 19.8136 -0.480078 2.01643
    endloop
  endfacet
  facet normal -2.89679e-016 1 2.41566e-016
    outer loop
      vertex 20.366 -0.480078 6.5
      vertex 21.9271 -0.480078 6.76336
      vertex 22.2406 -0.480078 6.22021
    endloop
  endfacet
  facet normal -2.88445e-016 1 2.23033e-016
    outer loop
      vertex 18.634 -0.480078 6.5
      vertex 21.5074 -0.480078 7.22943
      vertex 20.366 -0.480078 6.5
    endloop
  endfacet
  facet normal -1.89624e-016 1 4.15769e-018
    outer loop
      vertex 16.5656 -0.480078 5.62373
      vertex 21 -0.480078 7.59808
      vertex 18.634 -0.480078 6.5
    endloop
  endfacet
  facet normal -2.90197e-016 1 2.4156e-016
    outer loop
      vertex 17.7679 -0.480078 5
      vertex 16.5656 -0.480078 5.62373
      vertex 18.634 -0.480078 6.5
    endloop
  endfacet
  facet normal -3.06462e-016 1 1.93138e-016
    outer loop
      vertex 20.366 -0.480078 6.5
      vertex 22.5 -0.480078 5
      vertex 21.2321 -0.480078 5
    endloop
  endfacet
  facet normal -3.19101e-016 1 1.85841e-016
    outer loop
      vertex 18.634 -0.480078 3.5
      vertex 16.5656 -0.480078 5.62373
      vertex 17.7679 -0.480078 5
    endloop
  endfacet
  facet normal -3.14259e-016 1 1.95175e-016
    outer loop
      vertex 21.2321 -0.480078 5
      vertex 22.4344 -0.480078 4.37626
      vertex 22.2406 -0.480078 3.77979
    endloop
  endfacet
  facet normal -2.51246e-016 1 2.4726e-016
    outer loop
      vertex 21.2321 -0.480078 5
      vertex 22.2406 -0.480078 3.77979
      vertex 21.9271 -0.480078 3.23664
    endloop
  endfacet
  facet normal -2.80261e-016 1 2.35824e-016
    outer loop
      vertex 21.2321 -0.480078 5
      vertex 21.9271 -0.480078 3.23664
      vertex 20.366 -0.480078 3.5
    endloop
  endfacet
  facet normal 0 -1 0
    outer loop
      vertex 8 8 4
      vertex 6 8 4
      vertex 6 8 2
    endloop
  endfacet
  facet normal 0 -1 0
    outer loop
      vertex 8 8 2
      vertex 8 8 4
      vertex 6 8 2
    endloop
  endfacet
  facet normal 0 -1 0
    outer loop
      vertex 18 8 4
      vertex 16 8 4
      vertex 16 8 2
    endloop
  endfacet
  facet normal 0 -1 0
    outer loop
      vertex 18 8 2
      vertex 18 8 4
      vertex 16 8 2
    endloop
  endfacet
  facet normal -0 1.11022e-016 1
    outer loop
      vertex 8 12 4
      vertex 6 12 4
      vertex 6 8 4
    endloop
  endfacet
  facet normal -0 1.11022e-016 1
    outer loop
      vertex 8 8 4
      vertex 8 12 4
      vertex 6 8 4
    endloop
  endfacet
  facet normal -0 1.11022e-016 1
    outer loop
      vertex 18 12 4
      vertex 16 12 4
      vertex 16 8 4
    endloop
  endfacet
  facet normal -0 1.11022e-016 1
    outer loop
      vertex 18 8 4
      vertex 18 12 4
      vertex 16 8 4
    endloop
  endfacet
endsolid OpenSCAD_Model
