999
DXF created by Inkscape
  0
SECTION
  2
HEADER
  9
$ACADVER
  1
AC1014
  9
$HANDSEED
  5
FFFF
  9
$MEASUREMENT
 70
     1
  0
ENDSEC
  0
SECTION
  2
TABLES
  0
TABLE
  2
VPORT
  5
8
330
0
100
AcDbSymbolTable
 70
     4
  0
VPORT
  5
2E
330
8
100
AcDbSymbolTableRecord
100
AcDbViewportTableRecord
  2
*ACTIVE
 70
     0
 10
0.0
 20
0.0
 11
1.0
 21
1.0
 12
210.0
 22
148.5
 13
0.0
 23
0.0
 14
10.0
 24
10.0
 15
10.0
 25
10.0
 16
0.0
 26
0.0
 36
1.0
 17
0.0
 27
0.0
 37
0.0
 40
341.0
 41
1.24
 42
50.0
 43
0.0
 44
0.0
 50
0.0
 51
0.0
 71
     0
 72
   100
 73
     1
 74
     3
 75
     0
 76
     0
 77
     0
 78
     0
  0
ENDTAB
  0
TABLE
  2
LTYPE
  5
5
330
0
100
AcDbSymbolTable
 70
     1
  0
LTYPE
  5
14
330
5
100
AcDbSymbolTableRecord
100
AcDbLinetypeTableRecord
  2
BYBLOCK
 70
     0
  3

 72
    65
 73
     0
 40
0.0
  0
LTYPE
  5
15
330
5
100
AcDbSymbolTableRecord
100
AcDbLinetypeTableRecord
  2
BYLAYER
 70
     0
  3

 72
    65
 73
     0
 40
0.0
  0
LTYPE
  5
16
330
5
100
AcDbSymbolTableRecord
100
AcDbLinetypeTableRecord
  2
CONTINUOUS
 70
     0
  3
Solid line
 72
    65
 73
     0
 40
0.0
  0
ENDTAB
  0
TABLE
  2
LAYER
  5
2
100
AcDbSymbolTable
 70
2
  0
LAYER
  5
50
100
AcDbSymbolTableRecord
100
AcDbLayerTableRecord
  2
0
 70
0
  6
CONTINUOUS
  0
LAYER
  5
51
100
AcDbSymbolTableRecord
100
AcDbLayerTableRecord
  2
Layer_1
 70
0
  6
CONTINUOUS
  0
ENDTAB
  0
TABLE
  2
STYLE
  5
3
330
0
100
AcDbSymbolTable
 70
     1
  0
STYLE
  5
11
330
3
100
AcDbSymbolTableRecord
100
AcDbTextStyleTableRecord
  2
STANDARD
 70
     0
 40
0.0
 41
1.0
 50
0.0
 71
     0
 42
2.5
  3
txt
  4

  0
ENDTAB
  0
TABLE
  2
VIEW
  5
6
330
0
100
AcDbSymbolTable
 70
     0
  0
ENDTAB
  0
TABLE
  2
UCS
  5
7
330
0
100
AcDbSymbolTable
 70
     0
  0
ENDTAB
  0
TABLE
  2
APPID
  5
9
330
0
100
AcDbSymbolTable
 70
     2
  0
APPID
  5
12
330
9
100
AcDbSymbolTableRecord
100
AcDbRegAppTableRecord
  2
ACAD
 70
     0
  0
ENDTAB
  0
TABLE
  2
DIMSTYLE
  5
A
330
0
100
AcDbSymbolTable
 70
     1
  0
DIMSTYLE
105
27
330
A
100
AcDbSymbolTableRecord
100
AcDbDimStyleTableRecord
  2
ISO-25
 70
     0
  3

  4

  5

  6

  7

 40
1.0
 41
2.5
 42
0.625
 43
3.75
 44
1.25
 45
0.0
 46
0.0
 47
0.0
 48
0.0
140
2.5
141
2.5
142
0.0
143
0.03937007874016
144
1.0
145
0.0
146
1.0
147
0.625
 71
     0
 72
     0
 73
     0
 74
     0
 75
     0
 76
     0
 77
     1
 78
     8
170
     0
171
     3
172
     1
173
     0
174
     0
175
     0
176
     0
177
     0
178
     0
270
     2
271
     2
272
     2
273
     2
274
     3
340
11
275
     0
280
     0
281
     0
282
     0
283
     0
284
     8
285
     0
286
     0
287
     3
288
     0
  0
ENDTAB
  0
TABLE
  2
BLOCK_RECORD
  5
1
330
0
100
AcDbSymbolTable
 70
     1
  0
BLOCK_RECORD
  5
1F
330
1
100
AcDbSymbolTableRecord
100
AcDbBlockTableRecord
  2
*MODEL_SPACE
  0
BLOCK_RECORD
  5
1B
330
1
100
AcDbSymbolTableRecord
100
AcDbBlockTableRecord
  2
*PAPER_SPACE
  0
ENDTAB
  0
ENDSEC
  0
SECTION
  2
BLOCKS
  0
BLOCK
  5
20
330
1F
100
AcDbEntity
  8
0
100
AcDbBlockBegin
  2
*MODEL_SPACE
 70
     0
 10
0.0
 20
0.0
 30
0.0
  3
*MODEL_SPACE
  1

  0
ENDBLK
  5
21
330
1F
100
AcDbEntity
  8
0
100
AcDbBlockEnd
  0
BLOCK
  5
1C
330
1B
100
AcDbEntity
 67
     1
  8
0
100
AcDbBlockBegin
  2
*PAPER_SPACE
  1

  0
ENDBLK
  5
1D
330
1B
100
AcDbEntity
 67
     1
  8
0
100
AcDbBlockEnd
  0
ENDSEC
  0
SECTION
  2
ENTITIES
  0
LWPOLYLINE
  5
100
100
AcDbEntity
  8
Layer_1
 62
7
100
AcDbPolyline
 90
37
 70
0
 10
14.355450
 20
38.141935
 30
0.0
 10
14.493741
 20
38.920894
 30
0.0
 10
14.727997
 20
39.586975
 30
0.0
 10
15.058220
 20
40.140165
 30
0.0
 10
15.484403
 20
40.580477
 30
0.0
 10
15.986782
 20
40.933257
 30
0.0
 10
16.500455
 20
41.178796
 30
0.0
 10
17.025422
 20
41.317099
 30
0.0
 10
17.561681
 20
41.348166
 30
0.0
 10
18.092284
 20
41.297346
 30
0.0
 10
18.600310
 20
41.144932
 30
0.0
 10
19.085763
 20
40.890921
 30
0.0
 10
19.548641
 20
40.535318
 30
0.0
 10
19.966347
 20
40.086542
 30
0.0
 10
20.271161
 20
39.553103
 30
0.0
 10
20.463086
 20
38.935008
 30
0.0
 10
20.542120
 20
38.232252
 30
0.0
 10
20.525187
 20
37.506879
 30
0.0
 10
20.384068
 20
36.866192
 30
0.0
 10
20.118765
 20
36.310186
 30
0.0
 10
19.729284
 20
35.838867
 30
0.0
 10
19.283339
 20
35.474766
 30
0.0
 10
18.803533
 20
35.195343
 30
0.0
 10
18.289860
 20
35.000602
 30
0.0
 10
17.742324
 20
34.890546
 30
0.0
 10
17.186307
 20
34.896191
 30
0.0
 10
16.647231
 20
35.003435
 30
0.0
 10
16.125092
 20
35.212294
 30
0.0
 10
15.619888
 20
35.522772
 30
0.0
 10
15.171124
 20
35.937647
 30
0.0
 10
14.818323
 20
36.459787
 30
0.0
 10
14.561487
 20
37.089184
 30
0.0
 10
14.400618
 20
37.825838
 30
0.0
 10
14.389329
 20
37.904869
 30
0.0
 10
14.378040
 20
37.983897
 30
0.0
 10
14.366751
 20
38.062919
 30
0.0
 10
14.355462
 20
38.141950
 30
0.0
  0
LWPOLYLINE
  5
101
100
AcDbEntity
  8
Layer_1
 62
7
100
AcDbPolyline
 90
57
 70
0
 10
7.616954
 20
13.073959
 30
0.0
 10
7.616954
 20
12.866299
 30
0.0
 10
7.616954
 20
12.658640
 30
0.0
 10
7.616954
 20
12.450981
 30
0.0
 10
7.616954
 20
12.243322
 30
0.0
 10
7.552819
 20
11.336316
 30
0.0
 10
7.360421
 20
10.520948
 30
0.0
 10
7.039768
 20
9.797189
 30
0.0
 10
6.590857
 20
9.165040
 30
0.0
 10
6.056427
 20
8.673352
 30
0.0
 10
5.430385
 20
8.322155
 30
0.0
 10
4.712730
 20
8.111448
 30
0.0
 10
3.903463
 20
8.041203
 30
0.0
 10
3.091134
 20
8.114496
 30
0.0
 10
2.364315
 20
8.334375
 30
0.0
 10
1.723006
 20
8.700841
 30
0.0
 10
1.167207
 20
9.213892
 30
0.0
 10
0.718290
 20
9.842994
 30
0.0
 10
0.397634
 20
10.557581
 30
0.0
 10
0.205241
 20
11.357709
 30
0.0
 10
0.141111
 20
12.243322
 30
0.0
 10
0.141111
 20
12.450981
 30
0.0
 10
0.141111
 20
12.658640
 30
0.0
 10
0.141111
 20
12.866299
 30
0.0
 10
0.141111
 20
13.073959
 30
0.0
 10
0.141111
 20
18.876298
 30
0.0
 10
0.141111
 20
24.678626
 30
0.0
 10
0.141111
 20
30.480957
 30
0.0
 10
0.141111
 20
36.283285
 30
0.0
 10
0.141111
 20
36.490950
 30
0.0
 10
0.141111
 20
36.698611
 30
0.0
 10
0.141111
 20
36.906273
 30
0.0
 10
0.141111
 20
37.113935
 30
0.0
 10
0.223563
 20
38.017859
 30
0.0
 10
0.422063
 20
38.824072
 30
0.0
 10
0.736611
 20
39.532574
 30
0.0
 10
1.167207
 20
40.143362
 30
0.0
 10
1.723006
 20
40.635013
 30
0.0
 10
2.364315
 20
40.986199
 30
0.0
 10
3.091134
 20
41.196923
 30
0.0
 10
3.903463
 20
41.267182
 30
0.0
 10
4.712730
 20
41.193870
 30
0.0
 10
5.430385
 20
40.973987
 30
0.0
 10
6.056427
 20
40.607530
 30
0.0
 10
6.590857
 20
40.094501
 30
0.0
 10
7.039768
 20
39.486764
 30
0.0
 10
7.360421
 20
38.787423
 30
0.0
 10
7.552819
 20
37.996481
 30
0.0
 10
7.616954
 20
37.113935
 30
0.0
 10
7.616954
 20
36.906273
 30
0.0
 10
7.616954
 20
36.698611
 30
0.0
 10
7.616954
 20
36.490950
 30
0.0
 10
7.616954
 20
36.283285
 30
0.0
 10
7.616954
 20
30.480957
 30
0.0
 10
7.616954
 20
24.678626
 30
0.0
 10
7.616954
 20
18.876298
 30
0.0
 10
7.616954
 20
13.073959
 30
0.0
  0
LWPOLYLINE
  5
102
100
AcDbEntity
  8
Layer_1
 62
7
100
AcDbPolyline
 90
89
 70
0
 10
20.701203
 20
11.999002
 30
0.0
 10
20.701203
 20
11.547052
 30
0.0
 10
20.701203
 20
11.095073
 30
0.0
 10
20.701203
 20
10.643094
 30
0.0
 10
20.701203
 20
10.191143
 30
0.0
 10
20.701201
 20
9.702504
 30
0.0
 10
20.701198
 20
9.262745
 30
0.0
 10
20.701201
 20
8.871867
 30
0.0
 10
20.701203
 20
8.529842
 30
0.0
 10
20.698155
 20
8.224449
 30
0.0
 10
20.688983
 20
7.943497
 30
0.0
 10
20.673715
 20
7.686957
 30
0.0
 10
20.652351
 20
7.454886
 30
0.0
 10
20.627910
 20
7.244151
 30
0.0
 10
20.603470
 20
7.051760
 30
0.0
 10
20.579029
 20
6.877685
 30
0.0
 10
20.554617
 20
6.721955
 30
0.0
 10
20.524072
 20
6.544832
 30
0.0
 10
20.481318
 20
6.355489
 30
0.0
 10
20.426350
 20
6.153926
 30
0.0
 10
20.359170
 20
5.940171
 30
0.0
 10
20.188149
 20
5.362970
 30
0.0
 10
19.968269
 20
4.804114
 30
0.0
 10
19.699532
 20
4.263602
 30
0.0
 10
19.381936
 20
3.741378
 30
0.0
 10
19.024631
 20
3.222230
 30
0.0
 10
18.636790
 20
2.739715
 30
0.0
 10
18.218413
 20
2.293860
 30
0.0
 10
17.769499
 20
1.884638
 30
0.0
 10
17.296147
 20
1.515124
 30
0.0
 10
16.804476
 20
1.188367
 30
0.0
 10
16.294484
 20
0.904339
 30
0.0
 10
15.766167
 20
0.663095
 30
0.0
 10
15.228686
 20
0.470704
 30
0.0
 10
14.691208
 20
0.333290
 30
0.0
 10
14.153730
 20
0.250825
 30
0.0
 10
13.616252
 20
0.223449
 30
0.0
 10
12.803926
 20
0.281474
 30
0.0
 10
12.077108
 20
0.455549
 30
0.0
 10
11.435800
 20
0.745673
 30
0.0
 10
10.879997
 20
1.151819
 30
0.0
 10
10.409705
 20
1.646555
 30
0.0
 10
10.073778
 20
2.202363
 30
0.0
 10
9.872224
 20
2.819245
 30
0.0
 10
9.805038
 20
3.497199
 30
0.0
 10
9.902760
 20
4.306471
 30
0.0
 10
10.195933
 20
5.024106
 30
0.0
 10
10.684550
 20
5.650159
 30
0.0
 10
11.368614
 20
6.184575
 30
0.0
 10
11.686216
 20
6.392235
 30
0.0
 10
12.003817
 20
6.599894
 30
0.0
 10
12.321416
 20
6.807581
 30
0.0
 10
12.639018
 20
7.015240
 30
0.0
 10
13.323082
 20
7.671802
 30
0.0
 10
13.811699
 20
8.664321
 30
0.0
 10
14.104869
 20
9.992741
 30
0.0
 10
14.202594
 20
11.657090
 30
0.0
 10
14.202594
 20
15.614893
 30
0.0
 10
14.202594
 20
19.572692
 30
0.0
 10
14.202594
 20
23.530492
 30
0.0
 10
14.202594
 20
27.488292
 30
0.0
 10
14.202594
 20
27.671522
 30
0.0
 10
14.202594
 20
27.854752
 30
0.0
 10
14.202594
 20
28.037982
 30
0.0
 10
14.202594
 20
28.221218
 30
0.0
 10
14.278938
 20
29.009100
 30
0.0
 10
14.459117
 20
29.711483
 30
0.0
 10
14.743125
 20
30.328362
 30
0.0
 10
15.130966
 20
30.859747
 30
0.0
 10
15.607366
 20
31.287274
 30
0.0
 10
16.157059
 20
31.592658
 30
0.0
 10
16.780047
 20
31.775891
 30
0.0
 10
17.476329
 20
31.836981
 30
0.0
 10
18.172605
 20
31.772840
 30
0.0
 10
18.795588
 20
31.580438
 30
0.0
 10
19.345284
 20
31.259791
 30
0.0
 10
19.821692
 20
30.810889
 30
0.0
 10
20.206473
 20
30.282557
 30
0.0
 10
20.481318
 20
29.674834
 30
0.0
 10
20.646229
 20
28.987719
 30
0.0
 10
20.701201
 20
28.221218
 30
0.0
 10
20.701201
 20
28.037982
 30
0.0
 10
20.701201
 20
27.854752
 30
0.0
 10
20.701201
 20
27.671522
 30
0.0
 10
20.701201
 20
27.488292
 30
0.0
 10
20.701201
 20
23.616000
 30
0.0
 10
20.701201
 20
19.743705
 30
0.0
 10
20.701201
 20
15.871416
 30
0.0
 10
20.701201
 20
11.999115
 30
0.0
  0
LWPOLYLINE
  5
103
100
AcDbEntity
  8
Layer_1
 62
7
100
AcDbPolyline
 90
65
 70
0
 10
37.402745
 20
31.983477
 30
0.0
 10
38.630386
 20
31.922384
 30
0.0
 10
39.821386
 20
31.739151
 30
0.0
 10
40.975746
 20
31.433767
 30
0.0
 10
42.093467
 20
31.006246
 30
0.0
 10
43.156200
 20
30.496239
 30
0.0
 10
44.145646
 20
29.894623
 30
0.0
 10
45.061804
 20
29.201401
 30
0.0
 10
45.904681
 20
28.416572
 30
0.0
 10
46.689510
 20
27.573698
 30
0.0
 10
47.382732
 20
26.657537
 30
0.0
 10
47.984345
 20
25.668091
 30
0.0
 10
48.494352
 20
24.605358
 30
0.0
 10
48.921879
 20
23.484583
 30
0.0
 10
49.227260
 20
22.321060
 30
0.0
 10
49.410496
 20
21.114791
 30
0.0
 10
49.471588
 20
19.865769
 30
0.0
 10
49.410496
 20
18.659489
 30
0.0
 10
49.227260
 20
17.483754
 30
0.0
 10
48.921879
 20
16.338561
 30
0.0
 10
48.494352
 20
15.223911
 30
0.0
 10
47.984345
 20
14.179479
 30
0.0
 10
47.382732
 20
13.196133
 30
0.0
 10
46.689510
 20
12.273887
 30
0.0
 10
45.904681
 20
11.412686
 30
0.0
 10
45.040429
 20
10.646170
 30
0.0
 10
44.108999
 20
9.959044
 30
0.0
 10
43.110390
 20
9.351335
 30
0.0
 10
42.044606
 20
8.823015
 30
0.0
 10
40.926885
 20
8.416869
 30
0.0
 10
39.772525
 20
8.126744
 30
0.0
 10
38.581525
 20
7.952669
 30
0.0
 10
37.353881
 20
7.894645
 30
0.0
 10
36.123172
 20
7.952669
 30
0.0
 10
34.923002
 20
8.126744
 30
0.0
 10
33.753377
 20
8.416869
 30
0.0
 10
32.614294
 20
8.823015
 30
0.0
 10
31.548496
 20
9.329970
 30
0.0
 10
30.549884
 20
9.922411
 30
0.0
 10
29.618460
 20
10.600365
 30
0.0
 10
28.754220
 20
11.363833
 30
0.0
 10
27.987701
 20
12.203642
 30
0.0
 10
27.300581
 20
13.110647
 30
0.0
 10
26.692866
 20
14.084822
 30
0.0
 10
26.164549
 20
15.126185
 30
0.0
 10
25.737010
 20
16.219464
 30
0.0
 10
25.431623
 20
17.349388
 30
0.0
 10
25.248393
 20
18.515962
 30
0.0
 10
25.187315
 20
19.719188
 30
0.0
 10
25.245340
 20
20.992637
 30
0.0
 10
25.419409
 20
22.223338
 30
0.0
 10
25.709525
 20
23.411290
 30
0.0
 10
26.115688
 20
24.556494
 30
0.0
 10
26.644005
 20
25.640606
 30
0.0
 10
27.251719
 20
26.645322
 30
0.0
 10
27.938840
 20
27.570644
 30
0.0
 10
28.705358
 20
28.416572
 30
0.0
 10
29.569596
 20
29.201401
 30
0.0
 10
30.501020
 20
29.894623
 30
0.0
 10
31.499632
 20
30.496239
 30
0.0
 10
32.565433
 20
31.006246
 30
0.0
 10
33.710623
 20
31.433767
 30
0.0
 10
34.898573
 20
31.739151
 30
0.0
 10
36.129279
 20
31.922384
 30
0.0
 10
37.402745
 20
31.983477
 30
0.0
  0
LWPOLYLINE
  5
104
100
AcDbEntity
  8
Layer_1
 62
7
100
AcDbPolyline
 90
125
 70
0
 10
60.063899
 20
20.012335
 30
0.0
 10
60.069995
 20
19.331319
 30
0.0
 10
60.088312
 20
18.754135
 30
0.0
 10
60.118854
 20
18.280789
 30
0.0
 10
60.161610
 20
17.911281
 30
0.0
 10
60.219630
 20
17.596725
 30
0.0
 10
60.295973
 20
17.288284
 30
0.0
 10
60.390645
 20
16.985959
 30
0.0
 10
60.503644
 20
16.689736
 30
0.0
 10
60.757108
 20
16.219438
 30
0.0
 10
61.077760
 20
15.785792
 30
0.0
 10
61.465604
 20
15.388790
 30
0.0
 10
61.920634
 20
15.028438
 30
0.0
 10
62.439781
 20
14.750528
 30
0.0
 10
62.971149
 20
14.552041
 30
0.0
 10
63.514740
 20
14.432943
 30
0.0
 10
64.070549
 20
14.393235
 30
0.0
 10
64.888974
 20
14.469576
 30
0.0
 10
65.634111
 20
14.698627
 30
0.0
 10
66.305963
 20
15.080350
 30
0.0
 10
66.904529
 20
15.614780
 30
0.0
 10
67.396193
 20
16.259135
 30
0.0
 10
67.747382
 20
16.970683
 30
0.0
 10
67.958101
 20
17.749421
 30
0.0
 10
68.028346
 20
18.595343
 30
0.0
 10
68.028346
 20
18.900727
 30
0.0
 10
68.028346
 20
19.206114
 30
0.0
 10
68.028346
 20
19.511501
 30
0.0
 10
68.028346
 20
19.816888
 30
0.0
 10
68.028346
 20
21.734709
 30
0.0
 10
68.028346
 20
23.652531
 30
0.0
 10
68.028346
 20
25.570352
 30
0.0
 10
68.028346
 20
27.488179
 30
0.0
 10
68.028346
 20
27.671409
 30
0.0
 10
68.028346
 20
27.854639
 30
0.0
 10
68.028346
 20
28.037869
 30
0.0
 10
68.028346
 20
28.221105
 30
0.0
 10
68.104684
 20
29.008987
 30
0.0
 10
68.284858
 20
29.711371
 30
0.0
 10
68.568869
 20
30.328249
 30
0.0
 10
68.956719
 20
30.859634
 30
0.0
 10
69.433110
 20
31.287161
 30
0.0
 10
69.982800
 20
31.592545
 30
0.0
 10
70.605791
 20
31.775778
 30
0.0
 10
71.302081
 20
31.836868
 30
0.0
 10
71.976973
 20
31.772727
 30
0.0
 10
72.584688
 20
31.580325
 30
0.0
 10
73.125223
 20
31.259678
 30
0.0
 10
73.598583
 20
30.810776
 30
0.0
 10
74.004732
 20
30.282444
 30
0.0
 10
74.294845
 20
29.674721
 30
0.0
 10
74.468919
 20
28.987606
 30
0.0
 10
74.526956
 20
28.221105
 30
0.0
 10
74.526956
 20
28.037869
 30
0.0
 10
74.526956
 20
27.854639
 30
0.0
 10
74.526956
 20
27.671409
 30
0.0
 10
74.526956
 20
27.488179
 30
0.0
 10
74.526956
 20
25.435986
 30
0.0
 10
74.526956
 20
23.383793
 30
0.0
 10
74.526956
 20
21.331600
 30
0.0
 10
74.526956
 20
19.279407
 30
0.0
 10
74.493351
 20
18.121994
 30
0.0
 10
74.392570
 20
17.043976
 30
0.0
 10
74.224611
 20
16.045369
 30
0.0
 10
73.989478
 20
15.126160
 30
0.0
 10
73.677972
 20
14.261917
 30
0.0
 10
73.280964
 20
13.428204
 30
0.0
 10
72.798460
 20
12.625056
 30
0.0
 10
72.230454
 20
11.852416
 30
0.0
 10
71.454764
 20
10.972927
 30
0.0
 10
70.593574
 20
10.191115
 30
0.0
 10
69.646882
 20
9.507065
 30
0.0
 10
68.614688
 20
8.920720
 30
0.0
 10
67.527506
 20
8.471817
 30
0.0
 10
66.415900
 20
8.151156
 30
0.0
 10
65.279868
 20
7.958765
 30
0.0
 10
64.119410
 20
7.894616
 30
0.0
 10
62.766544
 20
7.980130
 30
0.0
 10
61.444223
 20
8.236670
 30
0.0
 10
60.152444
 20
8.664208
 30
0.0
 10
58.891207
 20
9.262745
 30
0.0
 10
57.730737
 20
10.032337
 30
0.0
 10
56.692425
 20
10.924046
 30
0.0
 10
55.776269
 20
11.937929
 30
0.0
 10
54.982268
 20
13.073959
 30
0.0
 10
54.658559
 20
13.669476
 30
0.0
 10
54.371497
 20
14.332162
 30
0.0
 10
54.121081
 20
15.062028
 30
0.0
 10
53.907312
 20
15.859091
 30
0.0
 10
53.757672
 20
16.705004
 30
0.0
 10
53.650786
 20
17.581459
 30
0.0
 10
53.586654
 20
18.488454
 30
0.0
 10
53.565290
 20
19.425996
 30
0.0
 10
53.565290
 20
21.441543
 30
0.0
 10
53.565290
 20
23.457086
 30
0.0
 10
53.565290
 20
25.472630
 30
0.0
 10
53.565290
 20
27.488179
 30
0.0
 10
53.565290
 20
27.671409
 30
0.0
 10
53.565290
 20
27.854639
 30
0.0
 10
53.565290
 20
28.037869
 30
0.0
 10
53.565290
 20
28.221105
 30
0.0
 10
53.638580
 20
29.008987
 30
0.0
 10
53.809598
 20
29.711371
 30
0.0
 10
54.078338
 20
30.328249
 30
0.0
 10
54.444801
 20
30.859634
 30
0.0
 10
54.921201
 20
31.287161
 30
0.0
 10
55.470893
 20
31.592545
 30
0.0
 10
56.093882
 20
31.775778
 30
0.0
 10
56.790164
 20
31.836868
 30
0.0
 10
57.486440
 20
31.772727
 30
0.0
 10
58.109426
 20
31.580325
 30
0.0
 10
58.659121
 20
31.259678
 30
0.0
 10
59.135526
 20
30.810776
 30
0.0
 10
59.541684
 20
30.282444
 30
0.0
 10
59.831800
 20
29.674721
 30
0.0
 10
60.005874
 20
28.987606
 30
0.0
 10
60.063899
 20
28.221105
 30
0.0
 10
60.063899
 20
28.037869
 30
0.0
 10
60.063899
 20
27.854639
 30
0.0
 10
60.063899
 20
27.671409
 30
0.0
 10
60.063899
 20
27.488179
 30
0.0
 10
60.063899
 20
25.619216
 30
0.0
 10
60.063899
 20
23.750253
 30
0.0
 10
60.063899
 20
21.881296
 30
0.0
 10
60.063899
 20
20.012335
 30
0.0
  0
LWPOLYLINE
  5
105
100
AcDbEntity
  8
Layer_1
 62
7
100
AcDbPolyline
 90
129
 70
0
 10
92.995163
 20
29.882400
 30
0.0
 10
93.465450
 20
30.401542
 30
0.0
 10
93.899093
 20
30.835185
 30
0.0
 10
94.296097
 20
31.183332
 30
0.0
 10
94.656461
 20
31.445976
 30
0.0
 10
95.032076
 20
31.638356
 30
0.0
 10
95.426022
 20
31.775775
 30
0.0
 10
95.838295
 20
31.858232
 30
0.0
 10
96.268898
 20
31.885721
 30
0.0
 10
96.928519
 20
31.821574
 30
0.0
 10
97.539288
 20
31.629181
 30
0.0
 10
98.101201
 20
31.308528
 30
0.0
 10
98.614261
 20
30.859626
 30
0.0
 10
99.063167
 20
30.343512
 30
0.0
 10
99.383816
 20
29.772432
 30
0.0
 10
99.576213
 20
29.146398
 30
0.0
 10
99.640356
 20
28.465402
 30
0.0
 10
99.615916
 20
28.123354
 30
0.0
 10
99.542620
 20
27.781323
 30
0.0
 10
99.420468
 20
27.439293
 30
0.0
 10
99.249464
 20
27.097270
 30
0.0
 10
99.044845
 20
26.736906
 30
0.0
 10
98.773048
 20
26.339902
 30
0.0
 10
98.434073
 20
25.906256
 30
0.0
 10
98.027922
 20
25.435975
 30
0.0
 10
96.879672
 20
24.190000
 30
0.0
 10
95.731423
 20
22.944023
 30
0.0
 10
94.583171
 20
21.698054
 30
0.0
 10
93.434922
 20
20.452077
 30
0.0
 10
94.741972
 20
18.925151
 30
0.0
 10
96.049025
 20
17.398218
 30
0.0
 10
97.356075
 20
15.871294
 30
0.0
 10
98.663125
 20
14.344354
 30
0.0
 10
99.066220
 20
13.874059
 30
0.0
 10
99.396034
 20
13.440424
 30
0.0
 10
99.652562
 20
13.043422
 30
0.0
 10
99.835806
 20
12.683081
 30
0.0
 10
99.985432
 20
12.362420
 30
0.0
 10
100.092312
 20
12.035635
 30
0.0
 10
100.156447
 20
11.702782
 30
0.0
 10
100.177840
 20
11.363805
 30
0.0
 10
100.116750
 20
10.701119
 30
0.0
 10
99.933514
 20
10.081189
 30
0.0
 10
99.628133
 20
9.503989
 30
0.0
 10
99.200606
 20
8.969573
 30
0.0
 10
98.687546
 20
8.542034
 30
0.0
 10
98.125633
 20
8.236641
 30
0.0
 10
97.514867
 20
8.053423
 30
0.0
 10
96.855243
 20
7.992350
 30
0.0
 10
96.424640
 20
8.019725
 30
0.0
 10
96.012367
 20
8.102163
 30
0.0
 10
95.618421
 20
8.239605
 30
0.0
 10
95.242806
 20
8.431996
 30
0.0
 10
94.882442
 20
8.719044
 30
0.0
 10
94.485437
 20
9.091634
 30
0.0
 10
94.051795
 20
9.549709
 30
0.0
 10
93.581508
 20
10.093297
 30
0.0
 10
92.469905
 20
11.449205
 30
0.0
 10
91.358302
 20
12.805114
 30
0.0
 10
90.246697
 20
14.161022
 30
0.0
 10
89.135094
 20
15.516933
 30
0.0
 10
87.974627
 20
14.136582
 30
0.0
 10
86.814163
 20
12.756261
 30
0.0
 10
85.653697
 20
11.375912
 30
0.0
 10
77.170935
 20
2.144339
 30
0.0
 10
76.700637
 20
1.625191
 30
0.0
 10
76.266988
 20
1.191528
 30
0.0
 10
75.869989
 20
0.843379
 30
0.0
 10
75.509636
 20
0.580771
 30
0.0
 10
75.155388
 20
0.388352
 30
0.0
 10
74.776708
 20
0.250938
 30
0.0
 10
74.373599
 20
0.168473
 30
0.0
 10
73.946060
 20
0.141097
 30
0.0
 10
73.265050
 20
0.202198
 30
0.0
 10
72.639007
 20
0.385417
 30
0.0
 10
72.067936
 20
0.690809
 30
0.0
 10
71.551837
 20
1.118348
 30
0.0
 10
71.124298
 20
1.634448
 30
0.0
 10
70.818911
 20
2.205524
 30
0.0
 10
70.635681
 20
2.831550
 30
0.0
 10
70.574603
 20
3.512580
 30
0.0
 10
70.595995
 20
3.851557
 30
0.0
 10
70.660125
 20
4.184410
 30
0.0
 10
70.767011
 20
4.511167
 30
0.0
 10
70.916648
 20
4.831828
 30
0.0
 10
71.118202
 20
5.192197
 30
0.0
 10
71.380835
 20
5.589199
 30
0.0
 10
71.704544
 20
6.022834
 30
0.0
 10
79.411624
 20
14.344354
 30
0.0
 10
80.755321
 20
15.871292
 30
0.0
 10
82.099020
 20
17.398218
 30
0.0
 10
83.442717
 20
18.925145
 30
0.0
 10
84.786414
 20
20.452074
 30
0.0
 10
83.687025
 20
21.771342
 30
0.0
 10
82.587637
 20
23.090609
 30
0.0
 10
81.488249
 20
24.409871
 30
0.0
 10
80.388861
 20
25.729142
 30
0.0
 10
80.007127
 20
26.196369
 30
0.0
 10
79.692579
 20
26.620854
 30
0.0
 10
79.445217
 20
27.002590
 30
0.0
 10
79.265041
 20
27.341576
 30
0.0
 10
79.136776
 20
27.686649
 30
0.0
 10
79.045161
 20
28.037844
 30
0.0
 10
78.990193
 20
28.395148
 30
0.0
 10
78.971877
 20
28.758569
 30
0.0
 10
79.032955
 20
29.372379
 30
0.0
 10
79.216185
 20
29.943448
 30
0.0
 10
79.521569
 20
30.471770
 30
0.0
 10
79.949111
 20
30.957342
 30
0.0
 10
80.465210
 20
31.363497
 30
0.0
 10
81.036281
 20
31.653604
 30
0.0
 10
81.662321
 20
31.827682
 30
0.0
 10
82.343334
 20
31.885718
 30
0.0
 10
82.767816
 20
31.858229
 30
0.0
 10
83.161762
 20
31.775770
 30
0.0
 10
83.525174
 20
31.638347
 30
0.0
 10
83.858046
 20
31.445970
 30
0.0
 10
84.197023
 20
31.204702
 30
0.0
 10
84.578754
 20
30.871829
 30
0.0
 10
85.003239
 20
30.447347
 30
0.0
 10
85.470484
 20
29.931258
 30
0.0
 10
86.386642
 20
28.807435
 30
0.0
 10
87.302800
 20
27.683615
 30
0.0
 10
88.218955
 20
26.559801
 30
0.0
 10
89.135114
 20
25.435981
 30
0.0
 10
90.100133
 20
26.547583
 30
0.0
 10
91.065152
 20
27.659186
 30
0.0
 10
92.030169
 20
28.770792
 30
0.0
 10
92.995188
 20
29.882397
 30
0.0
  0
ENDSEC
  0
SECTION
  2
OBJECTS
  0
DICTIONARY
  5
C
330
0
100
AcDbDictionary
  3
ACAD_GROUP
350
D
  3
ACAD_MLINESTYLE
350
17
  0
DICTIONARY
  5
D
330
C
100
AcDbDictionary
  0
DICTIONARY
  5
1A
330
C
100
AcDbDictionary
  0
DICTIONARY
  5
17
330
C
100
AcDbDictionary
  3
STANDARD
350
18
  0
DICTIONARY
  5
19
330
C
100
AcDbDictionary
  0
ENDSEC
  0
EOF
