999
DXF created by Inkscape
  0
SECTION
  2
HEADER
  9
$ACADVER
  1
AC1014
  9
$HANDSEED
  5
FFFF
  9
$MEASUREMENT
 70
     1
  0
ENDSEC
  0
SECTION
  2
TABLES
  0
TABLE
  2
VPORT
  5
8
330
0
100
AcDbSymbolTable
 70
     4
  0
VPORT
  5
2E
330
8
100
AcDbSymbolTableRecord
100
AcDbViewportTableRecord
  2
*ACTIVE
 70
     0
 10
0.0
 20
0.0
 11
1.0
 21
1.0
 12
210.0
 22
148.5
 13
0.0
 23
0.0
 14
10.0
 24
10.0
 15
10.0
 25
10.0
 16
0.0
 26
0.0
 36
1.0
 17
0.0
 27
0.0
 37
0.0
 40
341.0
 41
1.24
 42
50.0
 43
0.0
 44
0.0
 50
0.0
 51
0.0
 71
     0
 72
   100
 73
     1
 74
     3
 75
     0
 76
     0
 77
     0
 78
     0
  0
ENDTAB
  0
TABLE
  2
LTYPE
  5
5
330
0
100
AcDbSymbolTable
 70
     1
  0
LTYPE
  5
14
330
5
100
AcDbSymbolTableRecord
100
AcDbLinetypeTableRecord
  2
BYBLOCK
 70
     0
  3

 72
    65
 73
     0
 40
0.0
  0
LTYPE
  5
15
330
5
100
AcDbSymbolTableRecord
100
AcDbLinetypeTableRecord
  2
BYLAYER
 70
     0
  3

 72
    65
 73
     0
 40
0.0
  0
LTYPE
  5
16
330
5
100
AcDbSymbolTableRecord
100
AcDbLinetypeTableRecord
  2
CONTINUOUS
 70
     0
  3
Solid line
 72
    65
 73
     0
 40
0.0
  0
ENDTAB
  0
TABLE
  2
LAYER
  5
2
100
AcDbSymbolTable
 70
2
  0
LAYER
  5
50
100
AcDbSymbolTableRecord
100
AcDbLayerTableRecord
  2
0
 70
0
  6
CONTINUOUS
  0
LAYER
  5
51
100
AcDbSymbolTableRecord
100
AcDbLayerTableRecord
  2
Layer_1
 70
0
  6
CONTINUOUS
  0
ENDTAB
  0
TABLE
  2
STYLE
  5
3
330
0
100
AcDbSymbolTable
 70
     1
  0
STYLE
  5
11
330
3
100
AcDbSymbolTableRecord
100
AcDbTextStyleTableRecord
  2
STANDARD
 70
     0
 40
0.0
 41
1.0
 50
0.0
 71
     0
 42
2.5
  3
txt
  4

  0
ENDTAB
  0
TABLE
  2
VIEW
  5
6
330
0
100
AcDbSymbolTable
 70
     0
  0
ENDTAB
  0
TABLE
  2
UCS
  5
7
330
0
100
AcDbSymbolTable
 70
     0
  0
ENDTAB
  0
TABLE
  2
APPID
  5
9
330
0
100
AcDbSymbolTable
 70
     2
  0
APPID
  5
12
330
9
100
AcDbSymbolTableRecord
100
AcDbRegAppTableRecord
  2
ACAD
 70
     0
  0
ENDTAB
  0
TABLE
  2
DIMSTYLE
  5
A
330
0
100
AcDbSymbolTable
 70
     1
  0
DIMSTYLE
105
27
330
A
100
AcDbSymbolTableRecord
100
AcDbDimStyleTableRecord
  2
ISO-25
 70
     0
  3

  4

  5

  6

  7

 40
1.0
 41
2.5
 42
0.625
 43
3.75
 44
1.25
 45
0.0
 46
0.0
 47
0.0
 48
0.0
140
2.5
141
2.5
142
0.0
143
0.03937007874016
144
1.0
145
0.0
146
1.0
147
0.625
 71
     0
 72
     0
 73
     0
 74
     0
 75
     0
 76
     0
 77
     1
 78
     8
170
     0
171
     3
172
     1
173
     0
174
     0
175
     0
176
     0
177
     0
178
     0
270
     2
271
     2
272
     2
273
     2
274
     3
340
11
275
     0
280
     0
281
     0
282
     0
283
     0
284
     8
285
     0
286
     0
287
     3
288
     0
  0
ENDTAB
  0
TABLE
  2
BLOCK_RECORD
  5
1
330
0
100
AcDbSymbolTable
 70
     1
  0
BLOCK_RECORD
  5
1F
330
1
100
AcDbSymbolTableRecord
100
AcDbBlockTableRecord
  2
*MODEL_SPACE
  0
BLOCK_RECORD
  5
1B
330
1
100
AcDbSymbolTableRecord
100
AcDbBlockTableRecord
  2
*PAPER_SPACE
  0
ENDTAB
  0
ENDSEC
  0
SECTION
  2
BLOCKS
  0
BLOCK
  5
20
330
1F
100
AcDbEntity
  8
0
100
AcDbBlockBegin
  2
*MODEL_SPACE
 70
     0
 10
0.0
 20
0.0
 30
0.0
  3
*MODEL_SPACE
  1

  0
ENDBLK
  5
21
330
1F
100
AcDbEntity
  8
0
100
AcDbBlockEnd
  0
BLOCK
  5
1C
330
1B
100
AcDbEntity
 67
     1
  8
0
100
AcDbBlockBegin
  2
*PAPER_SPACE
  1

  0
ENDBLK
  5
1D
330
1B
100
AcDbEntity
 67
     1
  8
0
100
AcDbBlockEnd
  0
ENDSEC
  0
SECTION
  2
ENTITIES
  0
LWPOLYLINE
  5
100
100
AcDbEntity
  8
Layer_1
 62
7
100
AcDbPolyline
 90
206
 70
0
 10
15.850509
 20
292.983173
 30
0.0
 10
15.533009
 20
292.894978
 30
0.0
 10
15.171412
 20
292.797965
 30
0.0
 10
14.192453
 20
292.136506
 30
0.0
 10
13.389884
 20
290.690117
 30
0.0
 10
13.381064
 20
290.672478
 30
0.0
 10
13.072384
 20
289.711159
 30
0.0
 10
12.675509
 20
288.511715
 30
0.0
 10
12.289810
 20
286.934126
 30
0.0
 10
11.996412
 20
285.336715
 30
0.0
 10
11.144707
 20
284.215651
 30
0.0
 10
10.542529
 20
282.942842
 30
0.0
 10
10.203803
 20
281.575728
 30
0.0
 10
10.135509
 20
280.168520
 30
0.0
 10
9.121273
 20
279.771645
 30
0.0
 10
8.980162
 20
279.912756
 30
0.0
 10
8.865509
 20
280.062687
 30
0.0
 10
8.962523
 20
281.279770
 30
0.0
 10
8.768495
 20
281.756020
 30
0.0
 10
8.759675
 20
281.782464
 30
0.0
 10
8.759675
 20
281.791270
 30
0.0
 10
8.768495
 20
281.791270
 30
0.0
 10
8.742037
 20
281.826547
 30
0.0
 10
8.742037
 20
281.835353
 30
0.0
 10
8.733217
 20
281.844158
 30
0.0
 10
8.574467
 20
282.091103
 30
0.0
 10
8.151134
 20
282.417422
 30
0.0
 10
7.992384
 20
282.549714
 30
0.0
 10
7.965925
 20
282.558519
 30
0.0
 10
7.948287
 20
282.567324
 30
0.0
 10
6.572453
 20
282.232185
 30
0.0
 10
5.805162
 20
282.734894
 30
0.0
 10
5.734606
 20
282.770172
 30
0.0
 10
5.540578
 20
282.876005
 30
0.0
 10
5.143703
 20
282.920102
 30
0.0
 10
4.826203
 20
282.946546
 30
0.0
 10
3.653217
 20
282.567310
 30
0.0
 10
3.644398
 20
282.567310
 30
0.0
 10
3.644398
 20
282.558505
 30
0.0
 10
3.406273
 20
282.293922
 30
0.0
 10
3.397453
 20
282.293922
 30
0.0
 10
3.397453
 20
282.285116
 30
0.0
 10
2.850648
 20
281.165047
 30
0.0
 10
2.762453
 20
280.538866
 30
0.0
 10
2.727176
 20
280.247825
 30
0.0
 10
3.024237
 20
279.063971
 30
0.0
 10
3.706134
 20
278.051783
 30
0.0
 10
3.697314
 20
278.042978
 30
0.0
 10
3.714953
 20
278.025339
 30
0.0
 10
3.723773
 20
278.016533
 30
0.0
 10
3.864884
 20
277.910700
 30
0.0
 10
5.099606
 20
277.002297
 30
0.0
 10
4.826203
 20
276.640700
 30
0.0
 10
4.817384
 20
276.393756
 30
0.0
 10
4.808564
 20
276.164450
 30
0.0
 10
4.799745
 20
275.970422
 30
0.0
 10
4.835023
 20
275.873451
 30
0.0
 10
4.905578
 20
275.802895
 30
0.0
 10
4.993773
 20
275.732340
 30
0.0
 10
6.182383
 20
274.744347
 30
0.0
 10
7.489675
 20
273.915534
 30
0.0
 10
7.498495
 20
273.906729
 30
0.0
 10
8.494036
 20
273.371431
 30
0.0
 10
9.516545
 20
272.889595
 30
0.0
 10
10.558842
 20
272.451520
 30
0.0
 10
9.981224
 20
271.022961
 30
0.0
 10
9.499439
 20
269.559519
 30
0.0
 10
9.117284
 20
268.066883
 30
0.0
 10
8.839050
 20
266.551313
 30
0.0
 10
8.830231
 20
266.498396
 30
0.0
 10
8.707369
 20
265.416345
 30
0.0
 10
8.645023
 20
264.328813
 30
0.0
 10
8.645023
 20
264.320007
 30
0.0
 10
8.636203
 20
264.258271
 30
0.0
 10
8.609745
 20
263.349868
 30
0.0
 10
8.539189
 20
263.341063
 30
0.0
 10
8.089398
 20
263.499813
 30
0.0
 10
8.080578
 20
263.490951
 30
0.0
 10
7.454398
 20
263.746715
 30
0.0
 10
7.392662
 20
263.773159
 30
0.0
 10
7.383842
 20
263.773159
 30
0.0
 10
6.678287
 20
263.799604
 30
0.0
 10
6.457800
 20
263.781965
 30
0.0
 10
6.202037
 20
263.755520
 30
0.0
 10
5.902175
 20
263.570312
 30
0.0
 10
5.637592
 20
263.402743
 30
0.0
 10
4.887939
 20
262.291493
 30
0.0
 10
4.887939
 20
262.282687
 30
0.0
 10
4.887939
 20
262.265048
 30
0.0
 10
5.223078
 20
261.056785
 30
0.0
 10
5.231898
 20
261.030340
 30
0.0
 10
5.311273
 20
260.950965
 30
0.0
 10
5.708148
 20
260.483535
 30
0.0
 10
5.858078
 20
260.404160
 30
0.0
 10
5.884537
 20
260.395354
 30
0.0
 10
7.445578
 20
259.927924
 30
0.0
 10
7.445578
 20
259.919119
 30
0.0
 10
7.480856
 20
259.919119
 30
0.0
 10
7.489675
 20
259.919119
 30
0.0
 10
8.902872
 20
259.960374
 30
0.0
 10
10.298875
 20
260.188212
 30
0.0
 10
11.670092
 20
260.536480
 30
0.0
 10
11.749467
 20
260.545285
 30
0.0
 10
11.784745
 20
260.554090
 30
0.0
 10
11.811203
 20
260.562896
 30
0.0
 10
11.978773
 20
260.624632
 30
0.0
 10
13.010648
 20
260.915673
 30
0.0
 10
13.204675
 20
260.942118
 30
0.0
 10
14.219136
 20
260.646623
 30
0.0
 10
15.259606
 20
260.474687
 30
0.0
 10
15.303703
 20
260.465882
 30
0.0
 10
15.303703
 20
260.474687
 30
0.0
 10
15.788773
 20
260.501131
 30
0.0
 10
16.185648
 20
260.509937
 30
0.0
 10
17.243981
 20
260.651048
 30
0.0
 10
18.284675
 20
260.977367
 30
0.0
 10
19.577319
 20
260.603321
 30
0.0
 10
20.886412
 20
260.289451
 30
0.0
 10
22.315162
 20
260.033687
 30
0.0
 10
23.565283
 20
259.919028
 30
0.0
 10
24.819884
 20
259.945501
 30
0.0
 10
24.846328
 20
259.954306
 30
0.0
 10
24.863967
 20
259.954306
 30
0.0
 10
25.662299
 20
260.235800
 30
0.0
 10
26.336814
 20
260.748056
 30
0.0
 10
26.469106
 20
260.977362
 30
0.0
 10
26.813064
 20
261.762292
 30
0.0
 10
26.865981
 20
262.000417
 30
0.0
 10
26.874786
 20
262.044514
 30
0.0
 10
26.865981
 20
262.088612
 30
0.0
 10
26.839537
 20
262.220903
 30
0.0
 10
26.848342
 20
262.441389
 30
0.0
 10
26.839537
 20
262.467834
 30
0.0
 10
26.830731
 20
262.503111
 30
0.0
 10
25.807676
 20
263.508528
 30
0.0
 10
25.710662
 20
263.579084
 30
0.0
 10
25.569551
 20
263.605528
 30
0.0
 10
25.252051
 20
263.737819
 30
0.0
 10
24.925731
 20
263.729014
 30
0.0
 10
24.669967
 20
263.729014
 30
0.0
 10
23.964412
 20
263.579084
 30
0.0
 10
23.902676
 20
263.570278
 30
0.0
 10
23.849759
 20
263.543834
 30
0.0
 10
23.796842
 20
263.508556
 30
0.0
 10
23.496981
 20
263.376265
 30
0.0
 10
23.496981
 20
263.385070
 30
0.0
 10
23.205940
 20
263.349792
 30
0.0
 10
23.115079
 20
264.603432
 30
0.0
 10
22.994273
 20
265.854514
 30
0.0
 10
23.946773
 20
266.471875
 30
0.0
 10
25.093301
 20
266.454237
 30
0.0
 10
25.119745
 20
266.454237
 30
0.0
 10
25.137384
 20
266.463042
 30
0.0
 10
25.472523
 20
266.507139
 30
0.0
 10
25.790023
 20
266.692347
 30
0.0
 10
26.028148
 20
266.833459
 30
0.0
 10
26.892453
 20
267.971167
 30
0.0
 10
26.901259
 20
267.979972
 30
0.0
 10
26.883620
 20
268.359208
 30
0.0
 10
26.865981
 20
268.623792
 30
0.0
 10
26.548481
 20
269.505736
 30
0.0
 10
26.530842
 20
269.549833
 30
0.0
 10
26.522037
 20
269.558638
 30
0.0
 10
26.380925
 20
269.814402
 30
0.0
 10
25.040370
 20
270.625791
 30
0.0
 10
24.311269
 20
271.873160
 30
0.0
 10
23.454276
 20
273.036198
 30
0.0
 10
22.486936
 20
274.109374
 30
0.0
 10
21.426058
 20
275.090429
 30
0.0
 10
20.286689
 20
275.979194
 30
0.0
 10
20.436620
 20
276.261416
 30
0.0
 10
20.471898
 20
276.252611
 30
0.0
 10
20.480703
 20
276.261416
 30
0.0
 10
21.927092
 20
276.490721
 30
0.0
 10
22.085842
 20
276.543638
 30
0.0
 10
22.174036
 20
276.631833
 30
0.0
 10
22.438620
 20
276.790583
 30
0.0
 10
22.650286
 20
277.125721
 30
0.0
 10
22.800217
 20
277.363846
 30
0.0
 10
23.082439
 20
278.704402
 30
0.0
 10
23.082439
 20
278.748499
 30
0.0
 10
23.064800
 20
278.748499
 30
0.0
 10
22.994245
 20
278.960166
 30
0.0
 10
22.976606
 20
279.013083
 30
0.0
 10
22.434832
 20
279.806395
 30
0.0
 10
21.547856
 20
280.177249
 30
0.0
 10
21.452692
 20
281.600667
 30
0.0
 10
21.085619
 20
282.979405
 30
0.0
 10
20.461204
 20
284.262005
 30
0.0
 10
19.598759
 20
285.398360
 30
0.0
 10
19.349048
 20
286.818023
 30
0.0
 10
19.014127
 20
288.220232
 30
0.0
 10
18.574237
 20
289.592700
 30
0.0
 10
18.011259
 20
290.919333
 30
0.0
 10
17.993620
 20
290.963430
 30
0.0
 10
17.984814
 20
290.981069
 30
0.0
 10
17.976009
 20
290.989888
 30
0.0
 10
17.693787
 20
291.580791
 30
0.0
 10
17.684967
 20
291.598430
 30
0.0
 10
17.667328
 20
291.616069
 30
0.0
 10
17.270439
 20
292.127695
 30
0.0
 10
17.032314
 20
292.436376
 30
0.0
 10
15.876967
 20
292.983181
 30
0.0
 10
15.859328
 20
292.983181
 30
0.0
 10
15.850509
 20
292.983181
 30
0.0
 10
15.850509
 20
292.983181
 30
0.0
  0
LWPOLYLINE
  5
101
100
AcDbEntity
  8
Layer_1
 62
7
100
AcDbPolyline
 90
214
 70
0
 10
15.832870
 20
291.942487
 30
0.0
 10
16.123912
 20
291.827834
 30
0.0
 10
16.168009
 20
291.810195
 30
0.0
 10
16.185648
 20
291.801376
 30
0.0
 10
16.494328
 20
291.501515
 30
0.0
 10
17.076412
 20
290.557834
 30
0.0
 10
17.085231
 20
290.540195
 30
0.0
 10
17.094050
 20
290.531376
 30
0.0
 10
17.630719
 20
289.225221
 30
0.0
 10
18.048442
 20
287.876117
 30
0.0
 10
18.365842
 20
286.500107
 30
0.0
 10
18.602175
 20
285.107417
 30
0.0
 10
18.628620
 20
284.939848
 30
0.0
 10
18.743272
 20
284.825195
 30
0.0
 10
19.605365
 20
283.721418
 30
0.0
 10
20.195770
 20
282.450239
 30
0.0
 10
20.510958
 20
281.084477
 30
0.0
 10
20.533621
 20
279.683459
 30
0.0
 10
20.489524
 20
279.216029
 30
0.0
 10
20.471885
 20
279.022001
 30
0.0
 10
20.480690
 20
279.022001
 30
0.0
 10
20.471885
 20
278.960265
 30
0.0
 10
21.168621
 20
279.145473
 30
0.0
 10
21.389107
 20
279.136668
 30
0.0
 10
21.600774
 20
279.092570
 30
0.0
 10
21.821260
 20
278.969098
 30
0.0
 10
21.830065
 20
278.960293
 30
0.0
 10
22.041732
 20
278.669251
 30
0.0
 10
22.077009
 20
278.325293
 30
0.0
 10
22.077009
 20
278.316488
 30
0.0
 10
22.077009
 20
278.307682
 30
0.0
 10
22.068204
 20
278.272404
 30
0.0
 10
22.059399
 20
278.237127
 30
0.0
 10
21.918288
 20
277.787335
 30
0.0
 10
21.883010
 20
277.734418
 30
0.0
 10
21.539052
 20
277.381641
 30
0.0
 10
21.098079
 20
277.214071
 30
0.0
 10
21.071635
 20
277.214071
 30
0.0
 10
20.639482
 20
277.302266
 30
0.0
 10
20.498371
 20
277.381641
 30
0.0
 10
20.348441
 20
277.364002
 30
0.0
 10
19.995663
 20
277.187613
 30
0.0
 10
19.916288
 20
277.161169
 30
0.0
 10
19.907483
 20
277.143530
 30
0.0
 10
19.792830
 20
277.090613
 30
0.0
 10
19.554705
 20
276.746655
 30
0.0
 10
19.448871
 20
276.552627
 30
0.0
 10
19.290121
 20
276.499710
 30
0.0
 10
19.201927
 20
276.358599
 30
0.0
 10
19.113733
 20
275.688321
 30
0.0
 10
19.246024
 20
275.538391
 30
0.0
 10
19.263663
 20
275.503113
 30
0.0
 10
19.281302
 20
275.485474
 30
0.0
 10
19.431233
 20
275.317905
 30
0.0
 10
19.731094
 20
275.132696
 30
0.0
 10
19.766371
 20
275.088599
 30
0.0
 10
19.810469
 20
275.062155
 30
0.0
 10
20.882224
 20
274.224090
 30
0.0
 10
21.870138
 20
273.288361
 30
0.0
 10
22.764419
 20
272.263038
 30
0.0
 10
23.554752
 20
271.155291
 30
0.0
 10
24.229010
 20
269.973335
 30
0.0
 10
24.352483
 20
269.726391
 30
0.0
 10
24.625885
 20
269.699947
 30
0.0
 10
25.701858
 20
268.994391
 30
0.0
 10
25.895885
 20
268.474045
 30
0.0
 10
25.895885
 20
268.438767
 30
0.0
 10
25.772413
 20
267.927239
 30
0.0
 10
25.763608
 20
267.918434
 30
0.0
 10
25.446108
 20
267.609753
 30
0.0
 10
25.428469
 20
267.600948
 30
0.0
 10
25.402025
 20
267.592142
 30
0.0
 10
24.943414
 20
267.442212
 30
0.0
 10
23.823344
 20
267.530406
 30
0.0
 10
23.461747
 20
267.653879
 30
0.0
 10
23.400011
 20
267.671517
 30
0.0
 10
23.338275
 20
267.689156
 30
0.0
 10
23.188344
 20
267.195267
 30
0.0
 10
22.932580
 20
266.921865
 30
0.0
 10
22.562164
 20
266.868948
 30
0.0
 10
22.006539
 20
267.045337
 30
0.0
 10
21.865427
 20
267.089434
 30
0.0
 10
21.830150
 20
267.098239
 30
0.0
 10
21.918344
 20
266.330948
 30
0.0
 10
22.037308
 20
265.195187
 30
0.0
 10
22.129598
 20
264.057117
 30
0.0
 10
22.209386
 20
262.917823
 30
0.0
 10
22.227025
 20
262.653239
 30
0.0
 10
22.465150
 20
262.520948
 30
0.0
 10
23.708691
 20
262.423934
 30
0.0
 10
23.814525
 20
262.432739
 30
0.0
 10
23.893900
 20
262.459183
 30
0.0
 10
23.955636
 20
262.512100
 30
0.0
 10
24.299594
 20
262.662031
 30
0.0
 10
24.299594
 20
262.653225
 30
0.0
 10
25.340289
 20
262.644420
 30
0.0
 10
25.701886
 20
262.406295
 30
0.0
 10
25.728330
 20
262.371017
 30
0.0
 10
25.851802
 20
262.053517
 30
0.0
 10
25.199163
 20
261.171573
 30
0.0
 10
23.858608
 20
260.942267
 30
0.0
 10
23.823330
 20
260.951073
 30
0.0
 10
23.779233
 20
260.951073
 30
0.0
 10
22.429931
 20
261.033357
 30
0.0
 10
21.098122
 20
261.268573
 30
0.0
 10
19.754026
 20
261.610874
 30
0.0
 10
18.425830
 20
262.009406
 30
0.0
 10
18.240622
 20
262.071142
 30
0.0
 10
18.064233
 20
261.991767
 30
0.0
 10
17.040275
 20
261.636822
 30
0.0
 10
15.965205
 20
261.497878
 30
0.0
 10
15.929927
 20
261.489073
 30
0.0
 10
15.903469
 20
261.489073
 30
0.0
 10
14.889233
 20
261.568448
 30
0.0
 10
14.668747
 20
261.630184
 30
0.0
 10
13.777983
 20
261.903587
 30
0.0
 10
13.751524
 20
261.921226
 30
0.0
 10
13.725066
 20
261.930031
 30
0.0
 10
12.446247
 20
261.824198
 30
0.0
 10
11.784788
 20
261.603711
 30
0.0
 10
11.449649
 20
261.506698
 30
0.0
 10
9.940189
 20
261.144852
 30
0.0
 10
8.401200
 20
260.950613
 30
0.0
 10
6.854719
 20
261.039267
 30
0.0
 10
6.060969
 20
261.594892
 30
0.0
 10
5.911038
 20
261.938850
 30
0.0
 10
5.902219
 20
261.982948
 30
0.0
 10
5.990413
 20
262.353364
 30
0.0
 10
6.734856
 20
262.809080
 30
0.0
 10
7.595552
 20
262.600309
 30
0.0
 10
7.622011
 20
262.582670
 30
0.0
 10
7.639649
 20
262.573864
 30
0.0
 10
8.477497
 20
262.300462
 30
0.0
 10
9.447636
 20
262.591503
 30
0.0
 10
9.579927
 20
262.714976
 30
0.0
 10
9.597566
 20
262.838448
 30
0.0
 10
9.606386
 20
262.847253
 30
0.0
 10
9.606386
 20
262.882531
 30
0.0
 10
9.606386
 20
262.891336
 30
0.0
 10
9.632844
 20
264.055503
 30
0.0
 10
9.632844
 20
264.170156
 30
0.0
 10
9.632844
 20
264.205433
 30
0.0
 10
9.632844
 20
264.240711
 30
0.0
 10
9.641663
 20
264.311267
 30
0.0
 10
9.697211
 20
265.319133
 30
0.0
 10
9.809233
 20
266.322100
 30
0.0
 10
9.835691
 20
266.472031
 30
0.0
 10
10.134547
 20
268.033868
 30
0.0
 10
10.552841
 20
269.568408
 30
0.0
 10
11.079678
 20
271.068756
 30
0.0
 10
11.705413
 20
272.530988
 30
0.0
 10
11.934719
 20
273.016058
 30
0.0
 10
11.432011
 20
273.210086
 30
0.0
 10
9.954283
 20
273.824993
 30
0.0
 10
8.516462
 20
274.528284
 30
0.0
 10
7.142644
 20
275.348807
 30
0.0
 10
5.866941
 20
276.314530
 30
0.0
 10
6.369649
 20
277.020086
 30
0.0
 10
6.404927
 20
277.161197
 30
0.0
 10
6.387288
 20
277.222933
 30
0.0
 10
6.440205
 20
277.416961
 30
0.0
 10
6.122705
 20
277.593350
 30
0.0
 10
6.025691
 20
277.708002
 30
0.0
 10
5.734649
 20
277.849113
 30
0.0
 10
5.470066
 20
277.954947
 30
0.0
 10
5.417149
 20
277.999044
 30
0.0
 10
5.355413
 20
278.034322
 30
0.0
 10
4.574149
 20
278.618115
 30
0.0
 10
4.006038
 20
279.410155
 30
0.0
 10
3.750188
 20
280.293366
 30
0.0
 10
3.882566
 20
281.200502
 30
0.0
 10
3.891386
 20
281.209308
 30
0.0
 10
3.891386
 20
281.218113
 30
0.0
 10
3.988399
 20
281.376863
 30
0.0
 10
4.182427
 20
281.650266
 30
0.0
 10
5.311316
 20
281.861932
 30
0.0
 10
5.346594
 20
281.844294
 30
0.0
 10
5.381872
 20
281.835488
 30
0.0
 10
6.272636
 20
281.112294
 30
0.0
 10
6.651829
 20
280.600681
 30
0.0
 10
6.704746
 20
280.697695
 30
0.0
 10
6.775302
 20
280.635959
 30
0.0
 10
7.066343
 20
281.270959
 30
0.0
 10
7.516135
 20
281.562001
 30
0.0
 10
7.710163
 20
281.562001
 30
0.0
 10
7.736621
 20
281.544362
 30
0.0
 10
7.842454
 20
281.403251
 30
0.0
 10
7.851274
 20
281.385612
 30
0.0
 10
7.860093
 20
281.367973
 30
0.0
 10
7.939468
 20
280.794709
 30
0.0
 10
7.807177
 20
280.018598
 30
0.0
 10
7.763079
 20
279.798112
 30
0.0
 10
7.895371
 20
279.621723
 30
0.0
 10
8.847871
 20
278.633945
 30
0.0
 10
9.244746
 20
278.201792
 30
0.0
 10
9.315302
 20
278.325265
 30
0.0
 10
9.350579
 20
278.298820
 30
0.0
 10
9.606343
 20
278.775070
 30
0.0
 10
10.523565
 20
279.101390
 30
0.0
 10
11.308496
 20
278.836792
 30
0.0
 10
11.185024
 20
279.648181
 30
0.0
 10
11.148330
 20
281.035119
 30
0.0
 10
11.428712
 20
282.394382
 30
0.0
 10
12.002777
 20
283.657699
 30
0.0
 10
12.851899
 20
284.754640
 30
0.0
 10
12.966552
 20
284.869292
 30
0.0
 10
12.984190
 20
285.028042
 30
0.0
 10
13.277350
 20
286.678066
 30
0.0
 10
13.663288
 20
288.308876
 30
0.0
 10
13.874954
 20
288.961515
 30
0.0
 10
14.329676
 20
290.213725
 30
0.0
 10
14.924468
 20
291.404501
 30
0.0
 10
15.832871
 20
291.942487
 30
0.0
 10
15.832871
 20
291.942487
 30
0.0
  0
ENDSEC
  0
SECTION
  2
OBJECTS
  0
DICTIONARY
  5
C
330
0
100
AcDbDictionary
  3
ACAD_GROUP
350
D
  3
ACAD_MLINESTYLE
350
17
  0
DICTIONARY
  5
D
330
C
100
AcDbDictionary
  0
DICTIONARY
  5
1A
330
C
100
AcDbDictionary
  0
DICTIONARY
  5
17
330
C
100
AcDbDictionary
  3
STANDARD
350
18
  0
DICTIONARY
  5
19
330
C
100
AcDbDictionary
  0
ENDSEC
  0
EOF
