999
DXF created by Inkscape
  0
SECTION
  2
HEADER
  9
$ACADVER
  1
AC1014
  9
$HANDSEED
  5
FFFF
  9
$MEASUREMENT
 70
     1
  0
ENDSEC
  0
SECTION
  2
TABLES
  0
TABLE
  2
VPORT
  5
8
330
0
100
AcDbSymbolTable
 70
     4
  0
VPORT
  5
2E
330
8
100
AcDbSymbolTableRecord
100
AcDbViewportTableRecord
  2
*ACTIVE
 70
     0
 10
0.0
 20
0.0
 11
1.0
 21
1.0
 12
210.0
 22
148.5
 13
0.0
 23
0.0
 14
10.0
 24
10.0
 15
10.0
 25
10.0
 16
0.0
 26
0.0
 36
1.0
 17
0.0
 27
0.0
 37
0.0
 40
341.0
 41
1.24
 42
50.0
 43
0.0
 44
0.0
 50
0.0
 51
0.0
 71
     0
 72
   100
 73
     1
 74
     3
 75
     0
 76
     0
 77
     0
 78
     0
  0
ENDTAB
  0
TABLE
  2
LTYPE
  5
5
330
0
100
AcDbSymbolTable
 70
     1
  0
LTYPE
  5
14
330
5
100
AcDbSymbolTableRecord
100
AcDbLinetypeTableRecord
  2
BYBLOCK
 70
     0
  3

 72
    65
 73
     0
 40
0.0
  0
LTYPE
  5
15
330
5
100
AcDbSymbolTableRecord
100
AcDbLinetypeTableRecord
  2
BYLAYER
 70
     0
  3

 72
    65
 73
     0
 40
0.0
  0
LTYPE
  5
16
330
5
100
AcDbSymbolTableRecord
100
AcDbLinetypeTableRecord
  2
CONTINUOUS
 70
     0
  3
Solid line
 72
    65
 73
     0
 40
0.0
  0
ENDTAB
  0
TABLE
  2
LAYER
  5
2
100
AcDbSymbolTable
 70
2
  0
LAYER
  5
50
100
AcDbSymbolTableRecord
100
AcDbLayerTableRecord
  2
0
 70
0
  6
CONTINUOUS
  0
LAYER
  5
51
100
AcDbSymbolTableRecord
100
AcDbLayerTableRecord
  2
Layer_1
 70
0
  6
CONTINUOUS
  0
ENDTAB
  0
TABLE
  2
STYLE
  5
3
330
0
100
AcDbSymbolTable
 70
     1
  0
STYLE
  5
11
330
3
100
AcDbSymbolTableRecord
100
AcDbTextStyleTableRecord
  2
STANDARD
 70
     0
 40
0.0
 41
1.0
 50
0.0
 71
     0
 42
2.5
  3
txt
  4

  0
ENDTAB
  0
TABLE
  2
VIEW
  5
6
330
0
100
AcDbSymbolTable
 70
     0
  0
ENDTAB
  0
TABLE
  2
UCS
  5
7
330
0
100
AcDbSymbolTable
 70
     0
  0
ENDTAB
  0
TABLE
  2
APPID
  5
9
330
0
100
AcDbSymbolTable
 70
     2
  0
APPID
  5
12
330
9
100
AcDbSymbolTableRecord
100
AcDbRegAppTableRecord
  2
ACAD
 70
     0
  0
ENDTAB
  0
TABLE
  2
DIMSTYLE
  5
A
330
0
100
AcDbSymbolTable
 70
     1
  0
DIMSTYLE
105
27
330
A
100
AcDbSymbolTableRecord
100
AcDbDimStyleTableRecord
  2
ISO-25
 70
     0
  3

  4

  5

  6

  7

 40
1.0
 41
2.5
 42
0.625
 43
3.75
 44
1.25
 45
0.0
 46
0.0
 47
0.0
 48
0.0
140
2.5
141
2.5
142
0.0
143
0.03937007874016
144
1.0
145
0.0
146
1.0
147
0.625
 71
     0
 72
     0
 73
     0
 74
     0
 75
     0
 76
     0
 77
     1
 78
     8
170
     0
171
     3
172
     1
173
     0
174
     0
175
     0
176
     0
177
     0
178
     0
270
     2
271
     2
272
     2
273
     2
274
     3
340
11
275
     0
280
     0
281
     0
282
     0
283
     0
284
     8
285
     0
286
     0
287
     3
288
     0
  0
ENDTAB
  0
TABLE
  2
BLOCK_RECORD
  5
1
330
0
100
AcDbSymbolTable
 70
     1
  0
BLOCK_RECORD
  5
1F
330
1
100
AcDbSymbolTableRecord
100
AcDbBlockTableRecord
  2
*MODEL_SPACE
  0
BLOCK_RECORD
  5
1B
330
1
100
AcDbSymbolTableRecord
100
AcDbBlockTableRecord
  2
*PAPER_SPACE
  0
ENDTAB
  0
ENDSEC
  0
SECTION
  2
BLOCKS
  0
BLOCK
  5
20
330
1F
100
AcDbEntity
  8
0
100
AcDbBlockBegin
  2
*MODEL_SPACE
 70
     0
 10
0.0
 20
0.0
 30
0.0
  3
*MODEL_SPACE
  1

  0
ENDBLK
  5
21
330
1F
100
AcDbEntity
  8
0
100
AcDbBlockEnd
  0
BLOCK
  5
1C
330
1B
100
AcDbEntity
 67
     1
  8
0
100
AcDbBlockBegin
  2
*PAPER_SPACE
  1

  0
ENDBLK
  5
1D
330
1B
100
AcDbEntity
 67
     1
  8
0
100
AcDbBlockEnd
  0
ENDSEC
  0
SECTION
  2
ENTITIES
  0
LWPOLYLINE
  5
100
100
AcDbEntity
  8
Layer_1
 62
7
100
AcDbPolyline
 90
787
 70
0
 10
39.202431
 20
42.653503
 30
0.0
 10
37.905972
 20
42.538850
 30
0.0
 10
36.565417
 20
41.956767
 30
0.0
 10
35.207222
 20
40.933711
 30
0.0
 10
33.831389
 20
39.478503
 30
0.0
 10
32.473194
 20
37.626420
 30
0.0
 10
31.159097
 20
35.386281
 30
0.0
 10
29.897917
 20
32.775725
 30
0.0
 10
28.786667
 20
30.032878
 30
0.0
 10
27.701875
 20
26.928434
 30
0.0
 10
26.678819
 20
23.612323
 30
0.0
 10
25.752778
 20
20.234475
 30
0.0
 10
24.967847
 20
16.953642
 30
0.0
 10
24.359306
 20
13.910934
 30
0.0
 10
23.962431
 20
11.265100
 30
0.0
 10
23.821319
 20
9.157253
 30
0.0
 10
23.803681
 20
8.672184
 30
0.0
 10
23.724306
 20
8.257670
 30
0.0
 10
23.565556
 20
7.896073
 30
0.0
 10
23.327431
 20
7.569753
 30
0.0
 10
22.983472
 20
7.252253
 30
0.0
 10
22.516042
 20
6.943573
 30
0.0
 10
21.907500
 20
6.608434
 30
0.0
 10
21.149028
 20
6.238017
 30
0.0
 10
20.125972
 20
5.797045
 30
0.0
 10
19.147014
 20
5.426628
 30
0.0
 10
18.185694
 20
5.135586
 30
0.0
 10
17.233194
 20
4.906281
 30
0.0
 10
16.263056
 20
4.747531
 30
0.0
 10
15.266458
 20
4.650517
 30
0.0
 10
14.225764
 20
4.624059
 30
0.0
 10
13.114514
 20
4.641698
 30
0.0
 10
11.941528
 20
4.729892
 30
0.0
 10
10.892014
 20
4.871003
 30
0.0
 10
9.948333
 20
5.073850
 30
0.0
 10
9.092847
 20
5.356073
 30
0.0
 10
8.334375
 20
5.700031
 30
0.0
 10
7.646458
 20
6.123364
 30
0.0
 10
7.029097
 20
6.617253
 30
0.0
 10
6.464653
 20
7.199336
 30
0.0
 10
5.653264
 20
8.434059
 30
0.0
 10
5.150556
 20
9.801073
 30
0.0
 10
4.974167
 20
11.273920
 30
0.0
 10
5.106458
 20
12.808503
 30
0.0
 10
5.529792
 20
14.360725
 30
0.0
 10
6.252986
 20
15.904128
 30
0.0
 10
7.258403
 20
17.376975
 30
0.0
 10
8.554861
 20
18.761628
 30
0.0
 10
9.366250
 20
19.467184
 30
0.0
 10
10.151181
 20
20.040448
 30
0.0
 10
10.936111
 20
20.490239
 30
0.0
 10
11.738681
 20
20.816559
 30
0.0
 10
12.576528
 20
21.028225
 30
0.0
 10
13.493750
 20
21.142878
 30
0.0
 10
14.507986
 20
21.160517
 30
0.0
 10
15.645694
 20
21.098781
 30
0.0
 10
16.554097
 20
21.028225
 30
0.0
 10
17.347847
 20
21.010586
 30
0.0
 10
18.018125
 20
21.028225
 30
0.0
 10
18.591389
 20
21.089961
 30
0.0
 10
19.050000
 20
21.204614
 30
0.0
 10
19.420417
 20
21.363364
 30
0.0
 10
19.693819
 20
21.566211
 30
0.0
 10
19.887847
 20
21.821975
 30
0.0
 10
20.020139
 20
22.139475
 30
0.0
 10
20.117153
 20
22.527531
 30
0.0
 10
20.178889
 20
22.950864
 30
0.0
 10
20.196528
 20
23.383017
 30
0.0
 10
20.187708
 20
23.806350
 30
0.0
 10
20.143611
 20
24.176767
 30
0.0
 10
20.055417
 20
24.476628
 30
0.0
 10
19.931944
 20
24.679475
 30
0.0
 10
19.808472
 20
24.741211
 30
0.0
 10
19.561528
 20
24.811767
 30
0.0
 10
19.217569
 20
24.882323
 30
0.0
 10
18.785417
 20
24.952878
 30
0.0
 10
18.273889
 20
25.014614
 30
0.0
 10
17.709444
 20
25.076350
 30
0.0
 10
17.100903
 20
25.129267
 30
0.0
 10
16.465903
 20
25.173364
 30
0.0
 10
15.434028
 20
25.243920
 30
0.0
 10
14.649097
 20
25.296836
 30
0.0
 10
14.058194
 20
25.367392
 30
0.0
 10
13.617222
 20
25.455586
 30
0.0
 10
13.290903
 20
25.579059
 30
0.0
 10
13.017500
 20
25.746628
 30
0.0
 10
12.779375
 20
25.967114
 30
0.0
 10
12.514792
 20
26.249336
 30
0.0
 10
11.994444
 20
26.954892
 30
0.0
 10
11.606389
 20
27.766281
 30
0.0
 10
11.341806
 20
28.665864
 30
0.0
 10
11.209514
 20
29.609545
 30
0.0
 10
11.200694
 20
30.588503
 30
0.0
 10
11.332986
 20
31.576281
 30
0.0
 10
11.588750
 20
32.537600
 30
0.0
 10
11.985625
 20
33.454823
 30
0.0
 10
13.061597
 20
35.183434
 30
0.0
 10
14.313958
 20
36.612184
 30
0.0
 10
15.689792
 20
37.714614
 30
0.0
 10
17.127361
 20
38.464267
 30
0.0
 10
18.582569
 20
38.852323
 30
0.0
 10
19.993681
 20
38.852323
 30
0.0
 10
21.298958
 20
38.446628
 30
0.0
 10
22.454306
 20
37.599961
 30
0.0
 10
22.877639
 20
37.097253
 30
0.0
 10
23.151042
 20
36.568086
 30
0.0
 10
23.292153
 20
36.003642
 30
0.0
 10
23.283333
 20
35.403920
 30
0.0
 10
23.133403
 20
34.760100
 30
0.0
 10
22.842361
 20
34.072184
 30
0.0
 10
22.410208
 20
33.322531
 30
0.0
 10
21.828125
 20
32.528781
 30
0.0
 10
21.325417
 20
31.770309
 30
0.0
 10
21.034375
 20
31.055934
 30
0.0
 10
20.937361
 20
30.394475
 30
0.0
 10
21.016736
 20
29.830031
 30
0.0
 10
21.272500
 20
29.380239
 30
0.0
 10
21.687014
 20
29.071559
 30
0.0
 10
22.269097
 20
28.930448
 30
0.0
 10
22.983472
 20
29.001003
 30
0.0
 10
23.177500
 20
29.062739
 30
0.0
 10
23.415625
 20
29.168573
 30
0.0
 10
23.680208
 20
29.309684
 30
0.0
 10
23.971250
 20
29.494892
 30
0.0
 10
24.279931
 20
29.697739
 30
0.0
 10
24.588611
 20
29.927045
 30
0.0
 10
24.897292
 20
30.165170
 30
0.0
 10
25.188333
 20
30.420934
 30
0.0
 10
26.617083
 20
32.078989
 30
0.0
 10
27.472569
 20
33.869336
 30
0.0
 10
27.763611
 20
35.712600
 30
0.0
 10
27.525486
 20
37.511767
 30
0.0
 10
26.775833
 20
39.178642
 30
0.0
 10
25.558750
 20
40.616211
 30
0.0
 10
23.883056
 20
41.745100
 30
0.0
 10
21.775208
 20
42.459475
 30
0.0
 10
20.355278
 20
42.635864
 30
0.0
 10
18.855972
 20
42.600586
 30
0.0
 10
17.303750
 20
42.362461
 30
0.0
 10
15.742708
 20
41.939128
 30
0.0
 10
14.208125
 20
41.348225
 30
0.0
 10
12.752917
 20
40.589753
 30
0.0
 10
11.394722
 20
39.681350
 30
0.0
 10
10.186458
 20
38.640656
 30
0.0
 10
8.766528
 20
37.035517
 30
0.0
 10
7.681736
 20
35.333364
 30
0.0
 10
6.923264
 20
33.587114
 30
0.0
 10
6.499931
 20
31.823225
 30
0.0
 10
6.429375
 20
30.068156
 30
0.0
 10
6.693958
 20
28.357184
 30
0.0
 10
7.320139
 20
26.716767
 30
0.0
 10
8.299097
 20
25.191003
 30
0.0
 10
8.466667
 20
24.970517
 30
0.0
 10
8.625417
 20
24.758850
 30
0.0
 10
8.775347
 20
24.547184
 30
0.0
 10
8.898819
 20
24.361975
 30
0.0
 10
9.004653
 20
24.194406
 30
0.0
 10
9.084028
 20
24.053295
 30
0.0
 10
9.128125
 20
23.947461
 30
0.0
 10
9.145764
 20
23.876906
 30
0.0
 10
9.101667
 20
23.797531
 30
0.0
 10
8.969375
 20
23.674059
 30
0.0
 10
8.757708
 20
23.524128
 30
0.0
 10
8.484306
 20
23.330100
 30
0.0
 10
8.140347
 20
23.118434
 30
0.0
 10
7.761111
 20
22.880309
 30
0.0
 10
7.328958
 20
22.633364
 30
0.0
 10
6.879167
 20
22.377600
 30
0.0
 10
5.565069
 20
21.583850
 30
0.0
 10
4.409722
 20
20.719545
 30
0.0
 10
3.395486
 20
19.793503
 30
0.0
 10
2.522361
 20
18.788086
 30
0.0
 10
1.790347
 20
17.703295
 30
0.0
 10
1.190625
 20
16.539128
 30
0.0
 10
0.723194
 20
15.286767
 30
0.0
 10
0.388056
 20
13.946211
 30
0.0
 10
0.141111
 20
11.600239
 30
0.0
 10
0.326319
 20
9.360100
 30
0.0
 10
0.908403
 20
7.261073
 30
0.0
 10
1.869722
 20
5.356073
 30
0.0
 10
3.183819
 20
3.680378
 30
0.0
 10
4.815417
 20
2.278086
 30
0.0
 10
6.746875
 20
1.202114
 30
0.0
 10
8.934097
 20
0.478920
 30
0.0
 10
8.934097
 20
0.487739
 30
0.0
 10
10.283472
 20
0.267253
 30
0.0
 10
11.756319
 20
0.187878
 30
0.0
 10
13.326181
 20
0.249614
 30
0.0
 10
14.984236
 20
0.443642
 30
0.0
 10
16.704028
 20
0.769961
 30
0.0
 10
18.476736
 20
1.228573
 30
0.0
 10
20.267083
 20
1.810656
 30
0.0
 10
22.075069
 20
2.525031
 30
0.0
 10
22.366111
 20
2.648503
 30
0.0
 10
22.657153
 20
2.771975
 30
0.0
 10
22.948194
 20
2.895448
 30
0.0
 10
23.239236
 20
3.018920
 30
0.0
 10
23.530278
 20
3.142392
 30
0.0
 10
23.830139
 20
3.274684
 30
0.0
 10
24.121181
 20
3.398156
 30
0.0
 10
24.412222
 20
3.521628
 30
0.0
 10
24.597431
 20
3.345239
 30
0.0
 10
24.782639
 20
3.168850
 30
0.0
 10
24.976667
 20
2.992461
 30
0.0
 10
25.161875
 20
2.816073
 30
0.0
 10
25.347083
 20
2.639684
 30
0.0
 10
25.532292
 20
2.454475
 30
0.0
 10
25.726319
 20
2.278086
 30
0.0
 10
25.911528
 20
2.101698
 30
0.0
 10
26.625903
 20
1.466698
 30
0.0
 10
27.287361
 20
0.963989
 30
0.0
 10
27.931181
 20
0.593573
 30
0.0
 10
28.583819
 20
0.337809
 30
0.0
 10
29.280556
 20
0.196698
 30
0.0
 10
30.047847
 20
0.161420
 30
0.0
 10
30.920972
 20
0.214336
 30
0.0
 10
31.926389
 20
0.346628
 30
0.0
 10
32.870069
 20
0.523017
 30
0.0
 10
33.822569
 20
0.743503
 30
0.0
 10
34.766250
 20
1.008086
 30
0.0
 10
35.701111
 20
1.316767
 30
0.0
 10
36.627153
 20
1.660725
 30
0.0
 10
37.517917
 20
2.039961
 30
0.0
 10
38.382222
 20
2.454475
 30
0.0
 10
39.211250
 20
2.895448
 30
0.0
 10
39.511111
 20
3.071836
 30
0.0
 10
39.802153
 20
3.230586
 30
0.0
 10
40.075556
 20
3.371698
 30
0.0
 10
40.322500
 20
3.495170
 30
0.0
 10
40.542986
 20
3.601003
 30
0.0
 10
40.719375
 20
3.680378
 30
0.0
 10
40.860486
 20
3.724475
 30
0.0
 10
40.939861
 20
3.742114
 30
0.0
 10
41.001597
 20
3.715656
 30
0.0
 10
41.072153
 20
3.627461
 30
0.0
 10
41.160347
 20
3.495170
 30
0.0
 10
41.266181
 20
3.327600
 30
0.0
 10
41.372014
 20
3.115934
 30
0.0
 10
41.477847
 20
2.868989
 30
0.0
 10
41.592500
 20
2.604406
 30
0.0
 10
41.698333
 20
2.322184
 30
0.0
 10
42.121667
 20
1.404961
 30
0.0
 10
42.677292
 20
0.734684
 30
0.0
 10
43.382847
 20
0.311350
 30
0.0
 10
44.255972
 20
0.143781
 30
0.0
 10
45.331944
 20
0.214336
 30
0.0
 10
46.628403
 20
0.531836
 30
0.0
 10
48.171806
 20
1.096281
 30
0.0
 10
49.988611
 20
1.898850
 30
0.0
 10
50.535417
 20
2.154614
 30
0.0
 10
51.046944
 20
2.392739
 30
0.0
 10
51.523194
 20
2.595586
 30
0.0
 10
51.937708
 20
2.771975
 30
0.0
 10
52.290486
 20
2.913086
 30
0.0
 10
52.555069
 20
3.010100
 30
0.0
 10
52.740278
 20
3.063017
 30
0.0
 10
52.819653
 20
3.063017
 30
0.0
 10
52.846111
 20
3.018920
 30
0.0
 10
52.881389
 20
2.930725
 30
0.0
 10
52.916667
 20
2.798434
 30
0.0
 10
52.951944
 20
2.639684
 30
0.0
 10
52.987222
 20
2.454475
 30
0.0
 10
53.022500
 20
2.251628
 30
0.0
 10
53.057778
 20
2.031142
 30
0.0
 10
53.093056
 20
1.801836
 30
0.0
 10
53.145972
 20
1.457878
 30
0.0
 10
53.207708
 20
1.184475
 30
0.0
 10
53.278264
 20
0.972809
 30
0.0
 10
53.366458
 20
0.814059
 30
0.0
 10
53.498750
 20
0.699406
 30
0.0
 10
53.657500
 20
0.611211
 30
0.0
 10
53.869167
 20
0.540656
 30
0.0
 10
54.133750
 20
0.487739
 30
0.0
 10
54.336597
 20
0.452461
 30
0.0
 10
54.583542
 20
0.426003
 30
0.0
 10
54.865764
 20
0.408364
 30
0.0
 10
55.165625
 20
0.399545
 30
0.0
 10
55.483125
 20
0.390725
 30
0.0
 10
55.800625
 20
0.390725
 30
0.0
 10
56.118125
 20
0.399545
 30
0.0
 10
56.417986
 20
0.408364
 30
0.0
 10
56.594375
 20
0.417184
 30
0.0
 10
56.770764
 20
0.434823
 30
0.0
 10
56.947153
 20
0.443642
 30
0.0
 10
57.123542
 20
0.452461
 30
0.0
 10
57.299931
 20
0.461281
 30
0.0
 10
57.476319
 20
0.478920
 30
0.0
 10
57.652708
 20
0.487739
 30
0.0
 10
57.829097
 20
0.496559
 30
0.0
 10
57.837917
 20
1.158017
 30
0.0
 10
57.846736
 20
1.810656
 30
0.0
 10
57.864375
 20
2.472114
 30
0.0
 10
57.873194
 20
3.133573
 30
0.0
 10
57.882014
 20
3.786211
 30
0.0
 10
57.890833
 20
4.447670
 30
0.0
 10
57.899653
 20
5.109128
 30
0.0
 10
57.908472
 20
5.761767
 30
0.0
 10
57.917292
 20
6.423225
 30
0.0
 10
57.926111
 20
7.084684
 30
0.0
 10
57.934931
 20
7.737323
 30
0.0
 10
57.943750
 20
8.398781
 30
0.0
 10
57.952569
 20
9.060239
 30
0.0
 10
57.970208
 20
9.712878
 30
0.0
 10
57.979028
 20
10.374336
 30
0.0
 10
57.987847
 20
11.026975
 30
0.0
 10
58.296528
 20
11.326836
 30
0.0
 10
58.605208
 20
11.617878
 30
0.0
 10
58.905069
 20
11.908920
 30
0.0
 10
59.213750
 20
12.199961
 30
0.0
 10
59.522431
 20
12.491003
 30
0.0
 10
59.831111
 20
12.782045
 30
0.0
 10
60.139792
 20
13.073086
 30
0.0
 10
60.448472
 20
13.364128
 30
0.0
 10
62.115347
 20
14.907531
 30
0.0
 10
63.649931
 20
16.256906
 30
0.0
 10
65.043403
 20
17.403434
 30
0.0
 10
66.278125
 20
18.329475
 30
0.0
 10
67.336458
 20
19.035031
 30
0.0
 10
68.218403
 20
19.511281
 30
0.0
 10
68.897500
 20
19.749406
 30
0.0
 10
69.373750
 20
19.740586
 30
0.0
 10
69.603056
 20
19.573017
 30
0.0
 10
69.744167
 20
19.255517
 30
0.0
 10
69.797083
 20
18.770448
 30
0.0
 10
69.752986
 20
18.073711
 30
0.0
 10
69.611875
 20
17.138850
 30
0.0
 10
69.364931
 20
15.939406
 30
0.0
 10
69.012153
 20
14.440100
 30
0.0
 10
68.553542
 20
12.614475
 30
0.0
 10
68.086111
 20
10.700656
 30
0.0
 10
67.724514
 20
9.033781
 30
0.0
 10
67.468750
 20
7.578573
 30
0.0
 10
67.318819
 20
6.317392
 30
0.0
 10
67.274722
 20
5.214961
 30
0.0
 10
67.336458
 20
4.253642
 30
0.0
 10
67.486389
 20
3.398156
 30
0.0
 10
67.742153
 20
2.613225
 30
0.0
 10
68.341875
 20
1.554892
 30
0.0
 10
69.170903
 20
0.796420
 30
0.0
 10
70.202778
 20
0.355448
 30
0.0
 10
71.411042
 20
0.214336
 30
0.0
 10
72.795694
 20
0.381906
 30
0.0
 10
74.321458
 20
0.858156
 30
0.0
 10
75.988333
 20
1.643086
 30
0.0
 10
77.761042
 20
2.736698
 30
0.0
 10
77.955069
 20
2.868989
 30
0.0
 10
78.140278
 20
2.992461
 30
0.0
 10
78.334306
 20
3.124753
 30
0.0
 10
78.519514
 20
3.257045
 30
0.0
 10
78.713542
 20
3.380517
 30
0.0
 10
78.898750
 20
3.512809
 30
0.0
 10
79.092778
 20
3.645100
 30
0.0
 10
79.277986
 20
3.768573
 30
0.0
 10
79.480833
 20
3.556906
 30
0.0
 10
79.674861
 20
3.345239
 30
0.0
 10
79.877708
 20
3.133573
 30
0.0
 10
80.071736
 20
2.921906
 30
0.0
 10
80.274583
 20
2.701420
 30
0.0
 10
80.468611
 20
2.489753
 30
0.0
 10
80.671458
 20
2.278086
 30
0.0
 10
80.865486
 20
2.066420
 30
0.0
 10
81.068333
 20
1.854753
 30
0.0
 10
81.262361
 20
1.634267
 30
0.0
 10
81.465208
 20
1.422600
 30
0.0
 10
81.659236
 20
1.210934
 30
0.0
 10
81.862083
 20
0.999267
 30
0.0
 10
82.056111
 20
0.787600
 30
0.0
 10
82.258958
 20
0.567114
 30
0.0
 10
82.452986
 20
0.355448
 30
0.0
 10
82.876319
 20
0.355448
 30
0.0
 10
83.290833
 20
0.355448
 30
0.0
 10
83.714167
 20
0.355448
 30
0.0
 10
84.128681
 20
0.355448
 30
0.0
 10
84.552014
 20
0.355448
 30
0.0
 10
84.966528
 20
0.355448
 30
0.0
 10
85.389861
 20
0.355448
 30
0.0
 10
85.804375
 20
0.355448
 30
0.0
 10
87.744653
 20
0.408364
 30
0.0
 10
89.543819
 20
0.567114
 30
0.0
 10
91.263611
 20
0.849336
 30
0.0
 10
92.948125
 20
1.272670
 30
0.0
 10
94.659097
 20
1.854753
 30
0.0
 10
96.440625
 20
2.604406
 30
0.0
 10
98.354444
 20
3.539267
 30
0.0
 10
100.444653
 20
4.676975
 30
0.0
 10
100.832708
 20
4.897461
 30
0.0
 10
101.220764
 20
5.117948
 30
0.0
 10
101.608819
 20
5.338434
 30
0.0
 10
101.996875
 20
5.550100
 30
0.0
 10
102.384931
 20
5.770586
 30
0.0
 10
102.772986
 20
5.991073
 30
0.0
 10
103.161042
 20
6.211559
 30
0.0
 10
103.549097
 20
6.432045
 30
0.0
 10
103.575556
 20
6.767184
 30
0.0
 10
103.593194
 20
7.102323
 30
0.0
 10
103.619653
 20
7.437461
 30
0.0
 10
103.637292
 20
7.772600
 30
0.0
 10
103.663750
 20
8.098920
 30
0.0
 10
103.681389
 20
8.434059
 30
0.0
 10
103.707847
 20
8.769198
 30
0.0
 10
103.725486
 20
9.104336
 30
0.0
 10
103.760764
 20
9.642323
 30
0.0
 10
103.796042
 20
10.145031
 30
0.0
 10
103.822500
 20
10.612461
 30
0.0
 10
103.840139
 20
11.009336
 30
0.0
 10
103.857778
 20
11.344475
 30
0.0
 10
103.866597
 20
11.600239
 30
0.0
 10
103.866597
 20
11.767809
 30
0.0
 10
103.866597
 20
11.838364
 30
0.0
 10
103.796042
 20
11.803086
 30
0.0
 10
103.637292
 20
11.688434
 30
0.0
 10
103.381528
 20
11.503225
 30
0.0
 10
103.046389
 20
11.256281
 30
0.0
 10
102.649514
 20
10.947600
 30
0.0
 10
102.190903
 20
10.594823
 30
0.0
 10
101.688194
 20
10.206767
 30
0.0
 10
101.150208
 20
9.783434
 30
0.0
 10
99.959583
 20
8.901489
 30
0.0
 10
98.680764
 20
8.046003
 30
0.0
 10
97.340208
 20
7.225795
 30
0.0
 10
95.973194
 20
6.467323
 30
0.0
 10
94.623819
 20
5.788225
 30
0.0
 10
93.318542
 20
5.206142
 30
0.0
 10
92.101458
 20
4.738711
 30
0.0
 10
91.007847
 20
4.412392
 30
0.0
 10
90.037708
 20
4.209545
 30
0.0
 10
89.111667
 20
4.086073
 30
0.0
 10
88.229722
 20
4.041975
 30
0.0
 10
87.427153
 20
4.068434
 30
0.0
 10
86.703958
 20
4.183086
 30
0.0
 10
86.077778
 20
4.368295
 30
0.0
 10
85.566250
 20
4.624059
 30
0.0
 10
85.187014
 20
4.950378
 30
0.0
 10
84.746042
 20
5.647114
 30
0.0
 10
84.402083
 20
6.581975
 30
0.0
 10
84.163958
 20
7.693225
 30
0.0
 10
84.031667
 20
8.927948
 30
0.0
 10
84.014028
 20
10.259684
 30
0.0
 10
84.102222
 20
11.617878
 30
0.0
 10
84.305069
 20
12.976073
 30
0.0
 10
84.631389
 20
14.263711
 30
0.0
 10
85.037083
 20
15.410239
 30
0.0
 10
85.548611
 20
16.530309
 30
0.0
 10
86.130694
 20
17.615100
 30
0.0
 10
86.783333
 20
18.620517
 30
0.0
 10
87.480069
 20
19.528920
 30
0.0
 10
88.194444
 20
20.313850
 30
0.0
 10
88.926458
 20
20.948850
 30
0.0
 10
89.649653
 20
21.416281
 30
0.0
 10
89.834861
 20
21.495656
 30
0.0
 10
90.046528
 20
21.566211
 30
0.0
 10
90.284653
 20
21.627948
 30
0.0
 10
90.531597
 20
21.680864
 30
0.0
 10
90.787361
 20
21.724961
 30
0.0
 10
91.034306
 20
21.742600
 30
0.0
 10
91.281250
 20
21.751420
 30
0.0
 10
91.501736
 20
21.742600
 30
0.0
 10
91.819236
 20
21.716142
 30
0.0
 10
92.075000
 20
21.672045
 30
0.0
 10
92.260208
 20
21.610309
 30
0.0
 10
92.392500
 20
21.522114
 30
0.0
 10
92.489514
 20
21.398642
 30
0.0
 10
92.560069
 20
21.231073
 30
0.0
 10
92.604167
 20
21.001767
 30
0.0
 10
92.639444
 20
20.719545
 30
0.0
 10
92.586528
 20
20.058086
 30
0.0
 10
92.339583
 20
19.334892
 30
0.0
 10
91.907431
 20
18.585239
 30
0.0
 10
91.316528
 20
17.817948
 30
0.0
 10
90.584514
 20
17.059475
 30
0.0
 10
89.729028
 20
16.336281
 30
0.0
 10
88.767708
 20
15.674823
 30
0.0
 10
87.735833
 20
15.083920
 30
0.0
 10
87.303681
 20
14.836975
 30
0.0
 10
86.933264
 20
14.554753
 30
0.0
 10
86.615764
 20
14.246073
 30
0.0
 10
86.360000
 20
13.902114
 30
0.0
 10
86.165972
 20
13.531698
 30
0.0
 10
86.024861
 20
13.117184
 30
0.0
 10
85.936667
 20
12.667392
 30
0.0
 10
85.910208
 20
12.182323
 30
0.0
 10
85.936667
 20
11.811906
 30
0.0
 10
86.024861
 20
11.529684
 30
0.0
 10
86.174792
 20
11.318017
 30
0.0
 10
86.386458
 20
11.194545
 30
0.0
 10
86.677500
 20
11.150448
 30
0.0
 10
87.039097
 20
11.185725
 30
0.0
 10
87.480069
 20
11.291559
 30
0.0
 10
88.009236
 20
11.476767
 30
0.0
 10
89.279236
 20
12.032392
 30
0.0
 10
90.531597
 20
12.702670
 30
0.0
 10
91.731042
 20
13.478781
 30
0.0
 10
92.851111
 20
14.316628
 30
0.0
 10
93.856528
 20
15.216211
 30
0.0
 10
94.738472
 20
16.142253
 30
0.0
 10
95.452847
 20
17.068295
 30
0.0
 10
95.973194
 20
17.985517
 30
0.0
 10
96.255417
 20
18.717531
 30
0.0
 10
96.467083
 20
19.511281
 30
0.0
 10
96.599375
 20
20.340309
 30
0.0
 10
96.652292
 20
21.169336
 30
0.0
 10
96.634653
 20
21.980725
 30
0.0
 10
96.528819
 20
22.730378
 30
0.0
 10
96.352431
 20
23.400656
 30
0.0
 10
96.096667
 20
23.956281
 30
0.0
 10
95.523403
 20
24.626559
 30
0.0
 10
94.747292
 20
25.138086
 30
0.0
 10
93.794792
 20
25.490864
 30
0.0
 10
92.701181
 20
25.676073
 30
0.0
 10
91.519375
 20
25.702531
 30
0.0
 10
90.267014
 20
25.561420
 30
0.0
 10
88.997014
 20
25.243920
 30
0.0
 10
87.735833
 20
24.750031
 30
0.0
 10
86.042500
 20
23.753434
 30
0.0
 10
84.455000
 20
22.421698
 30
0.0
 10
82.990972
 20
20.798920
 30
0.0
 10
81.685694
 20
18.946836
 30
0.0
 10
80.565625
 20
16.900725
 30
0.0
 10
79.674861
 20
14.713503
 30
0.0
 10
79.031042
 20
12.438086
 30
0.0
 10
78.678264
 20
10.127392
 30
0.0
 10
78.616528
 20
9.501211
 30
0.0
 10
78.545972
 20
9.007323
 30
0.0
 10
78.466597
 20
8.601628
 30
0.0
 10
78.360764
 20
8.275309
 30
0.0
 10
78.219653
 20
7.984267
 30
0.0
 10
78.025625
 20
7.710864
 30
0.0
 10
77.778681
 20
7.428642
 30
0.0
 10
77.461181
 20
7.119961
 30
0.0
 10
77.223056
 20
6.899475
 30
0.0
 10
76.932014
 20
6.661350
 30
0.0
 10
76.605694
 20
6.414406
 30
0.0
 10
76.261736
 20
6.167461
 30
0.0
 10
75.891319
 20
5.920517
 30
0.0
 10
75.529722
 20
5.691211
 30
0.0
 10
75.168125
 20
5.470725
 30
0.0
 10
74.824167
 20
5.285517
 30
0.0
 10
74.383194
 20
5.056211
 30
0.0
 10
74.003958
 20
4.879823
 30
0.0
 10
73.695278
 20
4.756350
 30
0.0
 10
73.439514
 20
4.676975
 30
0.0
 10
73.219028
 20
4.641698
 30
0.0
 10
73.033819
 20
4.641698
 30
0.0
 10
72.875069
 20
4.685795
 30
0.0
 10
72.725139
 20
4.765170
 30
0.0
 10
72.460556
 20
5.065031
 30
0.0
 10
72.292986
 20
5.550100
 30
0.0
 10
72.231250
 20
6.229198
 30
0.0
 10
72.284167
 20
7.102323
 30
0.0
 10
72.425278
 20
8.160656
 30
0.0
 10
72.681042
 20
9.413017
 30
0.0
 10
73.033819
 20
10.850586
 30
0.0
 10
73.492431
 20
12.491003
 30
0.0
 10
73.836389
 20
13.681628
 30
0.0
 10
74.109792
 20
14.687045
 30
0.0
 10
74.330278
 20
15.551350
 30
0.0
 10
74.489028
 20
16.318642
 30
0.0
 10
74.594861
 20
17.033017
 30
0.0
 10
74.674236
 20
17.729753
 30
0.0
 10
74.709514
 20
18.461767
 30
0.0
 10
74.735972
 20
19.264336
 30
0.0
 10
74.718333
 20
20.322670
 30
0.0
 10
74.656597
 20
21.222253
 30
0.0
 10
74.533125
 20
21.971906
 30
0.0
 10
74.347917
 20
22.598086
 30
0.0
 10
74.083333
 20
23.118434
 30
0.0
 10
73.730556
 20
23.541767
 30
0.0
 10
73.298403
 20
23.894545
 30
0.0
 10
72.760417
 20
24.194406
 30
0.0
 10
71.860833
 20
24.520725
 30
0.0
 10
70.943611
 20
24.653017
 30
0.0
 10
69.973472
 20
24.564823
 30
0.0
 10
68.915139
 20
24.256142
 30
0.0
 10
67.742153
 20
23.709336
 30
0.0
 10
66.419236
 20
22.915586
 30
0.0
 10
64.919931
 20
21.866073
 30
0.0
 10
63.208958
 20
20.534336
 30
0.0
 10
62.529861
 20
19.996350
 30
0.0
 10
61.894861
 20
19.493642
 30
0.0
 10
61.303958
 20
19.035031
 30
0.0
 10
60.774792
 20
18.638156
 30
0.0
 10
60.333819
 20
18.311836
 30
0.0
 10
59.981042
 20
18.064892
 30
0.0
 10
59.742917
 20
17.906142
 30
0.0
 10
59.628264
 20
17.853225
 30
0.0
 10
59.504792
 20
17.870864
 30
0.0
 10
59.434236
 20
17.950239
 30
0.0
 10
59.416597
 20
18.126628
 30
0.0
 10
59.460694
 20
18.408850
 30
0.0
 10
59.575347
 20
18.823364
 30
0.0
 10
59.760556
 20
19.405448
 30
0.0
 10
60.025139
 20
20.172739
 30
0.0
 10
60.369097
 20
21.151698
 30
0.0
 10
60.571944
 20
21.716142
 30
0.0
 10
60.757153
 20
22.254128
 30
0.0
 10
60.924722
 20
22.756836
 30
0.0
 10
61.065833
 20
23.215448
 30
0.0
 10
61.189306
 20
23.603503
 30
0.0
 10
61.277500
 20
23.921003
 30
0.0
 10
61.339236
 20
24.150309
 30
0.0
 10
61.356875
 20
24.282600
 30
0.0
 10
61.330417
 20
24.370795
 30
0.0
 10
61.233403
 20
24.450170
 30
0.0
 10
61.057014
 20
24.503086
 30
0.0
 10
60.801250
 20
24.547184
 30
0.0
 10
60.457292
 20
24.573642
 30
0.0
 10
60.016319
 20
24.582461
 30
0.0
 10
59.460694
 20
24.582461
 30
0.0
 10
58.790417
 20
24.564823
 30
0.0
 10
58.464097
 20
24.556003
 30
0.0
 10
58.146597
 20
24.538364
 30
0.0
 10
57.820278
 20
24.529545
 30
0.0
 10
57.502778
 20
24.520725
 30
0.0
 10
57.176458
 20
24.511906
 30
0.0
 10
56.858958
 20
24.503086
 30
0.0
 10
56.532639
 20
24.494267
 30
0.0
 10
56.215139
 20
24.485448
 30
0.0
 10
56.144583
 20
24.273781
 30
0.0
 10
56.082847
 20
24.062114
 30
0.0
 10
56.012292
 20
23.850448
 30
0.0
 10
55.950556
 20
23.638781
 30
0.0
 10
55.880000
 20
23.427114
 30
0.0
 10
55.818264
 20
23.215448
 30
0.0
 10
55.747708
 20
23.003781
 30
0.0
 10
55.685972
 20
22.792114
 30
0.0
 10
55.262639
 20
21.425100
 30
0.0
 10
54.865764
 20
20.066906
 30
0.0
 10
54.504167
 20
18.726350
 30
0.0
 10
54.160208
 20
17.403434
 30
0.0
 10
53.842708
 20
16.080517
 30
0.0
 10
53.542847
 20
14.757600
 30
0.0
 10
53.269444
 20
13.443503
 30
0.0
 10
53.022500
 20
12.129406
 30
0.0
 10
52.766736
 20
10.771211
 30
0.0
 10
52.537431
 20
9.712878
 30
0.0
 10
52.299306
 20
8.901489
 30
0.0
 10
52.008264
 20
8.266489
 30
0.0
 10
51.637847
 20
7.737323
 30
0.0
 10
51.143958
 20
7.269892
 30
0.0
 10
50.508958
 20
6.784823
 30
0.0
 10
49.671111
 20
6.238017
 30
0.0
 10
48.648056
 20
5.620656
 30
0.0
 10
47.827847
 20
5.250239
 30
0.0
 10
47.184028
 20
5.153225
 30
0.0
 10
46.716597
 20
5.329614
 30
0.0
 10
46.399097
 20
5.797045
 30
0.0
 10
46.213889
 20
6.573156
 30
0.0
 10
46.152153
 20
7.657948
 30
0.0
 10
46.196250
 20
9.086698
 30
0.0
 10
46.302083
 20
10.347878
 30
0.0
 10
46.487292
 20
11.741350
 30
0.0
 10
46.734236
 20
13.240656
 30
0.0
 10
47.051736
 20
14.819336
 30
0.0
 10
47.422153
 20
16.433295
 30
0.0
 10
47.836667
 20
18.064892
 30
0.0
 10
48.304097
 20
19.678850
 30
0.0
 10
48.806806
 20
21.248711
 30
0.0
 10
49.000833
 20
21.839614
 30
0.0
 10
49.186042
 20
22.404059
 30
0.0
 10
49.353611
 20
22.924406
 30
0.0
 10
49.503542
 20
23.383017
 30
0.0
 10
49.618194
 20
23.771073
 30
0.0
 10
49.715208
 20
24.088573
 30
0.0
 10
49.768125
 20
24.300239
 30
0.0
 10
49.785764
 20
24.406073
 30
0.0
 10
49.732847
 20
24.450170
 30
0.0
 10
49.582917
 20
24.494267
 30
0.0
 10
49.344792
 20
24.529545
 30
0.0
 10
49.027292
 20
24.547184
 30
0.0
 10
48.639236
 20
24.564823
 30
0.0
 10
48.198264
 20
24.573642
 30
0.0
 10
47.713194
 20
24.573642
 30
0.0
 10
47.192847
 20
24.564823
 30
0.0
 10
46.866528
 20
24.556003
 30
0.0
 10
46.540208
 20
24.538364
 30
0.0
 10
46.213889
 20
24.529545
 30
0.0
 10
45.887569
 20
24.520725
 30
0.0
 10
45.561250
 20
24.511906
 30
0.0
 10
45.243750
 20
24.503086
 30
0.0
 10
44.917431
 20
24.494267
 30
0.0
 10
44.591111
 20
24.485448
 30
0.0
 10
44.476458
 20
24.115031
 30
0.0
 10
44.352986
 20
23.744614
 30
0.0
 10
44.238333
 20
23.374198
 30
0.0
 10
44.123681
 20
23.003781
 30
0.0
 10
44.009028
 20
22.633364
 30
0.0
 10
43.885556
 20
22.262948
 30
0.0
 10
43.770903
 20
21.892531
 30
0.0
 10
43.656250
 20
21.522114
 30
0.0
 10
43.162361
 20
19.925795
 30
0.0
 10
42.721389
 20
18.400031
 30
0.0
 10
42.333333
 20
16.936003
 30
0.0
 10
41.989375
 20
15.551350
 30
0.0
 10
41.698333
 20
14.254892
 30
0.0
 10
41.469028
 20
13.046628
 30
0.0
 10
41.292639
 20
11.944198
 30
0.0
 10
41.177986
 20
10.956420
 30
0.0
 10
41.063333
 20
10.003920
 30
0.0
 10
40.895764
 20
9.227809
 30
0.0
 10
40.648819
 20
8.583989
 30
0.0
 10
40.296042
 20
8.037184
 30
0.0
 10
39.784514
 20
7.543295
 30
0.0
 10
39.096597
 20
7.058225
 30
0.0
 10
38.197014
 20
6.555517
 30
0.0
 10
37.059306
 20
5.999892
 30
0.0
 10
35.560000
 20
5.347253
 30
0.0
 10
34.201806
 20
4.888642
 30
0.0
 10
32.993542
 20
4.632878
 30
0.0
 10
31.944028
 20
4.562323
 30
0.0
 10
31.053264
 20
4.685795
 30
0.0
 10
30.338889
 20
5.003295
 30
0.0
 10
29.800903
 20
5.514823
 30
0.0
 10
29.439306
 20
6.211559
 30
0.0
 10
29.245278
 20
7.208156
 30
0.0
 10
29.157083
 20
8.566350
 30
0.0
 10
29.192361
 20
10.233225
 30
0.0
 10
29.342292
 20
12.173503
 30
0.0
 10
29.589236
 20
14.334267
 30
0.0
 10
29.950833
 20
16.662600
 30
0.0
 10
30.400625
 20
19.123225
 30
0.0
 10
30.947431
 20
21.663225
 30
0.0
 10
31.600069
 20
24.203225
 30
0.0
 10
32.402639
 20
26.849059
 30
0.0
 10
33.293403
 20
29.468434
 30
0.0
 10
34.237083
 20
31.955517
 30
0.0
 10
35.180764
 20
34.169198
 30
0.0
 10
36.080347
 20
36.012461
 30
0.0
 10
36.882917
 20
37.353017
 30
0.0
 10
37.544375
 20
38.076211
 30
0.0
 10
37.897153
 20
38.270239
 30
0.0
 10
38.214653
 20
38.358434
 30
0.0
 10
38.496875
 20
38.358434
 30
0.0
 10
38.743819
 20
38.252600
 30
0.0
 10
38.946667
 20
38.058573
 30
0.0
 10
39.105417
 20
37.776350
 30
0.0
 10
39.228889
 20
37.397114
 30
0.0
 10
39.290625
 20
36.929684
 30
0.0
 10
39.299444
 20
35.880170
 30
0.0
 10
39.140694
 20
34.716003
 30
0.0
 10
38.814375
 20
33.437184
 30
0.0
 10
38.329306
 20
32.043711
 30
0.0
 10
37.667847
 20
30.509128
 30
0.0
 10
36.830000
 20
28.842253
 30
0.0
 10
35.815764
 20
27.016628
 30
0.0
 10
34.625139
 20
25.049892
 30
0.0
 10
34.104792
 20
24.212045
 30
0.0
 10
33.637361
 20
23.418295
 30
0.0
 10
33.222847
 20
22.677461
 30
0.0
 10
32.852431
 20
21.989545
 30
0.0
 10
32.552569
 20
21.372184
 30
0.0
 10
32.305625
 20
20.834198
 30
0.0
 10
32.129236
 20
20.375586
 30
0.0
 10
32.014583
 20
20.005170
 30
0.0
 10
31.926389
 20
19.476003
 30
0.0
 10
31.873472
 20
18.911559
 30
0.0
 10
31.855833
 20
18.364753
 30
0.0
 10
31.882292
 20
17.844406
 30
0.0
 10
31.944028
 20
17.394614
 30
0.0
 10
32.032222
 20
17.041836
 30
0.0
 10
32.155694
 20
16.803711
 30
0.0
 10
32.296806
 20
16.724336
 30
0.0
 10
32.534931
 20
16.847809
 30
0.0
 10
32.922986
 20
17.218225
 30
0.0
 10
33.443333
 20
17.800309
 30
0.0
 10
34.069514
 20
18.558781
 30
0.0
 10
34.783889
 20
19.476003
 30
0.0
 10
35.560000
 20
20.516698
 30
0.0
 10
36.371389
 20
21.654406
 30
0.0
 10
37.200417
 20
22.862670
 30
0.0
 10
38.576250
 20
24.979336
 30
0.0
 10
39.766875
 20
26.990170
 30
0.0
 10
40.763472
 20
28.886350
 30
0.0
 10
41.583681
 20
30.667878
 30
0.0
 10
42.218681
 20
32.361211
 30
0.0
 10
42.668472
 20
33.948711
 30
0.0
 10
42.941875
 20
35.456836
 30
0.0
 10
43.038889
 20
36.876767
 30
0.0
 10
43.012431
 20
37.891003
 30
0.0
 10
42.915417
 20
38.799406
 30
0.0
 10
42.730208
 20
39.593156
 30
0.0
 10
42.456806
 20
40.289892
 30
0.0
 10
42.095208
 20
40.898434
 30
0.0
 10
41.636597
 20
41.427600
 30
0.0
 10
41.080972
 20
41.886211
 30
0.0
 10
40.419514
 20
42.291906
 30
0.0
 10
39.202431
 20
42.653503
 30
0.0
 10
39.202431
 20
42.653503
 30
0.0
  0
LWPOLYLINE
  5
101
100
AcDbEntity
  8
Layer_1
 62
7
100
AcDbPolyline
 90
50
 70
0
 10
51.126319
 20
38.349614
 30
0.0
 10
50.905833
 20
38.340795
 30
0.0
 10
50.685347
 20
38.305517
 30
0.0
 10
50.447222
 20
38.234961
 30
0.0
 10
50.182639
 20
38.129128
 30
0.0
 10
49.873958
 20
37.979198
 30
0.0
 10
49.335972
 20
37.679336
 30
0.0
 10
48.877361
 20
37.344198
 30
0.0
 10
48.498125
 20
36.964961
 30
0.0
 10
48.189444
 20
36.532809
 30
0.0
 10
47.951319
 20
36.047739
 30
0.0
 10
47.774931
 20
35.483295
 30
0.0
 10
47.660278
 20
34.848295
 30
0.0
 10
47.580903
 20
34.107461
 30
0.0
 10
47.554444
 20
33.560656
 30
0.0
 10
47.545625
 20
33.128503
 30
0.0
 10
47.554444
 20
32.793364
 30
0.0
 10
47.598542
 20
32.528781
 30
0.0
 10
47.669097
 20
32.317114
 30
0.0
 10
47.783750
 20
32.149545
 30
0.0
 10
47.933681
 20
31.990795
 30
0.0
 10
48.136528
 20
31.840864
 30
0.0
 10
48.515764
 20
31.646836
 30
0.0
 10
48.992014
 20
31.523364
 30
0.0
 10
49.530000
 20
31.461628
 30
0.0
 10
50.103264
 20
31.470448
 30
0.0
 10
50.676528
 20
31.541003
 30
0.0
 10
51.214514
 20
31.664475
 30
0.0
 10
51.673125
 20
31.849684
 30
0.0
 10
52.034722
 20
32.087809
 30
0.0
 10
52.272847
 20
32.378850
 30
0.0
 10
52.528611
 20
32.775725
 30
0.0
 10
52.766736
 20
33.269614
 30
0.0
 10
52.987222
 20
33.816420
 30
0.0
 10
53.172431
 20
34.389684
 30
0.0
 10
53.322361
 20
34.962948
 30
0.0
 10
53.419375
 20
35.500934
 30
0.0
 10
53.454653
 20
35.977184
 30
0.0
 10
53.437014
 20
36.400517
 30
0.0
 10
53.375278
 20
36.779753
 30
0.0
 10
53.260625
 20
37.106073
 30
0.0
 10
53.101875
 20
37.388295
 30
0.0
 10
52.881389
 20
37.635239
 30
0.0
 10
52.616806
 20
37.838086
 30
0.0
 10
52.290486
 20
38.023295
 30
0.0
 10
51.902431
 20
38.173225
 30
0.0
 10
51.611389
 20
38.261420
 30
0.0
 10
51.355625
 20
38.314336
 30
0.0
 10
51.126319
 20
38.349614
 30
0.0
 10
51.126319
 20
38.349614
 30
0.0
  0
ENDSEC
  0
SECTION
  2
OBJECTS
  0
DICTIONARY
  5
C
330
0
100
AcDbDictionary
  3
ACAD_GROUP
350
D
  3
ACAD_MLINESTYLE
350
17
  0
DICTIONARY
  5
D
330
C
100
AcDbDictionary
  0
DICTIONARY
  5
1A
330
C
100
AcDbDictionary
  0
DICTIONARY
  5
17
330
C
100
AcDbDictionary
  3
STANDARD
350
18
  0
DICTIONARY
  5
19
330
C
100
AcDbDictionary
  0
ENDSEC
  0
EOF
