999
DXF created by Inkscape
  0
SECTION
  2
HEADER
  9
$ACADVER
  1
AC1014
  9
$HANDSEED
  5
FFFF
  9
$MEASUREMENT
 70
     1
  0
ENDSEC
  0
SECTION
  2
TABLES
  0
TABLE
  2
VPORT
  5
8
330
0
100
AcDbSymbolTable
 70
     4
  0
VPORT
  5
2E
330
8
100
AcDbSymbolTableRecord
100
AcDbViewportTableRecord
  2
*ACTIVE
 70
     0
 10
0.0
 20
0.0
 11
1.0
 21
1.0
 12
210.0
 22
148.5
 13
0.0
 23
0.0
 14
10.0
 24
10.0
 15
10.0
 25
10.0
 16
0.0
 26
0.0
 36
1.0
 17
0.0
 27
0.0
 37
0.0
 40
341.0
 41
1.24
 42
50.0
 43
0.0
 44
0.0
 50
0.0
 51
0.0
 71
     0
 72
   100
 73
     1
 74
     3
 75
     0
 76
     0
 77
     0
 78
     0
  0
ENDTAB
  0
TABLE
  2
LTYPE
  5
5
330
0
100
AcDbSymbolTable
 70
     1
  0
LTYPE
  5
14
330
5
100
AcDbSymbolTableRecord
100
AcDbLinetypeTableRecord
  2
BYBLOCK
 70
     0
  3

 72
    65
 73
     0
 40
0.0
  0
LTYPE
  5
15
330
5
100
AcDbSymbolTableRecord
100
AcDbLinetypeTableRecord
  2
BYLAYER
 70
     0
  3

 72
    65
 73
     0
 40
0.0
  0
LTYPE
  5
16
330
5
100
AcDbSymbolTableRecord
100
AcDbLinetypeTableRecord
  2
CONTINUOUS
 70
     0
  3
Solid line
 72
    65
 73
     0
 40
0.0
  0
ENDTAB
  0
TABLE
  2
LAYER
  5
2
100
AcDbSymbolTable
 70
2
  0
LAYER
  5
50
100
AcDbSymbolTableRecord
100
AcDbLayerTableRecord
  2
0
 70
0
  6
CONTINUOUS
  0
LAYER
  5
51
100
AcDbSymbolTableRecord
100
AcDbLayerTableRecord
  2
Layer_1
 70
0
  6
CONTINUOUS
  0
ENDTAB
  0
TABLE
  2
STYLE
  5
3
330
0
100
AcDbSymbolTable
 70
     1
  0
STYLE
  5
11
330
3
100
AcDbSymbolTableRecord
100
AcDbTextStyleTableRecord
  2
STANDARD
 70
     0
 40
0.0
 41
1.0
 50
0.0
 71
     0
 42
2.5
  3
txt
  4

  0
ENDTAB
  0
TABLE
  2
VIEW
  5
6
330
0
100
AcDbSymbolTable
 70
     0
  0
ENDTAB
  0
TABLE
  2
UCS
  5
7
330
0
100
AcDbSymbolTable
 70
     0
  0
ENDTAB
  0
TABLE
  2
APPID
  5
9
330
0
100
AcDbSymbolTable
 70
     2
  0
APPID
  5
12
330
9
100
AcDbSymbolTableRecord
100
AcDbRegAppTableRecord
  2
ACAD
 70
     0
  0
ENDTAB
  0
TABLE
  2
DIMSTYLE
  5
A
330
0
100
AcDbSymbolTable
 70
     1
  0
DIMSTYLE
105
27
330
A
100
AcDbSymbolTableRecord
100
AcDbDimStyleTableRecord
  2
ISO-25
 70
     0
  3

  4

  5

  6

  7

 40
1.0
 41
2.5
 42
0.625
 43
3.75
 44
1.25
 45
0.0
 46
0.0
 47
0.0
 48
0.0
140
2.5
141
2.5
142
0.0
143
0.03937007874016
144
1.0
145
0.0
146
1.0
147
0.625
 71
     0
 72
     0
 73
     0
 74
     0
 75
     0
 76
     0
 77
     1
 78
     8
170
     0
171
     3
172
     1
173
     0
174
     0
175
     0
176
     0
177
     0
178
     0
270
     2
271
     2
272
     2
273
     2
274
     3
340
11
275
     0
280
     0
281
     0
282
     0
283
     0
284
     8
285
     0
286
     0
287
     3
288
     0
  0
ENDTAB
  0
TABLE
  2
BLOCK_RECORD
  5
1
330
0
100
AcDbSymbolTable
 70
     1
  0
BLOCK_RECORD
  5
1F
330
1
100
AcDbSymbolTableRecord
100
AcDbBlockTableRecord
  2
*MODEL_SPACE
  0
BLOCK_RECORD
  5
1B
330
1
100
AcDbSymbolTableRecord
100
AcDbBlockTableRecord
  2
*PAPER_SPACE
  0
ENDTAB
  0
ENDSEC
  0
SECTION
  2
BLOCKS
  0
BLOCK
  5
20
330
1F
100
AcDbEntity
  8
0
100
AcDbBlockBegin
  2
*MODEL_SPACE
 70
     0
 10
0.0
 20
0.0
 30
0.0
  3
*MODEL_SPACE
  1

  0
ENDBLK
  5
21
330
1F
100
AcDbEntity
  8
0
100
AcDbBlockEnd
  0
BLOCK
  5
1C
330
1B
100
AcDbEntity
 67
     1
  8
0
100
AcDbBlockBegin
  2
*PAPER_SPACE
  1

  0
ENDBLK
  5
1D
330
1B
100
AcDbEntity
 67
     1
  8
0
100
AcDbBlockEnd
  0
ENDSEC
  0
SECTION
  2
ENTITIES
  0
LWPOLYLINE
  5
100
100
AcDbEntity
  8
Layer_1
 62
7
100
AcDbPolyline
 90
881
 70
0
 10
44.432768
 20
47.907281
 30
0.0
 10
43.812954
 20
47.869390
 30
0.0
 10
43.193349
 20
47.755821
 30
0.0
 10
42.573885
 20
47.566676
 30
0.0
 10
41.954492
 20
47.302050
 30
0.0
 10
41.335102
 20
46.962046
 30
0.0
 10
40.715644
 20
46.546762
 30
0.0
 10
40.096045
 20
46.056296
 30
0.0
 10
39.476240
 20
45.490754
 30
0.0
 10
38.382442
 20
44.169471
 30
0.0
 10
37.305389
 20
42.617890
 30
0.0
 10
36.245238
 20
40.835958
 30
0.0
 10
35.202151
 20
38.823621
 30
0.0
 10
34.176284
 20
36.580832
 30
0.0
 10
33.167797
 20
34.107538
 30
0.0
 10
32.176850
 20
31.403685
 30
0.0
 10
31.203601
 20
28.469226
 30
0.0
 10
30.364151
 20
25.691948
 30
0.0
 10
29.636717
 20
23.046159
 30
0.0
 10
29.021272
 20
20.531830
 30
0.0
 10
28.517785
 20
18.148918
 30
0.0
 10
28.126236
 20
15.897389
 30
0.0
 10
27.846590
 20
13.777211
 30
0.0
 10
27.678823
 20
11.788343
 30
0.0
 10
27.622906
 20
9.930754
 30
0.0
 10
27.623189
 20
9.891384
 30
0.0
 10
27.624035
 20
9.852536
 30
0.0
 10
27.625164
 20
9.814058
 30
0.0
 10
27.626575
 20
9.775805
 30
0.0
 10
27.627986
 20
9.737626
 30
0.0
 10
27.629398
 20
9.699377
 30
0.0
 10
27.630526
 20
9.660910
 30
0.0
 10
27.631373
 20
9.622073
 30
0.0
 10
26.074381
 20
8.548830
 30
0.0
 10
24.512216
 20
7.618039
 30
0.0
 10
22.944681
 20
6.829899
 30
0.0
 10
21.371580
 20
6.184612
 30
0.0
 10
19.792713
 20
5.682375
 30
0.0
 10
18.207888
 20
5.323388
 30
0.0
 10
16.616906
 20
5.107853
 30
0.0
 10
15.019568
 20
5.035962
 30
0.0
 10
13.962665
 20
5.070396
 30
0.0
 10
12.961744
 20
5.173706
 30
0.0
 10
12.016802
 20
5.345907
 30
0.0
 10
11.127830
 20
5.587018
 30
0.0
 10
10.294829
 20
5.897047
 30
0.0
 10
9.517792
 20
6.276015
 30
0.0
 10
8.796709
 20
6.723936
 30
0.0
 10
8.131581
 20
7.240823
 30
0.0
 10
7.534238
 20
7.814719
 30
0.0
 10
7.016527
 20
8.433683
 30
0.0
 10
6.578450
 20
9.097772
 30
0.0
 10
6.220011
 20
9.807039
 30
0.0
 10
5.941221
 20
10.561534
 30
0.0
 10
5.742079
 20
11.361313
 30
0.0
 10
5.622589
 20
12.206427
 30
0.0
 10
5.582762
 20
13.096934
 30
0.0
 10
5.642895
 20
14.279694
 30
0.0
 10
5.823337
 20
15.415604
 30
0.0
 10
6.124169
 20
16.504488
 30
0.0
 10
6.545464
 20
17.546165
 30
0.0
 10
7.087303
 20
18.540459
 30
0.0
 10
7.749763
 20
19.487196
 30
0.0
 10
8.532921
 20
20.386195
 30
0.0
 10
9.436859
 20
21.237281
 30
0.0
 10
10.204148
 20
21.866970
 30
0.0
 10
10.956217
 20
22.412181
 30
0.0
 10
11.693113
 20
22.873073
 30
0.0
 10
12.414891
 20
23.249808
 30
0.0
 10
13.121603
 20
23.542549
 30
0.0
 10
13.813302
 20
23.751453
 30
0.0
 10
14.490037
 20
23.876680
 30
0.0
 10
15.151859
 20
23.918393
 30
0.0
 10
15.352068
 20
23.915316
 30
0.0
 10
15.573849
 20
23.906059
 30
0.0
 10
15.817190
 20
23.890537
 30
0.0
 10
16.082069
 20
23.868637
 30
0.0
 10
16.368480
 20
23.840282
 30
0.0
 10
16.676401
 20
23.805374
 30
0.0
 10
17.005819
 20
23.763825
 30
0.0
 10
17.356720
 20
23.715540
 30
0.0
 10
17.706459
 20
23.666862
 30
0.0
 10
18.032451
 20
23.624303
 30
0.0
 10
18.334716
 20
23.587975
 30
0.0
 10
18.613281
 20
23.557998
 30
0.0
 10
18.868173
 20
23.534489
 30
0.0
 10
19.099409
 20
23.517555
 30
0.0
 10
19.307020
 20
23.507311
 30
0.0
 10
19.491026
 20
23.503867
 30
0.0
 10
19.936533
 20
23.511516
 30
0.0
 10
20.343193
 20
23.534432
 30
0.0
 10
20.711039
 20
23.572538
 30
0.0
 10
21.040107
 20
23.625785
 30
0.0
 10
21.330432
 20
23.694111
 30
0.0
 10
21.582047
 20
23.777456
 30
0.0
 10
21.794986
 20
23.875754
 30
0.0
 10
21.969290
 20
23.988951
 30
0.0
 10
22.114849
 20
24.137710
 30
0.0
 10
22.241473
 20
24.342725
 30
0.0
 10
22.349023
 20
24.603913
 30
0.0
 10
22.437347
 20
24.921185
 30
0.0
 10
22.506299
 20
25.294457
 30
0.0
 10
22.555736
 20
25.723647
 30
0.0
 10
22.585508
 20
26.208668
 30
0.0
 10
22.595470
 20
26.749437
 30
0.0
 10
22.587794
 20
26.995857
 30
0.0
 10
22.564849
 20
27.218290
 30
0.0
 10
22.526712
 20
27.416833
 30
0.0
 10
22.473443
 20
27.591591
 30
0.0
 10
22.405106
 20
27.742656
 30
0.0
 10
22.321771
 20
27.870133
 30
0.0
 10
22.223507
 20
27.974121
 30
0.0
 10
22.110381
 20
28.054715
 30
0.0
 10
21.969281
 20
28.119222
 30
0.0
 10
21.787121
 20
28.174956
 30
0.0
 10
21.563959
 20
28.221971
 30
0.0
 10
21.299845
 20
28.260319
 30
0.0
 10
20.994836
 20
28.290054
 30
0.0
 10
20.648981
 20
28.311221
 30
0.0
 10
20.262339
 20
28.323893
 30
0.0
 10
19.834964
 20
28.328098
 30
0.0
 10
19.439193
 20
28.311560
 30
0.0
 10
19.043419
 20
28.295021
 30
0.0
 10
18.647647
 20
28.278483
 30
0.0
 10
18.251873
 20
28.261945
 30
0.0
 10
17.856101
 20
28.245407
 30
0.0
 10
17.460330
 20
28.228869
 30
0.0
 10
17.064555
 20
28.212330
 30
0.0
 10
16.668784
 20
28.195792
 30
0.0
 10
16.213686
 20
28.219499
 30
0.0
 10
15.778249
 20
28.290644
 30
0.0
 10
15.362377
 20
28.409206
 30
0.0
 10
14.965974
 20
28.575167
 30
0.0
 10
14.588947
 20
28.788518
 30
0.0
 10
14.231199
 20
29.049238
 30
0.0
 10
13.892634
 20
29.357314
 30
0.0
 10
13.573159
 20
29.712731
 30
0.0
 10
13.298619
 20
30.118787
 30
0.0
 10
13.060530
 20
30.544344
 30
0.0
 10
12.858945
 20
30.989366
 30
0.0
 10
12.693907
 20
31.453816
 30
0.0
 10
12.565465
 20
31.937650
 30
0.0
 10
12.473663
 20
32.440835
 30
0.0
 10
12.418551
 20
32.963327
 30
0.0
 10
12.400178
 20
33.505092
 30
0.0
 10
12.445365
 20
34.459178
 30
0.0
 10
12.580945
 20
35.391663
 30
0.0
 10
12.806920
 20
36.302569
 30
0.0
 10
13.123297
 20
37.191919
 30
0.0
 10
13.530083
 20
38.059733
 30
0.0
 10
14.027285
 20
38.906035
 30
0.0
 10
14.614906
 20
39.730847
 30
0.0
 10
15.292956
 20
40.534189
 30
0.0
 10
16.025757
 20
41.277063
 30
0.0
 10
16.777719
 20
41.920566
 30
0.0
 10
17.548911
 20
42.464798
 30
0.0
 10
18.339407
 20
42.909857
 30
0.0
 10
19.149280
 20
43.255844
 30
0.0
 10
19.978599
 20
43.502859
 30
0.0
 10
20.827441
 20
43.651001
 30
0.0
 10
21.695873
 20
43.700370
 30
0.0
 10
22.167173
 20
43.683126
 30
0.0
 10
22.616781
 20
43.631460
 30
0.0
 10
23.044754
 20
43.545354
 30
0.0
 10
23.451148
 20
43.424797
 30
0.0
 10
23.836020
 20
43.269783
 30
0.0
 10
24.199424
 20
43.080305
 30
0.0
 10
24.541415
 20
42.856356
 30
0.0
 10
24.862053
 20
42.597925
 30
0.0
 10
25.152799
 20
42.312686
 30
0.0
 10
25.405055
 20
42.008318
 30
0.0
 10
25.618742
 20
41.684736
 30
0.0
 10
25.793773
 20
41.341858
 30
0.0
 10
25.930058
 20
40.979601
 30
0.0
 10
26.027515
 20
40.597878
 30
0.0
 10
26.086054
 20
40.196606
 30
0.0
 10
26.105584
 20
39.775703
 30
0.0
 10
26.079902
 20
39.351334
 30
0.0
 10
26.002849
 20
38.939797
 30
0.0
 10
25.874320
 20
38.541125
 30
0.0
 10
25.694225
 20
38.155347
 30
0.0
 10
25.462473
 20
37.782497
 30
0.0
 10
25.178966
 20
37.422605
 30
0.0
 10
24.843619
 20
37.075700
 30
0.0
 10
24.456336
 20
36.741814
 30
0.0
 10
24.084873
 20
36.446703
 30
0.0
 10
23.762696
 20
36.181702
 30
0.0
 10
23.489878
 20
35.946825
 30
0.0
 10
23.266496
 20
35.742090
 30
0.0
 10
23.092627
 20
35.567510
 30
0.0
 10
22.968342
 20
35.423102
 30
0.0
 10
22.893720
 20
35.308884
 30
0.0
 10
22.868828
 20
35.224870
 30
0.0
 10
22.876476
 20
34.951114
 30
0.0
 10
22.899393
 20
34.681321
 30
0.0
 10
22.937524
 20
34.415611
 30
0.0
 10
22.990793
 20
34.154099
 30
0.0
 10
23.059130
 20
33.896895
 30
0.0
 10
23.142471
 20
33.644118
 30
0.0
 10
23.240746
 20
33.395880
 30
0.0
 10
23.353889
 20
33.152300
 30
0.0
 10
23.473145
 20
32.942519
 30
0.0
 10
23.589923
 20
32.761106
 30
0.0
 10
23.704327
 20
32.607939
 30
0.0
 10
23.816474
 20
32.482900
 30
0.0
 10
23.926467
 20
32.385861
 30
0.0
 10
24.034423
 20
32.316702
 30
0.0
 10
24.140448
 20
32.275300
 30
0.0
 10
24.244653
 20
32.261528
 30
0.0
 10
24.890377
 20
32.298245
 30
0.0
 10
25.518821
 20
32.408379
 30
0.0
 10
26.130010
 20
32.591869
 30
0.0
 10
26.723958
 20
32.848654
 30
0.0
 10
27.300690
 20
33.178671
 30
0.0
 10
27.860224
 20
33.581856
 30
0.0
 10
28.402582
 20
34.058154
 30
0.0
 10
28.927778
 20
34.607500
 30
0.0
 10
29.412356
 20
35.203884
 30
0.0
 10
29.832788
 20
35.821468
 30
0.0
 10
30.188936
 20
36.460365
 30
0.0
 10
30.480652
 20
37.120689
 30
0.0
 10
30.707796
 20
37.802555
 30
0.0
 10
30.870220
 20
38.506075
 30
0.0
 10
30.967787
 20
39.231367
 30
0.0
 10
31.000347
 20
39.978542
 30
0.0
 10
30.962425
 20
40.835814
 30
0.0
 10
30.848766
 20
41.650135
 30
0.0
 10
30.659505
 20
42.421457
 30
0.0
 10
30.394777
 20
43.149749
 30
0.0
 10
30.054711
 20
43.834970
 30
0.0
 10
29.639441
 20
44.477076
 30
0.0
 10
29.149099
 20
45.076037
 30
0.0
 10
28.583819
 20
45.631806
 30
0.0
 10
27.973457
 20
46.148676
 30
0.0
 10
27.313424
 20
46.596585
 30
0.0
 10
26.603771
 20
46.975547
 30
0.0
 10
25.844556
 20
47.285577
 30
0.0
 10
25.035837
 20
47.526688
 30
0.0
 10
24.177667
 20
47.698897
 30
0.0
 10
23.270100
 20
47.802219
 30
0.0
 10
22.313194
 20
47.836667
 30
0.0
 10
20.661125
 20
47.765490
 30
0.0
 10
19.080133
 20
47.552026
 30
0.0
 10
17.570207
 20
47.196324
 30
0.0
 10
16.131331
 20
46.698425
 30
0.0
 10
14.763490
 20
46.058382
 30
0.0
 10
13.466671
 20
45.276237
 30
0.0
 10
12.240858
 20
44.352038
 30
0.0
 10
11.086042
 20
43.285833
 30
0.0
 10
10.149673
 20
42.254353
 30
0.0
 10
9.338149
 20
41.193065
 30
0.0
 10
8.651471
 20
40.101853
 30
0.0
 10
8.089643
 20
38.980607
 30
0.0
 10
7.652664
 20
37.829211
 30
0.0
 10
7.340535
 20
36.647552
 30
0.0
 10
7.153258
 20
35.435515
 30
0.0
 10
7.090833
 20
34.192986
 30
0.0
 10
7.151345
 20
33.005079
 30
0.0
 10
7.332785
 20
31.888131
 30
0.0
 10
7.635028
 20
30.842184
 30
0.0
 10
8.057944
 20
29.867276
 30
0.0
 10
8.601402
 20
28.963445
 30
0.0
 10
9.265277
 20
28.130734
 30
0.0
 10
10.049434
 20
27.369177
 30
0.0
 10
10.953750
 20
26.678819
 30
0.0
 10
9.700717
 20
26.225376
 30
0.0
 10
8.524785
 20
25.726613
 30
0.0
 10
7.426082
 20
25.182559
 30
0.0
 10
6.404745
 20
24.593245
 30
0.0
 10
5.460898
 20
23.958705
 30
0.0
 10
4.594677
 20
23.278967
 30
0.0
 10
3.806207
 20
22.554065
 30
0.0
 10
3.095625
 20
21.784028
 30
0.0
 10
2.401742
 20
20.877378
 30
0.0
 10
1.800939
 20
19.914912
 30
0.0
 10
1.293046
 20
18.896567
 30
0.0
 10
0.877886
 20
17.822285
 30
0.0
 10
0.555286
 20
16.692005
 30
0.0
 10
0.325072
 20
15.505670
 30
0.0
 10
0.187071
 20
14.263215
 30
0.0
 10
0.141111
 20
12.964583
 30
0.0
 10
0.198947
 20
11.569748
 30
0.0
 10
0.372550
 20
10.245595
 30
0.0
 10
0.662085
 20
8.992255
 30
0.0
 10
1.067697
 20
7.809862
 30
0.0
 10
1.589552
 20
6.698544
 30
0.0
 10
2.227797
 20
5.658434
 30
0.0
 10
2.982595
 20
4.689661
 30
0.0
 10
3.854097
 20
3.792361
 30
0.0
 10
4.822873
 20
2.984963
 30
0.0
 10
5.869342
 20
2.285715
 30
0.0
 10
6.993438
 20
1.694459
 30
0.0
 10
8.195096
 20
1.211049
 30
0.0
 10
9.474242
 20
0.835327
 30
0.0
 10
10.830817
 20
0.567142
 30
0.0
 10
12.264748
 20
0.406344
 30
0.0
 10
13.775972
 20
0.352778
 30
0.0
 10
14.929903
 20
0.380718
 30
0.0
 10
16.084098
 20
0.464532
 30
0.0
 10
17.238472
 20
0.604272
 30
0.0
 10
18.392936
 20
0.799970
 30
0.0
 10
19.547403
 20
1.051667
 30
0.0
 10
20.701782
 20
1.359402
 30
0.0
 10
21.855989
 20
1.723212
 30
0.0
 10
23.009931
 20
2.143136
 30
0.0
 10
23.678673
 20
2.423247
 30
0.0
 10
24.346400
 20
2.723670
 30
0.0
 10
25.013206
 20
3.044162
 30
0.0
 10
25.679191
 20
3.384468
 30
0.0
 10
26.344454
 20
3.744347
 30
0.0
 10
27.009090
 20
4.123543
 30
0.0
 10
27.673196
 20
4.521810
 30
0.0
 10
28.336875
 20
4.938900
 30
0.0
 10
28.414447
 20
4.719887
 30
0.0
 10
28.495941
 20
4.505565
 30
0.0
 10
28.581390
 20
4.295896
 30
0.0
 10
28.670817
 20
4.090845
 30
0.0
 10
28.764253
 20
3.890380
 30
0.0
 10
28.861726
 20
3.694461
 30
0.0
 10
28.963262
 20
3.503052
 30
0.0
 10
29.068889
 20
3.316122
 30
0.0
 10
29.530610
 20
2.605309
 30
0.0
 10
30.054750
 20
1.989170
 30
0.0
 10
30.641310
 20
1.467736
 30
0.0
 10
31.290291
 20
1.041039
 30
0.0
 10
32.001700
 20
0.709109
 30
0.0
 10
32.775533
 20
0.471977
 30
0.0
 10
33.611795
 20
0.329675
 30
0.0
 10
34.510486
 20
0.282234
 30
0.0
 10
35.442494
 20
0.307859
 30
0.0
 10
36.378727
 20
0.384844
 30
0.0
 10
37.319218
 20
0.513289
 30
0.0
 10
38.263985
 20
0.693313
 30
0.0
 10
39.213062
 20
0.925026
 30
0.0
 10
40.166471
 20
1.208546
 30
0.0
 10
41.124237
 20
1.543987
 30
0.0
 10
42.086389
 20
1.931461
 30
0.0
 10
42.737069
 20
2.234187
 30
0.0
 10
43.408140
 20
2.570023
 30
0.0
 10
44.099446
 20
2.938701
 30
0.0
 10
44.810844
 20
3.339950
 30
0.0
 10
45.542177
 20
3.773497
 30
0.0
 10
46.293301
 20
4.239071
 30
0.0
 10
47.064061
 20
4.736400
 30
0.0
 10
47.854306
 20
5.265211
 30
0.0
 10
47.878069
 20
5.055867
 30
0.0
 10
47.903045
 20
4.853161
 30
0.0
 10
47.929320
 20
4.657384
 30
0.0
 10
47.956978
 20
4.468814
 30
0.0
 10
47.986140
 20
4.287743
 30
0.0
 10
48.016899
 20
4.114453
 30
0.0
 10
48.049358
 20
3.949232
 30
0.0
 10
48.083620
 20
3.792364
 30
0.0
 10
48.317288
 20
2.952519
 30
0.0
 10
48.604955
 20
2.224899
 30
0.0
 10
48.946556
 20
1.609431
 30
0.0
 10
49.342034
 20
1.106035
 30
0.0
 10
49.791324
 20
0.714635
 30
0.0
 10
50.294368
 20
0.435158
 30
0.0
 10
50.851102
 20
0.267530
 30
0.0
 10
51.461467
 20
0.211669
 30
0.0
 10
52.240499
 20
0.252606
 30
0.0
 10
53.062271
 20
0.375412
 30
0.0
 10
53.926884
 20
0.580080
 30
0.0
 10
54.834446
 20
0.866600
 30
0.0
 10
55.785060
 20
1.234965
 30
0.0
 10
56.778830
 20
1.685166
 30
0.0
 10
57.815861
 20
2.217194
 30
0.0
 10
58.896258
 20
2.831044
 30
0.0
 10
59.305571
 20
3.077275
 30
0.0
 10
59.708429
 20
3.326689
 30
0.0
 10
60.104864
 20
3.579210
 30
0.0
 10
60.494909
 20
3.834771
 30
0.0
 10
60.878601
 20
4.093297
 30
0.0
 10
61.255972
 20
4.354720
 30
0.0
 10
61.627055
 20
4.618970
 30
0.0
 10
61.991883
 20
4.885975
 30
0.0
 10
61.993012
 20
4.836366
 30
0.0
 10
61.994141
 20
4.786757
 30
0.0
 10
61.995270
 20
4.737148
 30
0.0
 10
61.996399
 20
4.687539
 30
0.0
 10
61.997528
 20
4.637927
 30
0.0
 10
61.998657
 20
4.588318
 30
0.0
 10
61.999786
 20
4.538709
 30
0.0
 10
62.000915
 20
4.489100
 30
0.0
 10
62.005120
 20
4.035510
 30
0.0
 10
62.017791
 20
3.570805
 30
0.0
 10
62.038986
 20
3.095103
 30
0.0
 10
62.068733
 20
2.608515
 30
0.0
 10
62.107089
 20
2.111158
 30
0.0
 10
62.154105
 20
1.603149
 30
0.0
 10
62.209832
 20
1.084600
 30
0.0
 10
62.274317
 20
0.555628
 30
0.0
 10
62.963338
 20
0.555628
 30
0.0
 10
63.652355
 20
0.555628
 30
0.0
 10
64.341375
 20
0.555628
 30
0.0
 10
65.030395
 20
0.555628
 30
0.0
 10
65.719412
 20
0.555628
 30
0.0
 10
66.408433
 20
0.555628
 30
0.0
 10
67.097450
 20
0.555628
 30
0.0
 10
67.786470
 20
0.555628
 30
0.0
 10
67.777665
 20
0.754067
 30
0.0
 10
67.768859
 20
0.952503
 30
0.0
 10
67.760054
 20
1.150942
 30
0.0
 10
67.751249
 20
1.349378
 30
0.0
 10
67.742443
 20
1.547817
 30
0.0
 10
67.733638
 20
1.746253
 30
0.0
 10
67.724833
 20
1.944692
 30
0.0
 10
67.716027
 20
2.143128
 30
0.0
 10
67.699489
 20
2.823329
 30
0.0
 10
67.682951
 20
3.503526
 30
0.0
 10
67.666413
 20
4.183727
 30
0.0
 10
67.649875
 20
4.863928
 30
0.0
 10
67.633336
 20
5.544126
 30
0.0
 10
67.616798
 20
6.224326
 30
0.0
 10
67.600260
 20
6.904524
 30
0.0
 10
67.583722
 20
7.584725
 30
0.0
 10
67.583719
 20
7.727908
 30
0.0
 10
67.583716
 20
7.881795
 30
0.0
 10
67.583716
 20
8.046404
 30
0.0
 10
67.583716
 20
8.221763
 30
0.0
 10
67.583716
 20
8.407888
 30
0.0
 10
67.583716
 20
8.604809
 30
0.0
 10
67.583719
 20
8.812541
 30
0.0
 10
67.583722
 20
9.031114
 30
0.0
 10
67.584851
 20
9.128300
 30
0.0
 10
67.588265
 20
9.247460
 30
0.0
 10
67.593910
 20
9.388452
 30
0.0
 10
67.601756
 20
9.551128
 30
0.0
 10
67.611746
 20
9.735343
 30
0.0
 10
67.623854
 20
9.940953
 30
0.0
 10
67.638049
 20
10.167809
 30
0.0
 10
67.654277
 20
10.415767
 30
0.0
 10
67.671267
 20
10.691424
 30
0.0
 10
67.687862
 20
10.967037
 30
0.0
 10
67.704202
 20
11.242619
 30
0.0
 10
67.720430
 20
11.518189
 30
0.0
 10
67.736658
 20
11.793762
 30
0.0
 10
67.752999
 20
12.069346
 30
0.0
 10
67.769593
 20
12.344964
 30
0.0
 10
67.786583
 20
12.620628
 30
0.0
 10
67.881393
 20
12.706618
 30
0.0
 10
67.976200
 20
12.792608
 30
0.0
 10
68.071009
 20
12.878596
 30
0.0
 10
68.165819
 20
12.964586
 30
0.0
 10
68.260629
 20
13.050576
 30
0.0
 10
68.355436
 20
13.136567
 30
0.0
 10
68.450246
 20
13.222554
 30
0.0
 10
68.545055
 20
13.308544
 30
0.0
 10
70.848480
 20
15.473048
 30
0.0
 10
72.902521
 20
17.348835
 30
0.0
 10
74.707070
 20
18.935937
 30
0.0
 10
76.262030
 20
20.234391
 30
0.0
 10
77.567293
 20
21.244241
 30
0.0
 10
78.622756
 20
21.965516
 30
0.0
 10
79.428317
 20
22.398259
 30
0.0
 10
79.983875
 20
22.542503
 30
0.0
 10
80.225973
 20
22.510355
 30
0.0
 10
80.435690
 20
22.413872
 30
0.0
 10
80.613055
 20
22.252960
 30
0.0
 10
80.758103
 20
22.027526
 30
0.0
 10
80.870865
 20
21.737481
 30
0.0
 10
80.951372
 20
21.382730
 30
0.0
 10
80.999657
 20
20.963184
 30
0.0
 10
81.015744
 20
20.478753
 30
0.0
 10
80.980122
 20
19.999229
 30
0.0
 10
80.873304
 20
19.353375
 30
0.0
 10
80.695343
 20
18.541357
 30
0.0
 10
80.446299
 20
17.563335
 30
0.0
 10
80.126219
 20
16.419469
 30
0.0
 10
79.735161
 20
15.109927
 30
0.0
 10
79.273180
 20
13.634864
 30
0.0
 10
78.740327
 20
11.994447
 30
0.0
 10
78.498217
 20
11.234118
 30
0.0
 10
78.288492
 20
10.503896
 30
0.0
 10
78.111119
 20
9.803799
 30
0.0
 10
77.966070
 20
9.133837
 30
0.0
 10
77.853309
 20
8.494031
 30
0.0
 10
77.772808
 20
7.884394
 30
0.0
 10
77.724533
 20
7.304944
 30
0.0
 10
77.708447
 20
6.755697
 30
0.0
 10
77.727977
 20
6.033177
 30
0.0
 10
77.786507
 20
5.347408
 30
0.0
 10
77.883958
 20
4.698342
 30
0.0
 10
78.020240
 20
4.085940
 30
0.0
 10
78.195272
 20
3.510150
 30
0.0
 10
78.408967
 20
2.970931
 30
0.0
 10
78.661235
 20
2.468234
 30
0.0
 10
78.951994
 20
2.002017
 30
0.0
 10
79.293045
 20
1.598318
 30
0.0
 10
79.661885
 20
1.248692
 30
0.0
 10
80.058573
 20
0.953064
 30
0.0
 10
80.483182
 20
0.711358
 30
0.0
 10
80.935776
 20
0.523500
 30
0.0
 10
81.416421
 20
0.389407
 30
0.0
 10
81.925185
 20
0.309008
 30
0.0
 10
82.462133
 20
0.282225
 30
0.0
 10
83.049883
 20
0.303646
 30
0.0
 10
83.642115
 20
0.367964
 30
0.0
 10
84.238770
 20
0.475237
 30
0.0
 10
84.839793
 20
0.625526
 30
0.0
 10
85.445123
 20
0.818890
 30
0.0
 10
86.054700
 20
1.055393
 30
0.0
 10
86.668469
 20
1.335092
 30
0.0
 10
87.286369
 20
1.658053
 30
0.0
 10
87.827042
 20
1.964478
 30
0.0
 10
88.398449
 20
2.315396
 30
0.0
 10
89.000587
 20
2.710617
 30
0.0
 10
89.633459
 20
3.149950
 30
0.0
 10
90.297056
 20
3.633202
 30
0.0
 10
90.991382
 20
4.160184
 30
0.0
 10
91.716431
 20
4.730708
 30
0.0
 10
92.472202
 20
5.344581
 30
0.0
 10
92.582179
 20
5.054481
 30
0.0
 10
92.699614
 20
4.767112
 30
0.0
 10
92.824441
 20
4.482547
 30
0.0
 10
92.956589
 20
4.200864
 30
0.0
 10
93.095987
 20
3.922135
 30
0.0
 10
93.242567
 20
3.646441
 30
0.0
 10
93.396260
 20
3.373851
 30
0.0
 10
93.556994
 20
3.104442
 30
0.0
 10
94.065835
 20
2.409853
 30
0.0
 10
94.628101
 20
1.807899
 30
0.0
 10
95.243921
 20
1.298572
 30
0.0
 10
95.913423
 20
0.881865
 30
0.0
 10
96.636741
 20
0.557773
 30
0.0
 10
97.414004
 20
0.326288
 30
0.0
 10
98.245340
 20
0.187401
 30
0.0
 10
99.130883
 20
0.141108
 30
0.0
 10
101.637815
 20
0.260858
 30
0.0
 10
104.164579
 20
0.620025
 30
0.0
 10
106.711025
 20
1.218500
 30
0.0
 10
109.276995
 20
2.056164
 30
0.0
 10
111.862342
 20
3.132898
 30
0.0
 10
114.466912
 20
4.448593
 30
0.0
 10
117.090548
 20
6.003126
 30
0.0
 10
119.733105
 20
7.796386
 30
0.0
 10
119.733105
 20
8.519581
 30
0.0
 10
119.733105
 20
9.242775
 30
0.0
 10
119.733105
 20
9.965969
 30
0.0
 10
119.733105
 20
10.689164
 30
0.0
 10
119.733105
 20
11.412358
 30
0.0
 10
119.733105
 20
12.135553
 30
0.0
 10
119.733105
 20
12.858747
 30
0.0
 10
119.733105
 20
13.581942
 30
0.0
 10
118.391836
 20
12.434141
 30
0.0
 10
117.088965
 20
11.368478
 30
0.0
 10
115.824610
 20
10.384861
 30
0.0
 10
114.598882
 20
9.483186
 30
0.0
 10
113.411906
 20
8.663356
 30
0.0
 10
112.263795
 20
7.925274
 30
0.0
 10
111.154664
 20
7.268839
 30
0.0
 10
110.084633
 20
6.693956
 30
0.0
 10
109.035269
 20
6.209137
 30
0.0
 10
107.988083
 20
5.788587
 30
0.0
 10
106.943068
 20
5.432419
 30
0.0
 10
105.900214
 20
5.140754
 30
0.0
 10
104.859514
 20
4.913703
 30
0.0
 10
103.820962
 20
4.751380
 30
0.0
 10
102.784543
 20
4.653904
 30
0.0
 10
101.750258
 20
4.621386
 30
0.0
 10
101.168110
 20
4.654671
 30
0.0
 10
100.627061
 20
4.754567
 30
0.0
 10
100.127043
 20
4.921123
 30
0.0
 10
99.667994
 20
5.154394
 30
0.0
 10
99.249842
 20
5.454433
 30
0.0
 10
98.872523
 20
5.821293
 30
0.0
 10
98.535973
 20
6.255027
 30
0.0
 10
98.240119
 20
6.755692
 30
0.0
 10
98.062497
 20
7.131600
 30
0.0
 10
97.908499
 20
7.535627
 30
0.0
 10
97.778147
 20
7.967729
 30
0.0
 10
97.671453
 20
8.427870
 30
0.0
 10
97.588440
 20
8.916012
 30
0.0
 10
97.529122
 20
9.432115
 30
0.0
 10
97.493517
 20
9.976144
 30
0.0
 10
97.481636
 20
10.548053
 30
0.0
 10
97.481636
 20
10.583331
 30
0.0
 10
97.481636
 20
10.618608
 30
0.0
 10
97.481636
 20
10.653886
 30
0.0
 10
97.481636
 20
10.689164
 30
0.0
 10
97.481636
 20
10.724442
 30
0.0
 10
97.481636
 20
10.759719
 30
0.0
 10
97.481636
 20
10.794997
 30
0.0
 10
97.481636
 20
10.830275
 30
0.0
 10
97.662433
 20
10.907446
 30
0.0
 10
97.843233
 20
10.984617
 30
0.0
 10
98.024030
 20
11.061785
 30
0.0
 10
98.204920
 20
11.139018
 30
0.0
 10
98.385717
 20
11.216188
 30
0.0
 10
98.566518
 20
11.293359
 30
0.0
 10
98.747315
 20
11.370527
 30
0.0
 10
98.928115
 20
11.447698
 30
0.0
 10
100.307815
 20
12.026104
 30
0.0
 10
101.588358
 20
12.589620
 30
0.0
 10
102.769789
 20
13.138187
 30
0.0
 10
103.852156
 20
13.671739
 30
0.0
 10
104.835508
 20
14.190215
 30
0.0
 10
105.719888
 20
14.693553
 30
0.0
 10
106.505350
 20
15.181693
 30
0.0
 10
107.191934
 20
15.654573
 30
0.0
 10
108.322130
 20
16.551267
 30
0.0
 10
109.301822
 20
17.483983
 30
0.0
 10
110.130954
 20
18.452919
 30
0.0
 10
110.809470
 20
19.458274
 30
0.0
 10
111.337307
 20
20.500244
 30
0.0
 10
111.714410
 20
21.579030
 30
0.0
 10
111.940715
 20
22.694829
 30
0.0
 10
112.016170
 20
23.847837
 30
0.0
 10
111.929991
 20
25.075529
 30
0.0
 10
111.671498
 20
26.139583
 30
0.0
 10
111.240728
 20
27.039982
 30
0.0
 10
110.637718
 20
27.776709
 30
0.0
 10
109.862504
 20
28.349747
 30
0.0
 10
108.915124
 20
28.759085
 30
0.0
 10
107.795616
 20
29.004703
 30
0.0
 10
106.504018
 20
29.086587
 30
0.0
 10
105.061622
 20
28.995139
 30
0.0
 10
103.661992
 20
28.720776
 30
0.0
 10
102.305223
 20
28.263446
 30
0.0
 10
100.991408
 20
27.623101
 30
0.0
 10
99.720646
 20
26.799684
 30
0.0
 10
98.493030
 20
25.793141
 30
0.0
 10
97.308659
 20
24.603422
 30
0.0
 10
96.167629
 20
23.230476
 30
0.0
 10
95.119086
 20
21.757166
 30
0.0
 10
94.210705
 20
20.230228
 30
0.0
 10
93.442350
 20
18.649611
 30
0.0
 10
92.813886
 20
17.015265
 30
0.0
 10
92.325173
 20
15.327139
 30
0.0
 10
91.976075
 20
13.585184
 30
0.0
 10
91.766452
 20
11.789345
 30
0.0
 10
91.696170
 20
9.939573
 30
0.0
 10
91.285252
 20
9.575817
 30
0.0
 10
90.871257
 20
9.219557
 30
0.0
 10
90.454107
 20
8.870817
 30
0.0
 10
90.033729
 20
8.529622
 30
0.0
 10
89.610037
 20
8.195999
 30
0.0
 10
89.182959
 20
7.869973
 30
0.0
 10
88.752412
 20
7.551572
 30
0.0
 10
88.318323
 20
7.240823
 30
0.0
 10
87.609886
 20
6.756383
 30
0.0
 10
86.965638
 20
6.336832
 30
0.0
 10
86.385710
 20
5.982078
 30
0.0
 10
85.870232
 20
5.692030
 30
0.0
 10
85.419334
 20
5.466599
 30
0.0
 10
85.033144
 20
5.305690
 30
0.0
 10
84.711791
 20
5.209213
 30
0.0
 10
84.455406
 20
5.177073
 30
0.0
 10
84.197077
 20
5.208067
 30
0.0
 10
83.973170
 20
5.301130
 30
0.0
 10
83.783689
 20
5.456391
 30
0.0
 10
83.628645
 20
5.673985
 30
0.0
 10
83.508046
 20
5.954039
 30
0.0
 10
83.421895
 20
6.296685
 30
0.0
 10
83.370203
 20
6.702050
 30
0.0
 10
83.352987
 20
7.170268
 30
0.0
 10
83.370203
 20
7.739182
 30
0.0
 10
83.421895
 20
8.343065
 30
0.0
 10
83.508046
 20
8.981748
 30
0.0
 10
83.628645
 20
9.655062
 30
0.0
 10
83.783689
 20
10.362836
 30
0.0
 10
83.973170
 20
11.104905
 30
0.0
 10
84.197077
 20
11.881096
 30
0.0
 10
84.455406
 20
12.691240
 30
0.0
 10
85.004473
 20
14.370998
 30
0.0
 10
85.480632
 20
15.895343
 30
0.0
 10
85.883795
 20
17.264386
 30
0.0
 10
86.213868
 20
18.478246
 30
0.0
 10
86.470758
 20
19.537031
 30
0.0
 10
86.654366
 20
20.440856
 30
0.0
 10
86.764605
 20
21.189837
 30
0.0
 10
86.801379
 20
21.784087
 30
0.0
 10
86.781849
 20
22.442083
 30
0.0
 10
86.723307
 20
23.072107
 30
0.0
 10
86.625851
 20
23.674152
 30
0.0
 10
86.489565
 20
24.248206
 30
0.0
 10
86.314537
 20
24.794261
 30
0.0
 10
86.100849
 20
25.312314
 30
0.0
 10
85.848591
 20
25.802350
 30
0.0
 10
85.557845
 20
26.264365
 30
0.0
 10
85.239504
 20
26.684280
 30
0.0
 10
84.904351
 20
27.048085
 30
0.0
 10
84.552245
 20
27.355814
 30
0.0
 10
84.183056
 20
27.607511
 30
0.0
 10
83.796649
 20
27.803210
 30
0.0
 10
83.392891
 20
27.942952
 30
0.0
 10
82.971643
 20
28.026772
 30
0.0
 10
82.532776
 20
28.054712
 30
0.0
 10
81.952423
 20
28.023710
 30
0.0
 10
81.348016
 20
27.930642
 30
0.0
 10
80.719676
 20
27.775374
 30
0.0
 10
80.067537
 20
27.557778
 30
0.0
 10
79.391719
 20
27.277726
 30
0.0
 10
78.692350
 20
26.935083
 30
0.0
 10
77.969559
 20
26.529724
 30
0.0
 10
77.223470
 20
26.061518
 30
0.0
 10
76.447627
 20
25.531476
 30
0.0
 10
75.601009
 20
24.906343
 30
0.0
 10
74.683530
 20
24.186227
 30
0.0
 10
73.695106
 20
23.371240
 30
0.0
 10
72.635646
 20
22.461485
 30
0.0
 10
71.505070
 20
21.457073
 30
0.0
 10
70.303286
 20
20.358114
 30
0.0
 10
69.030207
 20
19.164712
 30
0.0
 10
69.184966
 20
19.745031
 30
0.0
 10
69.339364
 20
20.314378
 30
0.0
 10
69.493522
 20
20.872823
 30
0.0
 10
69.647559
 20
21.420432
 30
0.0
 10
69.801599
 20
21.957273
 30
0.0
 10
69.955760
 20
22.483417
 30
0.0
 10
70.110161
 20
22.998930
 30
0.0
 10
70.264929
 20
23.503879
 30
0.0
 10
70.441645
 20
24.012257
 30
0.0
 10
70.627316
 20
24.538006
 30
0.0
 10
70.821829
 20
25.081080
 30
0.0
 10
71.025066
 20
25.641435
 30
0.0
 10
71.236916
 20
26.219023
 30
0.0
 10
71.457261
 20
26.813795
 30
0.0
 10
71.685988
 20
27.425706
 30
0.0
 10
71.922984
 20
28.054712
 30
0.0
 10
71.190970
 20
28.054712
 30
0.0
 10
70.458957
 20
28.054712
 30
0.0
 10
69.726943
 20
28.054712
 30
0.0
 10
68.994929
 20
28.054712
 30
0.0
 10
68.262915
 20
28.054712
 30
0.0
 10
67.530901
 20
28.054712
 30
0.0
 10
66.798887
 20
28.054712
 30
0.0
 10
66.066873
 20
28.054712
 30
0.0
 10
65.086653
 20
25.304547
 30
0.0
 10
64.236735
 20
22.712691
 30
0.0
 10
63.517038
 20
20.278990
 30
0.0
 10
62.927470
 20
18.003297
 30
0.0
 10
62.467950
 20
15.885459
 30
0.0
 10
62.138391
 20
13.925321
 30
0.0
 10
61.938710
 20
12.122740
 30
0.0
 10
61.868818
 20
10.477559
 30
0.0
 10
61.781608
 20
10.400617
 30
0.0
 10
61.694500
 20
10.323232
 30
0.0
 10
61.607457
 20
10.245595
 30
0.0
 10
61.520448
 20
10.167897
 30
0.0
 10
61.433439
 20
10.090317
 30
0.0
 10
61.346396
 20
10.013050
 30
0.0
 10
61.259288
 20
9.936280
 30
0.0
 10
61.172082
 20
9.860198
 30
0.0
 10
59.998850
 20
8.890940
 30
0.0
 10
58.924503
 20
8.050838
 30
0.0
 10
57.949084
 20
7.339920
 30
0.0
 10
57.072640
 20
6.758206
 30
0.0
 10
56.295214
 20
6.305722
 30
0.0
 10
55.616850
 20
5.982490
 30
0.0
 10
55.037598
 20
5.788533
 30
0.0
 10
54.557498
 20
5.723879
 30
0.0
 10
54.250906
 20
5.775528
 30
0.0
 10
53.985456
 20
5.930491
 30
0.0
 10
53.761070
 20
6.188795
 30
0.0
 10
53.577665
 20
6.550460
 30
0.0
 10
53.435160
 20
7.015505
 30
0.0
 10
53.333469
 20
7.583957
 30
0.0
 10
53.272518
 20
8.255838
 30
0.0
 10
53.252226
 20
9.031170
 30
0.0
 10
53.266027
 20
9.753758
 30
0.0
 10
53.307471
 20
10.508635
 30
0.0
 10
53.376675
 20
11.295803
 30
0.0
 10
53.473751
 20
12.115275
 30
0.0
 10
53.598812
 20
12.967056
 30
0.0
 10
53.751968
 20
13.851148
 30
0.0
 10
53.933327
 20
14.767566
 30
0.0
 10
54.143001
 20
15.716309
 30
0.0
 10
54.386373
 20
16.721283
 30
0.0
 10
54.668705
 20
17.806320
 30
0.0
 10
54.989930
 20
18.971297
 30
0.0
 10
55.349973
 20
20.216091
 30
0.0
 10
55.748761
 20
21.540580
 30
0.0
 10
56.186225
 20
22.944638
 30
0.0
 10
56.662292
 20
24.428140
 30
0.0
 10
57.176890
 20
25.990962
 30
0.0
 10
57.262880
 20
26.248930
 30
0.0
 10
57.348868
 20
26.506901
 30
0.0
 10
57.434858
 20
26.764869
 30
0.0
 10
57.520848
 20
27.022837
 30
0.0
 10
57.606839
 20
27.280805
 30
0.0
 10
57.692826
 20
27.538776
 30
0.0
 10
57.778817
 20
27.796744
 30
0.0
 10
57.864807
 20
28.054712
 30
0.0
 10
57.141612
 20
28.054712
 30
0.0
 10
56.418418
 20
28.054712
 30
0.0
 10
55.695223
 20
28.054712
 30
0.0
 10
54.972029
 20
28.054712
 30
0.0
 10
54.248835
 20
28.054712
 30
0.0
 10
53.525640
 20
28.054712
 30
0.0
 10
52.802446
 20
28.054712
 30
0.0
 10
52.079251
 20
28.054712
 30
0.0
 10
51.576659
 20
26.751633
 30
0.0
 10
51.102099
 20
25.461454
 30
0.0
 10
50.655556
 20
24.184178
 30
0.0
 10
50.237015
 20
22.919820
 30
0.0
 10
49.846456
 20
21.668387
 30
0.0
 10
49.483865
 20
20.429886
 30
0.0
 10
49.149223
 20
19.204330
 30
0.0
 10
48.842515
 20
17.991726
 30
0.0
 10
48.595071
 20
16.925349
 30
0.0
 10
48.377201
 20
15.887093
 30
0.0
 10
48.188838
 20
14.876808
 30
0.0
 10
48.029907
 20
13.894331
 30
0.0
 10
47.900344
 20
12.939511
 30
0.0
 10
47.800082
 20
12.012193
 30
0.0
 10
47.729044
 20
11.112218
 30
0.0
 10
47.687168
 20
10.239434
 30
0.0
 10
47.187897
 20
9.841975
 30
0.0
 10
46.682979
 20
9.456067
 30
0.0
 10
46.172388
 20
9.081688
 30
0.0
 10
45.656091
 20
8.718815
 30
0.0
 10
45.134056
 20
8.367426
 30
0.0
 10
44.606252
 20
8.027498
 30
0.0
 10
44.072646
 20
7.699008
 30
0.0
 10
43.533210
 20
7.381934
 30
0.0
 10
42.505675
 20
6.816375
 30
0.0
 10
41.523861
 20
6.325898
 30
0.0
 10
40.587597
 20
5.910605
 30
0.0
 10
39.696709
 20
5.570598
 30
0.0
 10
38.851027
 20
5.305975
 30
0.0
 10
38.050377
 20
5.116836
 30
0.0
 10
37.294589
 20
5.003281
 30
0.0
 10
36.583487
 20
4.965406
 30
0.0
 10
35.824358
 20
5.043071
 30
0.0
 10
35.165832
 20
5.276020
 30
0.0
 10
34.608095
 20
5.664180
 30
0.0
 10
34.151341
 20
6.207486
 30
0.0
 10
33.795756
 20
6.905865
 30
0.0
 10
33.541535
 20
7.759248
 30
0.0
 10
33.388862
 20
8.767566
 30
0.0
 10
33.337932
 20
9.930754
 30
0.0
 10
33.382029
 20
10.456613
 30
0.0
 10
33.426126
 20
10.982472
 30
0.0
 10
33.470223
 20
11.508331
 30
0.0
 10
33.514321
 20
12.034193
 30
0.0
 10
33.558418
 20
12.560052
 30
0.0
 10
33.602515
 20
13.085911
 30
0.0
 10
33.646612
 20
13.611770
 30
0.0
 10
33.690710
 20
14.137629
 30
0.0
 10
34.831373
 20
15.506133
 30
0.0
 10
35.911449
 20
16.820408
 30
0.0
 10
36.931047
 20
18.080581
 30
0.0
 10
37.890269
 20
19.286782
 30
0.0
 10
38.789223
 20
20.439137
 30
0.0
 10
39.628010
 20
21.537780
 30
0.0
 10
40.406735
 20
22.582835
 30
0.0
 10
41.125501
 20
23.574434
 30
0.0
 10
42.059685
 20
24.883008
 30
0.0
 10
42.933561
 20
26.155201
 30
0.0
 10
43.747140
 20
27.390939
 30
0.0
 10
44.500439
 20
28.590144
 30
0.0
 10
45.193466
 20
29.752736
 30
0.0
 10
45.826237
 20
30.878636
 30
0.0
 10
46.398764
 20
31.967771
 30
0.0
 10
46.911057
 20
33.020059
 30
0.0
 10
47.443906
 20
34.211999
 30
0.0
 10
47.905890
 20
35.375650
 30
0.0
 10
48.296946
 20
36.511109
 30
0.0
 10
48.617025
 20
37.618472
 30
0.0
 10
48.866072
 20
38.697840
 30
0.0
 10
49.044030
 20
39.749309
 30
0.0
 10
49.150849
 20
40.772980
 30
0.0
 10
49.186473
 20
41.768948
 30
0.0
 10
49.165025
 20
42.409945
 30
0.0
 10
49.100647
 20
43.023364
 30
0.0
 10
48.993304
 20
43.609062
 30
0.0
 10
48.842955
 20
44.166906
 30
0.0
 10
48.649557
 20
44.696753
 30
0.0
 10
48.413069
 20
45.198465
 30
0.0
 10
48.133446
 20
45.671904
 30
0.0
 10
47.810646
 20
46.116934
 30
0.0
 10
47.456431
 20
46.536841
 30
0.0
 10
47.082659
 20
46.900643
 30
0.0
 10
46.689391
 20
47.208369
 30
0.0
 10
46.276692
 20
47.460067
 30
0.0
 10
45.844621
 20
47.655765
 30
0.0
 10
45.393240
 20
47.795510
 30
0.0
 10
44.922612
 20
47.879336
 30
0.0
 10
44.432768
 20
47.907276
 30
0.0
  0
LWPOLYLINE
  5
101
100
AcDbEntity
  8
Layer_1
 62
7
100
AcDbPolyline
 90
49
 70
0
 10
43.744851
 20
43.153601
 30
0.0
 10
44.035221
 20
43.116858
 30
0.0
 10
44.286480
 20
43.006707
 30
0.0
 10
44.498757
 20
42.823206
 30
0.0
 10
44.672168
 20
42.566418
 30
0.0
 10
44.806833
 20
42.236407
 30
0.0
 10
44.902876
 20
41.833230
 30
0.0
 10
44.960416
 20
41.356949
 30
0.0
 10
44.979579
 20
40.807629
 30
0.0
 10
44.959259
 20
40.179919
 30
0.0
 10
44.898302
 20
39.537366
 30
0.0
 10
44.796608
 20
38.879890
 30
0.0
 10
44.654103
 20
38.207417
 30
0.0
 10
44.470698
 20
37.519870
 30
0.0
 10
44.246315
 20
36.817173
 30
0.0
 10
43.980870
 20
36.099253
 30
0.0
 10
43.674287
 20
35.366031
 30
0.0
 10
43.344846
 20
34.627205
 30
0.0
 10
42.976509
 20
33.858135
 30
0.0
 10
42.569322
 20
33.058851
 30
0.0
 10
42.123340
 20
32.229385
 30
0.0
 10
41.638615
 20
31.369770
 30
0.0
 10
41.115197
 20
30.480034
 30
0.0
 10
40.553135
 20
29.560215
 30
0.0
 10
39.952481
 20
28.610337
 30
0.0
 10
39.553323
 20
27.991901
 30
0.0
 10
39.079068
 20
27.273933
 30
0.0
 10
38.529635
 20
26.456581
 30
0.0
 10
37.904945
 20
25.540002
 30
0.0
 10
37.204915
 20
24.524352
 30
0.0
 10
36.429467
 20
23.409780
 30
0.0
 10
35.578522
 20
22.196448
 30
0.0
 10
34.651995
 20
20.884504
 30
0.0
 10
34.931629
 20
22.208069
 30
0.0
 10
35.254001
 20
23.594198
 30
0.0
 10
35.619213
 20
25.042851
 30
0.0
 10
36.027368
 20
26.554001
 30
0.0
 10
36.478580
 20
28.127613
 30
0.0
 10
36.972946
 20
29.763658
 30
0.0
 10
37.510579
 20
31.462099
 30
0.0
 10
38.091587
 20
33.222906
 30
0.0
 10
38.918380
 20
35.549261
 30
0.0
 10
39.711077
 20
37.565892
 30
0.0
 10
40.469569
 20
39.272653
 30
0.0
 10
41.193737
 20
40.669410
 30
0.0
 10
41.883463
 20
41.756022
 30
0.0
 10
42.538636
 20
42.532351
 30
0.0
 10
43.159138
 20
42.998257
 30
0.0
 10
43.744851
 20
43.153601
 30
0.0
  0
LWPOLYLINE
  5
102
100
AcDbEntity
  8
Layer_1
 62
7
100
AcDbPolyline
 90
41
 70
0
 10
105.948393
 20
24.747420
 30
0.0
 10
106.319842
 20
24.723685
 30
0.0
 10
106.642010
 20
24.652529
 30
0.0
 10
106.914823
 20
24.533962
 30
0.0
 10
107.138202
 20
24.367995
 30
0.0
 10
107.312073
 20
24.154646
 30
0.0
 10
107.436364
 20
23.893932
 30
0.0
 10
107.510995
 20
23.585867
 30
0.0
 10
107.535887
 20
23.230470
 30
0.0
 10
107.496051
 20
22.712358
 30
0.0
 10
107.376558
 20
22.191909
 30
0.0
 10
107.177414
 20
21.669186
 30
0.0
 10
106.898623
 20
21.144247
 30
0.0
 10
106.540190
 20
20.617157
 30
0.0
 10
106.102116
 20
20.087977
 30
0.0
 10
105.584408
 20
19.556770
 30
0.0
 10
104.987067
 20
19.023595
 30
0.0
 10
104.323080
 20
18.514283
 30
0.0
 10
103.605412
 20
18.020163
 30
0.0
 10
102.834017
 20
17.541195
 30
0.0
 10
102.008855
 20
17.077346
 30
0.0
 10
101.129880
 20
16.628573
 30
0.0
 10
100.197048
 20
16.194840
 30
0.0
 10
99.210314
 20
15.776109
 30
0.0
 10
98.169643
 20
15.372351
 30
0.0
 10
98.399862
 20
16.304093
 30
0.0
 10
98.677270
 20
17.203903
 30
0.0
 10
99.001921
 20
18.071651
 30
0.0
 10
99.373876
 20
18.907218
 30
0.0
 10
99.793188
 20
19.710479
 30
0.0
 10
100.259910
 20
20.481313
 30
0.0
 10
100.774105
 20
21.219592
 30
0.0
 10
101.335823
 20
21.925198
 30
0.0
 10
101.920130
 20
22.587334
 30
0.0
 10
102.502109
 20
23.160914
 30
0.0
 10
103.081819
 20
23.646020
 30
0.0
 10
103.659319
 20
24.042743
 30
0.0
 10
104.234666
 20
24.351158
 30
0.0
 10
104.807921
 20
24.571353
 30
0.0
 10
105.379145
 20
24.703413
 30
0.0
 10
105.948393
 20
24.747420
 30
0.0
  0
ENDSEC
  0
SECTION
  2
OBJECTS
  0
DICTIONARY
  5
C
330
0
100
AcDbDictionary
  3
ACAD_GROUP
350
D
  3
ACAD_MLINESTYLE
350
17
  0
DICTIONARY
  5
D
330
C
100
AcDbDictionary
  0
DICTIONARY
  5
1A
330
C
100
AcDbDictionary
  0
DICTIONARY
  5
17
330
C
100
AcDbDictionary
  3
STANDARD
350
18
  0
DICTIONARY
  5
19
330
C
100
AcDbDictionary
  0
ENDSEC
  0
EOF
