solid OpenSCAD_Model
  facet normal -1 0 0
    outer loop
      vertex -25 -15 0
      vertex -25 -15 3
      vertex -25 11 0
    endloop
  endfacet
  facet normal -1 0 0
    outer loop
      vertex -25 11 0
      vertex -25 -15 3
      vertex -25 11 3
    endloop
  endfacet
  facet normal 0 -1 0
    outer loop
      vertex -25 -15 3
      vertex -25 -15 0
      vertex 30 -15 0
    endloop
  endfacet
  facet normal 0 -1 0
    outer loop
      vertex 30 -15 3
      vertex -25 -15 3
      vertex 30 -15 0
    endloop
  endfacet
  facet normal 0 0 -1
    outer loop
      vertex 1 -1 0
      vertex 6 -5 0
      vertex -2 -2 0
    endloop
  endfacet
  facet normal 0 0 -1
    outer loop
      vertex -7 3 0
      vertex -25 11 0
      vertex 30 11 0
    endloop
  endfacet
  facet normal 0 0 -1
    outer loop
      vertex -25 -15 0
      vertex -25 11 0
      vertex -20 -5 0
    endloop
  endfacet
  facet normal 0 0 -1
    outer loop
      vertex -25 -15 0
      vertex -20 -5 0
      vertex -20 -10 0
    endloop
  endfacet
  facet normal 0 0 -1
    outer loop
      vertex -25 -15 0
      vertex -20 -10 0
      vertex 30 -15 0
    endloop
  endfacet
  facet normal 0 0 -1
    outer loop
      vertex -20 -10 0
      vertex -15 -10 0
      vertex 30 -15 0
    endloop
  endfacet
  facet normal 0 0 -1
    outer loop
      vertex -15 -4 0
      vertex -15 -5 0
      vertex -20 -4 0
    endloop
  endfacet
  facet normal 0 0 -1
    outer loop
      vertex -9 -5 0
      vertex -7 -10 0
      vertex -9 -10 0
    endloop
  endfacet
  facet normal 0 0 -1
    outer loop
      vertex -20 -5 0
      vertex -25 11 0
      vertex -20 -4 0
    endloop
  endfacet
  facet normal 0 0 -1
    outer loop
      vertex -25 11 0
      vertex -20 1 0
      vertex -20 -4 0
    endloop
  endfacet
  facet normal 0 0 -1
    outer loop
      vertex -20 -5 0
      vertex -20 -4 0
      vertex -15 -5 0
    endloop
  endfacet
  facet normal 0 0 -1
    outer loop
      vertex -14 -10 0
      vertex -15 -5 0
      vertex -14 -5 0
    endloop
  endfacet
  facet normal 0 0 -1
    outer loop
      vertex -14 -3 0
      vertex -15 1 0
      vertex -14 2 0
    endloop
  endfacet
  facet normal 0 0 -1
    outer loop
      vertex -15 -5 0
      vertex -15 -4 0
      vertex -14 -5 0
    endloop
  endfacet
  facet normal 0 0 -1
    outer loop
      vertex -15 -10 0
      vertex -14 -10 0
      vertex 30 -15 0
    endloop
  endfacet
  facet normal 0 0 -1
    outer loop
      vertex -14 -10 0
      vertex -9 -10 0
      vertex 30 -15 0
    endloop
  endfacet
  facet normal 0 0 -1
    outer loop
      vertex -9 -3 0
      vertex -9 -5 0
      vertex -14 -3 0
    endloop
  endfacet
  facet normal 0 0 -1
    outer loop
      vertex -15 1 0
      vertex -25 11 0
      vertex -14 2 0
    endloop
  endfacet
  facet normal 0 0 -1
    outer loop
      vertex -15 -4 0
      vertex -15 1 0
      vertex -14 -3 0
    endloop
  endfacet
  facet normal 0 0 -1
    outer loop
      vertex -15 -4 0
      vertex -14 -3 0
      vertex -9 -5 0
    endloop
  endfacet
  facet normal 0 0 -1
    outer loop
      vertex -7 -10 0
      vertex -9 -5 0
      vertex -7 -5 0
    endloop
  endfacet
  facet normal 0 0 -1
    outer loop
      vertex -14 2 0
      vertex -25 11 0
      vertex -9 2 0
    endloop
  endfacet
  facet normal 0 0 -1
    outer loop
      vertex 10 -5 0
      vertex 6 -1 0
      vertex 15 -5 0
    endloop
  endfacet
  facet normal 0 0 -1
    outer loop
      vertex -9 -5 0
      vertex -9 -3 0
      vertex -7 -5 0
    endloop
  endfacet
  facet normal 0 0 -1
    outer loop
      vertex -9 -10 0
      vertex -7 -10 0
      vertex 30 -15 0
    endloop
  endfacet
  facet normal 0 0 -1
    outer loop
      vertex -7 -10 0
      vertex -2 -10 0
      vertex 30 -15 0
    endloop
  endfacet
  facet normal 0 0 -1
    outer loop
      vertex -7 -2 0
      vertex -2 -5 0
      vertex -9 -3 0
    endloop
  endfacet
  facet normal 0 0 -1
    outer loop
      vertex -7 -2 0
      vertex -9 2 0
      vertex -7 3 0
    endloop
  endfacet
  facet normal 0 0 -1
    outer loop
      vertex 1 4 0
      vertex -7 3 0
      vertex 30 11 0
    endloop
  endfacet
  facet normal 0 0 -1
    outer loop
      vertex -9 2 0
      vertex -7 -2 0
      vertex -9 -3 0
    endloop
  endfacet
  facet normal 0 0 -1
    outer loop
      vertex 1 -10 0
      vertex -2 -5 0
      vertex 1 -5 0
    endloop
  endfacet
  facet normal 0 0 -1
    outer loop
      vertex -7 -5 0
      vertex -9 -3 0
      vertex -2 -5 0
    endloop
  endfacet
  facet normal 0 0 -1
    outer loop
      vertex -9 2 0
      vertex -25 11 0
      vertex -7 3 0
    endloop
  endfacet
  facet normal 0 0 -1
    outer loop
      vertex 1 -5 0
      vertex -7 -2 0
      vertex -2 -2 0
    endloop
  endfacet
  facet normal 0 0 -1
    outer loop
      vertex -2 -5 0
      vertex -7 -2 0
      vertex 1 -5 0
    endloop
  endfacet
  facet normal 0 0 -1
    outer loop
      vertex 15 -10 0
      vertex 30 -15 0
      vertex 10 -10 0
    endloop
  endfacet
  facet normal 0 0 -1
    outer loop
      vertex -2 -10 0
      vertex 1 -10 0
      vertex 30 -15 0
    endloop
  endfacet
  facet normal 0 0 -1
    outer loop
      vertex -20 1 0
      vertex -25 11 0
      vertex -15 1 0
    endloop
  endfacet
  facet normal 0 0 -1
    outer loop
      vertex -14 -5 0
      vertex -15 -4 0
      vertex -9 -5 0
    endloop
  endfacet
  facet normal 0 0 -1
    outer loop
      vertex 10 -10 0
      vertex 6 -5 0
      vertex 10 -5 0
    endloop
  endfacet
  facet normal 0 0 -1
    outer loop
      vertex -2 3 0
      vertex -7 3 0
      vertex 1 4 0
    endloop
  endfacet
  facet normal 0 0 -1
    outer loop
      vertex 1 -1 0
      vertex -2 3 0
      vertex 1 4 0
    endloop
  endfacet
  facet normal 0 0 -1
    outer loop
      vertex -2 3 0
      vertex 1 -1 0
      vertex -2 -2 0
    endloop
  endfacet
  facet normal 0 0 -1
    outer loop
      vertex 6 -5 0
      vertex 1 -1 0
      vertex 10 -5 0
    endloop
  endfacet
  facet normal 0 0 -1
    outer loop
      vertex 20 -10 0
      vertex 15 -5 0
      vertex 20 -5 0
    endloop
  endfacet
  facet normal 0 0 -1
    outer loop
      vertex 25 -10 0
      vertex 30 -15 0
      vertex 20 -10 0
    endloop
  endfacet
  facet normal 0 0 -1
    outer loop
      vertex 10 5 0
      vertex 6 4 0
      vertex 30 11 0
    endloop
  endfacet
  facet normal 0 0 -1
    outer loop
      vertex 1 4 0
      vertex 30 11 0
      vertex 6 4 0
    endloop
  endfacet
  facet normal 0 0 -1
    outer loop
      vertex 20 6 0
      vertex 30 11 0
      vertex 25 6 0
    endloop
  endfacet
  facet normal 0 0 -1
    outer loop
      vertex 6 -1 0
      vertex 10 -5 0
      vertex 1 -1 0
    endloop
  endfacet
  facet normal 0 0 -1
    outer loop
      vertex 20 -10 0
      vertex 30 -15 0
      vertex 15 -10 0
    endloop
  endfacet
  facet normal 0 0 -1
    outer loop
      vertex 6 -1 0
      vertex 6 4 0
      vertex 10 5 0
    endloop
  endfacet
  facet normal 0 0 -1
    outer loop
      vertex 15 5 0
      vertex 10 5 0
      vertex 30 11 0
    endloop
  endfacet
  facet normal 0 0 -1
    outer loop
      vertex 15 -5 0
      vertex 6 -1 0
      vertex 10 0 0
    endloop
  endfacet
  facet normal 0 0 -1
    outer loop
      vertex 15 -5 0
      vertex 10 0 0
      vertex 15 0 0
    endloop
  endfacet
  facet normal 0 0 -1
    outer loop
      vertex 20 6 0
      vertex 15 5 0
      vertex 30 11 0
    endloop
  endfacet
  facet normal 0 0 -1
    outer loop
      vertex 25 6 0
      vertex 30 11 0
      vertex 25 1 0
    endloop
  endfacet
  facet normal 0 0 -1
    outer loop
      vertex 1 -5 0
      vertex -2 -2 0
      vertex 6 -5 0
    endloop
  endfacet
  facet normal 0 0 -1
    outer loop
      vertex 10 0 0
      vertex 6 -1 0
      vertex 10 5 0
    endloop
  endfacet
  facet normal 0 0 -1
    outer loop
      vertex 25 1 0
      vertex 15 -5 0
      vertex 20 1 0
    endloop
  endfacet
  facet normal 0 0 -1
    outer loop
      vertex 30 -15 0
      vertex 25 -10 0
      vertex 30 11 0
    endloop
  endfacet
  facet normal 0 0 -1
    outer loop
      vertex 25 -10 0
      vertex 25 -5 0
      vertex 30 11 0
    endloop
  endfacet
  facet normal 0 0 -1
    outer loop
      vertex 15 5 0
      vertex 20 6 0
      vertex 15 0 0
    endloop
  endfacet
  facet normal 0 0 -1
    outer loop
      vertex 20 1 0
      vertex 15 0 0
      vertex 20 6 0
    endloop
  endfacet
  facet normal 0 0 -1
    outer loop
      vertex 15 -5 0
      vertex 15 0 0
      vertex 20 1 0
    endloop
  endfacet
  facet normal 0 0 -1
    outer loop
      vertex 25 -5 0
      vertex 20 -5 0
      vertex 25 1 0
    endloop
  endfacet
  facet normal 0 0 -1
    outer loop
      vertex 25 -5 0
      vertex 25 1 0
      vertex 30 11 0
    endloop
  endfacet
  facet normal 0 0 -1
    outer loop
      vertex 25 1 0
      vertex 20 -5 0
      vertex 15 -5 0
    endloop
  endfacet
  facet normal 0 0 -1
    outer loop
      vertex 6 -10 0
      vertex 30 -15 0
      vertex 1 -10 0
    endloop
  endfacet
  facet normal 0 0 -1
    outer loop
      vertex 6 -5 0
      vertex 10 -10 0
      vertex 6 -10 0
    endloop
  endfacet
  facet normal 0 0 -1
    outer loop
      vertex 15 -5 0
      vertex 20 -10 0
      vertex 15 -10 0
    endloop
  endfacet
  facet normal 0 0 -1
    outer loop
      vertex -2 -5 0
      vertex 1 -10 0
      vertex -2 -10 0
    endloop
  endfacet
  facet normal 0 0 -1
    outer loop
      vertex 10 -10 0
      vertex 30 -15 0
      vertex 6 -10 0
    endloop
  endfacet
  facet normal 0 0 -1
    outer loop
      vertex -15 -5 0
      vertex -14 -10 0
      vertex -15 -10 0
    endloop
  endfacet
  facet normal 0 1 0
    outer loop
      vertex -25 11 0
      vertex -25 11 3
      vertex 30 11 0
    endloop
  endfacet
  facet normal 0 1 0
    outer loop
      vertex 30 11 0
      vertex -25 11 3
      vertex 30 11 3
    endloop
  endfacet
  facet normal 0 0 1
    outer loop
      vertex -20 -10 3
      vertex -25 -15 3
      vertex 30 -15 3
    endloop
  endfacet
  facet normal 0 0 1
    outer loop
      vertex 20 -10 3
      vertex 20 -5 3
      vertex 15 -5 3
    endloop
  endfacet
  facet normal 0 0 1
    outer loop
      vertex -15 -10 3
      vertex -20 -10 3
      vertex 30 -15 3
    endloop
  endfacet
  facet normal 0 0 1
    outer loop
      vertex -25 11 3
      vertex -25 -15 3
      vertex -20 -10 3
    endloop
  endfacet
  facet normal 0 0 1
    outer loop
      vertex -14 -10 3
      vertex -14 -5 3
      vertex -15 -5 3
    endloop
  endfacet
  facet normal 0 0 1
    outer loop
      vertex -25 11 3
      vertex -20 -10 3
      vertex -20 -5 3
    endloop
  endfacet
  facet normal 0 0 1
    outer loop
      vertex -7 -10 3
      vertex -7 -5 3
      vertex -9 -5 3
    endloop
  endfacet
  facet normal 0 0 1
    outer loop
      vertex -20 -4 3
      vertex -20 -5 3
      vertex -15 -5 3
    endloop
  endfacet
  facet normal 0 0 1
    outer loop
      vertex -14 -10 3
      vertex -15 -10 3
      vertex 30 -15 3
    endloop
  endfacet
  facet normal 0 0 1
    outer loop
      vertex -25 11 3
      vertex -20 -5 3
      vertex -20 -4 3
    endloop
  endfacet
  facet normal 0 0 1
    outer loop
      vertex -20 1 3
      vertex -15 1 3
      vertex -25 11 3
    endloop
  endfacet
  facet normal 0 0 1
    outer loop
      vertex -25 11 3
      vertex -20 -4 3
      vertex -20 1 3
    endloop
  endfacet
  facet normal 0 0 1
    outer loop
      vertex 10 -10 3
      vertex 6 -10 3
      vertex 30 -15 3
    endloop
  endfacet
  facet normal 0 0 1
    outer loop
      vertex -14 -3 3
      vertex -14 2 3
      vertex -15 1 3
    endloop
  endfacet
  facet normal 0 0 1
    outer loop
      vertex -9 -10 3
      vertex -14 -10 3
      vertex 30 -15 3
    endloop
  endfacet
  facet normal 0 0 1
    outer loop
      vertex 6 -5 3
      vertex 6 -10 3
      vertex 10 -10 3
    endloop
  endfacet
  facet normal 0 0 1
    outer loop
      vertex -15 -4 3
      vertex -15 -5 3
      vertex -14 -5 3
    endloop
  endfacet
  facet normal 0 0 1
    outer loop
      vertex -9 2 3
      vertex -7 3 3
      vertex -25 11 3
    endloop
  endfacet
  facet normal 0 0 1
    outer loop
      vertex -14 -3 3
      vertex -15 -4 3
      vertex -9 -5 3
    endloop
  endfacet
  facet normal 0 0 1
    outer loop
      vertex -7 -10 3
      vertex -9 -10 3
      vertex 30 -15 3
    endloop
  endfacet
  facet normal 0 0 1
    outer loop
      vertex 15 -5 3
      vertex 15 -10 3
      vertex 20 -10 3
    endloop
  endfacet
  facet normal 0 0 1
    outer loop
      vertex -15 1 3
      vertex -15 -4 3
      vertex -14 -3 3
    endloop
  endfacet
  facet normal 0 0 1
    outer loop
      vertex 10 -5 3
      vertex 15 -5 3
      vertex 6 -1 3
    endloop
  endfacet
  facet normal 0 0 1
    outer loop
      vertex -25 11 3
      vertex -15 1 3
      vertex -14 2 3
    endloop
  endfacet
  facet normal 0 0 1
    outer loop
      vertex -25 11 3
      vertex -14 2 3
      vertex -9 2 3
    endloop
  endfacet
  facet normal 0 0 1
    outer loop
      vertex 15 -10 3
      vertex 10 -10 3
      vertex 30 -15 3
    endloop
  endfacet
  facet normal 0 0 1
    outer loop
      vertex -2 -10 3
      vertex -7 -10 3
      vertex 30 -15 3
    endloop
  endfacet
  facet normal 0 0 1
    outer loop
      vertex -15 -4 3
      vertex -20 -4 3
      vertex -15 -5 3
    endloop
  endfacet
  facet normal 0 0 1
    outer loop
      vertex 1 -5 3
      vertex 6 -5 3
      vertex -2 -2 3
    endloop
  endfacet
  facet normal 0 0 1
    outer loop
      vertex -9 -3 3
      vertex -9 -5 3
      vertex -7 -5 3
    endloop
  endfacet
  facet normal 0 0 1
    outer loop
      vertex 1 -5 3
      vertex -2 -2 3
      vertex -7 -2 3
    endloop
  endfacet
  facet normal 0 0 1
    outer loop
      vertex -7 -2 3
      vertex -9 -3 3
      vertex -2 -5 3
    endloop
  endfacet
  facet normal 0 0 1
    outer loop
      vertex 1 -10 3
      vertex -2 -10 3
      vertex 30 -15 3
    endloop
  endfacet
  facet normal 0 0 1
    outer loop
      vertex -9 -3 3
      vertex -14 -3 3
      vertex -9 -5 3
    endloop
  endfacet
  facet normal 0 0 1
    outer loop
      vertex 15 0 3
      vertex 10 0 3
      vertex 20 -5 3
    endloop
  endfacet
  facet normal 0 0 1
    outer loop
      vertex -2 3 3
      vertex -2 -2 3
      vertex 1 -1 3
    endloop
  endfacet
  facet normal 0 0 1
    outer loop
      vertex 30 11 3
      vertex -25 11 3
      vertex -7 3 3
    endloop
  endfacet
  facet normal 0 0 1
    outer loop
      vertex 1 -1 3
      vertex 1 4 3
      vertex -2 3 3
    endloop
  endfacet
  facet normal 0 0 1
    outer loop
      vertex 1 4 3
      vertex -7 3 3
      vertex -2 3 3
    endloop
  endfacet
  facet normal 0 0 1
    outer loop
      vertex -9 2 3
      vertex -9 -3 3
      vertex -7 -2 3
    endloop
  endfacet
  facet normal 0 0 1
    outer loop
      vertex -7 -2 3
      vertex -2 -5 3
      vertex 1 -5 3
    endloop
  endfacet
  facet normal 0 0 1
    outer loop
      vertex 1 4 3
      vertex 6 4 3
      vertex 30 11 3
    endloop
  endfacet
  facet normal 0 0 1
    outer loop
      vertex 1 -1 3
      vertex -2 -2 3
      vertex 6 -5 3
    endloop
  endfacet
  facet normal 0 0 1
    outer loop
      vertex 6 -5 3
      vertex 10 -5 3
      vertex 1 -1 3
    endloop
  endfacet
  facet normal 0 0 1
    outer loop
      vertex 20 -10 3
      vertex 15 -10 3
      vertex 30 -15 3
    endloop
  endfacet
  facet normal 0 0 1
    outer loop
      vertex 30 11 3
      vertex -7 3 3
      vertex 1 4 3
    endloop
  endfacet
  facet normal 0 0 1
    outer loop
      vertex 10 0 3
      vertex 10 5 3
      vertex 6 4 3
    endloop
  endfacet
  facet normal 0 0 1
    outer loop
      vertex 20 -5 3
      vertex 25 -5 3
      vertex 15 5 3
    endloop
  endfacet
  facet normal 0 0 1
    outer loop
      vertex -7 -5 3
      vertex -2 -5 3
      vertex -9 -3 3
    endloop
  endfacet
  facet normal 0 0 1
    outer loop
      vertex 1 -10 3
      vertex 1 -5 3
      vertex -2 -5 3
    endloop
  endfacet
  facet normal 0 0 1
    outer loop
      vertex 15 -5 3
      vertex 20 -5 3
      vertex 10 0 3
    endloop
  endfacet
  facet normal 0 0 1
    outer loop
      vertex 10 0 3
      vertex 6 -1 3
      vertex 15 -5 3
    endloop
  endfacet
  facet normal 0 0 1
    outer loop
      vertex 25 -5 3
      vertex 25 -10 3
      vertex 30 -15 3
    endloop
  endfacet
  facet normal 0 0 1
    outer loop
      vertex 6 -1 3
      vertex 1 -1 3
      vertex 10 -5 3
    endloop
  endfacet
  facet normal 0 0 1
    outer loop
      vertex 6 4 3
      vertex 6 -1 3
      vertex 10 0 3
    endloop
  endfacet
  facet normal 0 0 1
    outer loop
      vertex 30 11 3
      vertex 6 4 3
      vertex 10 5 3
    endloop
  endfacet
  facet normal 0 0 1
    outer loop
      vertex 30 11 3
      vertex 10 5 3
      vertex 15 5 3
    endloop
  endfacet
  facet normal 0 0 1
    outer loop
      vertex 25 -10 3
      vertex 20 -10 3
      vertex 30 -15 3
    endloop
  endfacet
  facet normal 0 0 1
    outer loop
      vertex 15 5 3
      vertex 15 0 3
      vertex 20 -5 3
    endloop
  endfacet
  facet normal 0 0 1
    outer loop
      vertex 30 11 3
      vertex 25 -5 3
      vertex 30 -15 3
    endloop
  endfacet
  facet normal 0 0 1
    outer loop
      vertex 20 1 3
      vertex 15 5 3
      vertex 25 -5 3
    endloop
  endfacet
  facet normal 0 0 1
    outer loop
      vertex 25 1 3
      vertex 20 1 3
      vertex 25 -5 3
    endloop
  endfacet
  facet normal 0 0 1
    outer loop
      vertex 20 6 3
      vertex 15 5 3
      vertex 20 1 3
    endloop
  endfacet
  facet normal 0 0 1
    outer loop
      vertex 30 11 3
      vertex 15 5 3
      vertex 20 6 3
    endloop
  endfacet
  facet normal 0 0 1
    outer loop
      vertex 30 11 3
      vertex 20 6 3
      vertex 25 6 3
    endloop
  endfacet
  facet normal 0 0 1
    outer loop
      vertex 30 11 3
      vertex 25 1 3
      vertex 25 -5 3
    endloop
  endfacet
  facet normal 0 0 1
    outer loop
      vertex 30 11 3
      vertex 25 6 3
      vertex 25 1 3
    endloop
  endfacet
  facet normal 0 0 1
    outer loop
      vertex 6 -10 3
      vertex 1 -10 3
      vertex 30 -15 3
    endloop
  endfacet
  facet normal 0 0 1
    outer loop
      vertex -14 -5 3
      vertex -9 -5 3
      vertex -15 -4 3
    endloop
  endfacet
  facet normal 0 0 1
    outer loop
      vertex 10 -10 3
      vertex 10 -5 3
      vertex 6 -5 3
    endloop
  endfacet
  facet normal 0 0 1
    outer loop
      vertex -2 -5 3
      vertex -2 -10 3
      vertex 1 -10 3
    endloop
  endfacet
  facet normal 0 0 1
    outer loop
      vertex -7 -2 3
      vertex -7 3 3
      vertex -9 2 3
    endloop
  endfacet
  facet normal 0 0 1
    outer loop
      vertex -9 -5 3
      vertex -9 -10 3
      vertex -7 -10 3
    endloop
  endfacet
  facet normal 0 0 1
    outer loop
      vertex -15 -5 3
      vertex -15 -10 3
      vertex -14 -10 3
    endloop
  endfacet
  facet normal 1 0 0
    outer loop
      vertex 30 -15 3
      vertex 30 -15 0
      vertex 30 11 0
    endloop
  endfacet
  facet normal 1 0 0
    outer loop
      vertex 30 11 3
      vertex 30 -15 3
      vertex 30 11 0
    endloop
  endfacet
  facet normal 1 0 0
    outer loop
      vertex -20 -5 0
      vertex -20 -5 3
      vertex -20 -10 3
    endloop
  endfacet
  facet normal 1 0 0
    outer loop
      vertex -20 -10 0
      vertex -20 -5 0
      vertex -20 -10 3
    endloop
  endfacet
  facet normal 0 -1 0
    outer loop
      vertex -15 -5 0
      vertex -15 -5 3
      vertex -20 -5 3
    endloop
  endfacet
  facet normal 0 -1 0
    outer loop
      vertex -20 -5 0
      vertex -15 -5 0
      vertex -20 -5 3
    endloop
  endfacet
  facet normal -1 0 0
    outer loop
      vertex -15 -5 3
      vertex -15 -5 0
      vertex -15 -10 3
    endloop
  endfacet
  facet normal -1 0 0
    outer loop
      vertex -15 -10 3
      vertex -15 -5 0
      vertex -15 -10 0
    endloop
  endfacet
  facet normal 0 1 0
    outer loop
      vertex -15 -10 3
      vertex -15 -10 0
      vertex -20 -10 3
    endloop
  endfacet
  facet normal 0 1 0
    outer loop
      vertex -20 -10 3
      vertex -15 -10 0
      vertex -20 -10 0
    endloop
  endfacet
  facet normal 1 0 0
    outer loop
      vertex -20 1 0
      vertex -20 1 3
      vertex -20 -4 3
    endloop
  endfacet
  facet normal 1 0 0
    outer loop
      vertex -20 -4 0
      vertex -20 1 0
      vertex -20 -4 3
    endloop
  endfacet
  facet normal 0 -1 0
    outer loop
      vertex -15 1 0
      vertex -15 1 3
      vertex -20 1 3
    endloop
  endfacet
  facet normal 0 -1 0
    outer loop
      vertex -20 1 0
      vertex -15 1 0
      vertex -20 1 3
    endloop
  endfacet
  facet normal -1 0 0
    outer loop
      vertex -15 1 3
      vertex -15 1 0
      vertex -15 -4 3
    endloop
  endfacet
  facet normal -1 0 0
    outer loop
      vertex -15 -4 3
      vertex -15 1 0
      vertex -15 -4 0
    endloop
  endfacet
  facet normal 0 1 0
    outer loop
      vertex -15 -4 3
      vertex -15 -4 0
      vertex -20 -4 3
    endloop
  endfacet
  facet normal 0 1 0
    outer loop
      vertex -20 -4 3
      vertex -15 -4 0
      vertex -20 -4 0
    endloop
  endfacet
  facet normal 1 0 0
    outer loop
      vertex -14 -5 0
      vertex -14 -5 3
      vertex -14 -10 3
    endloop
  endfacet
  facet normal 1 0 0
    outer loop
      vertex -14 -10 0
      vertex -14 -5 0
      vertex -14 -10 3
    endloop
  endfacet
  facet normal 0 -1 0
    outer loop
      vertex -9 -5 0
      vertex -9 -5 3
      vertex -14 -5 3
    endloop
  endfacet
  facet normal 0 -1 0
    outer loop
      vertex -14 -5 0
      vertex -9 -5 0
      vertex -14 -5 3
    endloop
  endfacet
  facet normal -1 0 0
    outer loop
      vertex -9 -5 3
      vertex -9 -5 0
      vertex -9 -10 3
    endloop
  endfacet
  facet normal -1 0 0
    outer loop
      vertex -9 -10 3
      vertex -9 -5 0
      vertex -9 -10 0
    endloop
  endfacet
  facet normal 0 1 0
    outer loop
      vertex -9 -10 3
      vertex -9 -10 0
      vertex -14 -10 3
    endloop
  endfacet
  facet normal 0 1 0
    outer loop
      vertex -14 -10 3
      vertex -9 -10 0
      vertex -14 -10 0
    endloop
  endfacet
  facet normal 1 0 0
    outer loop
      vertex -14 2 0
      vertex -14 2 3
      vertex -14 -3 3
    endloop
  endfacet
  facet normal 1 0 0
    outer loop
      vertex -14 -3 0
      vertex -14 2 0
      vertex -14 -3 3
    endloop
  endfacet
  facet normal 0 -1 0
    outer loop
      vertex -9 2 0
      vertex -9 2 3
      vertex -14 2 3
    endloop
  endfacet
  facet normal 0 -1 0
    outer loop
      vertex -14 2 0
      vertex -9 2 0
      vertex -14 2 3
    endloop
  endfacet
  facet normal -1 0 0
    outer loop
      vertex -9 2 3
      vertex -9 2 0
      vertex -9 -3 3
    endloop
  endfacet
  facet normal -1 0 0
    outer loop
      vertex -9 -3 3
      vertex -9 2 0
      vertex -9 -3 0
    endloop
  endfacet
  facet normal 0 1 0
    outer loop
      vertex -9 -3 3
      vertex -9 -3 0
      vertex -14 -3 3
    endloop
  endfacet
  facet normal 0 1 0
    outer loop
      vertex -14 -3 3
      vertex -9 -3 0
      vertex -14 -3 0
    endloop
  endfacet
  facet normal 1 0 0
    outer loop
      vertex -7 -5 0
      vertex -7 -5 3
      vertex -7 -10 3
    endloop
  endfacet
  facet normal 1 0 0
    outer loop
      vertex -7 -10 0
      vertex -7 -5 0
      vertex -7 -10 3
    endloop
  endfacet
  facet normal 0 -1 0
    outer loop
      vertex -2 -5 0
      vertex -2 -5 3
      vertex -7 -5 3
    endloop
  endfacet
  facet normal 0 -1 0
    outer loop
      vertex -7 -5 0
      vertex -2 -5 0
      vertex -7 -5 3
    endloop
  endfacet
  facet normal -1 0 0
    outer loop
      vertex -2 -5 3
      vertex -2 -5 0
      vertex -2 -10 3
    endloop
  endfacet
  facet normal -1 0 0
    outer loop
      vertex -2 -10 3
      vertex -2 -5 0
      vertex -2 -10 0
    endloop
  endfacet
  facet normal 0 1 0
    outer loop
      vertex -2 -10 3
      vertex -2 -10 0
      vertex -7 -10 3
    endloop
  endfacet
  facet normal 0 1 0
    outer loop
      vertex -7 -10 3
      vertex -2 -10 0
      vertex -7 -10 0
    endloop
  endfacet
  facet normal 1 0 0
    outer loop
      vertex -7 3 0
      vertex -7 3 3
      vertex -7 -2 3
    endloop
  endfacet
  facet normal 1 0 0
    outer loop
      vertex -7 -2 0
      vertex -7 3 0
      vertex -7 -2 3
    endloop
  endfacet
  facet normal 0 -1 0
    outer loop
      vertex -2 3 0
      vertex -2 3 3
      vertex -7 3 3
    endloop
  endfacet
  facet normal 0 -1 0
    outer loop
      vertex -7 3 0
      vertex -2 3 0
      vertex -7 3 3
    endloop
  endfacet
  facet normal -1 0 0
    outer loop
      vertex -2 3 3
      vertex -2 3 0
      vertex -2 -2 3
    endloop
  endfacet
  facet normal -1 0 0
    outer loop
      vertex -2 -2 3
      vertex -2 3 0
      vertex -2 -2 0
    endloop
  endfacet
  facet normal 0 1 0
    outer loop
      vertex -2 -2 3
      vertex -2 -2 0
      vertex -7 -2 3
    endloop
  endfacet
  facet normal 0 1 0
    outer loop
      vertex -7 -2 3
      vertex -2 -2 0
      vertex -7 -2 0
    endloop
  endfacet
  facet normal 1 0 0
    outer loop
      vertex 1 -5 0
      vertex 1 -5 3
      vertex 1 -10 3
    endloop
  endfacet
  facet normal 1 0 0
    outer loop
      vertex 1 -10 0
      vertex 1 -5 0
      vertex 1 -10 3
    endloop
  endfacet
  facet normal 0 -1 0
    outer loop
      vertex 6 -5 0
      vertex 6 -5 3
      vertex 1 -5 3
    endloop
  endfacet
  facet normal 0 -1 0
    outer loop
      vertex 1 -5 0
      vertex 6 -5 0
      vertex 1 -5 3
    endloop
  endfacet
  facet normal -1 0 0
    outer loop
      vertex 6 -5 3
      vertex 6 -5 0
      vertex 6 -10 3
    endloop
  endfacet
  facet normal -1 0 0
    outer loop
      vertex 6 -10 3
      vertex 6 -5 0
      vertex 6 -10 0
    endloop
  endfacet
  facet normal 0 1 0
    outer loop
      vertex 6 -10 3
      vertex 6 -10 0
      vertex 1 -10 3
    endloop
  endfacet
  facet normal 0 1 0
    outer loop
      vertex 1 -10 3
      vertex 6 -10 0
      vertex 1 -10 0
    endloop
  endfacet
  facet normal 1 0 0
    outer loop
      vertex 1 4 0
      vertex 1 4 3
      vertex 1 -1 3
    endloop
  endfacet
  facet normal 1 0 0
    outer loop
      vertex 1 -1 0
      vertex 1 4 0
      vertex 1 -1 3
    endloop
  endfacet
  facet normal 0 -1 0
    outer loop
      vertex 6 4 0
      vertex 6 4 3
      vertex 1 4 3
    endloop
  endfacet
  facet normal 0 -1 0
    outer loop
      vertex 1 4 0
      vertex 6 4 0
      vertex 1 4 3
    endloop
  endfacet
  facet normal -1 0 0
    outer loop
      vertex 6 4 3
      vertex 6 4 0
      vertex 6 -1 3
    endloop
  endfacet
  facet normal -1 0 0
    outer loop
      vertex 6 -1 3
      vertex 6 4 0
      vertex 6 -1 0
    endloop
  endfacet
  facet normal 0 1 0
    outer loop
      vertex 6 -1 3
      vertex 6 -1 0
      vertex 1 -1 3
    endloop
  endfacet
  facet normal 0 1 0
    outer loop
      vertex 1 -1 3
      vertex 6 -1 0
      vertex 1 -1 0
    endloop
  endfacet
  facet normal 1 0 0
    outer loop
      vertex 10 -5 0
      vertex 10 -5 3
      vertex 10 -10 3
    endloop
  endfacet
  facet normal 1 0 0
    outer loop
      vertex 10 -10 0
      vertex 10 -5 0
      vertex 10 -10 3
    endloop
  endfacet
  facet normal 0 -1 0
    outer loop
      vertex 15 -5 0
      vertex 15 -5 3
      vertex 10 -5 3
    endloop
  endfacet
  facet normal 0 -1 0
    outer loop
      vertex 10 -5 0
      vertex 15 -5 0
      vertex 10 -5 3
    endloop
  endfacet
  facet normal -1 0 0
    outer loop
      vertex 15 -5 3
      vertex 15 -5 0
      vertex 15 -10 3
    endloop
  endfacet
  facet normal -1 0 0
    outer loop
      vertex 15 -10 3
      vertex 15 -5 0
      vertex 15 -10 0
    endloop
  endfacet
  facet normal 0 1 0
    outer loop
      vertex 15 -10 3
      vertex 15 -10 0
      vertex 10 -10 3
    endloop
  endfacet
  facet normal 0 1 0
    outer loop
      vertex 10 -10 3
      vertex 15 -10 0
      vertex 10 -10 0
    endloop
  endfacet
  facet normal 1 0 0
    outer loop
      vertex 10 5 0
      vertex 10 5 3
      vertex 10 0 3
    endloop
  endfacet
  facet normal 1 0 0
    outer loop
      vertex 10 0 0
      vertex 10 5 0
      vertex 10 0 3
    endloop
  endfacet
  facet normal 0 -1 0
    outer loop
      vertex 15 5 0
      vertex 15 5 3
      vertex 10 5 3
    endloop
  endfacet
  facet normal 0 -1 0
    outer loop
      vertex 10 5 0
      vertex 15 5 0
      vertex 10 5 3
    endloop
  endfacet
  facet normal -1 0 0
    outer loop
      vertex 15 5 3
      vertex 15 5 0
      vertex 15 0 3
    endloop
  endfacet
  facet normal -1 0 0
    outer loop
      vertex 15 0 3
      vertex 15 5 0
      vertex 15 0 0
    endloop
  endfacet
  facet normal 0 1 0
    outer loop
      vertex 15 0 3
      vertex 15 0 0
      vertex 10 0 3
    endloop
  endfacet
  facet normal 0 1 0
    outer loop
      vertex 10 0 3
      vertex 15 0 0
      vertex 10 0 0
    endloop
  endfacet
  facet normal 1 0 0
    outer loop
      vertex 20 -5 0
      vertex 20 -5 3
      vertex 20 -10 3
    endloop
  endfacet
  facet normal 1 0 0
    outer loop
      vertex 20 -10 0
      vertex 20 -5 0
      vertex 20 -10 3
    endloop
  endfacet
  facet normal 0 -1 0
    outer loop
      vertex 25 -5 0
      vertex 25 -5 3
      vertex 20 -5 3
    endloop
  endfacet
  facet normal 0 -1 0
    outer loop
      vertex 20 -5 0
      vertex 25 -5 0
      vertex 20 -5 3
    endloop
  endfacet
  facet normal -1 0 0
    outer loop
      vertex 25 -5 3
      vertex 25 -5 0
      vertex 25 -10 3
    endloop
  endfacet
  facet normal -1 0 0
    outer loop
      vertex 25 -10 3
      vertex 25 -5 0
      vertex 25 -10 0
    endloop
  endfacet
  facet normal 0 1 0
    outer loop
      vertex 25 -10 3
      vertex 25 -10 0
      vertex 20 -10 3
    endloop
  endfacet
  facet normal 0 1 0
    outer loop
      vertex 20 -10 3
      vertex 25 -10 0
      vertex 20 -10 0
    endloop
  endfacet
  facet normal 1 0 0
    outer loop
      vertex 20 6 0
      vertex 20 6 3
      vertex 20 1 3
    endloop
  endfacet
  facet normal 1 0 0
    outer loop
      vertex 20 1 0
      vertex 20 6 0
      vertex 20 1 3
    endloop
  endfacet
  facet normal 0 -1 0
    outer loop
      vertex 25 6 0
      vertex 25 6 3
      vertex 20 6 3
    endloop
  endfacet
  facet normal 0 -1 0
    outer loop
      vertex 20 6 0
      vertex 25 6 0
      vertex 20 6 3
    endloop
  endfacet
  facet normal -1 0 0
    outer loop
      vertex 25 6 3
      vertex 25 6 0
      vertex 25 1 3
    endloop
  endfacet
  facet normal -1 0 0
    outer loop
      vertex 25 1 3
      vertex 25 6 0
      vertex 25 1 0
    endloop
  endfacet
  facet normal 0 1 0
    outer loop
      vertex 25 1 3
      vertex 25 1 0
      vertex 20 1 3
    endloop
  endfacet
  facet normal 0 1 0
    outer loop
      vertex 20 1 3
      vertex 25 1 0
      vertex 20 1 0
    endloop
  endfacet
endsolid OpenSCAD_Model
